%TF.GenerationSoftware,KiCad,Pcbnew,7.0.9*%
%TF.CreationDate,2025-02-27T11:50:27+00:00*%
%TF.ProjectId,Pi Hat,50692048-6174-42e6-9b69-6361645f7063,rev?*%
%TF.SameCoordinates,Original*%
%TF.FileFunction,Legend,Top*%
%TF.FilePolarity,Positive*%
%FSLAX46Y46*%
G04 Gerber Fmt 4.6, Leading zero omitted, Abs format (unit mm)*
G04 Created by KiCad (PCBNEW 7.0.9) date 2025-02-27 11:50:27*
%MOMM*%
%LPD*%
G01*
G04 APERTURE LIST*
%ADD10C,0.250000*%
%ADD11C,0.150000*%
%ADD12C,0.120000*%
G04 APERTURE END LIST*
D10*
X171900187Y-102517000D02*
X172114473Y-102612238D01*
X172114473Y-102612238D02*
X172471615Y-102612238D01*
X172471615Y-102612238D02*
X172614473Y-102517000D01*
X172614473Y-102517000D02*
X172685901Y-102421761D01*
X172685901Y-102421761D02*
X172757330Y-102231285D01*
X172757330Y-102231285D02*
X172757330Y-102040809D01*
X172757330Y-102040809D02*
X172685901Y-101850333D01*
X172685901Y-101850333D02*
X172614473Y-101755095D01*
X172614473Y-101755095D02*
X172471615Y-101659857D01*
X172471615Y-101659857D02*
X172185901Y-101564619D01*
X172185901Y-101564619D02*
X172043044Y-101469380D01*
X172043044Y-101469380D02*
X171971615Y-101374142D01*
X171971615Y-101374142D02*
X171900187Y-101183666D01*
X171900187Y-101183666D02*
X171900187Y-100993190D01*
X171900187Y-100993190D02*
X171971615Y-100802714D01*
X171971615Y-100802714D02*
X172043044Y-100707476D01*
X172043044Y-100707476D02*
X172185901Y-100612238D01*
X172185901Y-100612238D02*
X172543044Y-100612238D01*
X172543044Y-100612238D02*
X172757330Y-100707476D01*
X173400186Y-101564619D02*
X173900186Y-101564619D01*
X174114472Y-102612238D02*
X173400186Y-102612238D01*
X173400186Y-102612238D02*
X173400186Y-100612238D01*
X173400186Y-100612238D02*
X174114472Y-100612238D01*
X175614472Y-102612238D02*
X175114472Y-101659857D01*
X174757329Y-102612238D02*
X174757329Y-100612238D01*
X174757329Y-100612238D02*
X175328758Y-100612238D01*
X175328758Y-100612238D02*
X175471615Y-100707476D01*
X175471615Y-100707476D02*
X175543044Y-100802714D01*
X175543044Y-100802714D02*
X175614472Y-100993190D01*
X175614472Y-100993190D02*
X175614472Y-101278904D01*
X175614472Y-101278904D02*
X175543044Y-101469380D01*
X175543044Y-101469380D02*
X175471615Y-101564619D01*
X175471615Y-101564619D02*
X175328758Y-101659857D01*
X175328758Y-101659857D02*
X174757329Y-101659857D01*
X176043044Y-100612238D02*
X176543044Y-102612238D01*
X176543044Y-102612238D02*
X177043044Y-100612238D01*
X177828758Y-100612238D02*
X178114472Y-100612238D01*
X178114472Y-100612238D02*
X178257329Y-100707476D01*
X178257329Y-100707476D02*
X178400186Y-100897952D01*
X178400186Y-100897952D02*
X178471615Y-101278904D01*
X178471615Y-101278904D02*
X178471615Y-101945571D01*
X178471615Y-101945571D02*
X178400186Y-102326523D01*
X178400186Y-102326523D02*
X178257329Y-102517000D01*
X178257329Y-102517000D02*
X178114472Y-102612238D01*
X178114472Y-102612238D02*
X177828758Y-102612238D01*
X177828758Y-102612238D02*
X177685901Y-102517000D01*
X177685901Y-102517000D02*
X177543043Y-102326523D01*
X177543043Y-102326523D02*
X177471615Y-101945571D01*
X177471615Y-101945571D02*
X177471615Y-101278904D01*
X177471615Y-101278904D02*
X177543043Y-100897952D01*
X177543043Y-100897952D02*
X177685901Y-100707476D01*
X177685901Y-100707476D02*
X177828758Y-100612238D01*
X159271615Y-102612238D02*
X159271615Y-100612238D01*
X159271615Y-101564619D02*
X160128758Y-101564619D01*
X160128758Y-102612238D02*
X160128758Y-100612238D01*
X161700187Y-102421761D02*
X161628759Y-102517000D01*
X161628759Y-102517000D02*
X161414473Y-102612238D01*
X161414473Y-102612238D02*
X161271616Y-102612238D01*
X161271616Y-102612238D02*
X161057330Y-102517000D01*
X161057330Y-102517000D02*
X160914473Y-102326523D01*
X160914473Y-102326523D02*
X160843044Y-102136047D01*
X160843044Y-102136047D02*
X160771616Y-101755095D01*
X160771616Y-101755095D02*
X160771616Y-101469380D01*
X160771616Y-101469380D02*
X160843044Y-101088428D01*
X160843044Y-101088428D02*
X160914473Y-100897952D01*
X160914473Y-100897952D02*
X161057330Y-100707476D01*
X161057330Y-100707476D02*
X161271616Y-100612238D01*
X161271616Y-100612238D02*
X161414473Y-100612238D01*
X161414473Y-100612238D02*
X161628759Y-100707476D01*
X161628759Y-100707476D02*
X161700187Y-100802714D01*
X162343044Y-101850333D02*
X163485902Y-101850333D01*
X164128759Y-102517000D02*
X164343045Y-102612238D01*
X164343045Y-102612238D02*
X164700187Y-102612238D01*
X164700187Y-102612238D02*
X164843045Y-102517000D01*
X164843045Y-102517000D02*
X164914473Y-102421761D01*
X164914473Y-102421761D02*
X164985902Y-102231285D01*
X164985902Y-102231285D02*
X164985902Y-102040809D01*
X164985902Y-102040809D02*
X164914473Y-101850333D01*
X164914473Y-101850333D02*
X164843045Y-101755095D01*
X164843045Y-101755095D02*
X164700187Y-101659857D01*
X164700187Y-101659857D02*
X164414473Y-101564619D01*
X164414473Y-101564619D02*
X164271616Y-101469380D01*
X164271616Y-101469380D02*
X164200187Y-101374142D01*
X164200187Y-101374142D02*
X164128759Y-101183666D01*
X164128759Y-101183666D02*
X164128759Y-100993190D01*
X164128759Y-100993190D02*
X164200187Y-100802714D01*
X164200187Y-100802714D02*
X164271616Y-100707476D01*
X164271616Y-100707476D02*
X164414473Y-100612238D01*
X164414473Y-100612238D02*
X164771616Y-100612238D01*
X164771616Y-100612238D02*
X164985902Y-100707476D01*
X166485901Y-102612238D02*
X165985901Y-101659857D01*
X165628758Y-102612238D02*
X165628758Y-100612238D01*
X165628758Y-100612238D02*
X166200187Y-100612238D01*
X166200187Y-100612238D02*
X166343044Y-100707476D01*
X166343044Y-100707476D02*
X166414473Y-100802714D01*
X166414473Y-100802714D02*
X166485901Y-100993190D01*
X166485901Y-100993190D02*
X166485901Y-101278904D01*
X166485901Y-101278904D02*
X166414473Y-101469380D01*
X166414473Y-101469380D02*
X166343044Y-101564619D01*
X166343044Y-101564619D02*
X166200187Y-101659857D01*
X166200187Y-101659857D02*
X165628758Y-101659857D01*
X167414473Y-100612238D02*
X167557330Y-100612238D01*
X167557330Y-100612238D02*
X167700187Y-100707476D01*
X167700187Y-100707476D02*
X167771616Y-100802714D01*
X167771616Y-100802714D02*
X167843044Y-100993190D01*
X167843044Y-100993190D02*
X167914473Y-101374142D01*
X167914473Y-101374142D02*
X167914473Y-101850333D01*
X167914473Y-101850333D02*
X167843044Y-102231285D01*
X167843044Y-102231285D02*
X167771616Y-102421761D01*
X167771616Y-102421761D02*
X167700187Y-102517000D01*
X167700187Y-102517000D02*
X167557330Y-102612238D01*
X167557330Y-102612238D02*
X167414473Y-102612238D01*
X167414473Y-102612238D02*
X167271616Y-102517000D01*
X167271616Y-102517000D02*
X167200187Y-102421761D01*
X167200187Y-102421761D02*
X167128758Y-102231285D01*
X167128758Y-102231285D02*
X167057330Y-101850333D01*
X167057330Y-101850333D02*
X167057330Y-101374142D01*
X167057330Y-101374142D02*
X167128758Y-100993190D01*
X167128758Y-100993190D02*
X167200187Y-100802714D01*
X167200187Y-100802714D02*
X167271616Y-100707476D01*
X167271616Y-100707476D02*
X167414473Y-100612238D01*
X169200187Y-101278904D02*
X169200187Y-102612238D01*
X168843044Y-100517000D02*
X168485901Y-101945571D01*
X168485901Y-101945571D02*
X169414472Y-101945571D01*
X183001615Y-102612238D02*
X183001615Y-100612238D01*
X183001615Y-100612238D02*
X183358758Y-100612238D01*
X183358758Y-100612238D02*
X183573044Y-100707476D01*
X183573044Y-100707476D02*
X183715901Y-100897952D01*
X183715901Y-100897952D02*
X183787330Y-101088428D01*
X183787330Y-101088428D02*
X183858758Y-101469380D01*
X183858758Y-101469380D02*
X183858758Y-101755095D01*
X183858758Y-101755095D02*
X183787330Y-102136047D01*
X183787330Y-102136047D02*
X183715901Y-102326523D01*
X183715901Y-102326523D02*
X183573044Y-102517000D01*
X183573044Y-102517000D02*
X183358758Y-102612238D01*
X183358758Y-102612238D02*
X183001615Y-102612238D01*
X184501615Y-102612238D02*
X184501615Y-100612238D01*
X184501615Y-101564619D02*
X185358758Y-101564619D01*
X185358758Y-102612238D02*
X185358758Y-100612238D01*
X186858759Y-102612238D02*
X186001616Y-102612238D01*
X186430187Y-102612238D02*
X186430187Y-100612238D01*
X186430187Y-100612238D02*
X186287330Y-100897952D01*
X186287330Y-100897952D02*
X186144473Y-101088428D01*
X186144473Y-101088428D02*
X186001616Y-101183666D01*
X188287330Y-102612238D02*
X187430187Y-102612238D01*
X187858758Y-102612238D02*
X187858758Y-100612238D01*
X187858758Y-100612238D02*
X187715901Y-100897952D01*
X187715901Y-100897952D02*
X187573044Y-101088428D01*
X187573044Y-101088428D02*
X187430187Y-101183666D01*
X193381615Y-101564619D02*
X192881615Y-101564619D01*
X192881615Y-102612238D02*
X192881615Y-100612238D01*
X192881615Y-100612238D02*
X193595901Y-100612238D01*
X194095901Y-102517000D02*
X194310187Y-102612238D01*
X194310187Y-102612238D02*
X194667329Y-102612238D01*
X194667329Y-102612238D02*
X194810187Y-102517000D01*
X194810187Y-102517000D02*
X194881615Y-102421761D01*
X194881615Y-102421761D02*
X194953044Y-102231285D01*
X194953044Y-102231285D02*
X194953044Y-102040809D01*
X194953044Y-102040809D02*
X194881615Y-101850333D01*
X194881615Y-101850333D02*
X194810187Y-101755095D01*
X194810187Y-101755095D02*
X194667329Y-101659857D01*
X194667329Y-101659857D02*
X194381615Y-101564619D01*
X194381615Y-101564619D02*
X194238758Y-101469380D01*
X194238758Y-101469380D02*
X194167329Y-101374142D01*
X194167329Y-101374142D02*
X194095901Y-101183666D01*
X194095901Y-101183666D02*
X194095901Y-100993190D01*
X194095901Y-100993190D02*
X194167329Y-100802714D01*
X194167329Y-100802714D02*
X194238758Y-100707476D01*
X194238758Y-100707476D02*
X194381615Y-100612238D01*
X194381615Y-100612238D02*
X194738758Y-100612238D01*
X194738758Y-100612238D02*
X194953044Y-100707476D01*
X196453043Y-102612238D02*
X195953043Y-101659857D01*
X195595900Y-102612238D02*
X195595900Y-100612238D01*
X195595900Y-100612238D02*
X196167329Y-100612238D01*
X196167329Y-100612238D02*
X196310186Y-100707476D01*
X196310186Y-100707476D02*
X196381615Y-100802714D01*
X196381615Y-100802714D02*
X196453043Y-100993190D01*
X196453043Y-100993190D02*
X196453043Y-101278904D01*
X196453043Y-101278904D02*
X196381615Y-101469380D01*
X196381615Y-101469380D02*
X196310186Y-101564619D01*
X196310186Y-101564619D02*
X196167329Y-101659857D01*
X196167329Y-101659857D02*
X195595900Y-101659857D01*
D11*
X152497319Y-64032666D02*
X152021128Y-64365999D01*
X152497319Y-64604094D02*
X151497319Y-64604094D01*
X151497319Y-64604094D02*
X151497319Y-64223142D01*
X151497319Y-64223142D02*
X151544938Y-64127904D01*
X151544938Y-64127904D02*
X151592557Y-64080285D01*
X151592557Y-64080285D02*
X151687795Y-64032666D01*
X151687795Y-64032666D02*
X151830652Y-64032666D01*
X151830652Y-64032666D02*
X151925890Y-64080285D01*
X151925890Y-64080285D02*
X151973509Y-64127904D01*
X151973509Y-64127904D02*
X152021128Y-64223142D01*
X152021128Y-64223142D02*
X152021128Y-64604094D01*
X151497319Y-63699332D02*
X151497319Y-63080285D01*
X151497319Y-63080285D02*
X151878271Y-63413618D01*
X151878271Y-63413618D02*
X151878271Y-63270761D01*
X151878271Y-63270761D02*
X151925890Y-63175523D01*
X151925890Y-63175523D02*
X151973509Y-63127904D01*
X151973509Y-63127904D02*
X152068747Y-63080285D01*
X152068747Y-63080285D02*
X152306842Y-63080285D01*
X152306842Y-63080285D02*
X152402080Y-63127904D01*
X152402080Y-63127904D02*
X152449700Y-63175523D01*
X152449700Y-63175523D02*
X152497319Y-63270761D01*
X152497319Y-63270761D02*
X152497319Y-63556475D01*
X152497319Y-63556475D02*
X152449700Y-63651713D01*
X152449700Y-63651713D02*
X152402080Y-63699332D01*
X174926666Y-90894819D02*
X174926666Y-91609104D01*
X174926666Y-91609104D02*
X174879047Y-91751961D01*
X174879047Y-91751961D02*
X174783809Y-91847200D01*
X174783809Y-91847200D02*
X174640952Y-91894819D01*
X174640952Y-91894819D02*
X174545714Y-91894819D01*
X175879047Y-90894819D02*
X175402857Y-90894819D01*
X175402857Y-90894819D02*
X175355238Y-91371009D01*
X175355238Y-91371009D02*
X175402857Y-91323390D01*
X175402857Y-91323390D02*
X175498095Y-91275771D01*
X175498095Y-91275771D02*
X175736190Y-91275771D01*
X175736190Y-91275771D02*
X175831428Y-91323390D01*
X175831428Y-91323390D02*
X175879047Y-91371009D01*
X175879047Y-91371009D02*
X175926666Y-91466247D01*
X175926666Y-91466247D02*
X175926666Y-91704342D01*
X175926666Y-91704342D02*
X175879047Y-91799580D01*
X175879047Y-91799580D02*
X175831428Y-91847200D01*
X175831428Y-91847200D02*
X175736190Y-91894819D01*
X175736190Y-91894819D02*
X175498095Y-91894819D01*
X175498095Y-91894819D02*
X175402857Y-91847200D01*
X175402857Y-91847200D02*
X175355238Y-91799580D01*
X150184819Y-75781904D02*
X150184819Y-75210476D01*
X151184819Y-75496190D02*
X150184819Y-75496190D01*
X151184819Y-74877142D02*
X150184819Y-74877142D01*
X150184819Y-74877142D02*
X150184819Y-74496190D01*
X150184819Y-74496190D02*
X150232438Y-74400952D01*
X150232438Y-74400952D02*
X150280057Y-74353333D01*
X150280057Y-74353333D02*
X150375295Y-74305714D01*
X150375295Y-74305714D02*
X150518152Y-74305714D01*
X150518152Y-74305714D02*
X150613390Y-74353333D01*
X150613390Y-74353333D02*
X150661009Y-74400952D01*
X150661009Y-74400952D02*
X150708628Y-74496190D01*
X150708628Y-74496190D02*
X150708628Y-74877142D01*
X151184819Y-73353333D02*
X151184819Y-73924761D01*
X151184819Y-73639047D02*
X150184819Y-73639047D01*
X150184819Y-73639047D02*
X150327676Y-73734285D01*
X150327676Y-73734285D02*
X150422914Y-73829523D01*
X150422914Y-73829523D02*
X150470533Y-73924761D01*
X203945833Y-83384819D02*
X203612500Y-82908628D01*
X203374405Y-83384819D02*
X203374405Y-82384819D01*
X203374405Y-82384819D02*
X203755357Y-82384819D01*
X203755357Y-82384819D02*
X203850595Y-82432438D01*
X203850595Y-82432438D02*
X203898214Y-82480057D01*
X203898214Y-82480057D02*
X203945833Y-82575295D01*
X203945833Y-82575295D02*
X203945833Y-82718152D01*
X203945833Y-82718152D02*
X203898214Y-82813390D01*
X203898214Y-82813390D02*
X203850595Y-82861009D01*
X203850595Y-82861009D02*
X203755357Y-82908628D01*
X203755357Y-82908628D02*
X203374405Y-82908628D01*
X204898214Y-83384819D02*
X204326786Y-83384819D01*
X204612500Y-83384819D02*
X204612500Y-82384819D01*
X204612500Y-82384819D02*
X204517262Y-82527676D01*
X204517262Y-82527676D02*
X204422024Y-82622914D01*
X204422024Y-82622914D02*
X204326786Y-82670533D01*
X166554819Y-84581904D02*
X167364342Y-84581904D01*
X167364342Y-84581904D02*
X167459580Y-84534285D01*
X167459580Y-84534285D02*
X167507200Y-84486666D01*
X167507200Y-84486666D02*
X167554819Y-84391428D01*
X167554819Y-84391428D02*
X167554819Y-84200952D01*
X167554819Y-84200952D02*
X167507200Y-84105714D01*
X167507200Y-84105714D02*
X167459580Y-84058095D01*
X167459580Y-84058095D02*
X167364342Y-84010476D01*
X167364342Y-84010476D02*
X166554819Y-84010476D01*
X167554819Y-83010476D02*
X167554819Y-83581904D01*
X167554819Y-83296190D02*
X166554819Y-83296190D01*
X166554819Y-83296190D02*
X166697676Y-83391428D01*
X166697676Y-83391428D02*
X166792914Y-83486666D01*
X166792914Y-83486666D02*
X166840533Y-83581904D01*
X189339819Y-87447666D02*
X188863628Y-87780999D01*
X189339819Y-88019094D02*
X188339819Y-88019094D01*
X188339819Y-88019094D02*
X188339819Y-87638142D01*
X188339819Y-87638142D02*
X188387438Y-87542904D01*
X188387438Y-87542904D02*
X188435057Y-87495285D01*
X188435057Y-87495285D02*
X188530295Y-87447666D01*
X188530295Y-87447666D02*
X188673152Y-87447666D01*
X188673152Y-87447666D02*
X188768390Y-87495285D01*
X188768390Y-87495285D02*
X188816009Y-87542904D01*
X188816009Y-87542904D02*
X188863628Y-87638142D01*
X188863628Y-87638142D02*
X188863628Y-88019094D01*
X188435057Y-87066713D02*
X188387438Y-87019094D01*
X188387438Y-87019094D02*
X188339819Y-86923856D01*
X188339819Y-86923856D02*
X188339819Y-86685761D01*
X188339819Y-86685761D02*
X188387438Y-86590523D01*
X188387438Y-86590523D02*
X188435057Y-86542904D01*
X188435057Y-86542904D02*
X188530295Y-86495285D01*
X188530295Y-86495285D02*
X188625533Y-86495285D01*
X188625533Y-86495285D02*
X188768390Y-86542904D01*
X188768390Y-86542904D02*
X189339819Y-87114332D01*
X189339819Y-87114332D02*
X189339819Y-86495285D01*
X189523810Y-84264819D02*
X189523810Y-83264819D01*
X190571428Y-84169580D02*
X190523809Y-84217200D01*
X190523809Y-84217200D02*
X190380952Y-84264819D01*
X190380952Y-84264819D02*
X190285714Y-84264819D01*
X190285714Y-84264819D02*
X190142857Y-84217200D01*
X190142857Y-84217200D02*
X190047619Y-84121961D01*
X190047619Y-84121961D02*
X190000000Y-84026723D01*
X190000000Y-84026723D02*
X189952381Y-83836247D01*
X189952381Y-83836247D02*
X189952381Y-83693390D01*
X189952381Y-83693390D02*
X190000000Y-83502914D01*
X190000000Y-83502914D02*
X190047619Y-83407676D01*
X190047619Y-83407676D02*
X190142857Y-83312438D01*
X190142857Y-83312438D02*
X190285714Y-83264819D01*
X190285714Y-83264819D02*
X190380952Y-83264819D01*
X190380952Y-83264819D02*
X190523809Y-83312438D01*
X190523809Y-83312438D02*
X190571428Y-83360057D01*
X191523809Y-84264819D02*
X190952381Y-84264819D01*
X191238095Y-84264819D02*
X191238095Y-83264819D01*
X191238095Y-83264819D02*
X191142857Y-83407676D01*
X191142857Y-83407676D02*
X191047619Y-83502914D01*
X191047619Y-83502914D02*
X190952381Y-83550533D01*
X187855819Y-87717094D02*
X186855819Y-87717094D01*
X186855819Y-87717094D02*
X186855819Y-87478999D01*
X186855819Y-87478999D02*
X186903438Y-87336142D01*
X186903438Y-87336142D02*
X186998676Y-87240904D01*
X186998676Y-87240904D02*
X187093914Y-87193285D01*
X187093914Y-87193285D02*
X187284390Y-87145666D01*
X187284390Y-87145666D02*
X187427247Y-87145666D01*
X187427247Y-87145666D02*
X187617723Y-87193285D01*
X187617723Y-87193285D02*
X187712961Y-87240904D01*
X187712961Y-87240904D02*
X187808200Y-87336142D01*
X187808200Y-87336142D02*
X187855819Y-87478999D01*
X187855819Y-87478999D02*
X187855819Y-87717094D01*
X187855819Y-86193285D02*
X187855819Y-86764713D01*
X187855819Y-86478999D02*
X186855819Y-86478999D01*
X186855819Y-86478999D02*
X186998676Y-86574237D01*
X186998676Y-86574237D02*
X187093914Y-86669475D01*
X187093914Y-86669475D02*
X187141533Y-86764713D01*
X152522319Y-66412094D02*
X151522319Y-66412094D01*
X151522319Y-66412094D02*
X151522319Y-66173999D01*
X151522319Y-66173999D02*
X151569938Y-66031142D01*
X151569938Y-66031142D02*
X151665176Y-65935904D01*
X151665176Y-65935904D02*
X151760414Y-65888285D01*
X151760414Y-65888285D02*
X151950890Y-65840666D01*
X151950890Y-65840666D02*
X152093747Y-65840666D01*
X152093747Y-65840666D02*
X152284223Y-65888285D01*
X152284223Y-65888285D02*
X152379461Y-65935904D01*
X152379461Y-65935904D02*
X152474700Y-66031142D01*
X152474700Y-66031142D02*
X152522319Y-66173999D01*
X152522319Y-66173999D02*
X152522319Y-66412094D01*
X151617557Y-65459713D02*
X151569938Y-65412094D01*
X151569938Y-65412094D02*
X151522319Y-65316856D01*
X151522319Y-65316856D02*
X151522319Y-65078761D01*
X151522319Y-65078761D02*
X151569938Y-64983523D01*
X151569938Y-64983523D02*
X151617557Y-64935904D01*
X151617557Y-64935904D02*
X151712795Y-64888285D01*
X151712795Y-64888285D02*
X151808033Y-64888285D01*
X151808033Y-64888285D02*
X151950890Y-64935904D01*
X151950890Y-64935904D02*
X152522319Y-65507332D01*
X152522319Y-65507332D02*
X152522319Y-64888285D01*
X159686666Y-90894819D02*
X159686666Y-91609104D01*
X159686666Y-91609104D02*
X159639047Y-91751961D01*
X159639047Y-91751961D02*
X159543809Y-91847200D01*
X159543809Y-91847200D02*
X159400952Y-91894819D01*
X159400952Y-91894819D02*
X159305714Y-91894819D01*
X160686666Y-91894819D02*
X160115238Y-91894819D01*
X160400952Y-91894819D02*
X160400952Y-90894819D01*
X160400952Y-90894819D02*
X160305714Y-91037676D01*
X160305714Y-91037676D02*
X160210476Y-91132914D01*
X160210476Y-91132914D02*
X160115238Y-91180533D01*
X182546666Y-90894819D02*
X182546666Y-91609104D01*
X182546666Y-91609104D02*
X182499047Y-91751961D01*
X182499047Y-91751961D02*
X182403809Y-91847200D01*
X182403809Y-91847200D02*
X182260952Y-91894819D01*
X182260952Y-91894819D02*
X182165714Y-91894819D01*
X182927619Y-90894819D02*
X183546666Y-90894819D01*
X183546666Y-90894819D02*
X183213333Y-91275771D01*
X183213333Y-91275771D02*
X183356190Y-91275771D01*
X183356190Y-91275771D02*
X183451428Y-91323390D01*
X183451428Y-91323390D02*
X183499047Y-91371009D01*
X183499047Y-91371009D02*
X183546666Y-91466247D01*
X183546666Y-91466247D02*
X183546666Y-91704342D01*
X183546666Y-91704342D02*
X183499047Y-91799580D01*
X183499047Y-91799580D02*
X183451428Y-91847200D01*
X183451428Y-91847200D02*
X183356190Y-91894819D01*
X183356190Y-91894819D02*
X183070476Y-91894819D01*
X183070476Y-91894819D02*
X182975238Y-91847200D01*
X182975238Y-91847200D02*
X182927619Y-91799580D01*
X208734819Y-55881904D02*
X208734819Y-55310476D01*
X209734819Y-55596190D02*
X208734819Y-55596190D01*
X209734819Y-54977142D02*
X208734819Y-54977142D01*
X208734819Y-54977142D02*
X208734819Y-54596190D01*
X208734819Y-54596190D02*
X208782438Y-54500952D01*
X208782438Y-54500952D02*
X208830057Y-54453333D01*
X208830057Y-54453333D02*
X208925295Y-54405714D01*
X208925295Y-54405714D02*
X209068152Y-54405714D01*
X209068152Y-54405714D02*
X209163390Y-54453333D01*
X209163390Y-54453333D02*
X209211009Y-54500952D01*
X209211009Y-54500952D02*
X209258628Y-54596190D01*
X209258628Y-54596190D02*
X209258628Y-54977142D01*
X208734819Y-54072380D02*
X208734819Y-53453333D01*
X208734819Y-53453333D02*
X209115771Y-53786666D01*
X209115771Y-53786666D02*
X209115771Y-53643809D01*
X209115771Y-53643809D02*
X209163390Y-53548571D01*
X209163390Y-53548571D02*
X209211009Y-53500952D01*
X209211009Y-53500952D02*
X209306247Y-53453333D01*
X209306247Y-53453333D02*
X209544342Y-53453333D01*
X209544342Y-53453333D02*
X209639580Y-53500952D01*
X209639580Y-53500952D02*
X209687200Y-53548571D01*
X209687200Y-53548571D02*
X209734819Y-53643809D01*
X209734819Y-53643809D02*
X209734819Y-53929523D01*
X209734819Y-53929523D02*
X209687200Y-54024761D01*
X209687200Y-54024761D02*
X209639580Y-54072380D01*
X184818095Y-79534819D02*
X185389523Y-79534819D01*
X185103809Y-80534819D02*
X185103809Y-79534819D01*
X185722857Y-80534819D02*
X185722857Y-79534819D01*
X185722857Y-79534819D02*
X186103809Y-79534819D01*
X186103809Y-79534819D02*
X186199047Y-79582438D01*
X186199047Y-79582438D02*
X186246666Y-79630057D01*
X186246666Y-79630057D02*
X186294285Y-79725295D01*
X186294285Y-79725295D02*
X186294285Y-79868152D01*
X186294285Y-79868152D02*
X186246666Y-79963390D01*
X186246666Y-79963390D02*
X186199047Y-80011009D01*
X186199047Y-80011009D02*
X186103809Y-80058628D01*
X186103809Y-80058628D02*
X185722857Y-80058628D01*
X186675238Y-79630057D02*
X186722857Y-79582438D01*
X186722857Y-79582438D02*
X186818095Y-79534819D01*
X186818095Y-79534819D02*
X187056190Y-79534819D01*
X187056190Y-79534819D02*
X187151428Y-79582438D01*
X187151428Y-79582438D02*
X187199047Y-79630057D01*
X187199047Y-79630057D02*
X187246666Y-79725295D01*
X187246666Y-79725295D02*
X187246666Y-79820533D01*
X187246666Y-79820533D02*
X187199047Y-79963390D01*
X187199047Y-79963390D02*
X186627619Y-80534819D01*
X186627619Y-80534819D02*
X187246666Y-80534819D01*
X191436666Y-90894819D02*
X191436666Y-91609104D01*
X191436666Y-91609104D02*
X191389047Y-91751961D01*
X191389047Y-91751961D02*
X191293809Y-91847200D01*
X191293809Y-91847200D02*
X191150952Y-91894819D01*
X191150952Y-91894819D02*
X191055714Y-91894819D01*
X192341428Y-91228152D02*
X192341428Y-91894819D01*
X192103333Y-90847200D02*
X191865238Y-91561485D01*
X191865238Y-91561485D02*
X192484285Y-91561485D01*
D12*
%TO.C,R3*%
X151815436Y-65305000D02*
X152269564Y-65305000D01*
X151815436Y-66775000D02*
X152269564Y-66775000D01*
%TO.C,J5*%
X179470000Y-98520000D02*
X179470000Y-94520000D01*
X179180000Y-99550000D02*
X179180000Y-93530000D01*
X179180000Y-93530000D02*
X171340000Y-93530000D01*
X178600000Y-99550000D02*
X178600000Y-98950000D01*
X178600000Y-98950000D02*
X177000000Y-98950000D01*
X177800000Y-94530000D02*
X177550000Y-95060000D01*
X177800000Y-94530000D02*
X172720000Y-94530000D01*
X177800000Y-93530000D02*
X177800000Y-94530000D01*
X177550000Y-95060000D02*
X172970000Y-95060000D01*
X177550000Y-93530000D02*
X177550000Y-94530000D01*
X177000000Y-98950000D02*
X177000000Y-99550000D01*
X176060000Y-99550000D02*
X176060000Y-98950000D01*
X176060000Y-98950000D02*
X174460000Y-98950000D01*
X174460000Y-98950000D02*
X174460000Y-99550000D01*
X173520000Y-99550000D02*
X173520000Y-98950000D01*
X173520000Y-98950000D02*
X171920000Y-98950000D01*
X172970000Y-95060000D02*
X172720000Y-94530000D01*
X172970000Y-93530000D02*
X172970000Y-94530000D01*
X172720000Y-94530000D02*
X172720000Y-93530000D01*
X171920000Y-98950000D02*
X171920000Y-99550000D01*
X171340000Y-99550000D02*
X179180000Y-99550000D01*
X171340000Y-93530000D02*
X171340000Y-99550000D01*
%TO.C,TP1*%
X152880000Y-71120000D02*
G75*
G03*
X152880000Y-71120000I-1750000J0D01*
G01*
%TO.C,R1*%
X204339564Y-82015000D02*
X203885436Y-82015000D01*
X204339564Y-80545000D02*
X203885436Y-80545000D01*
%TO.C,U1*%
X166200000Y-84920000D02*
X166200000Y-81920000D01*
X164000000Y-84920000D02*
X164000000Y-82720000D01*
%TO.C,R2*%
X186105436Y-85625000D02*
X186559564Y-85625000D01*
X186105436Y-87095000D02*
X186559564Y-87095000D01*
%TO.C,IC1*%
X199450000Y-82670000D02*
X199450000Y-62110000D01*
X199450000Y-62110000D02*
X189170000Y-62110000D01*
X196960000Y-82610000D02*
X196960000Y-62170000D01*
X196960000Y-62170000D02*
X191660000Y-62170000D01*
X195310000Y-82610000D02*
X196960000Y-82610000D01*
X191660000Y-82610000D02*
X193310000Y-82610000D01*
X191660000Y-62170000D02*
X191660000Y-82610000D01*
X189170000Y-82670000D02*
X199450000Y-82670000D01*
X189170000Y-62110000D02*
X189170000Y-82670000D01*
X195310000Y-82610000D02*
G75*
G03*
X193310000Y-82610000I-1000000J0D01*
G01*
%TO.C,D1*%
X184672500Y-87940000D02*
X184672500Y-89860000D01*
X184672500Y-89860000D02*
X187357500Y-89860000D01*
X187357500Y-87940000D02*
X184672500Y-87940000D01*
%TO.C,D2*%
X150382500Y-62540000D02*
X150382500Y-64460000D01*
X150382500Y-64460000D02*
X153067500Y-64460000D01*
X153067500Y-62540000D02*
X150382500Y-62540000D01*
%TO.C,J1*%
X169310000Y-98520000D02*
X169310000Y-94520000D01*
X169020000Y-99550000D02*
X169020000Y-93530000D01*
X169020000Y-93530000D02*
X158640000Y-93530000D01*
X168440000Y-99550000D02*
X168440000Y-98950000D01*
X168440000Y-98950000D02*
X166840000Y-98950000D01*
X167640000Y-94530000D02*
X167390000Y-95060000D01*
X167640000Y-94530000D02*
X160020000Y-94530000D01*
X167640000Y-93530000D02*
X167640000Y-94530000D01*
X167390000Y-95060000D02*
X160270000Y-95060000D01*
X167390000Y-93530000D02*
X167390000Y-94530000D01*
X166840000Y-98950000D02*
X166840000Y-99550000D01*
X165900000Y-99550000D02*
X165900000Y-98950000D01*
X165900000Y-98950000D02*
X164300000Y-98950000D01*
X164300000Y-98950000D02*
X164300000Y-99550000D01*
X163360000Y-99550000D02*
X163360000Y-98950000D01*
X163360000Y-98950000D02*
X161760000Y-98950000D01*
X161760000Y-98950000D02*
X161760000Y-99550000D01*
X160820000Y-99550000D02*
X160820000Y-98950000D01*
X160820000Y-98950000D02*
X159220000Y-98950000D01*
X160270000Y-95060000D02*
X160020000Y-94530000D01*
X160270000Y-93530000D02*
X160270000Y-94530000D01*
X160020000Y-94530000D02*
X160020000Y-93530000D01*
X159220000Y-98950000D02*
X159220000Y-99550000D01*
X158640000Y-99550000D02*
X169020000Y-99550000D01*
X158640000Y-93530000D02*
X158640000Y-99550000D01*
%TO.C,J3*%
X189630000Y-98520000D02*
X189630000Y-94520000D01*
X189340000Y-99550000D02*
X189340000Y-93530000D01*
X189340000Y-93530000D02*
X181500000Y-93530000D01*
X188760000Y-99550000D02*
X188760000Y-98950000D01*
X188760000Y-98950000D02*
X187160000Y-98950000D01*
X187960000Y-94530000D02*
X187710000Y-95060000D01*
X187960000Y-94530000D02*
X182880000Y-94530000D01*
X187960000Y-93530000D02*
X187960000Y-94530000D01*
X187710000Y-95060000D02*
X183130000Y-95060000D01*
X187710000Y-93530000D02*
X187710000Y-94530000D01*
X187160000Y-98950000D02*
X187160000Y-99550000D01*
X186220000Y-99550000D02*
X186220000Y-98950000D01*
X186220000Y-98950000D02*
X184620000Y-98950000D01*
X184620000Y-98950000D02*
X184620000Y-99550000D01*
X183680000Y-99550000D02*
X183680000Y-98950000D01*
X183680000Y-98950000D02*
X182080000Y-98950000D01*
X183130000Y-95060000D02*
X182880000Y-94530000D01*
X183130000Y-93530000D02*
X183130000Y-94530000D01*
X182880000Y-94530000D02*
X182880000Y-93530000D01*
X182080000Y-98950000D02*
X182080000Y-99550000D01*
X181500000Y-99550000D02*
X189340000Y-99550000D01*
X181500000Y-93530000D02*
X181500000Y-99550000D01*
%TO.C,TP3*%
X210030000Y-58420000D02*
G75*
G03*
X210030000Y-58420000I-1750000J0D01*
G01*
%TO.C,TP2*%
X184630000Y-81280000D02*
G75*
G03*
X184630000Y-81280000I-1750000J0D01*
G01*
%TO.C,J4*%
X197250000Y-98520000D02*
X197250000Y-94520000D01*
X196960000Y-99550000D02*
X196960000Y-93530000D01*
X196960000Y-93530000D02*
X191660000Y-93530000D01*
X196380000Y-99550000D02*
X196380000Y-98950000D01*
X196380000Y-98950000D02*
X194780000Y-98950000D01*
X195580000Y-94530000D02*
X195330000Y-95060000D01*
X195580000Y-94530000D02*
X193040000Y-94530000D01*
X195580000Y-93530000D02*
X195580000Y-94530000D01*
X195330000Y-95060000D02*
X193290000Y-95060000D01*
X195330000Y-93530000D02*
X195330000Y-94530000D01*
X194780000Y-98950000D02*
X194780000Y-99550000D01*
X193840000Y-99550000D02*
X193840000Y-98950000D01*
X193840000Y-98950000D02*
X192240000Y-98950000D01*
X193290000Y-95060000D02*
X193040000Y-94530000D01*
X193290000Y-93530000D02*
X193290000Y-94530000D01*
X193040000Y-94530000D02*
X193040000Y-93530000D01*
X192240000Y-98950000D02*
X192240000Y-99550000D01*
X191660000Y-99550000D02*
X196960000Y-99550000D01*
X191660000Y-93530000D02*
X191660000Y-99550000D01*
%TD*%
M02*
