%TF.GenerationSoftware,KiCad,Pcbnew,7.0.9*%
%TF.CreationDate,2025-02-27T14:06:20+00:00*%
%TF.ProjectId,Pi Hat,50692048-6174-42e6-9b69-6361645f7063,rev?*%
%TF.SameCoordinates,Original*%
%TF.FileFunction,Soldermask,Bot*%
%TF.FilePolarity,Negative*%
%FSLAX46Y46*%
G04 Gerber Fmt 4.6, Leading zero omitted, Abs format (unit mm)*
G04 Created by KiCad (PCBNEW 7.0.9) date 2025-02-27 14:06:20*
%MOMM*%
%LPD*%
G01*
G04 APERTURE LIST*
G04 Aperture macros list*
%AMRoundRect*
0 Rectangle with rounded corners*
0 $1 Rounding radius*
0 $2 $3 $4 $5 $6 $7 $8 $9 X,Y pos of 4 corners*
0 Add a 4 corners polygon primitive as box body*
4,1,4,$2,$3,$4,$5,$6,$7,$8,$9,$2,$3,0*
0 Add four circle primitives for the rounded corners*
1,1,$1+$1,$2,$3*
1,1,$1+$1,$4,$5*
1,1,$1+$1,$6,$7*
1,1,$1+$1,$8,$9*
0 Add four rect primitives between the rounded corners*
20,1,$1+$1,$2,$3,$4,$5,0*
20,1,$1+$1,$4,$5,$6,$7,0*
20,1,$1+$1,$6,$7,$8,$9,0*
20,1,$1+$1,$8,$9,$2,$3,0*%
G04 Aperture macros list end*
%ADD10RoundRect,0.250000X0.620000X0.845000X-0.620000X0.845000X-0.620000X-0.845000X0.620000X-0.845000X0*%
%ADD11O,1.740000X2.190000*%
%ADD12R,1.600000X1.600000*%
%ADD13O,1.600000X1.600000*%
%ADD14R,1.700000X1.700000*%
%ADD15O,1.700000X1.700000*%
G04 APERTURE END LIST*
D10*
%TO.C,J5*%
X177800000Y-96520000D03*
D11*
X175260000Y-96520000D03*
X172720000Y-96520000D03*
%TD*%
D12*
%TO.C,IC1*%
X198120000Y-81280000D03*
D13*
X198120000Y-78740000D03*
X198120000Y-76200000D03*
X198120000Y-73660000D03*
X198120000Y-71120000D03*
X198120000Y-68580000D03*
X198120000Y-66040000D03*
X198120000Y-63500000D03*
X190500000Y-63500000D03*
X190500000Y-66040000D03*
X190500000Y-68580000D03*
X190500000Y-71120000D03*
X190500000Y-73660000D03*
X190500000Y-76200000D03*
X190500000Y-78740000D03*
X190500000Y-81280000D03*
%TD*%
D10*
%TO.C,J1*%
X167640000Y-96520000D03*
D11*
X165100000Y-96520000D03*
X162560000Y-96520000D03*
X160020000Y-96520000D03*
%TD*%
D10*
%TO.C,J3*%
X187960000Y-96520000D03*
D11*
X185420000Y-96520000D03*
X182880000Y-96520000D03*
%TD*%
D10*
%TO.C,J4*%
X195580000Y-96520000D03*
D11*
X193040000Y-96520000D03*
%TD*%
D14*
%TO.C,J2*%
X154900000Y-51290000D03*
D15*
X154900000Y-48750000D03*
X157440000Y-51290000D03*
X157440000Y-48750000D03*
X159980000Y-51290000D03*
X159980000Y-48750000D03*
X162520000Y-51290000D03*
X162520000Y-48750000D03*
X165060000Y-51290000D03*
X165060000Y-48750000D03*
X167600000Y-51290000D03*
X167600000Y-48750000D03*
X170140000Y-51290000D03*
X170140000Y-48750000D03*
X172680000Y-51290000D03*
X172680000Y-48750000D03*
X175220000Y-51290000D03*
X175220000Y-48750000D03*
X177760000Y-51290000D03*
X177760000Y-48750000D03*
X180300000Y-51290000D03*
X180300000Y-48750000D03*
X182840000Y-51290000D03*
X182840000Y-48750000D03*
X185380000Y-51290000D03*
X185380000Y-48750000D03*
X187920000Y-51290000D03*
X187920000Y-48750000D03*
X190460000Y-51290000D03*
X190460000Y-48750000D03*
X193000000Y-51290000D03*
X193000000Y-48750000D03*
X195540000Y-51290000D03*
X195540000Y-48750000D03*
X198080000Y-51290000D03*
X198080000Y-48750000D03*
X200620000Y-51290000D03*
X200620000Y-48750000D03*
X203160000Y-51290000D03*
X203160000Y-48750000D03*
%TD*%
M02*
