%TF.GenerationSoftware,KiCad,Pcbnew,7.0.9*%
%TF.CreationDate,2025-01-30T11:34:31+00:00*%
%TF.ProjectId,Pi Hat,50692048-6174-42e6-9b69-6361645f7063,rev?*%
%TF.SameCoordinates,Original*%
%TF.FileFunction,Soldermask,Bot*%
%TF.FilePolarity,Negative*%
%FSLAX46Y46*%
G04 Gerber Fmt 4.6, Leading zero omitted, Abs format (unit mm)*
G04 Created by KiCad (PCBNEW 7.0.9) date 2025-01-30 11:34:31*
%MOMM*%
%LPD*%
G01*
G04 APERTURE LIST*
G04 Aperture macros list*
%AMRoundRect*
0 Rectangle with rounded corners*
0 $1 Rounding radius*
0 $2 $3 $4 $5 $6 $7 $8 $9 X,Y pos of 4 corners*
0 Add a 4 corners polygon primitive as box body*
4,1,4,$2,$3,$4,$5,$6,$7,$8,$9,$2,$3,0*
0 Add four circle primitives for the rounded corners*
1,1,$1+$1,$2,$3*
1,1,$1+$1,$4,$5*
1,1,$1+$1,$6,$7*
1,1,$1+$1,$8,$9*
0 Add four rect primitives between the rounded corners*
20,1,$1+$1,$2,$3,$4,$5,0*
20,1,$1+$1,$4,$5,$6,$7,0*
20,1,$1+$1,$6,$7,$8,$9,0*
20,1,$1+$1,$8,$9,$2,$3,0*%
G04 Aperture macros list end*
%ADD10R,1.600000X1.600000*%
%ADD11O,1.600000X1.600000*%
%ADD12RoundRect,0.250000X0.845000X-0.620000X0.845000X0.620000X-0.845000X0.620000X-0.845000X-0.620000X0*%
%ADD13O,2.190000X1.740000*%
%ADD14R,1.700000X1.700000*%
%ADD15O,1.700000X1.700000*%
G04 APERTURE END LIST*
D10*
%TO.C,IC1*%
X99060000Y-85080000D03*
D11*
X99060000Y-87620000D03*
X99060000Y-90160000D03*
X99060000Y-92700000D03*
X99060000Y-95240000D03*
X99060000Y-97780000D03*
X99060000Y-100320000D03*
X99060000Y-102860000D03*
X106680000Y-102860000D03*
X106680000Y-100320000D03*
X106680000Y-97780000D03*
X106680000Y-95240000D03*
X106680000Y-92700000D03*
X106680000Y-90160000D03*
X106680000Y-87620000D03*
X106680000Y-85080000D03*
%TD*%
D12*
%TO.C,J1*%
X99060000Y-71120000D03*
D13*
X99060000Y-68580000D03*
X99060000Y-66040000D03*
X99060000Y-63500000D03*
%TD*%
D12*
%TO.C,J3*%
X99060000Y-81280000D03*
D13*
X99060000Y-78740000D03*
X99060000Y-76200000D03*
%TD*%
D12*
%TO.C,J4*%
X99060000Y-109220000D03*
D13*
X99060000Y-106680000D03*
%TD*%
D14*
%TO.C,J2*%
X111760000Y-60960000D03*
D15*
X114300000Y-60960000D03*
X111760000Y-63500000D03*
X114300000Y-63500000D03*
X111760000Y-66040000D03*
X114300000Y-66040000D03*
X111760000Y-68580000D03*
X114300000Y-68580000D03*
X111760000Y-71120000D03*
X114300000Y-71120000D03*
X111760000Y-73660000D03*
X114300000Y-73660000D03*
X111760000Y-76200000D03*
X114300000Y-76200000D03*
X111760000Y-78740000D03*
X114300000Y-78740000D03*
X111760000Y-81280000D03*
X114300000Y-81280000D03*
X111760000Y-83820000D03*
X114300000Y-83820000D03*
X111760000Y-86360000D03*
X114300000Y-86360000D03*
X111760000Y-88900000D03*
X114300000Y-88900000D03*
X111760000Y-91440000D03*
X114300000Y-91440000D03*
X111760000Y-93980000D03*
X114300000Y-93980000D03*
X111760000Y-96520000D03*
X114300000Y-96520000D03*
X111760000Y-99060000D03*
X114300000Y-99060000D03*
X111760000Y-101600000D03*
X114300000Y-101600000D03*
X111760000Y-104140000D03*
X114300000Y-104140000D03*
X111760000Y-106680000D03*
X114300000Y-106680000D03*
X111760000Y-109220000D03*
X114300000Y-109220000D03*
%TD*%
M02*
