%TF.GenerationSoftware,KiCad,Pcbnew,7.0.9*%
%TF.CreationDate,2025-01-30T11:34:34+00:00*%
%TF.ProjectId,Pi Hat,50692048-6174-42e6-9b69-6361645f7063,rev?*%
%TF.SameCoordinates,Original*%
%TF.FileFunction,Drillmap*%
%TF.FilePolarity,Positive*%
%FSLAX45Y45*%
G04 Gerber Fmt 4.5, Leading zero omitted, Abs format (unit mm)*
G04 Created by KiCad (PCBNEW 7.0.9) date 2025-01-30 11:34:34*
%MOMM*%
%LPD*%
G01*
G04 APERTURE LIST*
%ADD10C,0.100000*%
%ADD11C,0.200000*%
%ADD12C,0.119000*%
G04 APERTURE END LIST*
D10*
X9144000Y-5715000D02*
X11811000Y-5715000D01*
X11811000Y-11303000D01*
X9144000Y-11303000D01*
X9144000Y-5715000D01*
D11*
D10*
X10550000Y-6770000D02*
X10570000Y-6790000D01*
X10570000Y-6770000D02*
X10550000Y-6790000D01*
X10307000Y-9652000D02*
G75*
G03*
X10307000Y-9652000I-20000J0D01*
G01*
X10320000Y-6580000D02*
G75*
G03*
X10320000Y-6580000I-20000J0D01*
G01*
X10688000Y-7747000D02*
G75*
G03*
X10688000Y-7747000I-20000J0D01*
G01*
X10688000Y-8001000D02*
G75*
G03*
X10688000Y-8001000I-20000J0D01*
G01*
X10800000Y-11100000D02*
G75*
G03*
X10800000Y-11100000I-20000J0D01*
G01*
X9906000Y-8468000D02*
X9906000Y-8548000D01*
X9866000Y-8508000D02*
X9946000Y-8508000D01*
X9906000Y-8722000D02*
X9906000Y-8802000D01*
X9866000Y-8762000D02*
X9946000Y-8762000D01*
X9906000Y-8976000D02*
X9906000Y-9056000D01*
X9866000Y-9016000D02*
X9946000Y-9016000D01*
X9906000Y-9230000D02*
X9906000Y-9310000D01*
X9866000Y-9270000D02*
X9946000Y-9270000D01*
X9906000Y-9484000D02*
X9906000Y-9564000D01*
X9866000Y-9524000D02*
X9946000Y-9524000D01*
X9906000Y-9738000D02*
X9906000Y-9818000D01*
X9866000Y-9778000D02*
X9946000Y-9778000D01*
X9906000Y-9992000D02*
X9906000Y-10072000D01*
X9866000Y-10032000D02*
X9946000Y-10032000D01*
X9906000Y-10246000D02*
X9906000Y-10326000D01*
X9866000Y-10286000D02*
X9946000Y-10286000D01*
X10668000Y-8468000D02*
X10668000Y-8548000D01*
X10628000Y-8508000D02*
X10708000Y-8508000D01*
X10668000Y-8722000D02*
X10668000Y-8802000D01*
X10628000Y-8762000D02*
X10708000Y-8762000D01*
X10668000Y-8976000D02*
X10668000Y-9056000D01*
X10628000Y-9016000D02*
X10708000Y-9016000D01*
X10668000Y-9230000D02*
X10668000Y-9310000D01*
X10628000Y-9270000D02*
X10708000Y-9270000D01*
X10668000Y-9484000D02*
X10668000Y-9564000D01*
X10628000Y-9524000D02*
X10708000Y-9524000D01*
X10668000Y-9738000D02*
X10668000Y-9818000D01*
X10628000Y-9778000D02*
X10708000Y-9778000D01*
X10668000Y-9992000D02*
X10668000Y-10072000D01*
X10628000Y-10032000D02*
X10708000Y-10032000D01*
X10668000Y-10246000D02*
X10668000Y-10326000D01*
X10628000Y-10286000D02*
X10708000Y-10286000D01*
X11211356Y-6131356D02*
X11211356Y-6060644D01*
X11140644Y-6060644D01*
X11140644Y-6131356D01*
X11211356Y-6131356D01*
X11211356Y-6385356D02*
X11211356Y-6314644D01*
X11140644Y-6314644D01*
X11140644Y-6385356D01*
X11211356Y-6385356D01*
X11211356Y-6639356D02*
X11211356Y-6568644D01*
X11140644Y-6568644D01*
X11140644Y-6639356D01*
X11211356Y-6639356D01*
X11211356Y-6893356D02*
X11211356Y-6822644D01*
X11140644Y-6822644D01*
X11140644Y-6893356D01*
X11211356Y-6893356D01*
X11211356Y-7147356D02*
X11211356Y-7076644D01*
X11140644Y-7076644D01*
X11140644Y-7147356D01*
X11211356Y-7147356D01*
X11211356Y-7401356D02*
X11211356Y-7330644D01*
X11140644Y-7330644D01*
X11140644Y-7401356D01*
X11211356Y-7401356D01*
X11211356Y-7655356D02*
X11211356Y-7584644D01*
X11140644Y-7584644D01*
X11140644Y-7655356D01*
X11211356Y-7655356D01*
X11211356Y-7909356D02*
X11211356Y-7838644D01*
X11140644Y-7838644D01*
X11140644Y-7909356D01*
X11211356Y-7909356D01*
X11211356Y-8163356D02*
X11211356Y-8092644D01*
X11140644Y-8092644D01*
X11140644Y-8163356D01*
X11211356Y-8163356D01*
X11211356Y-8417356D02*
X11211356Y-8346644D01*
X11140644Y-8346644D01*
X11140644Y-8417356D01*
X11211356Y-8417356D01*
X11211356Y-8671356D02*
X11211356Y-8600644D01*
X11140644Y-8600644D01*
X11140644Y-8671356D01*
X11211356Y-8671356D01*
X11211356Y-8925356D02*
X11211356Y-8854644D01*
X11140644Y-8854644D01*
X11140644Y-8925356D01*
X11211356Y-8925356D01*
X11211356Y-9179356D02*
X11211356Y-9108644D01*
X11140644Y-9108644D01*
X11140644Y-9179356D01*
X11211356Y-9179356D01*
X11211356Y-9433356D02*
X11211356Y-9362644D01*
X11140644Y-9362644D01*
X11140644Y-9433356D01*
X11211356Y-9433356D01*
X11211356Y-9687356D02*
X11211356Y-9616644D01*
X11140644Y-9616644D01*
X11140644Y-9687356D01*
X11211356Y-9687356D01*
X11211356Y-9941356D02*
X11211356Y-9870644D01*
X11140644Y-9870644D01*
X11140644Y-9941356D01*
X11211356Y-9941356D01*
X11211356Y-10195356D02*
X11211356Y-10124644D01*
X11140644Y-10124644D01*
X11140644Y-10195356D01*
X11211356Y-10195356D01*
X11211356Y-10449356D02*
X11211356Y-10378644D01*
X11140644Y-10378644D01*
X11140644Y-10449356D01*
X11211356Y-10449356D01*
X11211356Y-10703356D02*
X11211356Y-10632644D01*
X11140644Y-10632644D01*
X11140644Y-10703356D01*
X11211356Y-10703356D01*
X11211356Y-10957356D02*
X11211356Y-10886644D01*
X11140644Y-10886644D01*
X11140644Y-10957356D01*
X11211356Y-10957356D01*
X11465356Y-6131356D02*
X11465356Y-6060644D01*
X11394644Y-6060644D01*
X11394644Y-6131356D01*
X11465356Y-6131356D01*
X11465356Y-6385356D02*
X11465356Y-6314644D01*
X11394644Y-6314644D01*
X11394644Y-6385356D01*
X11465356Y-6385356D01*
X11465356Y-6639356D02*
X11465356Y-6568644D01*
X11394644Y-6568644D01*
X11394644Y-6639356D01*
X11465356Y-6639356D01*
X11465356Y-6893356D02*
X11465356Y-6822644D01*
X11394644Y-6822644D01*
X11394644Y-6893356D01*
X11465356Y-6893356D01*
X11465356Y-7147356D02*
X11465356Y-7076644D01*
X11394644Y-7076644D01*
X11394644Y-7147356D01*
X11465356Y-7147356D01*
X11465356Y-7401356D02*
X11465356Y-7330644D01*
X11394644Y-7330644D01*
X11394644Y-7401356D01*
X11465356Y-7401356D01*
X11465356Y-7655356D02*
X11465356Y-7584644D01*
X11394644Y-7584644D01*
X11394644Y-7655356D01*
X11465356Y-7655356D01*
X11465356Y-7909356D02*
X11465356Y-7838644D01*
X11394644Y-7838644D01*
X11394644Y-7909356D01*
X11465356Y-7909356D01*
X11465356Y-8163356D02*
X11465356Y-8092644D01*
X11394644Y-8092644D01*
X11394644Y-8163356D01*
X11465356Y-8163356D01*
X11465356Y-8417356D02*
X11465356Y-8346644D01*
X11394644Y-8346644D01*
X11394644Y-8417356D01*
X11465356Y-8417356D01*
X11465356Y-8671356D02*
X11465356Y-8600644D01*
X11394644Y-8600644D01*
X11394644Y-8671356D01*
X11465356Y-8671356D01*
X11465356Y-8925356D02*
X11465356Y-8854644D01*
X11394644Y-8854644D01*
X11394644Y-8925356D01*
X11465356Y-8925356D01*
X11465356Y-9179356D02*
X11465356Y-9108644D01*
X11394644Y-9108644D01*
X11394644Y-9179356D01*
X11465356Y-9179356D01*
X11465356Y-9433356D02*
X11465356Y-9362644D01*
X11394644Y-9362644D01*
X11394644Y-9433356D01*
X11465356Y-9433356D01*
X11465356Y-9687356D02*
X11465356Y-9616644D01*
X11394644Y-9616644D01*
X11394644Y-9687356D01*
X11465356Y-9687356D01*
X11465356Y-9941356D02*
X11465356Y-9870644D01*
X11394644Y-9870644D01*
X11394644Y-9941356D01*
X11465356Y-9941356D01*
X11465356Y-10195356D02*
X11465356Y-10124644D01*
X11394644Y-10124644D01*
X11394644Y-10195356D01*
X11465356Y-10195356D01*
X11465356Y-10449356D02*
X11465356Y-10378644D01*
X11394644Y-10378644D01*
X11394644Y-10449356D01*
X11465356Y-10449356D01*
X11465356Y-10703356D02*
X11465356Y-10632644D01*
X11394644Y-10632644D01*
X11394644Y-10703356D01*
X11465356Y-10703356D01*
X11465356Y-10957356D02*
X11465356Y-10886644D01*
X11394644Y-10886644D01*
X11394644Y-10957356D01*
X11465356Y-10957356D01*
D12*
X9906000Y-6409500D02*
X9965500Y-6350000D01*
X9906000Y-6290500D01*
X9846500Y-6350000D01*
X9906000Y-6409500D01*
X9906000Y-6663500D02*
X9965500Y-6604000D01*
X9906000Y-6544500D01*
X9846500Y-6604000D01*
X9906000Y-6663500D01*
X9906000Y-6917500D02*
X9965500Y-6858000D01*
X9906000Y-6798500D01*
X9846500Y-6858000D01*
X9906000Y-6917500D01*
X9906000Y-7171500D02*
X9965500Y-7112000D01*
X9906000Y-7052500D01*
X9846500Y-7112000D01*
X9906000Y-7171500D01*
X9906000Y-7679500D02*
X9965500Y-7620000D01*
X9906000Y-7560500D01*
X9846500Y-7620000D01*
X9906000Y-7679500D01*
X9906000Y-7933500D02*
X9965500Y-7874000D01*
X9906000Y-7814500D01*
X9846500Y-7874000D01*
X9906000Y-7933500D01*
X9906000Y-8187500D02*
X9965500Y-8128000D01*
X9906000Y-8068500D01*
X9846500Y-8128000D01*
X9906000Y-8187500D01*
X9906000Y-10727500D02*
X9965500Y-10668000D01*
X9906000Y-10608500D01*
X9846500Y-10668000D01*
X9906000Y-10727500D01*
X9906000Y-10981500D02*
X9965500Y-10922000D01*
X9906000Y-10862500D01*
X9846500Y-10922000D01*
X9906000Y-10981500D01*
D11*
X9399777Y-11619484D02*
X9399777Y-11419484D01*
X9399777Y-11419484D02*
X9447396Y-11419484D01*
X9447396Y-11419484D02*
X9475967Y-11429008D01*
X9475967Y-11429008D02*
X9495015Y-11448055D01*
X9495015Y-11448055D02*
X9504539Y-11467103D01*
X9504539Y-11467103D02*
X9514063Y-11505198D01*
X9514063Y-11505198D02*
X9514063Y-11533769D01*
X9514063Y-11533769D02*
X9504539Y-11571865D01*
X9504539Y-11571865D02*
X9495015Y-11590912D01*
X9495015Y-11590912D02*
X9475967Y-11609960D01*
X9475967Y-11609960D02*
X9447396Y-11619484D01*
X9447396Y-11619484D02*
X9399777Y-11619484D01*
X9599777Y-11619484D02*
X9599777Y-11486150D01*
X9599777Y-11524246D02*
X9609301Y-11505198D01*
X9609301Y-11505198D02*
X9618824Y-11495674D01*
X9618824Y-11495674D02*
X9637872Y-11486150D01*
X9637872Y-11486150D02*
X9656920Y-11486150D01*
X9723586Y-11619484D02*
X9723586Y-11486150D01*
X9723586Y-11419484D02*
X9714063Y-11429008D01*
X9714063Y-11429008D02*
X9723586Y-11438531D01*
X9723586Y-11438531D02*
X9733110Y-11429008D01*
X9733110Y-11429008D02*
X9723586Y-11419484D01*
X9723586Y-11419484D02*
X9723586Y-11438531D01*
X9847396Y-11619484D02*
X9828348Y-11609960D01*
X9828348Y-11609960D02*
X9818824Y-11590912D01*
X9818824Y-11590912D02*
X9818824Y-11419484D01*
X9952158Y-11619484D02*
X9933110Y-11609960D01*
X9933110Y-11609960D02*
X9923586Y-11590912D01*
X9923586Y-11590912D02*
X9923586Y-11419484D01*
X10180729Y-11619484D02*
X10180729Y-11419484D01*
X10180729Y-11419484D02*
X10247396Y-11562341D01*
X10247396Y-11562341D02*
X10314063Y-11419484D01*
X10314063Y-11419484D02*
X10314063Y-11619484D01*
X10495015Y-11619484D02*
X10495015Y-11514722D01*
X10495015Y-11514722D02*
X10485491Y-11495674D01*
X10485491Y-11495674D02*
X10466444Y-11486150D01*
X10466444Y-11486150D02*
X10428348Y-11486150D01*
X10428348Y-11486150D02*
X10409301Y-11495674D01*
X10495015Y-11609960D02*
X10475967Y-11619484D01*
X10475967Y-11619484D02*
X10428348Y-11619484D01*
X10428348Y-11619484D02*
X10409301Y-11609960D01*
X10409301Y-11609960D02*
X10399777Y-11590912D01*
X10399777Y-11590912D02*
X10399777Y-11571865D01*
X10399777Y-11571865D02*
X10409301Y-11552817D01*
X10409301Y-11552817D02*
X10428348Y-11543293D01*
X10428348Y-11543293D02*
X10475967Y-11543293D01*
X10475967Y-11543293D02*
X10495015Y-11533769D01*
X10590253Y-11486150D02*
X10590253Y-11686150D01*
X10590253Y-11495674D02*
X10609301Y-11486150D01*
X10609301Y-11486150D02*
X10647396Y-11486150D01*
X10647396Y-11486150D02*
X10666444Y-11495674D01*
X10666444Y-11495674D02*
X10675967Y-11505198D01*
X10675967Y-11505198D02*
X10685491Y-11524246D01*
X10685491Y-11524246D02*
X10685491Y-11581388D01*
X10685491Y-11581388D02*
X10675967Y-11600436D01*
X10675967Y-11600436D02*
X10666444Y-11609960D01*
X10666444Y-11609960D02*
X10647396Y-11619484D01*
X10647396Y-11619484D02*
X10609301Y-11619484D01*
X10609301Y-11619484D02*
X10590253Y-11609960D01*
X10771205Y-11600436D02*
X10780729Y-11609960D01*
X10780729Y-11609960D02*
X10771205Y-11619484D01*
X10771205Y-11619484D02*
X10761682Y-11609960D01*
X10761682Y-11609960D02*
X10771205Y-11600436D01*
X10771205Y-11600436D02*
X10771205Y-11619484D01*
X10771205Y-11495674D02*
X10780729Y-11505198D01*
X10780729Y-11505198D02*
X10771205Y-11514722D01*
X10771205Y-11514722D02*
X10761682Y-11505198D01*
X10761682Y-11505198D02*
X10771205Y-11495674D01*
X10771205Y-11495674D02*
X10771205Y-11514722D01*
D10*
X9119000Y-11938000D02*
X9139000Y-11958000D01*
X9139000Y-11938000D02*
X9119000Y-11958000D01*
D11*
X9437872Y-11839484D02*
X9456920Y-11839484D01*
X9456920Y-11839484D02*
X9475967Y-11849008D01*
X9475967Y-11849008D02*
X9485491Y-11858531D01*
X9485491Y-11858531D02*
X9495015Y-11877579D01*
X9495015Y-11877579D02*
X9504539Y-11915674D01*
X9504539Y-11915674D02*
X9504539Y-11963293D01*
X9504539Y-11963293D02*
X9495015Y-12001388D01*
X9495015Y-12001388D02*
X9485491Y-12020436D01*
X9485491Y-12020436D02*
X9475967Y-12029960D01*
X9475967Y-12029960D02*
X9456920Y-12039484D01*
X9456920Y-12039484D02*
X9437872Y-12039484D01*
X9437872Y-12039484D02*
X9418824Y-12029960D01*
X9418824Y-12029960D02*
X9409301Y-12020436D01*
X9409301Y-12020436D02*
X9399777Y-12001388D01*
X9399777Y-12001388D02*
X9390253Y-11963293D01*
X9390253Y-11963293D02*
X9390253Y-11915674D01*
X9390253Y-11915674D02*
X9399777Y-11877579D01*
X9399777Y-11877579D02*
X9409301Y-11858531D01*
X9409301Y-11858531D02*
X9418824Y-11849008D01*
X9418824Y-11849008D02*
X9437872Y-11839484D01*
X9590253Y-12020436D02*
X9599777Y-12029960D01*
X9599777Y-12029960D02*
X9590253Y-12039484D01*
X9590253Y-12039484D02*
X9580729Y-12029960D01*
X9580729Y-12029960D02*
X9590253Y-12020436D01*
X9590253Y-12020436D02*
X9590253Y-12039484D01*
X9675967Y-11858531D02*
X9685491Y-11849008D01*
X9685491Y-11849008D02*
X9704539Y-11839484D01*
X9704539Y-11839484D02*
X9752158Y-11839484D01*
X9752158Y-11839484D02*
X9771205Y-11849008D01*
X9771205Y-11849008D02*
X9780729Y-11858531D01*
X9780729Y-11858531D02*
X9790253Y-11877579D01*
X9790253Y-11877579D02*
X9790253Y-11896627D01*
X9790253Y-11896627D02*
X9780729Y-11925198D01*
X9780729Y-11925198D02*
X9666444Y-12039484D01*
X9666444Y-12039484D02*
X9790253Y-12039484D01*
X9914063Y-11839484D02*
X9933110Y-11839484D01*
X9933110Y-11839484D02*
X9952158Y-11849008D01*
X9952158Y-11849008D02*
X9961682Y-11858531D01*
X9961682Y-11858531D02*
X9971205Y-11877579D01*
X9971205Y-11877579D02*
X9980729Y-11915674D01*
X9980729Y-11915674D02*
X9980729Y-11963293D01*
X9980729Y-11963293D02*
X9971205Y-12001388D01*
X9971205Y-12001388D02*
X9961682Y-12020436D01*
X9961682Y-12020436D02*
X9952158Y-12029960D01*
X9952158Y-12029960D02*
X9933110Y-12039484D01*
X9933110Y-12039484D02*
X9914063Y-12039484D01*
X9914063Y-12039484D02*
X9895015Y-12029960D01*
X9895015Y-12029960D02*
X9885491Y-12020436D01*
X9885491Y-12020436D02*
X9875967Y-12001388D01*
X9875967Y-12001388D02*
X9866444Y-11963293D01*
X9866444Y-11963293D02*
X9866444Y-11915674D01*
X9866444Y-11915674D02*
X9875967Y-11877579D01*
X9875967Y-11877579D02*
X9885491Y-11858531D01*
X9885491Y-11858531D02*
X9895015Y-11849008D01*
X9895015Y-11849008D02*
X9914063Y-11839484D01*
X10104539Y-11839484D02*
X10123586Y-11839484D01*
X10123586Y-11839484D02*
X10142634Y-11849008D01*
X10142634Y-11849008D02*
X10152158Y-11858531D01*
X10152158Y-11858531D02*
X10161682Y-11877579D01*
X10161682Y-11877579D02*
X10171205Y-11915674D01*
X10171205Y-11915674D02*
X10171205Y-11963293D01*
X10171205Y-11963293D02*
X10161682Y-12001388D01*
X10161682Y-12001388D02*
X10152158Y-12020436D01*
X10152158Y-12020436D02*
X10142634Y-12029960D01*
X10142634Y-12029960D02*
X10123586Y-12039484D01*
X10123586Y-12039484D02*
X10104539Y-12039484D01*
X10104539Y-12039484D02*
X10085491Y-12029960D01*
X10085491Y-12029960D02*
X10075967Y-12020436D01*
X10075967Y-12020436D02*
X10066444Y-12001388D01*
X10066444Y-12001388D02*
X10056920Y-11963293D01*
X10056920Y-11963293D02*
X10056920Y-11915674D01*
X10056920Y-11915674D02*
X10066444Y-11877579D01*
X10066444Y-11877579D02*
X10075967Y-11858531D01*
X10075967Y-11858531D02*
X10085491Y-11849008D01*
X10085491Y-11849008D02*
X10104539Y-11839484D01*
X10256920Y-12039484D02*
X10256920Y-11906150D01*
X10256920Y-11925198D02*
X10266444Y-11915674D01*
X10266444Y-11915674D02*
X10285491Y-11906150D01*
X10285491Y-11906150D02*
X10314063Y-11906150D01*
X10314063Y-11906150D02*
X10333110Y-11915674D01*
X10333110Y-11915674D02*
X10342634Y-11934722D01*
X10342634Y-11934722D02*
X10342634Y-12039484D01*
X10342634Y-11934722D02*
X10352158Y-11915674D01*
X10352158Y-11915674D02*
X10371205Y-11906150D01*
X10371205Y-11906150D02*
X10399777Y-11906150D01*
X10399777Y-11906150D02*
X10418825Y-11915674D01*
X10418825Y-11915674D02*
X10428348Y-11934722D01*
X10428348Y-11934722D02*
X10428348Y-12039484D01*
X10523586Y-12039484D02*
X10523586Y-11906150D01*
X10523586Y-11925198D02*
X10533110Y-11915674D01*
X10533110Y-11915674D02*
X10552158Y-11906150D01*
X10552158Y-11906150D02*
X10580729Y-11906150D01*
X10580729Y-11906150D02*
X10599777Y-11915674D01*
X10599777Y-11915674D02*
X10609301Y-11934722D01*
X10609301Y-11934722D02*
X10609301Y-12039484D01*
X10609301Y-11934722D02*
X10618825Y-11915674D01*
X10618825Y-11915674D02*
X10637872Y-11906150D01*
X10637872Y-11906150D02*
X10666444Y-11906150D01*
X10666444Y-11906150D02*
X10685491Y-11915674D01*
X10685491Y-11915674D02*
X10695015Y-11934722D01*
X10695015Y-11934722D02*
X10695015Y-12039484D01*
X11085491Y-11829960D02*
X10914063Y-12087103D01*
X11342634Y-11839484D02*
X11361682Y-11839484D01*
X11361682Y-11839484D02*
X11380729Y-11849008D01*
X11380729Y-11849008D02*
X11390253Y-11858531D01*
X11390253Y-11858531D02*
X11399777Y-11877579D01*
X11399777Y-11877579D02*
X11409301Y-11915674D01*
X11409301Y-11915674D02*
X11409301Y-11963293D01*
X11409301Y-11963293D02*
X11399777Y-12001388D01*
X11399777Y-12001388D02*
X11390253Y-12020436D01*
X11390253Y-12020436D02*
X11380729Y-12029960D01*
X11380729Y-12029960D02*
X11361682Y-12039484D01*
X11361682Y-12039484D02*
X11342634Y-12039484D01*
X11342634Y-12039484D02*
X11323586Y-12029960D01*
X11323586Y-12029960D02*
X11314063Y-12020436D01*
X11314063Y-12020436D02*
X11304539Y-12001388D01*
X11304539Y-12001388D02*
X11295015Y-11963293D01*
X11295015Y-11963293D02*
X11295015Y-11915674D01*
X11295015Y-11915674D02*
X11304539Y-11877579D01*
X11304539Y-11877579D02*
X11314063Y-11858531D01*
X11314063Y-11858531D02*
X11323586Y-11849008D01*
X11323586Y-11849008D02*
X11342634Y-11839484D01*
X11495015Y-12020436D02*
X11504539Y-12029960D01*
X11504539Y-12029960D02*
X11495015Y-12039484D01*
X11495015Y-12039484D02*
X11485491Y-12029960D01*
X11485491Y-12029960D02*
X11495015Y-12020436D01*
X11495015Y-12020436D02*
X11495015Y-12039484D01*
X11628348Y-11839484D02*
X11647396Y-11839484D01*
X11647396Y-11839484D02*
X11666444Y-11849008D01*
X11666444Y-11849008D02*
X11675967Y-11858531D01*
X11675967Y-11858531D02*
X11685491Y-11877579D01*
X11685491Y-11877579D02*
X11695015Y-11915674D01*
X11695015Y-11915674D02*
X11695015Y-11963293D01*
X11695015Y-11963293D02*
X11685491Y-12001388D01*
X11685491Y-12001388D02*
X11675967Y-12020436D01*
X11675967Y-12020436D02*
X11666444Y-12029960D01*
X11666444Y-12029960D02*
X11647396Y-12039484D01*
X11647396Y-12039484D02*
X11628348Y-12039484D01*
X11628348Y-12039484D02*
X11609301Y-12029960D01*
X11609301Y-12029960D02*
X11599777Y-12020436D01*
X11599777Y-12020436D02*
X11590253Y-12001388D01*
X11590253Y-12001388D02*
X11580729Y-11963293D01*
X11580729Y-11963293D02*
X11580729Y-11915674D01*
X11580729Y-11915674D02*
X11590253Y-11877579D01*
X11590253Y-11877579D02*
X11599777Y-11858531D01*
X11599777Y-11858531D02*
X11609301Y-11849008D01*
X11609301Y-11849008D02*
X11628348Y-11839484D01*
X11818825Y-11839484D02*
X11837872Y-11839484D01*
X11837872Y-11839484D02*
X11856920Y-11849008D01*
X11856920Y-11849008D02*
X11866444Y-11858531D01*
X11866444Y-11858531D02*
X11875967Y-11877579D01*
X11875967Y-11877579D02*
X11885491Y-11915674D01*
X11885491Y-11915674D02*
X11885491Y-11963293D01*
X11885491Y-11963293D02*
X11875967Y-12001388D01*
X11875967Y-12001388D02*
X11866444Y-12020436D01*
X11866444Y-12020436D02*
X11856920Y-12029960D01*
X11856920Y-12029960D02*
X11837872Y-12039484D01*
X11837872Y-12039484D02*
X11818825Y-12039484D01*
X11818825Y-12039484D02*
X11799777Y-12029960D01*
X11799777Y-12029960D02*
X11790253Y-12020436D01*
X11790253Y-12020436D02*
X11780729Y-12001388D01*
X11780729Y-12001388D02*
X11771206Y-11963293D01*
X11771206Y-11963293D02*
X11771206Y-11915674D01*
X11771206Y-11915674D02*
X11780729Y-11877579D01*
X11780729Y-11877579D02*
X11790253Y-11858531D01*
X11790253Y-11858531D02*
X11799777Y-11849008D01*
X11799777Y-11849008D02*
X11818825Y-11839484D01*
X11952158Y-11839484D02*
X12085491Y-11839484D01*
X12085491Y-11839484D02*
X11999777Y-12039484D01*
X12171206Y-12039484D02*
X12209301Y-12039484D01*
X12209301Y-12039484D02*
X12228348Y-12029960D01*
X12228348Y-12029960D02*
X12237872Y-12020436D01*
X12237872Y-12020436D02*
X12256920Y-11991865D01*
X12256920Y-11991865D02*
X12266444Y-11953769D01*
X12266444Y-11953769D02*
X12266444Y-11877579D01*
X12266444Y-11877579D02*
X12256920Y-11858531D01*
X12256920Y-11858531D02*
X12247396Y-11849008D01*
X12247396Y-11849008D02*
X12228348Y-11839484D01*
X12228348Y-11839484D02*
X12190253Y-11839484D01*
X12190253Y-11839484D02*
X12171206Y-11849008D01*
X12171206Y-11849008D02*
X12161682Y-11858531D01*
X12161682Y-11858531D02*
X12152158Y-11877579D01*
X12152158Y-11877579D02*
X12152158Y-11925198D01*
X12152158Y-11925198D02*
X12161682Y-11944246D01*
X12161682Y-11944246D02*
X12171206Y-11953769D01*
X12171206Y-11953769D02*
X12190253Y-11963293D01*
X12190253Y-11963293D02*
X12228348Y-11963293D01*
X12228348Y-11963293D02*
X12247396Y-11953769D01*
X12247396Y-11953769D02*
X12256920Y-11944246D01*
X12256920Y-11944246D02*
X12266444Y-11925198D01*
X12342634Y-11839484D02*
X12342634Y-11877579D01*
X12418825Y-11839484D02*
X12418825Y-11877579D01*
X12714063Y-12115674D02*
X12704539Y-12106150D01*
X12704539Y-12106150D02*
X12685491Y-12077579D01*
X12685491Y-12077579D02*
X12675968Y-12058531D01*
X12675968Y-12058531D02*
X12666444Y-12029960D01*
X12666444Y-12029960D02*
X12656920Y-11982341D01*
X12656920Y-11982341D02*
X12656920Y-11944246D01*
X12656920Y-11944246D02*
X12666444Y-11896627D01*
X12666444Y-11896627D02*
X12675968Y-11868055D01*
X12675968Y-11868055D02*
X12685491Y-11849008D01*
X12685491Y-11849008D02*
X12704539Y-11820436D01*
X12704539Y-11820436D02*
X12714063Y-11810912D01*
X12895015Y-12039484D02*
X12780729Y-12039484D01*
X12837872Y-12039484D02*
X12837872Y-11839484D01*
X12837872Y-11839484D02*
X12818825Y-11868055D01*
X12818825Y-11868055D02*
X12799777Y-11887103D01*
X12799777Y-11887103D02*
X12780729Y-11896627D01*
X13133110Y-12039484D02*
X13133110Y-11839484D01*
X13218825Y-12039484D02*
X13218825Y-11934722D01*
X13218825Y-11934722D02*
X13209301Y-11915674D01*
X13209301Y-11915674D02*
X13190253Y-11906150D01*
X13190253Y-11906150D02*
X13161682Y-11906150D01*
X13161682Y-11906150D02*
X13142634Y-11915674D01*
X13142634Y-11915674D02*
X13133110Y-11925198D01*
X13342634Y-12039484D02*
X13323587Y-12029960D01*
X13323587Y-12029960D02*
X13314063Y-12020436D01*
X13314063Y-12020436D02*
X13304539Y-12001388D01*
X13304539Y-12001388D02*
X13304539Y-11944246D01*
X13304539Y-11944246D02*
X13314063Y-11925198D01*
X13314063Y-11925198D02*
X13323587Y-11915674D01*
X13323587Y-11915674D02*
X13342634Y-11906150D01*
X13342634Y-11906150D02*
X13371206Y-11906150D01*
X13371206Y-11906150D02*
X13390253Y-11915674D01*
X13390253Y-11915674D02*
X13399777Y-11925198D01*
X13399777Y-11925198D02*
X13409301Y-11944246D01*
X13409301Y-11944246D02*
X13409301Y-12001388D01*
X13409301Y-12001388D02*
X13399777Y-12020436D01*
X13399777Y-12020436D02*
X13390253Y-12029960D01*
X13390253Y-12029960D02*
X13371206Y-12039484D01*
X13371206Y-12039484D02*
X13342634Y-12039484D01*
X13523587Y-12039484D02*
X13504539Y-12029960D01*
X13504539Y-12029960D02*
X13495015Y-12010912D01*
X13495015Y-12010912D02*
X13495015Y-11839484D01*
X13675968Y-12029960D02*
X13656920Y-12039484D01*
X13656920Y-12039484D02*
X13618825Y-12039484D01*
X13618825Y-12039484D02*
X13599777Y-12029960D01*
X13599777Y-12029960D02*
X13590253Y-12010912D01*
X13590253Y-12010912D02*
X13590253Y-11934722D01*
X13590253Y-11934722D02*
X13599777Y-11915674D01*
X13599777Y-11915674D02*
X13618825Y-11906150D01*
X13618825Y-11906150D02*
X13656920Y-11906150D01*
X13656920Y-11906150D02*
X13675968Y-11915674D01*
X13675968Y-11915674D02*
X13685491Y-11934722D01*
X13685491Y-11934722D02*
X13685491Y-11953769D01*
X13685491Y-11953769D02*
X13590253Y-11972817D01*
X13752158Y-12115674D02*
X13761682Y-12106150D01*
X13761682Y-12106150D02*
X13780730Y-12077579D01*
X13780730Y-12077579D02*
X13790253Y-12058531D01*
X13790253Y-12058531D02*
X13799777Y-12029960D01*
X13799777Y-12029960D02*
X13809301Y-11982341D01*
X13809301Y-11982341D02*
X13809301Y-11944246D01*
X13809301Y-11944246D02*
X13799777Y-11896627D01*
X13799777Y-11896627D02*
X13790253Y-11868055D01*
X13790253Y-11868055D02*
X13780730Y-11849008D01*
X13780730Y-11849008D02*
X13761682Y-11820436D01*
X13761682Y-11820436D02*
X13752158Y-11810912D01*
D10*
X9139000Y-12212000D02*
G75*
G03*
X9139000Y-12212000I-20000J0D01*
G01*
D11*
X9437872Y-12103484D02*
X9456920Y-12103484D01*
X9456920Y-12103484D02*
X9475967Y-12113008D01*
X9475967Y-12113008D02*
X9485491Y-12122531D01*
X9485491Y-12122531D02*
X9495015Y-12141579D01*
X9495015Y-12141579D02*
X9504539Y-12179674D01*
X9504539Y-12179674D02*
X9504539Y-12227293D01*
X9504539Y-12227293D02*
X9495015Y-12265388D01*
X9495015Y-12265388D02*
X9485491Y-12284436D01*
X9485491Y-12284436D02*
X9475967Y-12293960D01*
X9475967Y-12293960D02*
X9456920Y-12303484D01*
X9456920Y-12303484D02*
X9437872Y-12303484D01*
X9437872Y-12303484D02*
X9418824Y-12293960D01*
X9418824Y-12293960D02*
X9409301Y-12284436D01*
X9409301Y-12284436D02*
X9399777Y-12265388D01*
X9399777Y-12265388D02*
X9390253Y-12227293D01*
X9390253Y-12227293D02*
X9390253Y-12179674D01*
X9390253Y-12179674D02*
X9399777Y-12141579D01*
X9399777Y-12141579D02*
X9409301Y-12122531D01*
X9409301Y-12122531D02*
X9418824Y-12113008D01*
X9418824Y-12113008D02*
X9437872Y-12103484D01*
X9590253Y-12284436D02*
X9599777Y-12293960D01*
X9599777Y-12293960D02*
X9590253Y-12303484D01*
X9590253Y-12303484D02*
X9580729Y-12293960D01*
X9580729Y-12293960D02*
X9590253Y-12284436D01*
X9590253Y-12284436D02*
X9590253Y-12303484D01*
X9771205Y-12170150D02*
X9771205Y-12303484D01*
X9723586Y-12093960D02*
X9675967Y-12236817D01*
X9675967Y-12236817D02*
X9799777Y-12236817D01*
X9914063Y-12103484D02*
X9933110Y-12103484D01*
X9933110Y-12103484D02*
X9952158Y-12113008D01*
X9952158Y-12113008D02*
X9961682Y-12122531D01*
X9961682Y-12122531D02*
X9971205Y-12141579D01*
X9971205Y-12141579D02*
X9980729Y-12179674D01*
X9980729Y-12179674D02*
X9980729Y-12227293D01*
X9980729Y-12227293D02*
X9971205Y-12265388D01*
X9971205Y-12265388D02*
X9961682Y-12284436D01*
X9961682Y-12284436D02*
X9952158Y-12293960D01*
X9952158Y-12293960D02*
X9933110Y-12303484D01*
X9933110Y-12303484D02*
X9914063Y-12303484D01*
X9914063Y-12303484D02*
X9895015Y-12293960D01*
X9895015Y-12293960D02*
X9885491Y-12284436D01*
X9885491Y-12284436D02*
X9875967Y-12265388D01*
X9875967Y-12265388D02*
X9866444Y-12227293D01*
X9866444Y-12227293D02*
X9866444Y-12179674D01*
X9866444Y-12179674D02*
X9875967Y-12141579D01*
X9875967Y-12141579D02*
X9885491Y-12122531D01*
X9885491Y-12122531D02*
X9895015Y-12113008D01*
X9895015Y-12113008D02*
X9914063Y-12103484D01*
X10104539Y-12103484D02*
X10123586Y-12103484D01*
X10123586Y-12103484D02*
X10142634Y-12113008D01*
X10142634Y-12113008D02*
X10152158Y-12122531D01*
X10152158Y-12122531D02*
X10161682Y-12141579D01*
X10161682Y-12141579D02*
X10171205Y-12179674D01*
X10171205Y-12179674D02*
X10171205Y-12227293D01*
X10171205Y-12227293D02*
X10161682Y-12265388D01*
X10161682Y-12265388D02*
X10152158Y-12284436D01*
X10152158Y-12284436D02*
X10142634Y-12293960D01*
X10142634Y-12293960D02*
X10123586Y-12303484D01*
X10123586Y-12303484D02*
X10104539Y-12303484D01*
X10104539Y-12303484D02*
X10085491Y-12293960D01*
X10085491Y-12293960D02*
X10075967Y-12284436D01*
X10075967Y-12284436D02*
X10066444Y-12265388D01*
X10066444Y-12265388D02*
X10056920Y-12227293D01*
X10056920Y-12227293D02*
X10056920Y-12179674D01*
X10056920Y-12179674D02*
X10066444Y-12141579D01*
X10066444Y-12141579D02*
X10075967Y-12122531D01*
X10075967Y-12122531D02*
X10085491Y-12113008D01*
X10085491Y-12113008D02*
X10104539Y-12103484D01*
X10256920Y-12303484D02*
X10256920Y-12170150D01*
X10256920Y-12189198D02*
X10266444Y-12179674D01*
X10266444Y-12179674D02*
X10285491Y-12170150D01*
X10285491Y-12170150D02*
X10314063Y-12170150D01*
X10314063Y-12170150D02*
X10333110Y-12179674D01*
X10333110Y-12179674D02*
X10342634Y-12198722D01*
X10342634Y-12198722D02*
X10342634Y-12303484D01*
X10342634Y-12198722D02*
X10352158Y-12179674D01*
X10352158Y-12179674D02*
X10371205Y-12170150D01*
X10371205Y-12170150D02*
X10399777Y-12170150D01*
X10399777Y-12170150D02*
X10418825Y-12179674D01*
X10418825Y-12179674D02*
X10428348Y-12198722D01*
X10428348Y-12198722D02*
X10428348Y-12303484D01*
X10523586Y-12303484D02*
X10523586Y-12170150D01*
X10523586Y-12189198D02*
X10533110Y-12179674D01*
X10533110Y-12179674D02*
X10552158Y-12170150D01*
X10552158Y-12170150D02*
X10580729Y-12170150D01*
X10580729Y-12170150D02*
X10599777Y-12179674D01*
X10599777Y-12179674D02*
X10609301Y-12198722D01*
X10609301Y-12198722D02*
X10609301Y-12303484D01*
X10609301Y-12198722D02*
X10618825Y-12179674D01*
X10618825Y-12179674D02*
X10637872Y-12170150D01*
X10637872Y-12170150D02*
X10666444Y-12170150D01*
X10666444Y-12170150D02*
X10685491Y-12179674D01*
X10685491Y-12179674D02*
X10695015Y-12198722D01*
X10695015Y-12198722D02*
X10695015Y-12303484D01*
X11085491Y-12093960D02*
X10914063Y-12351103D01*
X11342634Y-12103484D02*
X11361682Y-12103484D01*
X11361682Y-12103484D02*
X11380729Y-12113008D01*
X11380729Y-12113008D02*
X11390253Y-12122531D01*
X11390253Y-12122531D02*
X11399777Y-12141579D01*
X11399777Y-12141579D02*
X11409301Y-12179674D01*
X11409301Y-12179674D02*
X11409301Y-12227293D01*
X11409301Y-12227293D02*
X11399777Y-12265388D01*
X11399777Y-12265388D02*
X11390253Y-12284436D01*
X11390253Y-12284436D02*
X11380729Y-12293960D01*
X11380729Y-12293960D02*
X11361682Y-12303484D01*
X11361682Y-12303484D02*
X11342634Y-12303484D01*
X11342634Y-12303484D02*
X11323586Y-12293960D01*
X11323586Y-12293960D02*
X11314063Y-12284436D01*
X11314063Y-12284436D02*
X11304539Y-12265388D01*
X11304539Y-12265388D02*
X11295015Y-12227293D01*
X11295015Y-12227293D02*
X11295015Y-12179674D01*
X11295015Y-12179674D02*
X11304539Y-12141579D01*
X11304539Y-12141579D02*
X11314063Y-12122531D01*
X11314063Y-12122531D02*
X11323586Y-12113008D01*
X11323586Y-12113008D02*
X11342634Y-12103484D01*
X11495015Y-12284436D02*
X11504539Y-12293960D01*
X11504539Y-12293960D02*
X11495015Y-12303484D01*
X11495015Y-12303484D02*
X11485491Y-12293960D01*
X11485491Y-12293960D02*
X11495015Y-12284436D01*
X11495015Y-12284436D02*
X11495015Y-12303484D01*
X11628348Y-12103484D02*
X11647396Y-12103484D01*
X11647396Y-12103484D02*
X11666444Y-12113008D01*
X11666444Y-12113008D02*
X11675967Y-12122531D01*
X11675967Y-12122531D02*
X11685491Y-12141579D01*
X11685491Y-12141579D02*
X11695015Y-12179674D01*
X11695015Y-12179674D02*
X11695015Y-12227293D01*
X11695015Y-12227293D02*
X11685491Y-12265388D01*
X11685491Y-12265388D02*
X11675967Y-12284436D01*
X11675967Y-12284436D02*
X11666444Y-12293960D01*
X11666444Y-12293960D02*
X11647396Y-12303484D01*
X11647396Y-12303484D02*
X11628348Y-12303484D01*
X11628348Y-12303484D02*
X11609301Y-12293960D01*
X11609301Y-12293960D02*
X11599777Y-12284436D01*
X11599777Y-12284436D02*
X11590253Y-12265388D01*
X11590253Y-12265388D02*
X11580729Y-12227293D01*
X11580729Y-12227293D02*
X11580729Y-12179674D01*
X11580729Y-12179674D02*
X11590253Y-12141579D01*
X11590253Y-12141579D02*
X11599777Y-12122531D01*
X11599777Y-12122531D02*
X11609301Y-12113008D01*
X11609301Y-12113008D02*
X11628348Y-12103484D01*
X11885491Y-12303484D02*
X11771206Y-12303484D01*
X11828348Y-12303484D02*
X11828348Y-12103484D01*
X11828348Y-12103484D02*
X11809301Y-12132055D01*
X11809301Y-12132055D02*
X11790253Y-12151103D01*
X11790253Y-12151103D02*
X11771206Y-12160627D01*
X12066444Y-12103484D02*
X11971206Y-12103484D01*
X11971206Y-12103484D02*
X11961682Y-12198722D01*
X11961682Y-12198722D02*
X11971206Y-12189198D01*
X11971206Y-12189198D02*
X11990253Y-12179674D01*
X11990253Y-12179674D02*
X12037872Y-12179674D01*
X12037872Y-12179674D02*
X12056920Y-12189198D01*
X12056920Y-12189198D02*
X12066444Y-12198722D01*
X12066444Y-12198722D02*
X12075967Y-12217769D01*
X12075967Y-12217769D02*
X12075967Y-12265388D01*
X12075967Y-12265388D02*
X12066444Y-12284436D01*
X12066444Y-12284436D02*
X12056920Y-12293960D01*
X12056920Y-12293960D02*
X12037872Y-12303484D01*
X12037872Y-12303484D02*
X11990253Y-12303484D01*
X11990253Y-12303484D02*
X11971206Y-12293960D01*
X11971206Y-12293960D02*
X11961682Y-12284436D01*
X12142634Y-12103484D02*
X12275967Y-12103484D01*
X12275967Y-12103484D02*
X12190253Y-12303484D01*
X12342634Y-12103484D02*
X12342634Y-12141579D01*
X12418825Y-12103484D02*
X12418825Y-12141579D01*
X12714063Y-12379674D02*
X12704539Y-12370150D01*
X12704539Y-12370150D02*
X12685491Y-12341579D01*
X12685491Y-12341579D02*
X12675968Y-12322531D01*
X12675968Y-12322531D02*
X12666444Y-12293960D01*
X12666444Y-12293960D02*
X12656920Y-12246341D01*
X12656920Y-12246341D02*
X12656920Y-12208246D01*
X12656920Y-12208246D02*
X12666444Y-12160627D01*
X12666444Y-12160627D02*
X12675968Y-12132055D01*
X12675968Y-12132055D02*
X12685491Y-12113008D01*
X12685491Y-12113008D02*
X12704539Y-12084436D01*
X12704539Y-12084436D02*
X12714063Y-12074912D01*
X12885491Y-12103484D02*
X12790253Y-12103484D01*
X12790253Y-12103484D02*
X12780729Y-12198722D01*
X12780729Y-12198722D02*
X12790253Y-12189198D01*
X12790253Y-12189198D02*
X12809301Y-12179674D01*
X12809301Y-12179674D02*
X12856920Y-12179674D01*
X12856920Y-12179674D02*
X12875968Y-12189198D01*
X12875968Y-12189198D02*
X12885491Y-12198722D01*
X12885491Y-12198722D02*
X12895015Y-12217769D01*
X12895015Y-12217769D02*
X12895015Y-12265388D01*
X12895015Y-12265388D02*
X12885491Y-12284436D01*
X12885491Y-12284436D02*
X12875968Y-12293960D01*
X12875968Y-12293960D02*
X12856920Y-12303484D01*
X12856920Y-12303484D02*
X12809301Y-12303484D01*
X12809301Y-12303484D02*
X12790253Y-12293960D01*
X12790253Y-12293960D02*
X12780729Y-12284436D01*
X13133110Y-12303484D02*
X13133110Y-12103484D01*
X13218825Y-12303484D02*
X13218825Y-12198722D01*
X13218825Y-12198722D02*
X13209301Y-12179674D01*
X13209301Y-12179674D02*
X13190253Y-12170150D01*
X13190253Y-12170150D02*
X13161682Y-12170150D01*
X13161682Y-12170150D02*
X13142634Y-12179674D01*
X13142634Y-12179674D02*
X13133110Y-12189198D01*
X13342634Y-12303484D02*
X13323587Y-12293960D01*
X13323587Y-12293960D02*
X13314063Y-12284436D01*
X13314063Y-12284436D02*
X13304539Y-12265388D01*
X13304539Y-12265388D02*
X13304539Y-12208246D01*
X13304539Y-12208246D02*
X13314063Y-12189198D01*
X13314063Y-12189198D02*
X13323587Y-12179674D01*
X13323587Y-12179674D02*
X13342634Y-12170150D01*
X13342634Y-12170150D02*
X13371206Y-12170150D01*
X13371206Y-12170150D02*
X13390253Y-12179674D01*
X13390253Y-12179674D02*
X13399777Y-12189198D01*
X13399777Y-12189198D02*
X13409301Y-12208246D01*
X13409301Y-12208246D02*
X13409301Y-12265388D01*
X13409301Y-12265388D02*
X13399777Y-12284436D01*
X13399777Y-12284436D02*
X13390253Y-12293960D01*
X13390253Y-12293960D02*
X13371206Y-12303484D01*
X13371206Y-12303484D02*
X13342634Y-12303484D01*
X13523587Y-12303484D02*
X13504539Y-12293960D01*
X13504539Y-12293960D02*
X13495015Y-12274912D01*
X13495015Y-12274912D02*
X13495015Y-12103484D01*
X13675968Y-12293960D02*
X13656920Y-12303484D01*
X13656920Y-12303484D02*
X13618825Y-12303484D01*
X13618825Y-12303484D02*
X13599777Y-12293960D01*
X13599777Y-12293960D02*
X13590253Y-12274912D01*
X13590253Y-12274912D02*
X13590253Y-12198722D01*
X13590253Y-12198722D02*
X13599777Y-12179674D01*
X13599777Y-12179674D02*
X13618825Y-12170150D01*
X13618825Y-12170150D02*
X13656920Y-12170150D01*
X13656920Y-12170150D02*
X13675968Y-12179674D01*
X13675968Y-12179674D02*
X13685491Y-12198722D01*
X13685491Y-12198722D02*
X13685491Y-12217769D01*
X13685491Y-12217769D02*
X13590253Y-12236817D01*
X13761682Y-12293960D02*
X13780730Y-12303484D01*
X13780730Y-12303484D02*
X13818825Y-12303484D01*
X13818825Y-12303484D02*
X13837872Y-12293960D01*
X13837872Y-12293960D02*
X13847396Y-12274912D01*
X13847396Y-12274912D02*
X13847396Y-12265388D01*
X13847396Y-12265388D02*
X13837872Y-12246341D01*
X13837872Y-12246341D02*
X13818825Y-12236817D01*
X13818825Y-12236817D02*
X13790253Y-12236817D01*
X13790253Y-12236817D02*
X13771206Y-12227293D01*
X13771206Y-12227293D02*
X13761682Y-12208246D01*
X13761682Y-12208246D02*
X13761682Y-12198722D01*
X13761682Y-12198722D02*
X13771206Y-12179674D01*
X13771206Y-12179674D02*
X13790253Y-12170150D01*
X13790253Y-12170150D02*
X13818825Y-12170150D01*
X13818825Y-12170150D02*
X13837872Y-12179674D01*
X13914063Y-12379674D02*
X13923587Y-12370150D01*
X13923587Y-12370150D02*
X13942634Y-12341579D01*
X13942634Y-12341579D02*
X13952158Y-12322531D01*
X13952158Y-12322531D02*
X13961682Y-12293960D01*
X13961682Y-12293960D02*
X13971206Y-12246341D01*
X13971206Y-12246341D02*
X13971206Y-12208246D01*
X13971206Y-12208246D02*
X13961682Y-12160627D01*
X13961682Y-12160627D02*
X13952158Y-12132055D01*
X13952158Y-12132055D02*
X13942634Y-12113008D01*
X13942634Y-12113008D02*
X13923587Y-12084436D01*
X13923587Y-12084436D02*
X13914063Y-12074912D01*
D10*
X9099000Y-12436000D02*
X9099000Y-12516000D01*
X9059000Y-12476000D02*
X9139000Y-12476000D01*
D11*
X9437872Y-12367484D02*
X9456920Y-12367484D01*
X9456920Y-12367484D02*
X9475967Y-12377008D01*
X9475967Y-12377008D02*
X9485491Y-12386531D01*
X9485491Y-12386531D02*
X9495015Y-12405579D01*
X9495015Y-12405579D02*
X9504539Y-12443674D01*
X9504539Y-12443674D02*
X9504539Y-12491293D01*
X9504539Y-12491293D02*
X9495015Y-12529388D01*
X9495015Y-12529388D02*
X9485491Y-12548436D01*
X9485491Y-12548436D02*
X9475967Y-12557960D01*
X9475967Y-12557960D02*
X9456920Y-12567484D01*
X9456920Y-12567484D02*
X9437872Y-12567484D01*
X9437872Y-12567484D02*
X9418824Y-12557960D01*
X9418824Y-12557960D02*
X9409301Y-12548436D01*
X9409301Y-12548436D02*
X9399777Y-12529388D01*
X9399777Y-12529388D02*
X9390253Y-12491293D01*
X9390253Y-12491293D02*
X9390253Y-12443674D01*
X9390253Y-12443674D02*
X9399777Y-12405579D01*
X9399777Y-12405579D02*
X9409301Y-12386531D01*
X9409301Y-12386531D02*
X9418824Y-12377008D01*
X9418824Y-12377008D02*
X9437872Y-12367484D01*
X9590253Y-12548436D02*
X9599777Y-12557960D01*
X9599777Y-12557960D02*
X9590253Y-12567484D01*
X9590253Y-12567484D02*
X9580729Y-12557960D01*
X9580729Y-12557960D02*
X9590253Y-12548436D01*
X9590253Y-12548436D02*
X9590253Y-12567484D01*
X9714063Y-12453198D02*
X9695015Y-12443674D01*
X9695015Y-12443674D02*
X9685491Y-12434150D01*
X9685491Y-12434150D02*
X9675967Y-12415103D01*
X9675967Y-12415103D02*
X9675967Y-12405579D01*
X9675967Y-12405579D02*
X9685491Y-12386531D01*
X9685491Y-12386531D02*
X9695015Y-12377008D01*
X9695015Y-12377008D02*
X9714063Y-12367484D01*
X9714063Y-12367484D02*
X9752158Y-12367484D01*
X9752158Y-12367484D02*
X9771205Y-12377008D01*
X9771205Y-12377008D02*
X9780729Y-12386531D01*
X9780729Y-12386531D02*
X9790253Y-12405579D01*
X9790253Y-12405579D02*
X9790253Y-12415103D01*
X9790253Y-12415103D02*
X9780729Y-12434150D01*
X9780729Y-12434150D02*
X9771205Y-12443674D01*
X9771205Y-12443674D02*
X9752158Y-12453198D01*
X9752158Y-12453198D02*
X9714063Y-12453198D01*
X9714063Y-12453198D02*
X9695015Y-12462722D01*
X9695015Y-12462722D02*
X9685491Y-12472246D01*
X9685491Y-12472246D02*
X9675967Y-12491293D01*
X9675967Y-12491293D02*
X9675967Y-12529388D01*
X9675967Y-12529388D02*
X9685491Y-12548436D01*
X9685491Y-12548436D02*
X9695015Y-12557960D01*
X9695015Y-12557960D02*
X9714063Y-12567484D01*
X9714063Y-12567484D02*
X9752158Y-12567484D01*
X9752158Y-12567484D02*
X9771205Y-12557960D01*
X9771205Y-12557960D02*
X9780729Y-12548436D01*
X9780729Y-12548436D02*
X9790253Y-12529388D01*
X9790253Y-12529388D02*
X9790253Y-12491293D01*
X9790253Y-12491293D02*
X9780729Y-12472246D01*
X9780729Y-12472246D02*
X9771205Y-12462722D01*
X9771205Y-12462722D02*
X9752158Y-12453198D01*
X9914063Y-12367484D02*
X9933110Y-12367484D01*
X9933110Y-12367484D02*
X9952158Y-12377008D01*
X9952158Y-12377008D02*
X9961682Y-12386531D01*
X9961682Y-12386531D02*
X9971205Y-12405579D01*
X9971205Y-12405579D02*
X9980729Y-12443674D01*
X9980729Y-12443674D02*
X9980729Y-12491293D01*
X9980729Y-12491293D02*
X9971205Y-12529388D01*
X9971205Y-12529388D02*
X9961682Y-12548436D01*
X9961682Y-12548436D02*
X9952158Y-12557960D01*
X9952158Y-12557960D02*
X9933110Y-12567484D01*
X9933110Y-12567484D02*
X9914063Y-12567484D01*
X9914063Y-12567484D02*
X9895015Y-12557960D01*
X9895015Y-12557960D02*
X9885491Y-12548436D01*
X9885491Y-12548436D02*
X9875967Y-12529388D01*
X9875967Y-12529388D02*
X9866444Y-12491293D01*
X9866444Y-12491293D02*
X9866444Y-12443674D01*
X9866444Y-12443674D02*
X9875967Y-12405579D01*
X9875967Y-12405579D02*
X9885491Y-12386531D01*
X9885491Y-12386531D02*
X9895015Y-12377008D01*
X9895015Y-12377008D02*
X9914063Y-12367484D01*
X10104539Y-12367484D02*
X10123586Y-12367484D01*
X10123586Y-12367484D02*
X10142634Y-12377008D01*
X10142634Y-12377008D02*
X10152158Y-12386531D01*
X10152158Y-12386531D02*
X10161682Y-12405579D01*
X10161682Y-12405579D02*
X10171205Y-12443674D01*
X10171205Y-12443674D02*
X10171205Y-12491293D01*
X10171205Y-12491293D02*
X10161682Y-12529388D01*
X10161682Y-12529388D02*
X10152158Y-12548436D01*
X10152158Y-12548436D02*
X10142634Y-12557960D01*
X10142634Y-12557960D02*
X10123586Y-12567484D01*
X10123586Y-12567484D02*
X10104539Y-12567484D01*
X10104539Y-12567484D02*
X10085491Y-12557960D01*
X10085491Y-12557960D02*
X10075967Y-12548436D01*
X10075967Y-12548436D02*
X10066444Y-12529388D01*
X10066444Y-12529388D02*
X10056920Y-12491293D01*
X10056920Y-12491293D02*
X10056920Y-12443674D01*
X10056920Y-12443674D02*
X10066444Y-12405579D01*
X10066444Y-12405579D02*
X10075967Y-12386531D01*
X10075967Y-12386531D02*
X10085491Y-12377008D01*
X10085491Y-12377008D02*
X10104539Y-12367484D01*
X10256920Y-12567484D02*
X10256920Y-12434150D01*
X10256920Y-12453198D02*
X10266444Y-12443674D01*
X10266444Y-12443674D02*
X10285491Y-12434150D01*
X10285491Y-12434150D02*
X10314063Y-12434150D01*
X10314063Y-12434150D02*
X10333110Y-12443674D01*
X10333110Y-12443674D02*
X10342634Y-12462722D01*
X10342634Y-12462722D02*
X10342634Y-12567484D01*
X10342634Y-12462722D02*
X10352158Y-12443674D01*
X10352158Y-12443674D02*
X10371205Y-12434150D01*
X10371205Y-12434150D02*
X10399777Y-12434150D01*
X10399777Y-12434150D02*
X10418825Y-12443674D01*
X10418825Y-12443674D02*
X10428348Y-12462722D01*
X10428348Y-12462722D02*
X10428348Y-12567484D01*
X10523586Y-12567484D02*
X10523586Y-12434150D01*
X10523586Y-12453198D02*
X10533110Y-12443674D01*
X10533110Y-12443674D02*
X10552158Y-12434150D01*
X10552158Y-12434150D02*
X10580729Y-12434150D01*
X10580729Y-12434150D02*
X10599777Y-12443674D01*
X10599777Y-12443674D02*
X10609301Y-12462722D01*
X10609301Y-12462722D02*
X10609301Y-12567484D01*
X10609301Y-12462722D02*
X10618825Y-12443674D01*
X10618825Y-12443674D02*
X10637872Y-12434150D01*
X10637872Y-12434150D02*
X10666444Y-12434150D01*
X10666444Y-12434150D02*
X10685491Y-12443674D01*
X10685491Y-12443674D02*
X10695015Y-12462722D01*
X10695015Y-12462722D02*
X10695015Y-12567484D01*
X11085491Y-12357960D02*
X10914063Y-12615103D01*
X11342634Y-12367484D02*
X11361682Y-12367484D01*
X11361682Y-12367484D02*
X11380729Y-12377008D01*
X11380729Y-12377008D02*
X11390253Y-12386531D01*
X11390253Y-12386531D02*
X11399777Y-12405579D01*
X11399777Y-12405579D02*
X11409301Y-12443674D01*
X11409301Y-12443674D02*
X11409301Y-12491293D01*
X11409301Y-12491293D02*
X11399777Y-12529388D01*
X11399777Y-12529388D02*
X11390253Y-12548436D01*
X11390253Y-12548436D02*
X11380729Y-12557960D01*
X11380729Y-12557960D02*
X11361682Y-12567484D01*
X11361682Y-12567484D02*
X11342634Y-12567484D01*
X11342634Y-12567484D02*
X11323586Y-12557960D01*
X11323586Y-12557960D02*
X11314063Y-12548436D01*
X11314063Y-12548436D02*
X11304539Y-12529388D01*
X11304539Y-12529388D02*
X11295015Y-12491293D01*
X11295015Y-12491293D02*
X11295015Y-12443674D01*
X11295015Y-12443674D02*
X11304539Y-12405579D01*
X11304539Y-12405579D02*
X11314063Y-12386531D01*
X11314063Y-12386531D02*
X11323586Y-12377008D01*
X11323586Y-12377008D02*
X11342634Y-12367484D01*
X11495015Y-12548436D02*
X11504539Y-12557960D01*
X11504539Y-12557960D02*
X11495015Y-12567484D01*
X11495015Y-12567484D02*
X11485491Y-12557960D01*
X11485491Y-12557960D02*
X11495015Y-12548436D01*
X11495015Y-12548436D02*
X11495015Y-12567484D01*
X11628348Y-12367484D02*
X11647396Y-12367484D01*
X11647396Y-12367484D02*
X11666444Y-12377008D01*
X11666444Y-12377008D02*
X11675967Y-12386531D01*
X11675967Y-12386531D02*
X11685491Y-12405579D01*
X11685491Y-12405579D02*
X11695015Y-12443674D01*
X11695015Y-12443674D02*
X11695015Y-12491293D01*
X11695015Y-12491293D02*
X11685491Y-12529388D01*
X11685491Y-12529388D02*
X11675967Y-12548436D01*
X11675967Y-12548436D02*
X11666444Y-12557960D01*
X11666444Y-12557960D02*
X11647396Y-12567484D01*
X11647396Y-12567484D02*
X11628348Y-12567484D01*
X11628348Y-12567484D02*
X11609301Y-12557960D01*
X11609301Y-12557960D02*
X11599777Y-12548436D01*
X11599777Y-12548436D02*
X11590253Y-12529388D01*
X11590253Y-12529388D02*
X11580729Y-12491293D01*
X11580729Y-12491293D02*
X11580729Y-12443674D01*
X11580729Y-12443674D02*
X11590253Y-12405579D01*
X11590253Y-12405579D02*
X11599777Y-12386531D01*
X11599777Y-12386531D02*
X11609301Y-12377008D01*
X11609301Y-12377008D02*
X11628348Y-12367484D01*
X11761682Y-12367484D02*
X11885491Y-12367484D01*
X11885491Y-12367484D02*
X11818825Y-12443674D01*
X11818825Y-12443674D02*
X11847396Y-12443674D01*
X11847396Y-12443674D02*
X11866444Y-12453198D01*
X11866444Y-12453198D02*
X11875967Y-12462722D01*
X11875967Y-12462722D02*
X11885491Y-12481769D01*
X11885491Y-12481769D02*
X11885491Y-12529388D01*
X11885491Y-12529388D02*
X11875967Y-12548436D01*
X11875967Y-12548436D02*
X11866444Y-12557960D01*
X11866444Y-12557960D02*
X11847396Y-12567484D01*
X11847396Y-12567484D02*
X11790253Y-12567484D01*
X11790253Y-12567484D02*
X11771206Y-12557960D01*
X11771206Y-12557960D02*
X11761682Y-12548436D01*
X12075967Y-12567484D02*
X11961682Y-12567484D01*
X12018825Y-12567484D02*
X12018825Y-12367484D01*
X12018825Y-12367484D02*
X11999777Y-12396055D01*
X11999777Y-12396055D02*
X11980729Y-12415103D01*
X11980729Y-12415103D02*
X11961682Y-12424627D01*
X12256920Y-12367484D02*
X12161682Y-12367484D01*
X12161682Y-12367484D02*
X12152158Y-12462722D01*
X12152158Y-12462722D02*
X12161682Y-12453198D01*
X12161682Y-12453198D02*
X12180729Y-12443674D01*
X12180729Y-12443674D02*
X12228348Y-12443674D01*
X12228348Y-12443674D02*
X12247396Y-12453198D01*
X12247396Y-12453198D02*
X12256920Y-12462722D01*
X12256920Y-12462722D02*
X12266444Y-12481769D01*
X12266444Y-12481769D02*
X12266444Y-12529388D01*
X12266444Y-12529388D02*
X12256920Y-12548436D01*
X12256920Y-12548436D02*
X12247396Y-12557960D01*
X12247396Y-12557960D02*
X12228348Y-12567484D01*
X12228348Y-12567484D02*
X12180729Y-12567484D01*
X12180729Y-12567484D02*
X12161682Y-12557960D01*
X12161682Y-12557960D02*
X12152158Y-12548436D01*
X12342634Y-12367484D02*
X12342634Y-12405579D01*
X12418825Y-12367484D02*
X12418825Y-12405579D01*
X12714063Y-12643674D02*
X12704539Y-12634150D01*
X12704539Y-12634150D02*
X12685491Y-12605579D01*
X12685491Y-12605579D02*
X12675968Y-12586531D01*
X12675968Y-12586531D02*
X12666444Y-12557960D01*
X12666444Y-12557960D02*
X12656920Y-12510341D01*
X12656920Y-12510341D02*
X12656920Y-12472246D01*
X12656920Y-12472246D02*
X12666444Y-12424627D01*
X12666444Y-12424627D02*
X12675968Y-12396055D01*
X12675968Y-12396055D02*
X12685491Y-12377008D01*
X12685491Y-12377008D02*
X12704539Y-12348436D01*
X12704539Y-12348436D02*
X12714063Y-12338912D01*
X12895015Y-12567484D02*
X12780729Y-12567484D01*
X12837872Y-12567484D02*
X12837872Y-12367484D01*
X12837872Y-12367484D02*
X12818825Y-12396055D01*
X12818825Y-12396055D02*
X12799777Y-12415103D01*
X12799777Y-12415103D02*
X12780729Y-12424627D01*
X13066444Y-12367484D02*
X13028348Y-12367484D01*
X13028348Y-12367484D02*
X13009301Y-12377008D01*
X13009301Y-12377008D02*
X12999777Y-12386531D01*
X12999777Y-12386531D02*
X12980729Y-12415103D01*
X12980729Y-12415103D02*
X12971206Y-12453198D01*
X12971206Y-12453198D02*
X12971206Y-12529388D01*
X12971206Y-12529388D02*
X12980729Y-12548436D01*
X12980729Y-12548436D02*
X12990253Y-12557960D01*
X12990253Y-12557960D02*
X13009301Y-12567484D01*
X13009301Y-12567484D02*
X13047396Y-12567484D01*
X13047396Y-12567484D02*
X13066444Y-12557960D01*
X13066444Y-12557960D02*
X13075968Y-12548436D01*
X13075968Y-12548436D02*
X13085491Y-12529388D01*
X13085491Y-12529388D02*
X13085491Y-12481769D01*
X13085491Y-12481769D02*
X13075968Y-12462722D01*
X13075968Y-12462722D02*
X13066444Y-12453198D01*
X13066444Y-12453198D02*
X13047396Y-12443674D01*
X13047396Y-12443674D02*
X13009301Y-12443674D01*
X13009301Y-12443674D02*
X12990253Y-12453198D01*
X12990253Y-12453198D02*
X12980729Y-12462722D01*
X12980729Y-12462722D02*
X12971206Y-12481769D01*
X13323587Y-12567484D02*
X13323587Y-12367484D01*
X13409301Y-12567484D02*
X13409301Y-12462722D01*
X13409301Y-12462722D02*
X13399777Y-12443674D01*
X13399777Y-12443674D02*
X13380730Y-12434150D01*
X13380730Y-12434150D02*
X13352158Y-12434150D01*
X13352158Y-12434150D02*
X13333110Y-12443674D01*
X13333110Y-12443674D02*
X13323587Y-12453198D01*
X13533110Y-12567484D02*
X13514063Y-12557960D01*
X13514063Y-12557960D02*
X13504539Y-12548436D01*
X13504539Y-12548436D02*
X13495015Y-12529388D01*
X13495015Y-12529388D02*
X13495015Y-12472246D01*
X13495015Y-12472246D02*
X13504539Y-12453198D01*
X13504539Y-12453198D02*
X13514063Y-12443674D01*
X13514063Y-12443674D02*
X13533110Y-12434150D01*
X13533110Y-12434150D02*
X13561682Y-12434150D01*
X13561682Y-12434150D02*
X13580730Y-12443674D01*
X13580730Y-12443674D02*
X13590253Y-12453198D01*
X13590253Y-12453198D02*
X13599777Y-12472246D01*
X13599777Y-12472246D02*
X13599777Y-12529388D01*
X13599777Y-12529388D02*
X13590253Y-12548436D01*
X13590253Y-12548436D02*
X13580730Y-12557960D01*
X13580730Y-12557960D02*
X13561682Y-12567484D01*
X13561682Y-12567484D02*
X13533110Y-12567484D01*
X13714063Y-12567484D02*
X13695015Y-12557960D01*
X13695015Y-12557960D02*
X13685491Y-12538912D01*
X13685491Y-12538912D02*
X13685491Y-12367484D01*
X13866444Y-12557960D02*
X13847396Y-12567484D01*
X13847396Y-12567484D02*
X13809301Y-12567484D01*
X13809301Y-12567484D02*
X13790253Y-12557960D01*
X13790253Y-12557960D02*
X13780730Y-12538912D01*
X13780730Y-12538912D02*
X13780730Y-12462722D01*
X13780730Y-12462722D02*
X13790253Y-12443674D01*
X13790253Y-12443674D02*
X13809301Y-12434150D01*
X13809301Y-12434150D02*
X13847396Y-12434150D01*
X13847396Y-12434150D02*
X13866444Y-12443674D01*
X13866444Y-12443674D02*
X13875968Y-12462722D01*
X13875968Y-12462722D02*
X13875968Y-12481769D01*
X13875968Y-12481769D02*
X13780730Y-12500817D01*
X13952158Y-12557960D02*
X13971206Y-12567484D01*
X13971206Y-12567484D02*
X14009301Y-12567484D01*
X14009301Y-12567484D02*
X14028349Y-12557960D01*
X14028349Y-12557960D02*
X14037872Y-12538912D01*
X14037872Y-12538912D02*
X14037872Y-12529388D01*
X14037872Y-12529388D02*
X14028349Y-12510341D01*
X14028349Y-12510341D02*
X14009301Y-12500817D01*
X14009301Y-12500817D02*
X13980730Y-12500817D01*
X13980730Y-12500817D02*
X13961682Y-12491293D01*
X13961682Y-12491293D02*
X13952158Y-12472246D01*
X13952158Y-12472246D02*
X13952158Y-12462722D01*
X13952158Y-12462722D02*
X13961682Y-12443674D01*
X13961682Y-12443674D02*
X13980730Y-12434150D01*
X13980730Y-12434150D02*
X14009301Y-12434150D01*
X14009301Y-12434150D02*
X14028349Y-12443674D01*
X14104539Y-12643674D02*
X14114063Y-12634150D01*
X14114063Y-12634150D02*
X14133111Y-12605579D01*
X14133111Y-12605579D02*
X14142634Y-12586531D01*
X14142634Y-12586531D02*
X14152158Y-12557960D01*
X14152158Y-12557960D02*
X14161682Y-12510341D01*
X14161682Y-12510341D02*
X14161682Y-12472246D01*
X14161682Y-12472246D02*
X14152158Y-12424627D01*
X14152158Y-12424627D02*
X14142634Y-12396055D01*
X14142634Y-12396055D02*
X14133111Y-12377008D01*
X14133111Y-12377008D02*
X14114063Y-12348436D01*
X14114063Y-12348436D02*
X14104539Y-12338912D01*
D10*
X9124356Y-12775356D02*
X9124356Y-12704644D01*
X9053644Y-12704644D01*
X9053644Y-12775356D01*
X9124356Y-12775356D01*
D11*
X9504539Y-12831484D02*
X9390253Y-12831484D01*
X9447396Y-12831484D02*
X9447396Y-12631484D01*
X9447396Y-12631484D02*
X9428348Y-12660055D01*
X9428348Y-12660055D02*
X9409301Y-12679103D01*
X9409301Y-12679103D02*
X9390253Y-12688627D01*
X9590253Y-12812436D02*
X9599777Y-12821960D01*
X9599777Y-12821960D02*
X9590253Y-12831484D01*
X9590253Y-12831484D02*
X9580729Y-12821960D01*
X9580729Y-12821960D02*
X9590253Y-12812436D01*
X9590253Y-12812436D02*
X9590253Y-12831484D01*
X9723586Y-12631484D02*
X9742634Y-12631484D01*
X9742634Y-12631484D02*
X9761682Y-12641008D01*
X9761682Y-12641008D02*
X9771205Y-12650531D01*
X9771205Y-12650531D02*
X9780729Y-12669579D01*
X9780729Y-12669579D02*
X9790253Y-12707674D01*
X9790253Y-12707674D02*
X9790253Y-12755293D01*
X9790253Y-12755293D02*
X9780729Y-12793388D01*
X9780729Y-12793388D02*
X9771205Y-12812436D01*
X9771205Y-12812436D02*
X9761682Y-12821960D01*
X9761682Y-12821960D02*
X9742634Y-12831484D01*
X9742634Y-12831484D02*
X9723586Y-12831484D01*
X9723586Y-12831484D02*
X9704539Y-12821960D01*
X9704539Y-12821960D02*
X9695015Y-12812436D01*
X9695015Y-12812436D02*
X9685491Y-12793388D01*
X9685491Y-12793388D02*
X9675967Y-12755293D01*
X9675967Y-12755293D02*
X9675967Y-12707674D01*
X9675967Y-12707674D02*
X9685491Y-12669579D01*
X9685491Y-12669579D02*
X9695015Y-12650531D01*
X9695015Y-12650531D02*
X9704539Y-12641008D01*
X9704539Y-12641008D02*
X9723586Y-12631484D01*
X9914063Y-12631484D02*
X9933110Y-12631484D01*
X9933110Y-12631484D02*
X9952158Y-12641008D01*
X9952158Y-12641008D02*
X9961682Y-12650531D01*
X9961682Y-12650531D02*
X9971205Y-12669579D01*
X9971205Y-12669579D02*
X9980729Y-12707674D01*
X9980729Y-12707674D02*
X9980729Y-12755293D01*
X9980729Y-12755293D02*
X9971205Y-12793388D01*
X9971205Y-12793388D02*
X9961682Y-12812436D01*
X9961682Y-12812436D02*
X9952158Y-12821960D01*
X9952158Y-12821960D02*
X9933110Y-12831484D01*
X9933110Y-12831484D02*
X9914063Y-12831484D01*
X9914063Y-12831484D02*
X9895015Y-12821960D01*
X9895015Y-12821960D02*
X9885491Y-12812436D01*
X9885491Y-12812436D02*
X9875967Y-12793388D01*
X9875967Y-12793388D02*
X9866444Y-12755293D01*
X9866444Y-12755293D02*
X9866444Y-12707674D01*
X9866444Y-12707674D02*
X9875967Y-12669579D01*
X9875967Y-12669579D02*
X9885491Y-12650531D01*
X9885491Y-12650531D02*
X9895015Y-12641008D01*
X9895015Y-12641008D02*
X9914063Y-12631484D01*
X10104539Y-12631484D02*
X10123586Y-12631484D01*
X10123586Y-12631484D02*
X10142634Y-12641008D01*
X10142634Y-12641008D02*
X10152158Y-12650531D01*
X10152158Y-12650531D02*
X10161682Y-12669579D01*
X10161682Y-12669579D02*
X10171205Y-12707674D01*
X10171205Y-12707674D02*
X10171205Y-12755293D01*
X10171205Y-12755293D02*
X10161682Y-12793388D01*
X10161682Y-12793388D02*
X10152158Y-12812436D01*
X10152158Y-12812436D02*
X10142634Y-12821960D01*
X10142634Y-12821960D02*
X10123586Y-12831484D01*
X10123586Y-12831484D02*
X10104539Y-12831484D01*
X10104539Y-12831484D02*
X10085491Y-12821960D01*
X10085491Y-12821960D02*
X10075967Y-12812436D01*
X10075967Y-12812436D02*
X10066444Y-12793388D01*
X10066444Y-12793388D02*
X10056920Y-12755293D01*
X10056920Y-12755293D02*
X10056920Y-12707674D01*
X10056920Y-12707674D02*
X10066444Y-12669579D01*
X10066444Y-12669579D02*
X10075967Y-12650531D01*
X10075967Y-12650531D02*
X10085491Y-12641008D01*
X10085491Y-12641008D02*
X10104539Y-12631484D01*
X10256920Y-12831484D02*
X10256920Y-12698150D01*
X10256920Y-12717198D02*
X10266444Y-12707674D01*
X10266444Y-12707674D02*
X10285491Y-12698150D01*
X10285491Y-12698150D02*
X10314063Y-12698150D01*
X10314063Y-12698150D02*
X10333110Y-12707674D01*
X10333110Y-12707674D02*
X10342634Y-12726722D01*
X10342634Y-12726722D02*
X10342634Y-12831484D01*
X10342634Y-12726722D02*
X10352158Y-12707674D01*
X10352158Y-12707674D02*
X10371205Y-12698150D01*
X10371205Y-12698150D02*
X10399777Y-12698150D01*
X10399777Y-12698150D02*
X10418825Y-12707674D01*
X10418825Y-12707674D02*
X10428348Y-12726722D01*
X10428348Y-12726722D02*
X10428348Y-12831484D01*
X10523586Y-12831484D02*
X10523586Y-12698150D01*
X10523586Y-12717198D02*
X10533110Y-12707674D01*
X10533110Y-12707674D02*
X10552158Y-12698150D01*
X10552158Y-12698150D02*
X10580729Y-12698150D01*
X10580729Y-12698150D02*
X10599777Y-12707674D01*
X10599777Y-12707674D02*
X10609301Y-12726722D01*
X10609301Y-12726722D02*
X10609301Y-12831484D01*
X10609301Y-12726722D02*
X10618825Y-12707674D01*
X10618825Y-12707674D02*
X10637872Y-12698150D01*
X10637872Y-12698150D02*
X10666444Y-12698150D01*
X10666444Y-12698150D02*
X10685491Y-12707674D01*
X10685491Y-12707674D02*
X10695015Y-12726722D01*
X10695015Y-12726722D02*
X10695015Y-12831484D01*
X11085491Y-12621960D02*
X10914063Y-12879103D01*
X11342634Y-12631484D02*
X11361682Y-12631484D01*
X11361682Y-12631484D02*
X11380729Y-12641008D01*
X11380729Y-12641008D02*
X11390253Y-12650531D01*
X11390253Y-12650531D02*
X11399777Y-12669579D01*
X11399777Y-12669579D02*
X11409301Y-12707674D01*
X11409301Y-12707674D02*
X11409301Y-12755293D01*
X11409301Y-12755293D02*
X11399777Y-12793388D01*
X11399777Y-12793388D02*
X11390253Y-12812436D01*
X11390253Y-12812436D02*
X11380729Y-12821960D01*
X11380729Y-12821960D02*
X11361682Y-12831484D01*
X11361682Y-12831484D02*
X11342634Y-12831484D01*
X11342634Y-12831484D02*
X11323586Y-12821960D01*
X11323586Y-12821960D02*
X11314063Y-12812436D01*
X11314063Y-12812436D02*
X11304539Y-12793388D01*
X11304539Y-12793388D02*
X11295015Y-12755293D01*
X11295015Y-12755293D02*
X11295015Y-12707674D01*
X11295015Y-12707674D02*
X11304539Y-12669579D01*
X11304539Y-12669579D02*
X11314063Y-12650531D01*
X11314063Y-12650531D02*
X11323586Y-12641008D01*
X11323586Y-12641008D02*
X11342634Y-12631484D01*
X11495015Y-12812436D02*
X11504539Y-12821960D01*
X11504539Y-12821960D02*
X11495015Y-12831484D01*
X11495015Y-12831484D02*
X11485491Y-12821960D01*
X11485491Y-12821960D02*
X11495015Y-12812436D01*
X11495015Y-12812436D02*
X11495015Y-12831484D01*
X11628348Y-12631484D02*
X11647396Y-12631484D01*
X11647396Y-12631484D02*
X11666444Y-12641008D01*
X11666444Y-12641008D02*
X11675967Y-12650531D01*
X11675967Y-12650531D02*
X11685491Y-12669579D01*
X11685491Y-12669579D02*
X11695015Y-12707674D01*
X11695015Y-12707674D02*
X11695015Y-12755293D01*
X11695015Y-12755293D02*
X11685491Y-12793388D01*
X11685491Y-12793388D02*
X11675967Y-12812436D01*
X11675967Y-12812436D02*
X11666444Y-12821960D01*
X11666444Y-12821960D02*
X11647396Y-12831484D01*
X11647396Y-12831484D02*
X11628348Y-12831484D01*
X11628348Y-12831484D02*
X11609301Y-12821960D01*
X11609301Y-12821960D02*
X11599777Y-12812436D01*
X11599777Y-12812436D02*
X11590253Y-12793388D01*
X11590253Y-12793388D02*
X11580729Y-12755293D01*
X11580729Y-12755293D02*
X11580729Y-12707674D01*
X11580729Y-12707674D02*
X11590253Y-12669579D01*
X11590253Y-12669579D02*
X11599777Y-12650531D01*
X11599777Y-12650531D02*
X11609301Y-12641008D01*
X11609301Y-12641008D02*
X11628348Y-12631484D01*
X11761682Y-12631484D02*
X11885491Y-12631484D01*
X11885491Y-12631484D02*
X11818825Y-12707674D01*
X11818825Y-12707674D02*
X11847396Y-12707674D01*
X11847396Y-12707674D02*
X11866444Y-12717198D01*
X11866444Y-12717198D02*
X11875967Y-12726722D01*
X11875967Y-12726722D02*
X11885491Y-12745769D01*
X11885491Y-12745769D02*
X11885491Y-12793388D01*
X11885491Y-12793388D02*
X11875967Y-12812436D01*
X11875967Y-12812436D02*
X11866444Y-12821960D01*
X11866444Y-12821960D02*
X11847396Y-12831484D01*
X11847396Y-12831484D02*
X11790253Y-12831484D01*
X11790253Y-12831484D02*
X11771206Y-12821960D01*
X11771206Y-12821960D02*
X11761682Y-12812436D01*
X11980729Y-12831484D02*
X12018825Y-12831484D01*
X12018825Y-12831484D02*
X12037872Y-12821960D01*
X12037872Y-12821960D02*
X12047396Y-12812436D01*
X12047396Y-12812436D02*
X12066444Y-12783865D01*
X12066444Y-12783865D02*
X12075967Y-12745769D01*
X12075967Y-12745769D02*
X12075967Y-12669579D01*
X12075967Y-12669579D02*
X12066444Y-12650531D01*
X12066444Y-12650531D02*
X12056920Y-12641008D01*
X12056920Y-12641008D02*
X12037872Y-12631484D01*
X12037872Y-12631484D02*
X11999777Y-12631484D01*
X11999777Y-12631484D02*
X11980729Y-12641008D01*
X11980729Y-12641008D02*
X11971206Y-12650531D01*
X11971206Y-12650531D02*
X11961682Y-12669579D01*
X11961682Y-12669579D02*
X11961682Y-12717198D01*
X11961682Y-12717198D02*
X11971206Y-12736246D01*
X11971206Y-12736246D02*
X11980729Y-12745769D01*
X11980729Y-12745769D02*
X11999777Y-12755293D01*
X11999777Y-12755293D02*
X12037872Y-12755293D01*
X12037872Y-12755293D02*
X12056920Y-12745769D01*
X12056920Y-12745769D02*
X12066444Y-12736246D01*
X12066444Y-12736246D02*
X12075967Y-12717198D01*
X12247396Y-12698150D02*
X12247396Y-12831484D01*
X12199777Y-12621960D02*
X12152158Y-12764817D01*
X12152158Y-12764817D02*
X12275967Y-12764817D01*
X12342634Y-12631484D02*
X12342634Y-12669579D01*
X12418825Y-12631484D02*
X12418825Y-12669579D01*
X12714063Y-12907674D02*
X12704539Y-12898150D01*
X12704539Y-12898150D02*
X12685491Y-12869579D01*
X12685491Y-12869579D02*
X12675968Y-12850531D01*
X12675968Y-12850531D02*
X12666444Y-12821960D01*
X12666444Y-12821960D02*
X12656920Y-12774341D01*
X12656920Y-12774341D02*
X12656920Y-12736246D01*
X12656920Y-12736246D02*
X12666444Y-12688627D01*
X12666444Y-12688627D02*
X12675968Y-12660055D01*
X12675968Y-12660055D02*
X12685491Y-12641008D01*
X12685491Y-12641008D02*
X12704539Y-12612436D01*
X12704539Y-12612436D02*
X12714063Y-12602912D01*
X12875968Y-12698150D02*
X12875968Y-12831484D01*
X12828348Y-12621960D02*
X12780729Y-12764817D01*
X12780729Y-12764817D02*
X12904539Y-12764817D01*
X13018825Y-12631484D02*
X13037872Y-12631484D01*
X13037872Y-12631484D02*
X13056920Y-12641008D01*
X13056920Y-12641008D02*
X13066444Y-12650531D01*
X13066444Y-12650531D02*
X13075968Y-12669579D01*
X13075968Y-12669579D02*
X13085491Y-12707674D01*
X13085491Y-12707674D02*
X13085491Y-12755293D01*
X13085491Y-12755293D02*
X13075968Y-12793388D01*
X13075968Y-12793388D02*
X13066444Y-12812436D01*
X13066444Y-12812436D02*
X13056920Y-12821960D01*
X13056920Y-12821960D02*
X13037872Y-12831484D01*
X13037872Y-12831484D02*
X13018825Y-12831484D01*
X13018825Y-12831484D02*
X12999777Y-12821960D01*
X12999777Y-12821960D02*
X12990253Y-12812436D01*
X12990253Y-12812436D02*
X12980729Y-12793388D01*
X12980729Y-12793388D02*
X12971206Y-12755293D01*
X12971206Y-12755293D02*
X12971206Y-12707674D01*
X12971206Y-12707674D02*
X12980729Y-12669579D01*
X12980729Y-12669579D02*
X12990253Y-12650531D01*
X12990253Y-12650531D02*
X12999777Y-12641008D01*
X12999777Y-12641008D02*
X13018825Y-12631484D01*
X13323587Y-12831484D02*
X13323587Y-12631484D01*
X13409301Y-12831484D02*
X13409301Y-12726722D01*
X13409301Y-12726722D02*
X13399777Y-12707674D01*
X13399777Y-12707674D02*
X13380730Y-12698150D01*
X13380730Y-12698150D02*
X13352158Y-12698150D01*
X13352158Y-12698150D02*
X13333110Y-12707674D01*
X13333110Y-12707674D02*
X13323587Y-12717198D01*
X13533110Y-12831484D02*
X13514063Y-12821960D01*
X13514063Y-12821960D02*
X13504539Y-12812436D01*
X13504539Y-12812436D02*
X13495015Y-12793388D01*
X13495015Y-12793388D02*
X13495015Y-12736246D01*
X13495015Y-12736246D02*
X13504539Y-12717198D01*
X13504539Y-12717198D02*
X13514063Y-12707674D01*
X13514063Y-12707674D02*
X13533110Y-12698150D01*
X13533110Y-12698150D02*
X13561682Y-12698150D01*
X13561682Y-12698150D02*
X13580730Y-12707674D01*
X13580730Y-12707674D02*
X13590253Y-12717198D01*
X13590253Y-12717198D02*
X13599777Y-12736246D01*
X13599777Y-12736246D02*
X13599777Y-12793388D01*
X13599777Y-12793388D02*
X13590253Y-12812436D01*
X13590253Y-12812436D02*
X13580730Y-12821960D01*
X13580730Y-12821960D02*
X13561682Y-12831484D01*
X13561682Y-12831484D02*
X13533110Y-12831484D01*
X13714063Y-12831484D02*
X13695015Y-12821960D01*
X13695015Y-12821960D02*
X13685491Y-12802912D01*
X13685491Y-12802912D02*
X13685491Y-12631484D01*
X13866444Y-12821960D02*
X13847396Y-12831484D01*
X13847396Y-12831484D02*
X13809301Y-12831484D01*
X13809301Y-12831484D02*
X13790253Y-12821960D01*
X13790253Y-12821960D02*
X13780730Y-12802912D01*
X13780730Y-12802912D02*
X13780730Y-12726722D01*
X13780730Y-12726722D02*
X13790253Y-12707674D01*
X13790253Y-12707674D02*
X13809301Y-12698150D01*
X13809301Y-12698150D02*
X13847396Y-12698150D01*
X13847396Y-12698150D02*
X13866444Y-12707674D01*
X13866444Y-12707674D02*
X13875968Y-12726722D01*
X13875968Y-12726722D02*
X13875968Y-12745769D01*
X13875968Y-12745769D02*
X13780730Y-12764817D01*
X13952158Y-12821960D02*
X13971206Y-12831484D01*
X13971206Y-12831484D02*
X14009301Y-12831484D01*
X14009301Y-12831484D02*
X14028349Y-12821960D01*
X14028349Y-12821960D02*
X14037872Y-12802912D01*
X14037872Y-12802912D02*
X14037872Y-12793388D01*
X14037872Y-12793388D02*
X14028349Y-12774341D01*
X14028349Y-12774341D02*
X14009301Y-12764817D01*
X14009301Y-12764817D02*
X13980730Y-12764817D01*
X13980730Y-12764817D02*
X13961682Y-12755293D01*
X13961682Y-12755293D02*
X13952158Y-12736246D01*
X13952158Y-12736246D02*
X13952158Y-12726722D01*
X13952158Y-12726722D02*
X13961682Y-12707674D01*
X13961682Y-12707674D02*
X13980730Y-12698150D01*
X13980730Y-12698150D02*
X14009301Y-12698150D01*
X14009301Y-12698150D02*
X14028349Y-12707674D01*
X14104539Y-12907674D02*
X14114063Y-12898150D01*
X14114063Y-12898150D02*
X14133111Y-12869579D01*
X14133111Y-12869579D02*
X14142634Y-12850531D01*
X14142634Y-12850531D02*
X14152158Y-12821960D01*
X14152158Y-12821960D02*
X14161682Y-12774341D01*
X14161682Y-12774341D02*
X14161682Y-12736246D01*
X14161682Y-12736246D02*
X14152158Y-12688627D01*
X14152158Y-12688627D02*
X14142634Y-12660055D01*
X14142634Y-12660055D02*
X14133111Y-12641008D01*
X14133111Y-12641008D02*
X14114063Y-12612436D01*
X14114063Y-12612436D02*
X14104539Y-12602912D01*
D12*
X9079500Y-13063500D02*
X9139000Y-13004000D01*
X9079500Y-12944500D01*
X9020000Y-13004000D01*
X9079500Y-13063500D01*
D11*
X9504539Y-13095484D02*
X9390253Y-13095484D01*
X9447396Y-13095484D02*
X9447396Y-12895484D01*
X9447396Y-12895484D02*
X9428348Y-12924055D01*
X9428348Y-12924055D02*
X9409301Y-12943103D01*
X9409301Y-12943103D02*
X9390253Y-12952627D01*
X9590253Y-13076436D02*
X9599777Y-13085960D01*
X9599777Y-13085960D02*
X9590253Y-13095484D01*
X9590253Y-13095484D02*
X9580729Y-13085960D01*
X9580729Y-13085960D02*
X9590253Y-13076436D01*
X9590253Y-13076436D02*
X9590253Y-13095484D01*
X9790253Y-13095484D02*
X9675967Y-13095484D01*
X9733110Y-13095484D02*
X9733110Y-12895484D01*
X9733110Y-12895484D02*
X9714063Y-12924055D01*
X9714063Y-12924055D02*
X9695015Y-12943103D01*
X9695015Y-12943103D02*
X9675967Y-12952627D01*
X9885491Y-13095484D02*
X9923586Y-13095484D01*
X9923586Y-13095484D02*
X9942634Y-13085960D01*
X9942634Y-13085960D02*
X9952158Y-13076436D01*
X9952158Y-13076436D02*
X9971205Y-13047865D01*
X9971205Y-13047865D02*
X9980729Y-13009769D01*
X9980729Y-13009769D02*
X9980729Y-12933579D01*
X9980729Y-12933579D02*
X9971205Y-12914531D01*
X9971205Y-12914531D02*
X9961682Y-12905008D01*
X9961682Y-12905008D02*
X9942634Y-12895484D01*
X9942634Y-12895484D02*
X9904539Y-12895484D01*
X9904539Y-12895484D02*
X9885491Y-12905008D01*
X9885491Y-12905008D02*
X9875967Y-12914531D01*
X9875967Y-12914531D02*
X9866444Y-12933579D01*
X9866444Y-12933579D02*
X9866444Y-12981198D01*
X9866444Y-12981198D02*
X9875967Y-13000246D01*
X9875967Y-13000246D02*
X9885491Y-13009769D01*
X9885491Y-13009769D02*
X9904539Y-13019293D01*
X9904539Y-13019293D02*
X9942634Y-13019293D01*
X9942634Y-13019293D02*
X9961682Y-13009769D01*
X9961682Y-13009769D02*
X9971205Y-13000246D01*
X9971205Y-13000246D02*
X9980729Y-12981198D01*
X10104539Y-12895484D02*
X10123586Y-12895484D01*
X10123586Y-12895484D02*
X10142634Y-12905008D01*
X10142634Y-12905008D02*
X10152158Y-12914531D01*
X10152158Y-12914531D02*
X10161682Y-12933579D01*
X10161682Y-12933579D02*
X10171205Y-12971674D01*
X10171205Y-12971674D02*
X10171205Y-13019293D01*
X10171205Y-13019293D02*
X10161682Y-13057388D01*
X10161682Y-13057388D02*
X10152158Y-13076436D01*
X10152158Y-13076436D02*
X10142634Y-13085960D01*
X10142634Y-13085960D02*
X10123586Y-13095484D01*
X10123586Y-13095484D02*
X10104539Y-13095484D01*
X10104539Y-13095484D02*
X10085491Y-13085960D01*
X10085491Y-13085960D02*
X10075967Y-13076436D01*
X10075967Y-13076436D02*
X10066444Y-13057388D01*
X10066444Y-13057388D02*
X10056920Y-13019293D01*
X10056920Y-13019293D02*
X10056920Y-12971674D01*
X10056920Y-12971674D02*
X10066444Y-12933579D01*
X10066444Y-12933579D02*
X10075967Y-12914531D01*
X10075967Y-12914531D02*
X10085491Y-12905008D01*
X10085491Y-12905008D02*
X10104539Y-12895484D01*
X10256920Y-13095484D02*
X10256920Y-12962150D01*
X10256920Y-12981198D02*
X10266444Y-12971674D01*
X10266444Y-12971674D02*
X10285491Y-12962150D01*
X10285491Y-12962150D02*
X10314063Y-12962150D01*
X10314063Y-12962150D02*
X10333110Y-12971674D01*
X10333110Y-12971674D02*
X10342634Y-12990722D01*
X10342634Y-12990722D02*
X10342634Y-13095484D01*
X10342634Y-12990722D02*
X10352158Y-12971674D01*
X10352158Y-12971674D02*
X10371205Y-12962150D01*
X10371205Y-12962150D02*
X10399777Y-12962150D01*
X10399777Y-12962150D02*
X10418825Y-12971674D01*
X10418825Y-12971674D02*
X10428348Y-12990722D01*
X10428348Y-12990722D02*
X10428348Y-13095484D01*
X10523586Y-13095484D02*
X10523586Y-12962150D01*
X10523586Y-12981198D02*
X10533110Y-12971674D01*
X10533110Y-12971674D02*
X10552158Y-12962150D01*
X10552158Y-12962150D02*
X10580729Y-12962150D01*
X10580729Y-12962150D02*
X10599777Y-12971674D01*
X10599777Y-12971674D02*
X10609301Y-12990722D01*
X10609301Y-12990722D02*
X10609301Y-13095484D01*
X10609301Y-12990722D02*
X10618825Y-12971674D01*
X10618825Y-12971674D02*
X10637872Y-12962150D01*
X10637872Y-12962150D02*
X10666444Y-12962150D01*
X10666444Y-12962150D02*
X10685491Y-12971674D01*
X10685491Y-12971674D02*
X10695015Y-12990722D01*
X10695015Y-12990722D02*
X10695015Y-13095484D01*
X11085491Y-12885960D02*
X10914063Y-13143103D01*
X11342634Y-12895484D02*
X11361682Y-12895484D01*
X11361682Y-12895484D02*
X11380729Y-12905008D01*
X11380729Y-12905008D02*
X11390253Y-12914531D01*
X11390253Y-12914531D02*
X11399777Y-12933579D01*
X11399777Y-12933579D02*
X11409301Y-12971674D01*
X11409301Y-12971674D02*
X11409301Y-13019293D01*
X11409301Y-13019293D02*
X11399777Y-13057388D01*
X11399777Y-13057388D02*
X11390253Y-13076436D01*
X11390253Y-13076436D02*
X11380729Y-13085960D01*
X11380729Y-13085960D02*
X11361682Y-13095484D01*
X11361682Y-13095484D02*
X11342634Y-13095484D01*
X11342634Y-13095484D02*
X11323586Y-13085960D01*
X11323586Y-13085960D02*
X11314063Y-13076436D01*
X11314063Y-13076436D02*
X11304539Y-13057388D01*
X11304539Y-13057388D02*
X11295015Y-13019293D01*
X11295015Y-13019293D02*
X11295015Y-12971674D01*
X11295015Y-12971674D02*
X11304539Y-12933579D01*
X11304539Y-12933579D02*
X11314063Y-12914531D01*
X11314063Y-12914531D02*
X11323586Y-12905008D01*
X11323586Y-12905008D02*
X11342634Y-12895484D01*
X11495015Y-13076436D02*
X11504539Y-13085960D01*
X11504539Y-13085960D02*
X11495015Y-13095484D01*
X11495015Y-13095484D02*
X11485491Y-13085960D01*
X11485491Y-13085960D02*
X11495015Y-13076436D01*
X11495015Y-13076436D02*
X11495015Y-13095484D01*
X11628348Y-12895484D02*
X11647396Y-12895484D01*
X11647396Y-12895484D02*
X11666444Y-12905008D01*
X11666444Y-12905008D02*
X11675967Y-12914531D01*
X11675967Y-12914531D02*
X11685491Y-12933579D01*
X11685491Y-12933579D02*
X11695015Y-12971674D01*
X11695015Y-12971674D02*
X11695015Y-13019293D01*
X11695015Y-13019293D02*
X11685491Y-13057388D01*
X11685491Y-13057388D02*
X11675967Y-13076436D01*
X11675967Y-13076436D02*
X11666444Y-13085960D01*
X11666444Y-13085960D02*
X11647396Y-13095484D01*
X11647396Y-13095484D02*
X11628348Y-13095484D01*
X11628348Y-13095484D02*
X11609301Y-13085960D01*
X11609301Y-13085960D02*
X11599777Y-13076436D01*
X11599777Y-13076436D02*
X11590253Y-13057388D01*
X11590253Y-13057388D02*
X11580729Y-13019293D01*
X11580729Y-13019293D02*
X11580729Y-12971674D01*
X11580729Y-12971674D02*
X11590253Y-12933579D01*
X11590253Y-12933579D02*
X11599777Y-12914531D01*
X11599777Y-12914531D02*
X11609301Y-12905008D01*
X11609301Y-12905008D02*
X11628348Y-12895484D01*
X11866444Y-12962150D02*
X11866444Y-13095484D01*
X11818825Y-12885960D02*
X11771206Y-13028817D01*
X11771206Y-13028817D02*
X11895015Y-13028817D01*
X12056920Y-12895484D02*
X12018825Y-12895484D01*
X12018825Y-12895484D02*
X11999777Y-12905008D01*
X11999777Y-12905008D02*
X11990253Y-12914531D01*
X11990253Y-12914531D02*
X11971206Y-12943103D01*
X11971206Y-12943103D02*
X11961682Y-12981198D01*
X11961682Y-12981198D02*
X11961682Y-13057388D01*
X11961682Y-13057388D02*
X11971206Y-13076436D01*
X11971206Y-13076436D02*
X11980729Y-13085960D01*
X11980729Y-13085960D02*
X11999777Y-13095484D01*
X11999777Y-13095484D02*
X12037872Y-13095484D01*
X12037872Y-13095484D02*
X12056920Y-13085960D01*
X12056920Y-13085960D02*
X12066444Y-13076436D01*
X12066444Y-13076436D02*
X12075967Y-13057388D01*
X12075967Y-13057388D02*
X12075967Y-13009769D01*
X12075967Y-13009769D02*
X12066444Y-12990722D01*
X12066444Y-12990722D02*
X12056920Y-12981198D01*
X12056920Y-12981198D02*
X12037872Y-12971674D01*
X12037872Y-12971674D02*
X11999777Y-12971674D01*
X11999777Y-12971674D02*
X11980729Y-12981198D01*
X11980729Y-12981198D02*
X11971206Y-12990722D01*
X11971206Y-12990722D02*
X11961682Y-13009769D01*
X12171206Y-13095484D02*
X12209301Y-13095484D01*
X12209301Y-13095484D02*
X12228348Y-13085960D01*
X12228348Y-13085960D02*
X12237872Y-13076436D01*
X12237872Y-13076436D02*
X12256920Y-13047865D01*
X12256920Y-13047865D02*
X12266444Y-13009769D01*
X12266444Y-13009769D02*
X12266444Y-12933579D01*
X12266444Y-12933579D02*
X12256920Y-12914531D01*
X12256920Y-12914531D02*
X12247396Y-12905008D01*
X12247396Y-12905008D02*
X12228348Y-12895484D01*
X12228348Y-12895484D02*
X12190253Y-12895484D01*
X12190253Y-12895484D02*
X12171206Y-12905008D01*
X12171206Y-12905008D02*
X12161682Y-12914531D01*
X12161682Y-12914531D02*
X12152158Y-12933579D01*
X12152158Y-12933579D02*
X12152158Y-12981198D01*
X12152158Y-12981198D02*
X12161682Y-13000246D01*
X12161682Y-13000246D02*
X12171206Y-13009769D01*
X12171206Y-13009769D02*
X12190253Y-13019293D01*
X12190253Y-13019293D02*
X12228348Y-13019293D01*
X12228348Y-13019293D02*
X12247396Y-13009769D01*
X12247396Y-13009769D02*
X12256920Y-13000246D01*
X12256920Y-13000246D02*
X12266444Y-12981198D01*
X12342634Y-12895484D02*
X12342634Y-12933579D01*
X12418825Y-12895484D02*
X12418825Y-12933579D01*
X12714063Y-13171674D02*
X12704539Y-13162150D01*
X12704539Y-13162150D02*
X12685491Y-13133579D01*
X12685491Y-13133579D02*
X12675968Y-13114531D01*
X12675968Y-13114531D02*
X12666444Y-13085960D01*
X12666444Y-13085960D02*
X12656920Y-13038341D01*
X12656920Y-13038341D02*
X12656920Y-13000246D01*
X12656920Y-13000246D02*
X12666444Y-12952627D01*
X12666444Y-12952627D02*
X12675968Y-12924055D01*
X12675968Y-12924055D02*
X12685491Y-12905008D01*
X12685491Y-12905008D02*
X12704539Y-12876436D01*
X12704539Y-12876436D02*
X12714063Y-12866912D01*
X12799777Y-13095484D02*
X12837872Y-13095484D01*
X12837872Y-13095484D02*
X12856920Y-13085960D01*
X12856920Y-13085960D02*
X12866444Y-13076436D01*
X12866444Y-13076436D02*
X12885491Y-13047865D01*
X12885491Y-13047865D02*
X12895015Y-13009769D01*
X12895015Y-13009769D02*
X12895015Y-12933579D01*
X12895015Y-12933579D02*
X12885491Y-12914531D01*
X12885491Y-12914531D02*
X12875968Y-12905008D01*
X12875968Y-12905008D02*
X12856920Y-12895484D01*
X12856920Y-12895484D02*
X12818825Y-12895484D01*
X12818825Y-12895484D02*
X12799777Y-12905008D01*
X12799777Y-12905008D02*
X12790253Y-12914531D01*
X12790253Y-12914531D02*
X12780729Y-12933579D01*
X12780729Y-12933579D02*
X12780729Y-12981198D01*
X12780729Y-12981198D02*
X12790253Y-13000246D01*
X12790253Y-13000246D02*
X12799777Y-13009769D01*
X12799777Y-13009769D02*
X12818825Y-13019293D01*
X12818825Y-13019293D02*
X12856920Y-13019293D01*
X12856920Y-13019293D02*
X12875968Y-13009769D01*
X12875968Y-13009769D02*
X12885491Y-13000246D01*
X12885491Y-13000246D02*
X12895015Y-12981198D01*
X13133110Y-13095484D02*
X13133110Y-12895484D01*
X13218825Y-13095484D02*
X13218825Y-12990722D01*
X13218825Y-12990722D02*
X13209301Y-12971674D01*
X13209301Y-12971674D02*
X13190253Y-12962150D01*
X13190253Y-12962150D02*
X13161682Y-12962150D01*
X13161682Y-12962150D02*
X13142634Y-12971674D01*
X13142634Y-12971674D02*
X13133110Y-12981198D01*
X13342634Y-13095484D02*
X13323587Y-13085960D01*
X13323587Y-13085960D02*
X13314063Y-13076436D01*
X13314063Y-13076436D02*
X13304539Y-13057388D01*
X13304539Y-13057388D02*
X13304539Y-13000246D01*
X13304539Y-13000246D02*
X13314063Y-12981198D01*
X13314063Y-12981198D02*
X13323587Y-12971674D01*
X13323587Y-12971674D02*
X13342634Y-12962150D01*
X13342634Y-12962150D02*
X13371206Y-12962150D01*
X13371206Y-12962150D02*
X13390253Y-12971674D01*
X13390253Y-12971674D02*
X13399777Y-12981198D01*
X13399777Y-12981198D02*
X13409301Y-13000246D01*
X13409301Y-13000246D02*
X13409301Y-13057388D01*
X13409301Y-13057388D02*
X13399777Y-13076436D01*
X13399777Y-13076436D02*
X13390253Y-13085960D01*
X13390253Y-13085960D02*
X13371206Y-13095484D01*
X13371206Y-13095484D02*
X13342634Y-13095484D01*
X13523587Y-13095484D02*
X13504539Y-13085960D01*
X13504539Y-13085960D02*
X13495015Y-13066912D01*
X13495015Y-13066912D02*
X13495015Y-12895484D01*
X13675968Y-13085960D02*
X13656920Y-13095484D01*
X13656920Y-13095484D02*
X13618825Y-13095484D01*
X13618825Y-13095484D02*
X13599777Y-13085960D01*
X13599777Y-13085960D02*
X13590253Y-13066912D01*
X13590253Y-13066912D02*
X13590253Y-12990722D01*
X13590253Y-12990722D02*
X13599777Y-12971674D01*
X13599777Y-12971674D02*
X13618825Y-12962150D01*
X13618825Y-12962150D02*
X13656920Y-12962150D01*
X13656920Y-12962150D02*
X13675968Y-12971674D01*
X13675968Y-12971674D02*
X13685491Y-12990722D01*
X13685491Y-12990722D02*
X13685491Y-13009769D01*
X13685491Y-13009769D02*
X13590253Y-13028817D01*
X13761682Y-13085960D02*
X13780730Y-13095484D01*
X13780730Y-13095484D02*
X13818825Y-13095484D01*
X13818825Y-13095484D02*
X13837872Y-13085960D01*
X13837872Y-13085960D02*
X13847396Y-13066912D01*
X13847396Y-13066912D02*
X13847396Y-13057388D01*
X13847396Y-13057388D02*
X13837872Y-13038341D01*
X13837872Y-13038341D02*
X13818825Y-13028817D01*
X13818825Y-13028817D02*
X13790253Y-13028817D01*
X13790253Y-13028817D02*
X13771206Y-13019293D01*
X13771206Y-13019293D02*
X13761682Y-13000246D01*
X13761682Y-13000246D02*
X13761682Y-12990722D01*
X13761682Y-12990722D02*
X13771206Y-12971674D01*
X13771206Y-12971674D02*
X13790253Y-12962150D01*
X13790253Y-12962150D02*
X13818825Y-12962150D01*
X13818825Y-12962150D02*
X13837872Y-12971674D01*
X13914063Y-13171674D02*
X13923587Y-13162150D01*
X13923587Y-13162150D02*
X13942634Y-13133579D01*
X13942634Y-13133579D02*
X13952158Y-13114531D01*
X13952158Y-13114531D02*
X13961682Y-13085960D01*
X13961682Y-13085960D02*
X13971206Y-13038341D01*
X13971206Y-13038341D02*
X13971206Y-13000246D01*
X13971206Y-13000246D02*
X13961682Y-12952627D01*
X13961682Y-12952627D02*
X13952158Y-12924055D01*
X13952158Y-12924055D02*
X13942634Y-12905008D01*
X13942634Y-12905008D02*
X13923587Y-12876436D01*
X13923587Y-12876436D02*
X13914063Y-12866912D01*
M02*
