%TF.GenerationSoftware,KiCad,Pcbnew,7.0.9*%
%TF.CreationDate,2025-01-30T11:34:31+00:00*%
%TF.ProjectId,Pi Hat,50692048-6174-42e6-9b69-6361645f7063,rev?*%
%TF.SameCoordinates,Original*%
%TF.FileFunction,Copper,L1,Top*%
%TF.FilePolarity,Positive*%
%FSLAX46Y46*%
G04 Gerber Fmt 4.6, Leading zero omitted, Abs format (unit mm)*
G04 Created by KiCad (PCBNEW 7.0.9) date 2025-01-30 11:34:31*
%MOMM*%
%LPD*%
G01*
G04 APERTURE LIST*
G04 Aperture macros list*
%AMRoundRect*
0 Rectangle with rounded corners*
0 $1 Rounding radius*
0 $2 $3 $4 $5 $6 $7 $8 $9 X,Y pos of 4 corners*
0 Add a 4 corners polygon primitive as box body*
4,1,4,$2,$3,$4,$5,$6,$7,$8,$9,$2,$3,0*
0 Add four circle primitives for the rounded corners*
1,1,$1+$1,$2,$3*
1,1,$1+$1,$4,$5*
1,1,$1+$1,$6,$7*
1,1,$1+$1,$8,$9*
0 Add four rect primitives between the rounded corners*
20,1,$1+$1,$2,$3,$4,$5,0*
20,1,$1+$1,$4,$5,$6,$7,0*
20,1,$1+$1,$6,$7,$8,$9,0*
20,1,$1+$1,$8,$9,$2,$3,0*%
G04 Aperture macros list end*
%TA.AperFunction,SMDPad,CuDef*%
%ADD10RoundRect,0.250000X-0.450000X0.262500X-0.450000X-0.262500X0.450000X-0.262500X0.450000X0.262500X0*%
%TD*%
%TA.AperFunction,SMDPad,CuDef*%
%ADD11C,3.000000*%
%TD*%
%TA.AperFunction,SMDPad,CuDef*%
%ADD12RoundRect,0.250000X0.262500X0.450000X-0.262500X0.450000X-0.262500X-0.450000X0.262500X-0.450000X0*%
%TD*%
%TA.AperFunction,SMDPad,CuDef*%
%ADD13R,0.800000X0.300000*%
%TD*%
%TA.AperFunction,ComponentPad*%
%ADD14R,1.600000X1.600000*%
%TD*%
%TA.AperFunction,ComponentPad*%
%ADD15O,1.600000X1.600000*%
%TD*%
%TA.AperFunction,SMDPad,CuDef*%
%ADD16RoundRect,0.243750X0.456250X-0.243750X0.456250X0.243750X-0.456250X0.243750X-0.456250X-0.243750X0*%
%TD*%
%TA.AperFunction,ComponentPad*%
%ADD17RoundRect,0.250000X0.845000X-0.620000X0.845000X0.620000X-0.845000X0.620000X-0.845000X-0.620000X0*%
%TD*%
%TA.AperFunction,ComponentPad*%
%ADD18O,2.190000X1.740000*%
%TD*%
%TA.AperFunction,ComponentPad*%
%ADD19R,1.700000X1.700000*%
%TD*%
%TA.AperFunction,ComponentPad*%
%ADD20O,1.700000X1.700000*%
%TD*%
%TA.AperFunction,ViaPad*%
%ADD21C,0.800000*%
%TD*%
%TA.AperFunction,ViaPad*%
%ADD22C,0.400000*%
%TD*%
%TA.AperFunction,Conductor*%
%ADD23C,0.200000*%
%TD*%
%TA.AperFunction,Conductor*%
%ADD24C,0.500000*%
%TD*%
%TA.AperFunction,Conductor*%
%ADD25C,0.250000*%
%TD*%
%TA.AperFunction,Conductor*%
%ADD26C,0.300000*%
%TD*%
G04 APERTURE END LIST*
D10*
%TO.P,R3,1*%
%TO.N,Net-(D2-K)*%
X106426000Y-64135000D03*
%TO.P,R3,2*%
%TO.N,GND*%
X106426000Y-65960000D03*
%TD*%
D11*
%TO.P,TP1,1,1*%
%TO.N,+5V*%
X105200000Y-75600000D03*
%TD*%
D12*
%TO.P,R1,1*%
%TO.N,GND*%
X106322500Y-106680000D03*
%TO.P,R1,2*%
%TO.N,/ForceVoltage*%
X104497500Y-106680000D03*
%TD*%
D13*
%TO.P,U1,1,VCCA*%
%TO.N,+3.3V*%
X108230000Y-71120000D03*
%TO.P,U1,2,1A*%
%TO.N,/Trigger_3.3VTTL*%
X108230000Y-70620000D03*
%TO.P,U1,3,2A*%
%TO.N,/Echo_3.3VTTL*%
X108230000Y-70120000D03*
%TO.P,U1,4,GND*%
%TO.N,GND*%
X108230000Y-69620000D03*
%TO.P,U1,5,DIR*%
%TO.N,/ConverterDir*%
X105130000Y-69620000D03*
%TO.P,U1,6,2B*%
%TO.N,/Echo_5VTTL*%
X105130000Y-70120000D03*
%TO.P,U1,7,1B*%
%TO.N,/Trigger_5VTTL*%
X105130000Y-70620000D03*
%TO.P,U1,8,VCCB*%
%TO.N,+5V*%
X105130000Y-71120000D03*
%TD*%
D10*
%TO.P,R2,1*%
%TO.N,Net-(D1-K)*%
X104521000Y-64135000D03*
%TO.P,R2,2*%
%TO.N,GND*%
X104521000Y-65960000D03*
%TD*%
D14*
%TO.P,IC1,1,CH0*%
%TO.N,/ForceVoltage*%
X99060000Y-85080000D03*
D15*
%TO.P,IC1,2,CH1*%
%TO.N,unconnected-(IC1-CH1-Pad2)*%
X99060000Y-87620000D03*
%TO.P,IC1,3,CH2*%
%TO.N,unconnected-(IC1-CH2-Pad3)*%
X99060000Y-90160000D03*
%TO.P,IC1,4,CH3*%
%TO.N,unconnected-(IC1-CH3-Pad4)*%
X99060000Y-92700000D03*
%TO.P,IC1,5,CH4*%
%TO.N,unconnected-(IC1-CH4-Pad5)*%
X99060000Y-95240000D03*
%TO.P,IC1,6,CH5*%
%TO.N,unconnected-(IC1-CH5-Pad6)*%
X99060000Y-97780000D03*
%TO.P,IC1,7,CH6*%
%TO.N,unconnected-(IC1-CH6-Pad7)*%
X99060000Y-100320000D03*
%TO.P,IC1,8,CH7*%
%TO.N,unconnected-(IC1-CH7-Pad8)*%
X99060000Y-102860000D03*
%TO.P,IC1,9,DGND*%
%TO.N,GND*%
X106680000Y-102860000D03*
%TO.P,IC1,10,~{CS}/SHDN*%
%TO.N,/CS*%
X106680000Y-100320000D03*
%TO.P,IC1,11,DIN*%
%TO.N,/MOSI*%
X106680000Y-97780000D03*
%TO.P,IC1,12,DOUT*%
%TO.N,/MISO*%
X106680000Y-95240000D03*
%TO.P,IC1,13,CLK*%
%TO.N,/SCLK*%
X106680000Y-92700000D03*
%TO.P,IC1,14,AGND*%
%TO.N,GND*%
X106680000Y-90160000D03*
%TO.P,IC1,15,VREF*%
%TO.N,+3.3V*%
X106680000Y-87620000D03*
%TO.P,IC1,16,VDD*%
X106680000Y-85080000D03*
%TD*%
D16*
%TO.P,D1,1,K*%
%TO.N,Net-(D1-K)*%
X104521000Y-62581000D03*
%TO.P,D1,2,A*%
%TO.N,+3.3V*%
X104521000Y-60706000D03*
%TD*%
%TO.P,D2,1,K*%
%TO.N,Net-(D2-K)*%
X106426000Y-62581000D03*
%TO.P,D2,2,A*%
%TO.N,+5V*%
X106426000Y-60706000D03*
%TD*%
D17*
%TO.P,J1,1,Pin_1*%
%TO.N,+5V*%
X99060000Y-71120000D03*
D18*
%TO.P,J1,2,Pin_2*%
%TO.N,/Trigger_5VTTL*%
X99060000Y-68580000D03*
%TO.P,J1,3,Pin_3*%
%TO.N,/Echo_5VTTL*%
X99060000Y-66040000D03*
%TO.P,J1,4,Pin_4*%
%TO.N,GND*%
X99060000Y-63500000D03*
%TD*%
D17*
%TO.P,J3,1,Pin_1*%
%TO.N,+3.3V*%
X99060000Y-81280000D03*
D18*
%TO.P,J3,2,Pin_2*%
%TO.N,/Data_3.3VTTL*%
X99060000Y-78740000D03*
%TO.P,J3,3,Pin_3*%
%TO.N,GND*%
X99060000Y-76200000D03*
%TD*%
D11*
%TO.P,TP3,1,1*%
%TO.N,GND*%
X107800000Y-111000000D03*
%TD*%
%TO.P,TP2,1,1*%
%TO.N,+3.3V*%
X94000000Y-59800000D03*
%TD*%
D17*
%TO.P,J4,1,Pin_1*%
%TO.N,+3.3V*%
X99060000Y-109220000D03*
D18*
%TO.P,J4,2,Pin_2*%
%TO.N,/ForceVoltage*%
X99060000Y-106680000D03*
%TD*%
D19*
%TO.P,J2,1,Pin_1*%
%TO.N,+5V*%
X111760000Y-60960000D03*
D20*
%TO.P,J2,2,Pin_2*%
%TO.N,+3.3V*%
X114300000Y-60960000D03*
%TO.P,J2,3,Pin_3*%
%TO.N,unconnected-(J2-Pin_3-Pad3)*%
X111760000Y-63500000D03*
%TO.P,J2,4,Pin_4*%
%TO.N,+3.3V*%
X114300000Y-63500000D03*
%TO.P,J2,5,Pin_5*%
%TO.N,unconnected-(J2-Pin_5-Pad5)*%
X111760000Y-66040000D03*
%TO.P,J2,6,Pin_6*%
%TO.N,GND*%
X114300000Y-66040000D03*
%TO.P,J2,7,Pin_7*%
%TO.N,unconnected-(J2-Pin_7-Pad7)*%
X111760000Y-68580000D03*
%TO.P,J2,8,Pin_8*%
%TO.N,/ConverterDir*%
X114300000Y-68580000D03*
%TO.P,J2,9,Pin_9*%
%TO.N,GND*%
X111760000Y-71120000D03*
%TO.P,J2,10,Pin_10*%
%TO.N,unconnected-(J2-Pin_10-Pad10)*%
X114300000Y-71120000D03*
%TO.P,J2,11,Pin_11*%
%TO.N,/Trigger_3.3VTTL*%
X111760000Y-73660000D03*
%TO.P,J2,12,Pin_12*%
%TO.N,unconnected-(J2-Pin_12-Pad12)*%
X114300000Y-73660000D03*
%TO.P,J2,13,Pin_13*%
%TO.N,/Echo_3.3VTTL*%
X111760000Y-76200000D03*
%TO.P,J2,14,Pin_14*%
%TO.N,GND*%
X114300000Y-76200000D03*
%TO.P,J2,15,Pin_15*%
%TO.N,/Data_3.3VTTL*%
X111760000Y-78740000D03*
%TO.P,J2,16,Pin_16*%
%TO.N,unconnected-(J2-Pin_16-Pad16)*%
X114300000Y-78740000D03*
%TO.P,J2,17,Pin_17*%
%TO.N,+5V*%
X111760000Y-81280000D03*
%TO.P,J2,18,Pin_18*%
%TO.N,unconnected-(J2-Pin_18-Pad18)*%
X114300000Y-81280000D03*
%TO.P,J2,19,Pin_19*%
%TO.N,/MOSI*%
X111760000Y-83820000D03*
%TO.P,J2,20,Pin_20*%
%TO.N,GND*%
X114300000Y-83820000D03*
%TO.P,J2,21,Pin_21*%
%TO.N,/MISO*%
X111760000Y-86360000D03*
%TO.P,J2,22,Pin_22*%
%TO.N,unconnected-(J2-Pin_22-Pad22)*%
X114300000Y-86360000D03*
%TO.P,J2,23,Pin_23*%
%TO.N,/SCLK*%
X111760000Y-88900000D03*
%TO.P,J2,24,Pin_24*%
%TO.N,unconnected-(J2-Pin_24-Pad24)*%
X114300000Y-88900000D03*
%TO.P,J2,25,Pin_25*%
%TO.N,GND*%
X111760000Y-91440000D03*
%TO.P,J2,26,Pin_26*%
%TO.N,unconnected-(J2-Pin_26-Pad26)*%
X114300000Y-91440000D03*
%TO.P,J2,27,Pin_27*%
%TO.N,unconnected-(J2-Pin_27-Pad27)*%
X111760000Y-93980000D03*
%TO.P,J2,28,Pin_28*%
%TO.N,unconnected-(J2-Pin_28-Pad28)*%
X114300000Y-93980000D03*
%TO.P,J2,29,Pin_29*%
%TO.N,/CS*%
X111760000Y-96520000D03*
%TO.P,J2,30,Pin_30*%
%TO.N,GND*%
X114300000Y-96520000D03*
%TO.P,J2,31,Pin_31*%
%TO.N,unconnected-(J2-Pin_31-Pad31)*%
X111760000Y-99060000D03*
%TO.P,J2,32,Pin_32*%
%TO.N,unconnected-(J2-Pin_32-Pad32)*%
X114300000Y-99060000D03*
%TO.P,J2,33,Pin_33*%
%TO.N,unconnected-(J2-Pin_33-Pad33)*%
X111760000Y-101600000D03*
%TO.P,J2,34,Pin_34*%
%TO.N,GND*%
X114300000Y-101600000D03*
%TO.P,J2,35,Pin_35*%
%TO.N,unconnected-(J2-Pin_35-Pad35)*%
X111760000Y-104140000D03*
%TO.P,J2,36,Pin_36*%
%TO.N,unconnected-(J2-Pin_36-Pad36)*%
X114300000Y-104140000D03*
%TO.P,J2,37,Pin_37*%
%TO.N,unconnected-(J2-Pin_37-Pad37)*%
X111760000Y-106680000D03*
%TO.P,J2,38,Pin_38*%
%TO.N,unconnected-(J2-Pin_38-Pad38)*%
X114300000Y-106680000D03*
%TO.P,J2,39,Pin_39*%
%TO.N,GND*%
X111760000Y-109220000D03*
%TO.P,J2,40,Pin_40*%
%TO.N,unconnected-(J2-Pin_40-Pad40)*%
X114300000Y-109220000D03*
%TD*%
D21*
%TO.N,+5V*%
X106680000Y-77470000D03*
X106680000Y-80010000D03*
%TO.N,GND*%
X103000000Y-65800000D03*
X102870000Y-96520000D03*
X107800000Y-111000000D03*
D22*
%TO.N,/ConverterDir*%
X105600000Y-67800000D03*
%TD*%
D23*
%TO.N,+5V*%
X105130000Y-71120000D02*
X105130000Y-72390000D01*
D24*
X110490000Y-60960000D02*
X109220000Y-62230000D01*
X100330000Y-72390000D02*
X99060000Y-71120000D01*
X106426000Y-60706000D02*
X107696000Y-60706000D01*
X106680000Y-72390000D02*
X105410000Y-72390000D01*
X106680000Y-75800000D02*
X106680000Y-77470000D01*
D25*
X105400000Y-75800000D02*
X106680000Y-75800000D01*
D24*
X111760000Y-81280000D02*
X107950000Y-81280000D01*
X106680000Y-68580000D02*
X106680000Y-72390000D01*
D25*
X105200000Y-75600000D02*
X105400000Y-75800000D01*
D24*
X111760000Y-60960000D02*
X110490000Y-60960000D01*
X109220000Y-66040000D02*
X106680000Y-68580000D01*
X109220000Y-62230000D02*
X109220000Y-66040000D01*
X107696000Y-60706000D02*
X109220000Y-62230000D01*
X105410000Y-72390000D02*
X100330000Y-72390000D01*
X106680000Y-72390000D02*
X106680000Y-75800000D01*
X107950000Y-81280000D02*
X106680000Y-80010000D01*
%TO.N,+3.3V*%
X113000000Y-59660000D02*
X107950000Y-59660000D01*
X107950000Y-59660000D02*
X104521000Y-59660000D01*
D23*
X116200000Y-65400000D02*
X114300000Y-63500000D01*
D24*
X93980000Y-81280000D02*
X93980000Y-106680000D01*
X93980000Y-59820000D02*
X93980000Y-81280000D01*
X104521000Y-59660000D02*
X94140000Y-59660000D01*
D23*
X115073968Y-74926032D02*
X116200000Y-73800000D01*
X108230000Y-72035000D02*
X111121032Y-74926032D01*
D24*
X99060000Y-81280000D02*
X93980000Y-81280000D01*
D23*
X116200000Y-73800000D02*
X116200000Y-65400000D01*
D24*
X94140000Y-59660000D02*
X93980000Y-59820000D01*
X114300000Y-60960000D02*
X113000000Y-59660000D01*
X114300000Y-63500000D02*
X114300000Y-60960000D01*
D23*
X111121032Y-74926032D02*
X115073968Y-74926032D01*
D24*
X96520000Y-109220000D02*
X99060000Y-109220000D01*
X104521000Y-60706000D02*
X104521000Y-59660000D01*
D23*
X108230000Y-71120000D02*
X108230000Y-72035000D01*
D24*
X93980000Y-106680000D02*
X96520000Y-109220000D01*
D26*
%TO.N,GND*%
X108230000Y-69620000D02*
X109580000Y-69620000D01*
X108230000Y-69620000D02*
X108230000Y-68770000D01*
D23*
%TO.N,/Trigger_3.3VTTL*%
X111760000Y-73660000D02*
X108720000Y-70620000D01*
X108720000Y-70620000D02*
X108230000Y-70620000D01*
%TO.N,/Echo_3.3VTTL*%
X107530000Y-70170000D02*
X107530000Y-73240000D01*
X107580000Y-70120000D02*
X107530000Y-70170000D01*
X108230000Y-70120000D02*
X107580000Y-70120000D01*
X107530000Y-73240000D02*
X110490000Y-76200000D01*
X110490000Y-76200000D02*
X111760000Y-76200000D01*
D24*
%TO.N,/Data_3.3VTTL*%
X99060000Y-78740000D02*
X111760000Y-78740000D01*
D23*
%TO.N,/ConverterDir*%
X105130000Y-69620000D02*
X105130000Y-68270000D01*
X105130000Y-68270000D02*
X105600000Y-67800000D01*
%TO.N,/Echo_5VTTL*%
X105130000Y-70120000D02*
X104480000Y-70120000D01*
X100400000Y-66040000D02*
X99060000Y-66040000D01*
X104480000Y-70120000D02*
X100400000Y-66040000D01*
%TO.N,/Trigger_5VTTL*%
X105130000Y-70620000D02*
X103640000Y-70620000D01*
X101600000Y-68580000D02*
X99060000Y-68580000D01*
X103640000Y-70620000D02*
X101600000Y-68580000D01*
D24*
%TO.N,/ForceVoltage*%
X96520000Y-104140000D02*
X96520000Y-87620000D01*
X96520000Y-87620000D02*
X99060000Y-85080000D01*
X99060000Y-106680000D02*
X96520000Y-104140000D01*
X104497500Y-106680000D02*
X99060000Y-106680000D01*
%TO.N,/CS*%
X107960000Y-100320000D02*
X111760000Y-96520000D01*
X106680000Y-100320000D02*
X107960000Y-100320000D01*
%TO.N,/MOSI*%
X111760000Y-83820000D02*
X109210000Y-86370000D01*
X104140000Y-86360000D02*
X104140000Y-95240000D01*
X109210000Y-86370000D02*
X109200000Y-86360000D01*
X104140000Y-95240000D02*
X106680000Y-97780000D01*
X109200000Y-86360000D02*
X104140000Y-86360000D01*
%TO.N,/MISO*%
X111760000Y-86360000D02*
X111760000Y-86847767D01*
X109707767Y-88900000D02*
X105410000Y-88900000D01*
X105410000Y-93970000D02*
X106680000Y-95240000D01*
X111760000Y-86847767D02*
X109707767Y-88900000D01*
X105410000Y-88900000D02*
X105410000Y-93970000D01*
%TO.N,/SCLK*%
X111760000Y-88900000D02*
X107960000Y-92700000D01*
X107960000Y-92700000D02*
X106680000Y-92700000D01*
%TO.N,Net-(D1-K)*%
X104521000Y-64135000D02*
X104521000Y-62581000D01*
%TO.N,Net-(D2-K)*%
X106426000Y-62581000D02*
X106426000Y-64135000D01*
%TD*%
%TA.AperFunction,Conductor*%
%TO.N,GND*%
G36*
X109660230Y-89651545D02*
G01*
X109685790Y-89655289D01*
X109697067Y-89654302D01*
X109756684Y-89668064D01*
X109796827Y-89714239D01*
X109802161Y-89775192D01*
X109775702Y-89822929D01*
X107778912Y-91819719D01*
X107724395Y-91847496D01*
X107663963Y-91837925D01*
X107638907Y-91819721D01*
X107519139Y-91699953D01*
X107519135Y-91699950D01*
X107519132Y-91699947D01*
X107519130Y-91699946D01*
X107332737Y-91569434D01*
X107332724Y-91569426D01*
X107225545Y-91519448D01*
X107180797Y-91477720D01*
X107169122Y-91417659D01*
X107194980Y-91362206D01*
X107225545Y-91339999D01*
X107332481Y-91290134D01*
X107518811Y-91159665D01*
X107679665Y-90998811D01*
X107810131Y-90812487D01*
X107818286Y-90795000D01*
X106259500Y-90795000D01*
X106201309Y-90776093D01*
X106165345Y-90726593D01*
X106160500Y-90696000D01*
X106160500Y-90160000D01*
X106275014Y-90160000D01*
X106294835Y-90285148D01*
X106352359Y-90398045D01*
X106441955Y-90487641D01*
X106554852Y-90545165D01*
X106648519Y-90560000D01*
X106711481Y-90560000D01*
X106805148Y-90545165D01*
X106918045Y-90487641D01*
X107007641Y-90398045D01*
X107065165Y-90285148D01*
X107084986Y-90160000D01*
X107065165Y-90034852D01*
X107007641Y-89921955D01*
X106918045Y-89832359D01*
X106805148Y-89774835D01*
X106711481Y-89760000D01*
X106648519Y-89760000D01*
X106554852Y-89774835D01*
X106441955Y-89832359D01*
X106352359Y-89921955D01*
X106294835Y-90034852D01*
X106275014Y-90160000D01*
X106160500Y-90160000D01*
X106160500Y-89749500D01*
X106179407Y-89691309D01*
X106228907Y-89655345D01*
X106259500Y-89650500D01*
X109645883Y-89650500D01*
X109660230Y-89651545D01*
G37*
%TD.AperFunction*%
%TA.AperFunction,Conductor*%
G36*
X103279691Y-60429407D02*
G01*
X103315655Y-60478907D01*
X103320500Y-60509500D01*
X103320500Y-60999355D01*
X103330912Y-61101272D01*
X103385639Y-61266428D01*
X103416055Y-61315739D01*
X103476974Y-61414503D01*
X103599997Y-61537526D01*
X103635199Y-61559239D01*
X103635201Y-61559240D01*
X103674801Y-61605882D01*
X103679424Y-61666892D01*
X103647302Y-61718968D01*
X103635201Y-61727760D01*
X103599997Y-61749474D01*
X103476973Y-61872498D01*
X103385639Y-62020571D01*
X103330912Y-62185727D01*
X103320500Y-62287644D01*
X103320500Y-62874355D01*
X103330912Y-62976272D01*
X103385639Y-63141428D01*
X103480001Y-63294410D01*
X103477881Y-63295717D01*
X103495598Y-63343568D01*
X103480940Y-63399542D01*
X103386187Y-63553163D01*
X103331000Y-63719705D01*
X103320500Y-63822483D01*
X103320500Y-64447516D01*
X103330999Y-64550288D01*
X103331000Y-64550295D01*
X103331001Y-64550297D01*
X103377085Y-64689370D01*
X103386187Y-64716836D01*
X103478285Y-64866152D01*
X103478286Y-64866153D01*
X103478288Y-64866156D01*
X103589983Y-64977851D01*
X103617759Y-65032366D01*
X103608188Y-65092798D01*
X103589982Y-65117856D01*
X103478683Y-65229155D01*
X103478681Y-65229158D01*
X103386644Y-65378373D01*
X103386642Y-65378377D01*
X103363737Y-65447500D01*
X107583262Y-65447500D01*
X107560357Y-65378377D01*
X107560355Y-65378373D01*
X107468319Y-65229159D01*
X107357017Y-65117857D01*
X107329240Y-65063340D01*
X107338811Y-65002908D01*
X107357015Y-64977852D01*
X107468712Y-64866156D01*
X107560814Y-64716834D01*
X107615999Y-64550297D01*
X107626500Y-64447509D01*
X107626499Y-63822492D01*
X107626499Y-63822491D01*
X107626499Y-63822483D01*
X107616000Y-63719711D01*
X107615999Y-63719709D01*
X107615999Y-63719703D01*
X107560814Y-63553166D01*
X107468712Y-63403844D01*
X107466059Y-63399542D01*
X107451603Y-63340089D01*
X107468981Y-63295633D01*
X107466999Y-63294411D01*
X107561360Y-63141428D01*
X107561359Y-63141428D01*
X107561362Y-63141425D01*
X107616087Y-62976275D01*
X107623369Y-62905000D01*
X107626500Y-62874355D01*
X107626500Y-62287644D01*
X107616714Y-62191863D01*
X107616087Y-62185725D01*
X107561362Y-62020575D01*
X107470026Y-61872497D01*
X107347003Y-61749474D01*
X107311798Y-61727759D01*
X107272198Y-61681119D01*
X107267575Y-61620109D01*
X107299696Y-61568033D01*
X107311799Y-61559240D01*
X107347003Y-61537526D01*
X107347003Y-61537525D01*
X107351912Y-61534498D01*
X107353066Y-61536369D01*
X107401751Y-61518297D01*
X107460673Y-61534787D01*
X107475841Y-61547209D01*
X108440504Y-62511871D01*
X108468281Y-62566388D01*
X108469500Y-62581875D01*
X108469500Y-65688123D01*
X108450593Y-65746314D01*
X108440504Y-65758127D01*
X107725375Y-66473255D01*
X107670858Y-66501032D01*
X107610426Y-66491461D01*
X107588291Y-66472500D01*
X106938501Y-66472500D01*
X106938500Y-66472501D01*
X106938500Y-66971219D01*
X106983447Y-66966628D01*
X107043258Y-66979523D01*
X107084066Y-67025112D01*
X107090284Y-67085981D01*
X107063512Y-67135119D01*
X106459486Y-67739144D01*
X106404969Y-67766921D01*
X106344537Y-67757350D01*
X106301272Y-67714085D01*
X106291204Y-67681073D01*
X106290014Y-67671270D01*
X106285140Y-67631128D01*
X106224818Y-67472070D01*
X106128183Y-67332071D01*
X106122059Y-67326646D01*
X106012565Y-67229643D01*
X106000852Y-67219266D01*
X105889073Y-67160599D01*
X105846334Y-67116814D01*
X105837494Y-67056271D01*
X105865929Y-67002094D01*
X105895499Y-66987474D01*
X105913500Y-66971219D01*
X105913500Y-66472501D01*
X105913499Y-66472500D01*
X105033501Y-66472500D01*
X105033500Y-66472501D01*
X105033500Y-66971218D01*
X105123698Y-66962005D01*
X105290122Y-66906857D01*
X105421527Y-66825806D01*
X105480980Y-66811350D01*
X105525473Y-66825806D01*
X105656881Y-66906860D01*
X105662098Y-66909292D01*
X105661469Y-66910640D01*
X105705165Y-66942778D01*
X105723732Y-67001079D01*
X105704485Y-67059158D01*
X105654776Y-67094832D01*
X105624734Y-67099500D01*
X105514941Y-67099500D01*
X105349776Y-67140209D01*
X105199146Y-67219267D01*
X105071818Y-67332069D01*
X105071816Y-67332072D01*
X104975182Y-67472069D01*
X104919478Y-67618950D01*
X104896915Y-67653848D01*
X104735510Y-67815253D01*
X104730638Y-67819525D01*
X104701719Y-67841717D01*
X104701713Y-67841723D01*
X104655331Y-67902171D01*
X104605462Y-67967160D01*
X104605462Y-67967161D01*
X104544957Y-68113233D01*
X104544955Y-68113241D01*
X104524318Y-68269999D01*
X104524318Y-68270000D01*
X104529076Y-68306140D01*
X104529500Y-68312608D01*
X104529500Y-68945333D01*
X104510593Y-69003524D01*
X104489829Y-69024586D01*
X104412096Y-69082777D01*
X104354181Y-69102514D01*
X104295726Y-69084440D01*
X104282763Y-69073528D01*
X101681736Y-66472500D01*
X103363737Y-66472500D01*
X103386642Y-66541622D01*
X103386644Y-66541626D01*
X103478680Y-66690840D01*
X103602659Y-66814819D01*
X103751875Y-66906856D01*
X103918300Y-66962004D01*
X103918312Y-66962007D01*
X104008499Y-66971220D01*
X104008500Y-66971219D01*
X104008500Y-66472501D01*
X104008499Y-66472500D01*
X103363737Y-66472500D01*
X101681736Y-66472500D01*
X100854744Y-65645508D01*
X100850470Y-65640634D01*
X100828286Y-65611723D01*
X100828285Y-65611722D01*
X100828282Y-65611718D01*
X100828277Y-65611714D01*
X100828276Y-65611713D01*
X100718074Y-65527153D01*
X100702841Y-65515464D01*
X100556762Y-65454956D01*
X100556761Y-65454955D01*
X100556127Y-65454693D01*
X100509714Y-65415137D01*
X100390862Y-65222109D01*
X100236731Y-65046982D01*
X100218629Y-65032366D01*
X100151111Y-64977849D01*
X100055220Y-64900422D01*
X99993539Y-64865965D01*
X99978961Y-64857821D01*
X99937381Y-64812935D01*
X99930126Y-64752181D01*
X99959966Y-64698766D01*
X99971807Y-64689370D01*
X100148772Y-64569763D01*
X100317137Y-64408398D01*
X100317139Y-64408396D01*
X100455810Y-64220900D01*
X100455812Y-64220897D01*
X100499121Y-64135000D01*
X97617115Y-64135000D01*
X97729535Y-64317582D01*
X97729544Y-64317594D01*
X97883618Y-64492657D01*
X98065060Y-64639160D01*
X98065067Y-64639165D01*
X98141013Y-64681591D01*
X98182593Y-64726476D01*
X98189849Y-64787230D01*
X98160009Y-64840646D01*
X98148169Y-64850041D01*
X97970910Y-64969848D01*
X97802485Y-65131270D01*
X97802484Y-65131272D01*
X97663760Y-65318839D01*
X97558730Y-65527153D01*
X97532831Y-65611723D01*
X97490416Y-65750222D01*
X97490416Y-65750223D01*
X97460784Y-65981620D01*
X97460784Y-65981624D01*
X97470686Y-66214709D01*
X97519835Y-66442764D01*
X97519836Y-66442765D01*
X97606821Y-66659235D01*
X97606821Y-66659236D01*
X97642743Y-66717577D01*
X97729138Y-66857891D01*
X97883269Y-67033018D01*
X98064780Y-67179578D01*
X98137137Y-67219999D01*
X98140549Y-67221905D01*
X98182129Y-67266790D01*
X98189385Y-67327544D01*
X98159545Y-67380960D01*
X98147705Y-67390355D01*
X97970910Y-67509848D01*
X97802485Y-67671270D01*
X97802484Y-67671272D01*
X97663762Y-67858836D01*
X97663760Y-67858839D01*
X97558731Y-68067151D01*
X97490416Y-68290222D01*
X97490416Y-68290223D01*
X97460784Y-68521620D01*
X97460784Y-68521624D01*
X97470686Y-68754709D01*
X97519835Y-68982764D01*
X97519836Y-68982765D01*
X97606821Y-69199235D01*
X97606821Y-69199236D01*
X97642898Y-69257828D01*
X97729138Y-69397891D01*
X97880977Y-69570414D01*
X97883272Y-69573021D01*
X97931716Y-69612136D01*
X97951770Y-69628329D01*
X97958404Y-69633685D01*
X97991801Y-69684952D01*
X97988686Y-69746058D01*
X97950248Y-69793663D01*
X97927354Y-69804685D01*
X97895663Y-69815186D01*
X97746347Y-69907285D01*
X97622285Y-70031347D01*
X97530187Y-70180663D01*
X97475000Y-70347205D01*
X97464500Y-70449983D01*
X97464500Y-71790016D01*
X97474999Y-71892788D01*
X97475002Y-71892800D01*
X97530187Y-72059336D01*
X97622285Y-72208652D01*
X97622286Y-72208653D01*
X97622288Y-72208656D01*
X97746344Y-72332712D01*
X97895666Y-72424814D01*
X98062203Y-72479999D01*
X98164991Y-72490500D01*
X99328124Y-72490499D01*
X99386315Y-72509406D01*
X99398127Y-72519495D01*
X99755555Y-72876922D01*
X99764962Y-72887807D01*
X99780390Y-72908530D01*
X99820829Y-72942462D01*
X99824008Y-72945375D01*
X99830223Y-72951590D01*
X99855944Y-72971927D01*
X99914786Y-73021302D01*
X99915617Y-73021719D01*
X99932594Y-73032534D01*
X99933323Y-73033111D01*
X100002930Y-73065569D01*
X100071567Y-73100040D01*
X100072465Y-73100252D01*
X100091483Y-73106862D01*
X100092327Y-73107256D01*
X100092330Y-73107256D01*
X100092331Y-73107257D01*
X100167532Y-73122784D01*
X100242278Y-73140500D01*
X100242279Y-73140500D01*
X100243214Y-73140500D01*
X100263232Y-73142545D01*
X100263444Y-73142588D01*
X100264144Y-73142733D01*
X100340898Y-73140500D01*
X105322279Y-73140500D01*
X105830500Y-73140500D01*
X105888691Y-73159407D01*
X105924655Y-73208907D01*
X105929500Y-73239500D01*
X105929500Y-73594381D01*
X105910593Y-73652572D01*
X105861093Y-73688536D01*
X105799907Y-73688536D01*
X105795905Y-73687140D01*
X105765049Y-73675632D01*
X105765048Y-73675631D01*
X105765046Y-73675631D01*
X105485428Y-73614804D01*
X105485425Y-73614803D01*
X105485422Y-73614803D01*
X105200000Y-73594390D01*
X104914577Y-73614803D01*
X104634949Y-73675632D01*
X104366837Y-73775633D01*
X104366835Y-73775634D01*
X104115689Y-73912771D01*
X103886609Y-74084257D01*
X103684257Y-74286609D01*
X103512771Y-74515689D01*
X103375634Y-74766835D01*
X103375633Y-74766837D01*
X103275632Y-75034949D01*
X103214803Y-75314577D01*
X103194390Y-75600000D01*
X103214803Y-75885422D01*
X103214803Y-75885425D01*
X103214804Y-75885428D01*
X103232025Y-75964592D01*
X103275632Y-76165050D01*
X103375633Y-76433162D01*
X103375634Y-76433164D01*
X103482179Y-76628285D01*
X103512774Y-76684315D01*
X103684261Y-76913395D01*
X103886605Y-77115739D01*
X104115685Y-77287226D01*
X104115689Y-77287228D01*
X104362509Y-77422003D01*
X104366839Y-77424367D01*
X104634954Y-77524369D01*
X104914572Y-77585196D01*
X105200000Y-77605610D01*
X105485428Y-77585196D01*
X105671961Y-77544618D01*
X105732840Y-77550724D01*
X105778504Y-77591449D01*
X105791461Y-77631005D01*
X105794326Y-77658256D01*
X105794326Y-77658257D01*
X105794325Y-77658257D01*
X105852819Y-77838279D01*
X105852824Y-77838291D01*
X105854389Y-77841001D01*
X105854716Y-77842541D01*
X105854934Y-77843030D01*
X105854830Y-77843076D01*
X105867110Y-77900850D01*
X105842223Y-77956745D01*
X105789234Y-77987337D01*
X105768652Y-77989500D01*
X100487661Y-77989500D01*
X100429470Y-77970593D01*
X100403359Y-77942406D01*
X100390862Y-77922109D01*
X100236731Y-77746982D01*
X100055220Y-77600422D01*
X99993539Y-77565965D01*
X99978961Y-77557821D01*
X99937381Y-77512935D01*
X99930126Y-77452181D01*
X99959966Y-77398766D01*
X99971807Y-77389370D01*
X100148772Y-77269763D01*
X100317137Y-77108398D01*
X100317139Y-77108396D01*
X100455810Y-76920900D01*
X100455812Y-76920897D01*
X100499121Y-76835000D01*
X97617115Y-76835000D01*
X97729535Y-77017582D01*
X97729544Y-77017594D01*
X97883618Y-77192657D01*
X98065060Y-77339160D01*
X98065067Y-77339165D01*
X98141013Y-77381591D01*
X98182593Y-77426476D01*
X98189849Y-77487230D01*
X98160009Y-77540646D01*
X98148169Y-77550041D01*
X97970910Y-77669848D01*
X97802485Y-77831270D01*
X97802484Y-77831272D01*
X97663762Y-78018836D01*
X97663760Y-78018839D01*
X97558731Y-78227151D01*
X97490416Y-78450222D01*
X97490416Y-78450223D01*
X97460784Y-78681620D01*
X97460784Y-78681624D01*
X97470686Y-78914709D01*
X97519835Y-79142764D01*
X97519836Y-79142765D01*
X97606821Y-79359235D01*
X97606821Y-79359236D01*
X97690469Y-79495089D01*
X97729138Y-79557891D01*
X97809085Y-79648729D01*
X97883272Y-79733021D01*
X97958404Y-79793685D01*
X97991801Y-79844952D01*
X97988686Y-79906058D01*
X97950248Y-79953663D01*
X97927354Y-79964685D01*
X97895663Y-79975186D01*
X97746347Y-80067285D01*
X97622285Y-80191347D01*
X97530187Y-80340662D01*
X97507675Y-80408599D01*
X97490281Y-80461093D01*
X97490099Y-80461641D01*
X97453847Y-80510930D01*
X97396124Y-80529500D01*
X94829500Y-80529500D01*
X94771309Y-80510593D01*
X94735345Y-80461093D01*
X94730500Y-80430500D01*
X94730500Y-76200000D01*
X98459866Y-76200000D01*
X98480315Y-76355326D01*
X98540269Y-76500067D01*
X98635641Y-76624359D01*
X98759933Y-76719731D01*
X98904674Y-76779685D01*
X99021003Y-76795000D01*
X99098997Y-76795000D01*
X99215326Y-76779685D01*
X99360067Y-76719731D01*
X99484359Y-76624359D01*
X99579731Y-76500067D01*
X99639685Y-76355326D01*
X99660134Y-76200000D01*
X99639685Y-76044674D01*
X99579731Y-75899933D01*
X99484359Y-75775641D01*
X99360067Y-75680269D01*
X99215326Y-75620315D01*
X99098997Y-75605000D01*
X99021003Y-75605000D01*
X98904674Y-75620315D01*
X98759933Y-75680269D01*
X98635641Y-75775641D01*
X98540269Y-75899933D01*
X98480315Y-76044674D01*
X98459866Y-76200000D01*
X94730500Y-76200000D01*
X94730500Y-75565000D01*
X97620879Y-75565000D01*
X98424999Y-75565000D01*
X98425000Y-75564999D01*
X98425000Y-74891863D01*
X99695000Y-74891863D01*
X99695000Y-75564999D01*
X99695001Y-75565000D01*
X100502885Y-75565000D01*
X100502885Y-75564999D01*
X100390464Y-75382417D01*
X100390455Y-75382405D01*
X100236381Y-75207342D01*
X100054939Y-75060839D01*
X100054932Y-75060834D01*
X99851348Y-74947106D01*
X99851338Y-74947101D01*
X99695000Y-74891863D01*
X98425000Y-74891863D01*
X98425000Y-74891075D01*
X98424999Y-74891075D01*
X98376950Y-74903586D01*
X98164446Y-74999645D01*
X98164442Y-74999647D01*
X97971227Y-75130236D01*
X97802862Y-75291601D01*
X97802860Y-75291603D01*
X97664189Y-75479099D01*
X97664187Y-75479102D01*
X97620879Y-75565000D01*
X94730500Y-75565000D01*
X94730500Y-63500000D01*
X98459866Y-63500000D01*
X98480315Y-63655326D01*
X98540269Y-63800067D01*
X98635641Y-63924359D01*
X98759933Y-64019731D01*
X98904674Y-64079685D01*
X99021003Y-64095000D01*
X99098997Y-64095000D01*
X99215326Y-64079685D01*
X99360067Y-64019731D01*
X99484359Y-63924359D01*
X99579731Y-63800067D01*
X99639685Y-63655326D01*
X99660134Y-63500000D01*
X99639685Y-63344674D01*
X99579731Y-63199933D01*
X99484359Y-63075641D01*
X99360067Y-62980269D01*
X99215326Y-62920315D01*
X99098997Y-62905000D01*
X99021003Y-62905000D01*
X98904674Y-62920315D01*
X98759933Y-62980269D01*
X98635641Y-63075641D01*
X98540269Y-63199933D01*
X98480315Y-63344674D01*
X98459866Y-63500000D01*
X94730500Y-63500000D01*
X94730500Y-62865000D01*
X97620879Y-62865000D01*
X98424999Y-62865000D01*
X98425000Y-62864999D01*
X98425000Y-62191863D01*
X99695000Y-62191863D01*
X99695000Y-62864999D01*
X99695001Y-62865000D01*
X100502885Y-62865000D01*
X100502885Y-62864999D01*
X100390464Y-62682417D01*
X100390455Y-62682405D01*
X100236381Y-62507342D01*
X100054939Y-62360839D01*
X100054932Y-62360834D01*
X99851348Y-62247106D01*
X99851338Y-62247101D01*
X99695000Y-62191863D01*
X98425000Y-62191863D01*
X98425000Y-62191075D01*
X98424999Y-62191075D01*
X98376950Y-62203586D01*
X98164446Y-62299645D01*
X98164442Y-62299647D01*
X97971227Y-62430236D01*
X97802862Y-62591601D01*
X97802860Y-62591603D01*
X97664189Y-62779099D01*
X97664187Y-62779102D01*
X97620879Y-62865000D01*
X94730500Y-62865000D01*
X94730500Y-61731394D01*
X94749407Y-61673203D01*
X94794903Y-61638636D01*
X94833161Y-61624367D01*
X95084315Y-61487226D01*
X95313395Y-61315739D01*
X95515739Y-61113395D01*
X95687226Y-60884315D01*
X95824367Y-60633161D01*
X95883394Y-60474903D01*
X95921445Y-60426989D01*
X95976152Y-60410500D01*
X103221500Y-60410500D01*
X103279691Y-60429407D01*
G37*
%TD.AperFunction*%
%TA.AperFunction,Conductor*%
G36*
X110497295Y-62110813D02*
G01*
X110531602Y-62139693D01*
X110552449Y-62167540D01*
X110552450Y-62167541D01*
X110552454Y-62167546D01*
X110552457Y-62167548D01*
X110552458Y-62167549D01*
X110667670Y-62253797D01*
X110802511Y-62304089D01*
X110802512Y-62304089D01*
X110802517Y-62304091D01*
X110816637Y-62305609D01*
X110872473Y-62330629D01*
X110902939Y-62383689D01*
X110896399Y-62444524D01*
X110876058Y-62474045D01*
X110721505Y-62628598D01*
X110721502Y-62628602D01*
X110585963Y-62822173D01*
X110585959Y-62822181D01*
X110486098Y-63036332D01*
X110424935Y-63264599D01*
X110404341Y-63499995D01*
X110404341Y-63500004D01*
X110424935Y-63735400D01*
X110424936Y-63735407D01*
X110424937Y-63735408D01*
X110486097Y-63963663D01*
X110585965Y-64177830D01*
X110721505Y-64371401D01*
X110888599Y-64538495D01*
X111082170Y-64674035D01*
X111095552Y-64680275D01*
X111140300Y-64722003D01*
X111151975Y-64782064D01*
X111126117Y-64837517D01*
X111095554Y-64859724D01*
X111082173Y-64865963D01*
X110888603Y-65001501D01*
X110721501Y-65168603D01*
X110585963Y-65362173D01*
X110585959Y-65362181D01*
X110486098Y-65576332D01*
X110424935Y-65804599D01*
X110404341Y-66039995D01*
X110404341Y-66040004D01*
X110424935Y-66275400D01*
X110424936Y-66275407D01*
X110424937Y-66275408D01*
X110486097Y-66503663D01*
X110535377Y-66609343D01*
X110585964Y-66717828D01*
X110718322Y-66906856D01*
X110721505Y-66911401D01*
X110888599Y-67078495D01*
X111082170Y-67214035D01*
X111094960Y-67219999D01*
X111095552Y-67220275D01*
X111140300Y-67262003D01*
X111151975Y-67322064D01*
X111126117Y-67377517D01*
X111095554Y-67399724D01*
X111082173Y-67405963D01*
X110888603Y-67541501D01*
X110721501Y-67708603D01*
X110585965Y-67902171D01*
X110585959Y-67902181D01*
X110486098Y-68116332D01*
X110424935Y-68344599D01*
X110404341Y-68579995D01*
X110404341Y-68580004D01*
X110424935Y-68815400D01*
X110424936Y-68815407D01*
X110424937Y-68815408D01*
X110486097Y-69043663D01*
X110585965Y-69257830D01*
X110640595Y-69335850D01*
X110701040Y-69422175D01*
X110721505Y-69451401D01*
X110888599Y-69618495D01*
X110888602Y-69618497D01*
X110888603Y-69618498D01*
X110920047Y-69640515D01*
X111082170Y-69754035D01*
X111082171Y-69754035D01*
X111082172Y-69754036D01*
X111082174Y-69754037D01*
X111096143Y-69760551D01*
X111140892Y-69802279D01*
X111152567Y-69862340D01*
X111126710Y-69917793D01*
X111096146Y-69940000D01*
X111082424Y-69946398D01*
X110888926Y-70081886D01*
X110721886Y-70248926D01*
X110586405Y-70442413D01*
X110586398Y-70442425D01*
X110566545Y-70484999D01*
X110566545Y-70485000D01*
X112296000Y-70485000D01*
X112354191Y-70503907D01*
X112390155Y-70553407D01*
X112395000Y-70584000D01*
X112395000Y-71656000D01*
X112376093Y-71714191D01*
X112326593Y-71750155D01*
X112296000Y-71755000D01*
X110745243Y-71755000D01*
X110687052Y-71736093D01*
X110675239Y-71726004D01*
X110141124Y-71191889D01*
X111260000Y-71191889D01*
X111300507Y-71329844D01*
X111378239Y-71450798D01*
X111486900Y-71544952D01*
X111617685Y-71604680D01*
X111724237Y-71620000D01*
X111795763Y-71620000D01*
X111902315Y-71604680D01*
X112033100Y-71544952D01*
X112141761Y-71450798D01*
X112219493Y-71329844D01*
X112260000Y-71191889D01*
X112260000Y-71048111D01*
X112219493Y-70910156D01*
X112141761Y-70789202D01*
X112033100Y-70695048D01*
X111902315Y-70635320D01*
X111795763Y-70620000D01*
X111724237Y-70620000D01*
X111617685Y-70635320D01*
X111486900Y-70695048D01*
X111378239Y-70789202D01*
X111300507Y-70910156D01*
X111260000Y-71048111D01*
X111260000Y-71191889D01*
X110141124Y-71191889D01*
X109174745Y-70225510D01*
X109170471Y-70220636D01*
X109150956Y-70195202D01*
X109130533Y-70137526D01*
X109130499Y-70134936D01*
X109130499Y-69922131D01*
X109130003Y-69917517D01*
X109125780Y-69878229D01*
X109125780Y-69857070D01*
X109130000Y-69817822D01*
X109130000Y-69770001D01*
X109117947Y-69757948D01*
X109096849Y-69751093D01*
X109075787Y-69730329D01*
X109018146Y-69653331D01*
X108999429Y-69628328D01*
X108979693Y-69570414D01*
X108997767Y-69511959D01*
X109046749Y-69475292D01*
X109078683Y-69470000D01*
X109129999Y-69470000D01*
X109130000Y-69469999D01*
X109130000Y-69422175D01*
X109123598Y-69362629D01*
X109123596Y-69362618D01*
X109073353Y-69227911D01*
X109073352Y-69227909D01*
X108987192Y-69112815D01*
X108987184Y-69112807D01*
X108872090Y-69026647D01*
X108872088Y-69026646D01*
X108737381Y-68976403D01*
X108737370Y-68976401D01*
X108677824Y-68970000D01*
X108380001Y-68970000D01*
X108380000Y-68970001D01*
X108380000Y-69370500D01*
X108361093Y-69428691D01*
X108311593Y-69464655D01*
X108281000Y-69469500D01*
X108179000Y-69469500D01*
X108120809Y-69450593D01*
X108084845Y-69401093D01*
X108080000Y-69370500D01*
X108080000Y-68970001D01*
X108079999Y-68970000D01*
X107782176Y-68970000D01*
X107722629Y-68976401D01*
X107722618Y-68976403D01*
X107587911Y-69026646D01*
X107581694Y-69030041D01*
X107580935Y-69028651D01*
X107530903Y-69045695D01*
X107472450Y-69027614D01*
X107435788Y-68978629D01*
X107430500Y-68946705D01*
X107430500Y-68931874D01*
X107449407Y-68873683D01*
X107459490Y-68861876D01*
X109706933Y-66614432D01*
X109717812Y-66605033D01*
X109738530Y-66589610D01*
X109772469Y-66549161D01*
X109775370Y-66545995D01*
X109781590Y-66539777D01*
X109801923Y-66514060D01*
X109801924Y-66514059D01*
X109851299Y-66455218D01*
X109851299Y-66455216D01*
X109851302Y-66455214D01*
X109851715Y-66454390D01*
X109862543Y-66437393D01*
X109863110Y-66436677D01*
X109895561Y-66367085D01*
X109930040Y-66298433D01*
X109930252Y-66297537D01*
X109936866Y-66278507D01*
X109937256Y-66277673D01*
X109952784Y-66202467D01*
X109970500Y-66127721D01*
X109970500Y-66126786D01*
X109972546Y-66106765D01*
X109972733Y-66105857D01*
X109970500Y-66029102D01*
X109970500Y-62581874D01*
X109989407Y-62523683D01*
X109999496Y-62511871D01*
X110186055Y-62325312D01*
X110382346Y-62129019D01*
X110436863Y-62101242D01*
X110497295Y-62110813D01*
G37*
%TD.AperFunction*%
%TA.AperFunction,Conductor*%
G36*
X118068691Y-57169407D02*
G01*
X118104655Y-57218907D01*
X118109500Y-57249500D01*
X118109500Y-112930500D01*
X118090593Y-112988691D01*
X118041093Y-113024655D01*
X118010500Y-113029500D01*
X108630466Y-113029500D01*
X108572275Y-113010593D01*
X108536311Y-112961093D01*
X108536311Y-112899907D01*
X108572275Y-112850407D01*
X108595869Y-112837742D01*
X108632954Y-112823909D01*
X108693061Y-112791088D01*
X107799999Y-111898026D01*
X106906937Y-112791088D01*
X106967038Y-112823906D01*
X106967046Y-112823910D01*
X107004131Y-112837742D01*
X107052045Y-112875793D01*
X107068443Y-112934740D01*
X107047061Y-112992068D01*
X106996066Y-113025878D01*
X106969534Y-113029500D01*
X91539500Y-113029500D01*
X91481309Y-113010593D01*
X91445345Y-112961093D01*
X91440500Y-112930500D01*
X91440500Y-111000000D01*
X105794891Y-111000000D01*
X105815299Y-111285351D01*
X105876113Y-111564908D01*
X105976089Y-111832951D01*
X106008910Y-111893061D01*
X106901972Y-110999999D01*
X108698026Y-110999999D01*
X109591088Y-111893061D01*
X109623909Y-111832954D01*
X109723886Y-111564908D01*
X109784700Y-111285351D01*
X109805108Y-111000000D01*
X109784700Y-110714648D01*
X109723886Y-110435091D01*
X109623910Y-110167046D01*
X109623906Y-110167038D01*
X109591088Y-110106937D01*
X108698026Y-110999999D01*
X106901972Y-110999999D01*
X106008910Y-110106937D01*
X105976089Y-110167047D01*
X105876113Y-110435091D01*
X105815299Y-110714648D01*
X105794891Y-111000000D01*
X91440500Y-111000000D01*
X91440500Y-59800000D01*
X91994390Y-59800000D01*
X92014803Y-60085422D01*
X92075632Y-60365050D01*
X92175633Y-60633162D01*
X92175634Y-60633164D01*
X92225558Y-60724592D01*
X92312774Y-60884315D01*
X92369431Y-60960000D01*
X92473206Y-61098628D01*
X92484261Y-61113395D01*
X92686605Y-61315739D01*
X92915685Y-61487226D01*
X93166839Y-61624367D01*
X93166841Y-61624367D01*
X93166847Y-61624371D01*
X93170062Y-61625840D01*
X93169446Y-61627188D01*
X93212982Y-61661724D01*
X93229500Y-61716475D01*
X93229500Y-81256710D01*
X93229416Y-81259588D01*
X93225669Y-81323934D01*
X93227996Y-81337131D01*
X93229500Y-81354322D01*
X93229500Y-106618115D01*
X93228455Y-106632461D01*
X93224711Y-106658023D01*
X93229312Y-106710624D01*
X93229500Y-106714923D01*
X93229500Y-106723707D01*
X93233306Y-106756275D01*
X93240000Y-106832796D01*
X93240299Y-106833697D01*
X93244649Y-106853316D01*
X93244758Y-106854253D01*
X93271025Y-106926423D01*
X93295186Y-106999335D01*
X93295682Y-107000139D01*
X93304437Y-107018222D01*
X93304763Y-107019117D01*
X93346965Y-107083283D01*
X93387288Y-107148656D01*
X93387293Y-107148661D01*
X93387957Y-107149326D01*
X93400654Y-107164913D01*
X93401167Y-107165693D01*
X93457018Y-107218386D01*
X95945559Y-109706926D01*
X95954965Y-109717811D01*
X95970390Y-109738530D01*
X96010829Y-109772462D01*
X96014008Y-109775375D01*
X96020223Y-109781590D01*
X96045939Y-109801923D01*
X96104786Y-109851302D01*
X96105609Y-109851715D01*
X96122603Y-109862541D01*
X96123323Y-109863110D01*
X96192914Y-109895561D01*
X96261567Y-109930040D01*
X96262465Y-109930252D01*
X96281483Y-109936862D01*
X96282327Y-109937256D01*
X96282330Y-109937256D01*
X96282331Y-109937257D01*
X96357532Y-109952784D01*
X96432278Y-109970500D01*
X96432279Y-109970500D01*
X96433214Y-109970500D01*
X96453232Y-109972545D01*
X96453444Y-109972588D01*
X96454144Y-109972733D01*
X96530898Y-109970500D01*
X97396124Y-109970500D01*
X97454315Y-109989407D01*
X97490099Y-110038359D01*
X97530187Y-110159337D01*
X97622285Y-110308652D01*
X97622286Y-110308653D01*
X97622288Y-110308656D01*
X97746344Y-110432712D01*
X97895666Y-110524814D01*
X98062203Y-110579999D01*
X98164991Y-110590500D01*
X99955008Y-110590499D01*
X99955016Y-110590499D01*
X100057788Y-110580000D01*
X100057788Y-110579999D01*
X100057797Y-110579999D01*
X100224334Y-110524814D01*
X100373656Y-110432712D01*
X100497712Y-110308656D01*
X100589814Y-110159334D01*
X100644999Y-109992797D01*
X100655500Y-109890009D01*
X100655499Y-109208910D01*
X106906937Y-109208910D01*
X107799999Y-110101972D01*
X108046971Y-109855000D01*
X110566545Y-109855000D01*
X110586399Y-109897577D01*
X110721886Y-110091073D01*
X110888926Y-110258113D01*
X111082420Y-110393599D01*
X111082424Y-110393601D01*
X111125000Y-110413453D01*
X111125000Y-109855001D01*
X111124999Y-109855000D01*
X110566545Y-109855000D01*
X108046971Y-109855000D01*
X108610082Y-109291889D01*
X111260000Y-109291889D01*
X111300507Y-109429844D01*
X111378239Y-109550798D01*
X111486900Y-109644952D01*
X111617685Y-109704680D01*
X111724237Y-109720000D01*
X111795763Y-109720000D01*
X111902315Y-109704680D01*
X112033100Y-109644952D01*
X112141761Y-109550798D01*
X112219493Y-109429844D01*
X112260000Y-109291889D01*
X112260000Y-109148111D01*
X112219493Y-109010156D01*
X112141761Y-108889202D01*
X112033100Y-108795048D01*
X111902315Y-108735320D01*
X111795763Y-108720000D01*
X111724237Y-108720000D01*
X111617685Y-108735320D01*
X111486900Y-108795048D01*
X111378239Y-108889202D01*
X111300507Y-109010156D01*
X111260000Y-109148111D01*
X111260000Y-109291889D01*
X108610082Y-109291889D01*
X108693061Y-109208910D01*
X108632951Y-109176089D01*
X108364908Y-109076113D01*
X108085351Y-109015299D01*
X107800000Y-108994891D01*
X107514648Y-109015299D01*
X107235091Y-109076113D01*
X106967047Y-109176089D01*
X106906937Y-109208910D01*
X100655499Y-109208910D01*
X100655499Y-108549992D01*
X100655499Y-108549983D01*
X100645000Y-108447211D01*
X100644999Y-108447209D01*
X100644999Y-108447203D01*
X100589814Y-108280666D01*
X100497712Y-108131344D01*
X100373656Y-108007288D01*
X100373653Y-108007286D01*
X100373652Y-108007285D01*
X100224335Y-107915186D01*
X100196503Y-107905963D01*
X100147214Y-107869711D01*
X100128647Y-107811411D01*
X100147894Y-107753331D01*
X100159137Y-107740521D01*
X100317516Y-107588728D01*
X100404860Y-107470630D01*
X100454664Y-107435089D01*
X100484456Y-107430500D01*
X103483315Y-107430500D01*
X103541506Y-107449407D01*
X103567576Y-107477528D01*
X103642285Y-107598652D01*
X103642286Y-107598653D01*
X103642288Y-107598656D01*
X103766344Y-107722712D01*
X103915666Y-107814814D01*
X104082203Y-107869999D01*
X104184991Y-107880500D01*
X104810008Y-107880499D01*
X104810016Y-107880499D01*
X104912788Y-107870000D01*
X104912788Y-107869999D01*
X104912797Y-107869999D01*
X105079334Y-107814814D01*
X105228656Y-107722712D01*
X105340351Y-107611016D01*
X105394866Y-107583240D01*
X105455298Y-107592811D01*
X105480357Y-107611017D01*
X105591659Y-107722319D01*
X105740879Y-107814359D01*
X105809999Y-107837262D01*
X105810000Y-107837262D01*
X106835000Y-107837262D01*
X106904119Y-107814359D01*
X106904120Y-107814359D01*
X107053340Y-107722319D01*
X107177319Y-107598340D01*
X107269356Y-107449124D01*
X107324504Y-107282699D01*
X107324507Y-107282689D01*
X107333721Y-107192500D01*
X106835001Y-107192500D01*
X106835000Y-107192501D01*
X106835000Y-107837262D01*
X105810000Y-107837262D01*
X105810000Y-105522737D01*
X106835000Y-105522737D01*
X106835000Y-106167499D01*
X106835001Y-106167500D01*
X107333720Y-106167500D01*
X107333720Y-106167499D01*
X107324507Y-106077312D01*
X107324504Y-106077300D01*
X107269356Y-105910875D01*
X107177319Y-105761659D01*
X107053340Y-105637680D01*
X106904126Y-105545644D01*
X106904122Y-105545642D01*
X106835000Y-105522737D01*
X105810000Y-105522737D01*
X105740877Y-105545642D01*
X105740873Y-105545644D01*
X105591658Y-105637681D01*
X105591655Y-105637683D01*
X105480356Y-105748982D01*
X105425840Y-105776759D01*
X105365408Y-105767187D01*
X105340352Y-105748984D01*
X105228656Y-105637288D01*
X105228653Y-105637286D01*
X105228652Y-105637285D01*
X105079336Y-105545187D01*
X105079335Y-105545186D01*
X105079334Y-105545186D01*
X104912797Y-105490001D01*
X104912794Y-105490000D01*
X104810016Y-105479500D01*
X104184983Y-105479500D01*
X104082211Y-105489999D01*
X104082199Y-105490002D01*
X103915663Y-105545187D01*
X103766347Y-105637285D01*
X103642285Y-105761347D01*
X103567576Y-105882472D01*
X103520935Y-105922074D01*
X103483315Y-105929500D01*
X100487661Y-105929500D01*
X100429470Y-105910593D01*
X100403359Y-105882406D01*
X100390862Y-105862109D01*
X100236731Y-105686982D01*
X100055220Y-105540422D01*
X100023562Y-105522737D01*
X99964962Y-105490001D01*
X99851552Y-105426646D01*
X99631584Y-105348927D01*
X99593261Y-105342355D01*
X99401652Y-105309500D01*
X99401647Y-105309500D01*
X98791876Y-105309500D01*
X98733685Y-105290593D01*
X98721872Y-105280504D01*
X97299496Y-103858128D01*
X97271719Y-103803611D01*
X97270500Y-103788124D01*
X97270500Y-87971875D01*
X97289407Y-87913684D01*
X97299496Y-87901872D01*
X97590477Y-87610890D01*
X97644994Y-87583112D01*
X97705426Y-87592683D01*
X97748691Y-87635948D01*
X97759104Y-87672265D01*
X97774363Y-87846684D01*
X97833262Y-88066500D01*
X97929426Y-88272723D01*
X97929434Y-88272737D01*
X98059946Y-88459130D01*
X98059947Y-88459132D01*
X98059950Y-88459135D01*
X98059953Y-88459139D01*
X98220861Y-88620047D01*
X98220864Y-88620049D01*
X98220867Y-88620052D01*
X98220869Y-88620053D01*
X98284478Y-88664592D01*
X98407266Y-88750568D01*
X98407267Y-88750568D01*
X98407271Y-88750571D01*
X98513863Y-88800276D01*
X98558611Y-88842004D01*
X98570285Y-88902065D01*
X98544427Y-88957518D01*
X98513863Y-88979724D01*
X98407271Y-89029428D01*
X98407262Y-89029434D01*
X98220869Y-89159946D01*
X98220867Y-89159947D01*
X98059947Y-89320867D01*
X98059946Y-89320869D01*
X97929434Y-89507262D01*
X97929426Y-89507276D01*
X97833262Y-89713499D01*
X97774363Y-89933315D01*
X97754532Y-90159996D01*
X97754532Y-90160003D01*
X97774363Y-90386684D01*
X97833262Y-90606500D01*
X97929426Y-90812723D01*
X97929434Y-90812737D01*
X98059946Y-90999130D01*
X98059947Y-90999132D01*
X98059950Y-90999135D01*
X98059953Y-90999139D01*
X98220861Y-91160047D01*
X98220864Y-91160049D01*
X98220867Y-91160052D01*
X98220869Y-91160053D01*
X98284478Y-91204592D01*
X98407266Y-91290568D01*
X98407267Y-91290568D01*
X98407271Y-91290571D01*
X98513863Y-91340276D01*
X98558611Y-91382004D01*
X98570285Y-91442065D01*
X98544427Y-91497518D01*
X98513863Y-91519724D01*
X98407271Y-91569428D01*
X98407262Y-91569434D01*
X98220869Y-91699946D01*
X98220867Y-91699947D01*
X98059947Y-91860867D01*
X98059946Y-91860869D01*
X97929434Y-92047262D01*
X97929426Y-92047276D01*
X97833262Y-92253499D01*
X97774363Y-92473315D01*
X97754532Y-92699996D01*
X97754532Y-92700003D01*
X97774363Y-92926684D01*
X97833262Y-93146500D01*
X97929426Y-93352723D01*
X97929434Y-93352737D01*
X98059946Y-93539130D01*
X98059947Y-93539132D01*
X98059950Y-93539135D01*
X98059953Y-93539139D01*
X98220861Y-93700047D01*
X98220864Y-93700049D01*
X98220867Y-93700052D01*
X98220869Y-93700053D01*
X98284478Y-93744592D01*
X98407266Y-93830568D01*
X98407267Y-93830568D01*
X98407271Y-93830571D01*
X98513863Y-93880276D01*
X98558611Y-93922004D01*
X98570285Y-93982065D01*
X98544427Y-94037518D01*
X98513863Y-94059724D01*
X98407271Y-94109428D01*
X98407262Y-94109434D01*
X98220869Y-94239946D01*
X98220867Y-94239947D01*
X98059947Y-94400867D01*
X98059946Y-94400869D01*
X97929434Y-94587262D01*
X97929426Y-94587276D01*
X97833262Y-94793499D01*
X97774363Y-95013315D01*
X97754532Y-95239996D01*
X97754532Y-95240003D01*
X97774363Y-95466684D01*
X97774364Y-95466691D01*
X97774365Y-95466692D01*
X97804489Y-95579117D01*
X97833262Y-95686500D01*
X97929426Y-95892723D01*
X97929434Y-95892737D01*
X98059946Y-96079130D01*
X98059947Y-96079132D01*
X98059950Y-96079135D01*
X98059953Y-96079139D01*
X98220861Y-96240047D01*
X98220864Y-96240049D01*
X98220867Y-96240052D01*
X98220869Y-96240053D01*
X98284478Y-96284592D01*
X98407266Y-96370568D01*
X98407267Y-96370568D01*
X98407271Y-96370571D01*
X98513863Y-96420276D01*
X98558611Y-96462004D01*
X98570285Y-96522065D01*
X98544427Y-96577518D01*
X98513863Y-96599724D01*
X98407271Y-96649428D01*
X98407262Y-96649434D01*
X98220869Y-96779946D01*
X98220867Y-96779947D01*
X98059947Y-96940867D01*
X98059946Y-96940869D01*
X97929434Y-97127262D01*
X97929426Y-97127276D01*
X97833262Y-97333499D01*
X97774363Y-97553315D01*
X97754532Y-97779996D01*
X97754532Y-97780003D01*
X97774363Y-98006684D01*
X97833262Y-98226500D01*
X97929426Y-98432723D01*
X97929434Y-98432737D01*
X98059946Y-98619130D01*
X98059947Y-98619132D01*
X98059950Y-98619135D01*
X98059953Y-98619139D01*
X98220861Y-98780047D01*
X98220864Y-98780049D01*
X98220867Y-98780052D01*
X98220869Y-98780053D01*
X98284478Y-98824592D01*
X98407266Y-98910568D01*
X98407267Y-98910568D01*
X98407271Y-98910571D01*
X98513863Y-98960276D01*
X98558611Y-99002004D01*
X98570285Y-99062065D01*
X98544427Y-99117518D01*
X98513863Y-99139724D01*
X98407271Y-99189428D01*
X98407262Y-99189434D01*
X98220869Y-99319946D01*
X98220867Y-99319947D01*
X98059947Y-99480867D01*
X98059946Y-99480869D01*
X97929434Y-99667262D01*
X97929426Y-99667276D01*
X97833262Y-99873499D01*
X97774363Y-100093315D01*
X97754532Y-100319996D01*
X97754532Y-100320003D01*
X97774363Y-100546684D01*
X97833262Y-100766500D01*
X97929426Y-100972723D01*
X97929434Y-100972737D01*
X98059946Y-101159130D01*
X98059947Y-101159132D01*
X98059950Y-101159135D01*
X98059953Y-101159139D01*
X98220861Y-101320047D01*
X98220864Y-101320049D01*
X98220867Y-101320052D01*
X98220869Y-101320053D01*
X98284478Y-101364592D01*
X98407266Y-101450568D01*
X98407267Y-101450568D01*
X98407271Y-101450571D01*
X98513863Y-101500276D01*
X98558611Y-101542004D01*
X98570285Y-101602065D01*
X98544427Y-101657518D01*
X98513863Y-101679724D01*
X98407271Y-101729428D01*
X98407262Y-101729434D01*
X98220869Y-101859946D01*
X98220867Y-101859947D01*
X98059947Y-102020867D01*
X98059946Y-102020869D01*
X97929434Y-102207262D01*
X97929426Y-102207276D01*
X97833262Y-102413499D01*
X97774363Y-102633315D01*
X97754532Y-102859996D01*
X97754532Y-102860003D01*
X97774363Y-103086684D01*
X97833262Y-103306500D01*
X97929426Y-103512723D01*
X97929434Y-103512737D01*
X98059946Y-103699130D01*
X98059947Y-103699132D01*
X98059950Y-103699135D01*
X98059953Y-103699139D01*
X98220861Y-103860047D01*
X98220864Y-103860049D01*
X98220867Y-103860052D01*
X98220869Y-103860053D01*
X98284478Y-103904592D01*
X98407266Y-103990568D01*
X98407272Y-103990571D01*
X98407276Y-103990573D01*
X98613500Y-104086737D01*
X98613504Y-104086739D01*
X98833308Y-104145635D01*
X98833312Y-104145635D01*
X98833315Y-104145636D01*
X99059997Y-104165468D01*
X99060000Y-104165468D01*
X99060003Y-104165468D01*
X99286684Y-104145636D01*
X99286685Y-104145635D01*
X99286692Y-104145635D01*
X99506496Y-104086739D01*
X99712734Y-103990568D01*
X99899139Y-103860047D01*
X100060047Y-103699139D01*
X100190568Y-103512734D01*
X100198838Y-103495000D01*
X105541714Y-103495000D01*
X105549868Y-103512487D01*
X105680334Y-103698811D01*
X105841188Y-103859665D01*
X106027512Y-103990131D01*
X106045000Y-103998285D01*
X107315000Y-103998285D01*
X107332487Y-103990131D01*
X107518811Y-103859665D01*
X107679665Y-103698811D01*
X107810131Y-103512487D01*
X107818286Y-103495000D01*
X107315001Y-103495000D01*
X107315000Y-103495001D01*
X107315000Y-103998285D01*
X106045000Y-103998285D01*
X106045000Y-103495001D01*
X106044999Y-103495000D01*
X105541714Y-103495000D01*
X100198838Y-103495000D01*
X100286739Y-103306496D01*
X100345635Y-103086692D01*
X100356198Y-102965965D01*
X100365468Y-102860003D01*
X100365468Y-102860000D01*
X106275014Y-102860000D01*
X106294835Y-102985148D01*
X106352359Y-103098045D01*
X106441955Y-103187641D01*
X106554852Y-103245165D01*
X106648519Y-103260000D01*
X106711481Y-103260000D01*
X106805148Y-103245165D01*
X106918045Y-103187641D01*
X107007641Y-103098045D01*
X107065165Y-102985148D01*
X107084986Y-102860000D01*
X107065165Y-102734852D01*
X107007641Y-102621955D01*
X106918045Y-102532359D01*
X106805148Y-102474835D01*
X106711481Y-102460000D01*
X106648519Y-102460000D01*
X106554852Y-102474835D01*
X106441955Y-102532359D01*
X106352359Y-102621955D01*
X106294835Y-102734852D01*
X106275014Y-102860000D01*
X100365468Y-102860000D01*
X100365468Y-102859996D01*
X100345636Y-102633315D01*
X100345635Y-102633312D01*
X100345635Y-102633308D01*
X100286739Y-102413504D01*
X100223472Y-102277828D01*
X100190573Y-102207276D01*
X100190571Y-102207272D01*
X100190568Y-102207266D01*
X100090017Y-102063663D01*
X100060053Y-102020869D01*
X100060052Y-102020867D01*
X100060049Y-102020864D01*
X100060047Y-102020861D01*
X99899139Y-101859953D01*
X99899135Y-101859950D01*
X99899132Y-101859947D01*
X99899130Y-101859946D01*
X99712737Y-101729434D01*
X99712736Y-101729433D01*
X99712734Y-101729432D01*
X99712731Y-101729430D01*
X99712723Y-101729426D01*
X99606137Y-101679724D01*
X99561389Y-101637996D01*
X99549714Y-101577935D01*
X99575572Y-101522482D01*
X99606137Y-101500276D01*
X99712723Y-101450573D01*
X99712721Y-101450573D01*
X99712734Y-101450568D01*
X99899139Y-101320047D01*
X100060047Y-101159139D01*
X100190568Y-100972734D01*
X100286739Y-100766496D01*
X100345635Y-100546692D01*
X100356160Y-100426399D01*
X100365468Y-100320003D01*
X100365468Y-100319996D01*
X100345636Y-100093315D01*
X100345635Y-100093312D01*
X100345635Y-100093308D01*
X100286739Y-99873504D01*
X100190568Y-99667266D01*
X100090017Y-99523663D01*
X100060053Y-99480869D01*
X100060052Y-99480867D01*
X100060049Y-99480864D01*
X100060047Y-99480861D01*
X99899139Y-99319953D01*
X99899135Y-99319950D01*
X99899132Y-99319947D01*
X99899130Y-99319946D01*
X99712737Y-99189434D01*
X99712736Y-99189433D01*
X99712734Y-99189432D01*
X99712731Y-99189430D01*
X99712723Y-99189426D01*
X99606137Y-99139724D01*
X99561389Y-99097996D01*
X99549714Y-99037935D01*
X99575572Y-98982482D01*
X99606137Y-98960276D01*
X99712723Y-98910573D01*
X99712721Y-98910573D01*
X99712734Y-98910568D01*
X99899139Y-98780047D01*
X100060047Y-98619139D01*
X100190568Y-98432734D01*
X100286739Y-98226496D01*
X100345635Y-98006692D01*
X100356198Y-97885965D01*
X100365468Y-97780003D01*
X100365468Y-97779996D01*
X100345636Y-97553315D01*
X100345635Y-97553312D01*
X100345635Y-97553308D01*
X100286739Y-97333504D01*
X100223473Y-97197830D01*
X100190573Y-97127276D01*
X100190571Y-97127272D01*
X100190568Y-97127266D01*
X100060053Y-96940869D01*
X100060052Y-96940867D01*
X100060049Y-96940864D01*
X100060047Y-96940861D01*
X99899139Y-96779953D01*
X99899135Y-96779950D01*
X99899132Y-96779947D01*
X99899130Y-96779946D01*
X99712737Y-96649434D01*
X99712736Y-96649433D01*
X99712734Y-96649432D01*
X99712731Y-96649430D01*
X99712723Y-96649426D01*
X99606137Y-96599724D01*
X99561389Y-96557996D01*
X99549714Y-96497935D01*
X99575572Y-96442482D01*
X99606137Y-96420276D01*
X99712723Y-96370573D01*
X99712721Y-96370573D01*
X99712734Y-96370568D01*
X99899139Y-96240047D01*
X100060047Y-96079139D01*
X100190568Y-95892734D01*
X100286739Y-95686496D01*
X100345635Y-95466692D01*
X100351183Y-95403286D01*
X100365468Y-95240003D01*
X100365468Y-95239996D01*
X100345636Y-95013315D01*
X100345635Y-95013312D01*
X100345635Y-95013308D01*
X100286739Y-94793504D01*
X100239726Y-94692684D01*
X100190573Y-94587276D01*
X100190571Y-94587272D01*
X100190568Y-94587266D01*
X100090017Y-94443663D01*
X100060053Y-94400869D01*
X100060052Y-94400867D01*
X100060049Y-94400864D01*
X100060047Y-94400861D01*
X99899139Y-94239953D01*
X99899135Y-94239950D01*
X99899132Y-94239947D01*
X99899130Y-94239946D01*
X99712737Y-94109434D01*
X99712736Y-94109433D01*
X99712734Y-94109432D01*
X99712731Y-94109430D01*
X99712723Y-94109426D01*
X99606137Y-94059724D01*
X99561389Y-94017996D01*
X99549714Y-93957935D01*
X99575572Y-93902482D01*
X99606137Y-93880276D01*
X99712723Y-93830573D01*
X99712721Y-93830573D01*
X99712734Y-93830568D01*
X99899139Y-93700047D01*
X100060047Y-93539139D01*
X100190568Y-93352734D01*
X100286739Y-93146496D01*
X100345635Y-92926692D01*
X100356198Y-92805965D01*
X100365468Y-92700003D01*
X100365468Y-92699996D01*
X100345636Y-92473315D01*
X100345635Y-92473312D01*
X100345635Y-92473308D01*
X100286739Y-92253504D01*
X100223472Y-92117828D01*
X100190573Y-92047276D01*
X100190571Y-92047272D01*
X100190568Y-92047266D01*
X100090017Y-91903663D01*
X100060053Y-91860869D01*
X100060052Y-91860867D01*
X100060049Y-91860864D01*
X100060047Y-91860861D01*
X99899139Y-91699953D01*
X99899135Y-91699950D01*
X99899132Y-91699947D01*
X99899130Y-91699946D01*
X99712737Y-91569434D01*
X99712736Y-91569433D01*
X99712734Y-91569432D01*
X99712731Y-91569430D01*
X99712723Y-91569426D01*
X99606137Y-91519724D01*
X99561389Y-91477996D01*
X99549714Y-91417935D01*
X99575572Y-91362482D01*
X99606137Y-91340276D01*
X99712723Y-91290573D01*
X99712721Y-91290573D01*
X99712734Y-91290568D01*
X99899139Y-91160047D01*
X100060047Y-90999139D01*
X100190568Y-90812734D01*
X100286739Y-90606496D01*
X100345635Y-90386692D01*
X100356160Y-90266399D01*
X100365468Y-90160003D01*
X100365468Y-90159996D01*
X100345636Y-89933315D01*
X100345635Y-89933312D01*
X100345635Y-89933308D01*
X100286739Y-89713504D01*
X100286737Y-89713499D01*
X100190573Y-89507276D01*
X100190571Y-89507272D01*
X100190568Y-89507266D01*
X100090017Y-89363663D01*
X100060053Y-89320869D01*
X100060052Y-89320867D01*
X100060049Y-89320864D01*
X100060047Y-89320861D01*
X99899139Y-89159953D01*
X99899135Y-89159950D01*
X99899132Y-89159947D01*
X99899130Y-89159946D01*
X99712737Y-89029434D01*
X99712736Y-89029433D01*
X99712734Y-89029432D01*
X99712731Y-89029430D01*
X99712723Y-89029426D01*
X99606137Y-88979724D01*
X99561389Y-88937996D01*
X99549714Y-88877935D01*
X99575572Y-88822482D01*
X99606137Y-88800276D01*
X99712723Y-88750573D01*
X99712721Y-88750573D01*
X99712734Y-88750568D01*
X99899139Y-88620047D01*
X100060047Y-88459139D01*
X100190568Y-88272734D01*
X100286739Y-88066496D01*
X100345635Y-87846692D01*
X100356198Y-87725965D01*
X100365468Y-87620003D01*
X100365468Y-87619996D01*
X100345636Y-87393315D01*
X100345635Y-87393312D01*
X100345635Y-87393308D01*
X100286739Y-87173504D01*
X100286737Y-87173499D01*
X100190573Y-86967276D01*
X100190571Y-86967272D01*
X100190568Y-86967266D01*
X100090017Y-86823663D01*
X100060053Y-86780869D01*
X100060052Y-86780867D01*
X100060049Y-86780864D01*
X100060047Y-86780861D01*
X99899139Y-86619953D01*
X99814366Y-86560595D01*
X99777544Y-86511731D01*
X99776476Y-86450555D01*
X99811570Y-86400435D01*
X99869421Y-86380514D01*
X99871150Y-86380499D01*
X99907867Y-86380499D01*
X99907872Y-86380499D01*
X99967483Y-86374091D01*
X100034907Y-86348943D01*
X100102329Y-86323797D01*
X100102329Y-86323796D01*
X100102331Y-86323796D01*
X100217546Y-86237546D01*
X100303796Y-86122331D01*
X100311541Y-86101567D01*
X100354089Y-85987488D01*
X100354088Y-85987488D01*
X100354091Y-85987483D01*
X100360500Y-85927873D01*
X100360499Y-84232128D01*
X100354091Y-84172517D01*
X100354089Y-84172511D01*
X100303797Y-84037670D01*
X100217549Y-83922458D01*
X100217548Y-83922457D01*
X100217546Y-83922454D01*
X100217541Y-83922450D01*
X100102329Y-83836202D01*
X99967488Y-83785910D01*
X99967483Y-83785909D01*
X99967481Y-83785908D01*
X99967477Y-83785908D01*
X99936249Y-83782550D01*
X99907873Y-83779500D01*
X99907870Y-83779500D01*
X98212133Y-83779500D01*
X98212129Y-83779500D01*
X98212128Y-83779501D01*
X98204949Y-83780272D01*
X98152519Y-83785908D01*
X98152514Y-83785909D01*
X98017670Y-83836202D01*
X97902458Y-83922450D01*
X97902450Y-83922458D01*
X97816202Y-84037670D01*
X97765910Y-84172511D01*
X97765908Y-84172522D01*
X97759500Y-84232129D01*
X97759500Y-85278123D01*
X97740593Y-85336314D01*
X97730504Y-85348127D01*
X96033069Y-87045561D01*
X96022188Y-87054964D01*
X96001471Y-87070388D01*
X96001469Y-87070390D01*
X95967537Y-87110826D01*
X95964628Y-87114002D01*
X95958414Y-87120218D01*
X95958405Y-87120227D01*
X95938059Y-87145959D01*
X95888698Y-87204785D01*
X95888697Y-87204787D01*
X95888269Y-87205640D01*
X95877481Y-87222574D01*
X95876888Y-87223323D01*
X95844424Y-87292942D01*
X95809960Y-87361565D01*
X95809959Y-87361567D01*
X95809744Y-87362478D01*
X95803143Y-87381469D01*
X95802744Y-87382323D01*
X95802740Y-87382335D01*
X95787207Y-87457565D01*
X95769500Y-87532280D01*
X95769500Y-87533209D01*
X95767455Y-87553226D01*
X95767265Y-87554142D01*
X95769500Y-87630916D01*
X95769500Y-104078115D01*
X95768455Y-104092461D01*
X95764711Y-104118023D01*
X95769312Y-104170624D01*
X95769500Y-104174923D01*
X95769500Y-104183707D01*
X95773306Y-104216275D01*
X95780000Y-104292796D01*
X95780299Y-104293697D01*
X95784649Y-104313316D01*
X95784758Y-104314253D01*
X95811025Y-104386423D01*
X95835186Y-104459335D01*
X95835682Y-104460139D01*
X95844437Y-104478222D01*
X95844763Y-104479117D01*
X95886965Y-104543283D01*
X95927288Y-104608656D01*
X95927293Y-104608661D01*
X95927957Y-104609326D01*
X95940654Y-104624913D01*
X95941167Y-104625693D01*
X95997018Y-104678386D01*
X97499543Y-106180910D01*
X97527320Y-106235427D01*
X97524200Y-106279902D01*
X97490417Y-106390218D01*
X97490416Y-106390223D01*
X97460784Y-106621620D01*
X97460784Y-106621624D01*
X97470686Y-106854709D01*
X97519835Y-107082764D01*
X97519836Y-107082765D01*
X97606821Y-107299235D01*
X97606821Y-107299236D01*
X97642898Y-107357828D01*
X97729138Y-107497891D01*
X97828701Y-107611017D01*
X97883272Y-107673021D01*
X97958404Y-107733685D01*
X97991801Y-107784952D01*
X97988686Y-107846058D01*
X97950248Y-107893663D01*
X97927354Y-107904685D01*
X97895663Y-107915186D01*
X97746347Y-108007285D01*
X97622285Y-108131347D01*
X97530187Y-108280662D01*
X97490099Y-108401641D01*
X97453847Y-108450930D01*
X97396124Y-108469500D01*
X96871875Y-108469500D01*
X96813684Y-108450593D01*
X96801871Y-108440504D01*
X94759496Y-106398128D01*
X94731719Y-106343611D01*
X94730500Y-106328124D01*
X94730500Y-82129500D01*
X94749407Y-82071309D01*
X94798907Y-82035345D01*
X94829500Y-82030500D01*
X97396124Y-82030500D01*
X97454315Y-82049407D01*
X97490099Y-82098359D01*
X97530187Y-82219337D01*
X97622285Y-82368652D01*
X97622286Y-82368653D01*
X97622288Y-82368656D01*
X97746344Y-82492712D01*
X97746346Y-82492713D01*
X97746347Y-82492714D01*
X97819664Y-82537936D01*
X97895666Y-82584814D01*
X98062203Y-82639999D01*
X98164991Y-82650500D01*
X99955008Y-82650499D01*
X99955016Y-82650499D01*
X100057788Y-82640000D01*
X100057788Y-82639999D01*
X100057797Y-82639999D01*
X100224334Y-82584814D01*
X100373656Y-82492712D01*
X100497712Y-82368656D01*
X100589814Y-82219334D01*
X100644999Y-82052797D01*
X100655500Y-81950009D01*
X100655499Y-80609992D01*
X100655499Y-80609983D01*
X100645000Y-80507211D01*
X100644999Y-80507209D01*
X100644999Y-80507203D01*
X100589814Y-80340666D01*
X100528649Y-80241501D01*
X100497714Y-80191347D01*
X100497713Y-80191346D01*
X100497712Y-80191344D01*
X100373656Y-80067288D01*
X100373653Y-80067286D01*
X100373652Y-80067285D01*
X100224335Y-79975186D01*
X100196503Y-79965963D01*
X100147214Y-79929711D01*
X100128647Y-79871411D01*
X100147894Y-79813331D01*
X100159137Y-79800521D01*
X100317516Y-79648728D01*
X100404860Y-79530630D01*
X100454664Y-79495089D01*
X100484456Y-79490500D01*
X105768652Y-79490500D01*
X105826843Y-79509407D01*
X105862807Y-79558907D01*
X105862807Y-79620093D01*
X105854389Y-79638999D01*
X105852824Y-79641708D01*
X105852819Y-79641720D01*
X105794327Y-79821738D01*
X105794326Y-79821742D01*
X105794326Y-79821744D01*
X105781636Y-79942483D01*
X105774540Y-80010000D01*
X105794327Y-80198261D01*
X105852819Y-80378279D01*
X105852825Y-80378293D01*
X105900947Y-80461641D01*
X105947467Y-80542216D01*
X105947469Y-80542218D01*
X106064302Y-80671975D01*
X106074129Y-80682888D01*
X106227270Y-80794151D01*
X106400197Y-80871144D01*
X106472572Y-80886527D01*
X106521992Y-80913359D01*
X107375559Y-81766926D01*
X107384965Y-81777811D01*
X107400390Y-81798530D01*
X107440829Y-81832462D01*
X107444008Y-81835375D01*
X107450223Y-81841590D01*
X107475944Y-81861927D01*
X107534786Y-81911302D01*
X107535617Y-81911719D01*
X107552594Y-81922534D01*
X107553323Y-81923111D01*
X107622930Y-81955569D01*
X107691567Y-81990040D01*
X107692465Y-81990252D01*
X107711483Y-81996862D01*
X107712327Y-81997256D01*
X107712330Y-81997256D01*
X107712331Y-81997257D01*
X107787532Y-82012784D01*
X107862278Y-82030500D01*
X107862279Y-82030500D01*
X107863214Y-82030500D01*
X107883232Y-82032545D01*
X107883444Y-82032588D01*
X107884144Y-82032733D01*
X107960898Y-82030500D01*
X110585313Y-82030500D01*
X110643504Y-82049407D01*
X110666409Y-82072716D01*
X110706169Y-82129500D01*
X110721505Y-82151401D01*
X110888599Y-82318495D01*
X111082170Y-82454035D01*
X111095552Y-82460275D01*
X111140300Y-82502003D01*
X111151975Y-82562064D01*
X111126117Y-82617517D01*
X111095554Y-82639724D01*
X111082173Y-82645963D01*
X110888603Y-82781501D01*
X110721501Y-82948603D01*
X110585963Y-83142173D01*
X110585959Y-83142181D01*
X110486098Y-83356332D01*
X110424935Y-83584599D01*
X110404341Y-83819995D01*
X110404341Y-83820004D01*
X110423992Y-84044626D01*
X110410228Y-84104243D01*
X110395373Y-84123258D01*
X108938128Y-85580504D01*
X108883611Y-85608281D01*
X108868124Y-85609500D01*
X108013517Y-85609500D01*
X107955326Y-85590593D01*
X107919362Y-85541093D01*
X107917890Y-85484879D01*
X107965635Y-85306692D01*
X107968135Y-85278123D01*
X107985468Y-85080003D01*
X107985468Y-85079996D01*
X107965636Y-84853315D01*
X107965635Y-84853312D01*
X107965635Y-84853308D01*
X107906739Y-84633504D01*
X107843473Y-84497830D01*
X107810573Y-84427276D01*
X107810571Y-84427272D01*
X107810568Y-84427266D01*
X107680053Y-84240869D01*
X107680052Y-84240867D01*
X107680049Y-84240864D01*
X107680047Y-84240861D01*
X107519139Y-84079953D01*
X107519135Y-84079950D01*
X107519132Y-84079947D01*
X107519130Y-84079946D01*
X107332737Y-83949434D01*
X107332736Y-83949433D01*
X107332734Y-83949432D01*
X107332731Y-83949430D01*
X107332723Y-83949426D01*
X107126499Y-83853262D01*
X107126500Y-83853262D01*
X107053228Y-83833629D01*
X106906692Y-83794365D01*
X106906691Y-83794364D01*
X106906684Y-83794363D01*
X106680003Y-83774532D01*
X106679997Y-83774532D01*
X106453315Y-83794363D01*
X106233499Y-83853262D01*
X106027276Y-83949426D01*
X106027262Y-83949434D01*
X105840869Y-84079946D01*
X105840867Y-84079947D01*
X105679947Y-84240867D01*
X105679946Y-84240869D01*
X105549434Y-84427262D01*
X105549426Y-84427276D01*
X105453262Y-84633499D01*
X105394363Y-84853315D01*
X105374532Y-85079996D01*
X105374532Y-85080003D01*
X105394363Y-85306684D01*
X105394364Y-85306691D01*
X105394365Y-85306692D01*
X105442109Y-85484879D01*
X105438907Y-85545979D01*
X105400402Y-85593528D01*
X105346483Y-85609500D01*
X104163290Y-85609500D01*
X104160412Y-85609416D01*
X104100585Y-85605932D01*
X104096065Y-85605669D01*
X104096064Y-85605669D01*
X104032601Y-85616859D01*
X104029753Y-85617276D01*
X103965749Y-85624758D01*
X103965746Y-85624758D01*
X103953153Y-85629342D01*
X103936490Y-85633807D01*
X103923288Y-85636135D01*
X103864118Y-85661657D01*
X103861443Y-85662720D01*
X103800884Y-85684761D01*
X103800881Y-85684763D01*
X103789683Y-85692128D01*
X103774504Y-85700313D01*
X103768796Y-85702775D01*
X103762195Y-85705623D01*
X103710513Y-85744098D01*
X103708156Y-85745749D01*
X103665386Y-85773880D01*
X103654304Y-85781170D01*
X103654303Y-85781170D01*
X103654303Y-85781171D01*
X103654300Y-85781173D01*
X103645102Y-85790922D01*
X103632220Y-85802385D01*
X103628571Y-85805102D01*
X103621469Y-85810390D01*
X103580045Y-85859756D01*
X103578131Y-85861906D01*
X103533909Y-85908779D01*
X103533908Y-85908782D01*
X103527205Y-85920391D01*
X103517311Y-85934521D01*
X103508699Y-85944784D01*
X103508698Y-85944785D01*
X103479775Y-86002374D01*
X103478409Y-86004907D01*
X103446187Y-86060720D01*
X103442343Y-86073558D01*
X103435979Y-86089578D01*
X103429959Y-86101568D01*
X103415098Y-86164268D01*
X103414353Y-86167048D01*
X103395871Y-86228781D01*
X103395869Y-86228796D01*
X103395090Y-86242168D01*
X103392591Y-86259231D01*
X103389500Y-86272277D01*
X103389500Y-86336710D01*
X103389416Y-86339588D01*
X103385669Y-86403934D01*
X103387996Y-86417131D01*
X103389500Y-86434322D01*
X103389500Y-95178115D01*
X103388455Y-95192461D01*
X103387017Y-95202279D01*
X103384711Y-95218023D01*
X103389312Y-95270624D01*
X103389500Y-95274923D01*
X103389500Y-95283707D01*
X103393306Y-95316275D01*
X103400000Y-95392796D01*
X103400299Y-95393697D01*
X103404649Y-95413316D01*
X103404758Y-95414253D01*
X103431025Y-95486423D01*
X103455186Y-95559335D01*
X103455682Y-95560139D01*
X103464437Y-95578222D01*
X103464763Y-95579117D01*
X103506965Y-95643283D01*
X103547288Y-95708656D01*
X103547293Y-95708661D01*
X103547957Y-95709326D01*
X103560654Y-95724913D01*
X103561167Y-95725693D01*
X103617018Y-95778386D01*
X105361526Y-97522894D01*
X105389303Y-97577411D01*
X105390145Y-97601526D01*
X105374532Y-97779996D01*
X105374532Y-97780004D01*
X105394363Y-98006684D01*
X105453262Y-98226500D01*
X105549426Y-98432723D01*
X105549434Y-98432737D01*
X105679946Y-98619130D01*
X105679947Y-98619132D01*
X105679950Y-98619135D01*
X105679953Y-98619139D01*
X105840861Y-98780047D01*
X105840864Y-98780049D01*
X105840867Y-98780052D01*
X105840869Y-98780053D01*
X105904478Y-98824592D01*
X106027266Y-98910568D01*
X106027267Y-98910568D01*
X106027271Y-98910571D01*
X106133863Y-98960276D01*
X106178611Y-99002004D01*
X106190285Y-99062065D01*
X106164427Y-99117518D01*
X106133863Y-99139724D01*
X106027271Y-99189428D01*
X106027262Y-99189434D01*
X105840869Y-99319946D01*
X105840867Y-99319947D01*
X105679947Y-99480867D01*
X105679946Y-99480869D01*
X105549434Y-99667262D01*
X105549426Y-99667276D01*
X105453262Y-99873499D01*
X105394363Y-100093315D01*
X105374532Y-100319996D01*
X105374532Y-100320003D01*
X105394363Y-100546684D01*
X105453262Y-100766500D01*
X105549426Y-100972723D01*
X105549434Y-100972737D01*
X105679946Y-101159130D01*
X105679947Y-101159132D01*
X105679950Y-101159135D01*
X105679953Y-101159139D01*
X105840861Y-101320047D01*
X105840864Y-101320049D01*
X105840867Y-101320052D01*
X105840869Y-101320053D01*
X105904478Y-101364592D01*
X106027266Y-101450568D01*
X106134455Y-101500551D01*
X106179202Y-101542278D01*
X106190877Y-101602340D01*
X106165019Y-101657793D01*
X106134455Y-101679999D01*
X106027522Y-101729862D01*
X106027519Y-101729864D01*
X105841188Y-101860334D01*
X105680334Y-102021188D01*
X105549868Y-102207512D01*
X105541714Y-102225000D01*
X107818286Y-102225000D01*
X107810131Y-102207512D01*
X107679665Y-102021188D01*
X107518811Y-101860334D01*
X107332480Y-101729864D01*
X107332472Y-101729860D01*
X107225545Y-101679999D01*
X107180797Y-101638271D01*
X107169122Y-101578210D01*
X107194980Y-101522757D01*
X107225539Y-101500553D01*
X107332734Y-101450568D01*
X107519139Y-101320047D01*
X107680047Y-101159139D01*
X107712552Y-101112715D01*
X107761416Y-101075894D01*
X107793648Y-101070500D01*
X107898116Y-101070500D01*
X107912463Y-101071545D01*
X107938023Y-101075289D01*
X107990624Y-101070687D01*
X107994923Y-101070500D01*
X108003701Y-101070500D01*
X108003709Y-101070500D01*
X108036275Y-101066693D01*
X108112789Y-101060000D01*
X108112789Y-101059999D01*
X108112797Y-101059999D01*
X108113687Y-101059703D01*
X108133332Y-101055348D01*
X108134255Y-101055241D01*
X108206423Y-101028974D01*
X108279334Y-101004814D01*
X108280117Y-101004330D01*
X108298245Y-100995554D01*
X108299117Y-100995237D01*
X108363283Y-100953034D01*
X108428656Y-100912712D01*
X108429308Y-100912058D01*
X108444929Y-100899333D01*
X108445696Y-100898830D01*
X108498386Y-100842981D01*
X110244326Y-99097039D01*
X110298841Y-99069264D01*
X110359273Y-99078835D01*
X110402538Y-99122100D01*
X110412951Y-99158417D01*
X110424935Y-99295400D01*
X110424936Y-99295407D01*
X110424937Y-99295408D01*
X110486097Y-99523663D01*
X110565472Y-99693883D01*
X110585964Y-99737828D01*
X110680961Y-99873499D01*
X110721505Y-99931401D01*
X110888599Y-100098495D01*
X111082170Y-100234035D01*
X111095552Y-100240275D01*
X111140300Y-100282003D01*
X111151975Y-100342064D01*
X111126117Y-100397517D01*
X111095554Y-100419724D01*
X111082173Y-100425963D01*
X110888603Y-100561501D01*
X110721501Y-100728603D01*
X110585963Y-100922173D01*
X110585959Y-100922181D01*
X110486098Y-101136332D01*
X110424935Y-101364599D01*
X110404341Y-101599995D01*
X110404341Y-101600004D01*
X110424935Y-101835400D01*
X110424936Y-101835407D01*
X110424937Y-101835408D01*
X110486097Y-102063663D01*
X110558582Y-102219108D01*
X110585964Y-102277828D01*
X110713521Y-102460000D01*
X110721505Y-102471401D01*
X110888599Y-102638495D01*
X111082170Y-102774035D01*
X111094960Y-102779999D01*
X111095552Y-102780275D01*
X111140300Y-102822003D01*
X111151975Y-102882064D01*
X111126117Y-102937517D01*
X111095554Y-102959724D01*
X111082173Y-102965963D01*
X110888603Y-103101501D01*
X110721501Y-103268603D01*
X110585963Y-103462173D01*
X110585959Y-103462181D01*
X110486098Y-103676332D01*
X110424935Y-103904599D01*
X110404341Y-104139995D01*
X110404341Y-104140004D01*
X110424935Y-104375400D01*
X110424936Y-104375407D01*
X110424937Y-104375408D01*
X110486097Y-104603663D01*
X110585965Y-104817830D01*
X110721505Y-105011401D01*
X110888599Y-105178495D01*
X111082170Y-105314035D01*
X111095552Y-105320275D01*
X111140300Y-105362003D01*
X111151975Y-105422064D01*
X111126117Y-105477517D01*
X111095554Y-105499724D01*
X111082173Y-105505963D01*
X110888603Y-105641501D01*
X110721501Y-105808603D01*
X110585963Y-106002173D01*
X110585959Y-106002181D01*
X110486098Y-106216332D01*
X110424935Y-106444599D01*
X110404341Y-106679995D01*
X110404341Y-106680004D01*
X110424935Y-106915400D01*
X110424936Y-106915407D01*
X110424937Y-106915408D01*
X110486097Y-107143663D01*
X110565472Y-107313883D01*
X110585964Y-107357828D01*
X110684037Y-107497892D01*
X110721505Y-107551401D01*
X110888599Y-107718495D01*
X110888602Y-107718497D01*
X110888603Y-107718498D01*
X110920047Y-107740515D01*
X111082170Y-107854035D01*
X111082171Y-107854035D01*
X111082172Y-107854036D01*
X111082174Y-107854037D01*
X111096143Y-107860551D01*
X111140892Y-107902279D01*
X111152567Y-107962340D01*
X111126710Y-108017793D01*
X111096146Y-108040000D01*
X111082424Y-108046398D01*
X110888926Y-108181886D01*
X110721886Y-108348926D01*
X110586405Y-108542413D01*
X110586398Y-108542425D01*
X110566545Y-108584999D01*
X110566545Y-108585000D01*
X112296000Y-108585000D01*
X112354191Y-108603907D01*
X112390155Y-108653407D01*
X112395000Y-108684000D01*
X112395000Y-110413453D01*
X112437575Y-110393601D01*
X112437579Y-110393599D01*
X112631073Y-110258113D01*
X112798113Y-110091073D01*
X112933599Y-109897579D01*
X112933600Y-109897577D01*
X112939996Y-109883860D01*
X112981722Y-109839109D01*
X113041783Y-109827431D01*
X113097237Y-109853286D01*
X113119447Y-109883853D01*
X113125963Y-109897827D01*
X113224364Y-110038359D01*
X113261505Y-110091401D01*
X113428599Y-110258495D01*
X113622170Y-110394035D01*
X113836337Y-110493903D01*
X114064592Y-110555063D01*
X114064596Y-110555063D01*
X114064599Y-110555064D01*
X114299996Y-110575659D01*
X114300000Y-110575659D01*
X114300004Y-110575659D01*
X114535400Y-110555064D01*
X114535401Y-110555063D01*
X114535408Y-110555063D01*
X114763663Y-110493903D01*
X114977830Y-110394035D01*
X115171401Y-110258495D01*
X115338495Y-110091401D01*
X115474035Y-109897830D01*
X115573903Y-109683663D01*
X115635063Y-109455408D01*
X115637300Y-109429844D01*
X115655659Y-109220004D01*
X115655659Y-109219995D01*
X115635064Y-108984599D01*
X115635063Y-108984596D01*
X115635063Y-108984592D01*
X115573903Y-108756337D01*
X115556959Y-108720000D01*
X115474040Y-108542181D01*
X115474036Y-108542173D01*
X115407543Y-108447211D01*
X115338495Y-108348599D01*
X115171401Y-108181505D01*
X115171397Y-108181502D01*
X115171396Y-108181501D01*
X115064007Y-108106307D01*
X114977830Y-108045965D01*
X114964447Y-108039724D01*
X114919700Y-107997997D01*
X114908025Y-107937936D01*
X114933883Y-107882483D01*
X114964448Y-107860275D01*
X114965036Y-107860001D01*
X114977830Y-107854035D01*
X115171401Y-107718495D01*
X115338495Y-107551401D01*
X115474035Y-107357830D01*
X115573903Y-107143663D01*
X115635063Y-106915408D01*
X115640374Y-106854707D01*
X115655659Y-106680004D01*
X115655659Y-106679995D01*
X115635064Y-106444599D01*
X115635063Y-106444596D01*
X115635063Y-106444592D01*
X115573903Y-106216337D01*
X115551130Y-106167500D01*
X115474040Y-106002181D01*
X115474036Y-106002173D01*
X115338498Y-105808603D01*
X115338497Y-105808602D01*
X115338495Y-105808599D01*
X115171401Y-105641505D01*
X115171397Y-105641502D01*
X115171396Y-105641501D01*
X115034497Y-105545644D01*
X114977830Y-105505965D01*
X114964447Y-105499724D01*
X114919700Y-105457997D01*
X114908025Y-105397936D01*
X114933883Y-105342483D01*
X114964448Y-105320275D01*
X114977830Y-105314035D01*
X115171401Y-105178495D01*
X115338495Y-105011401D01*
X115474035Y-104817830D01*
X115573903Y-104603663D01*
X115635063Y-104375408D01*
X115635064Y-104375400D01*
X115655659Y-104140004D01*
X115655659Y-104139995D01*
X115635064Y-103904599D01*
X115635063Y-103904596D01*
X115635063Y-103904592D01*
X115573903Y-103676337D01*
X115570000Y-103667967D01*
X115474040Y-103462181D01*
X115474036Y-103462173D01*
X115338498Y-103268603D01*
X115338497Y-103268602D01*
X115338495Y-103268599D01*
X115171401Y-103101505D01*
X115171397Y-103101502D01*
X115171396Y-103101501D01*
X114977827Y-102965963D01*
X114963853Y-102959447D01*
X114919106Y-102917718D01*
X114907432Y-102857656D01*
X114933291Y-102802204D01*
X114963860Y-102779996D01*
X114977577Y-102773600D01*
X114977579Y-102773599D01*
X115171073Y-102638113D01*
X115338113Y-102471073D01*
X115473600Y-102277577D01*
X115493454Y-102235000D01*
X113764000Y-102235000D01*
X113705809Y-102216093D01*
X113669845Y-102166593D01*
X113665000Y-102136000D01*
X113665000Y-101671889D01*
X113800000Y-101671889D01*
X113840507Y-101809844D01*
X113918239Y-101930798D01*
X114026900Y-102024952D01*
X114157685Y-102084680D01*
X114264237Y-102100000D01*
X114335763Y-102100000D01*
X114442315Y-102084680D01*
X114573100Y-102024952D01*
X114681761Y-101930798D01*
X114759493Y-101809844D01*
X114800000Y-101671889D01*
X114800000Y-101528111D01*
X114759493Y-101390156D01*
X114681761Y-101269202D01*
X114573100Y-101175048D01*
X114442315Y-101115320D01*
X114335763Y-101100000D01*
X114264237Y-101100000D01*
X114157685Y-101115320D01*
X114026900Y-101175048D01*
X113918239Y-101269202D01*
X113840507Y-101390156D01*
X113800000Y-101528111D01*
X113800000Y-101671889D01*
X113665000Y-101671889D01*
X113665000Y-101064000D01*
X113683907Y-101005809D01*
X113733407Y-100969845D01*
X113764000Y-100965000D01*
X115493455Y-100965000D01*
X115493454Y-100964999D01*
X115473601Y-100922425D01*
X115473594Y-100922413D01*
X115338113Y-100728926D01*
X115171073Y-100561886D01*
X114977577Y-100426399D01*
X114963856Y-100420001D01*
X114919108Y-100378273D01*
X114907433Y-100318212D01*
X114933291Y-100262759D01*
X114963857Y-100240551D01*
X114970053Y-100237661D01*
X114977830Y-100234035D01*
X115171401Y-100098495D01*
X115338495Y-99931401D01*
X115474035Y-99737830D01*
X115573903Y-99523663D01*
X115635063Y-99295408D01*
X115644335Y-99189432D01*
X115655659Y-99060004D01*
X115655659Y-99059995D01*
X115635064Y-98824599D01*
X115635063Y-98824596D01*
X115635063Y-98824592D01*
X115573903Y-98596337D01*
X115570000Y-98587967D01*
X115474040Y-98382181D01*
X115474036Y-98382173D01*
X115338498Y-98188603D01*
X115338497Y-98188602D01*
X115338495Y-98188599D01*
X115171401Y-98021505D01*
X115171397Y-98021502D01*
X115171396Y-98021501D01*
X114977827Y-97885963D01*
X114963853Y-97879447D01*
X114919106Y-97837718D01*
X114907432Y-97777656D01*
X114933291Y-97722204D01*
X114963860Y-97699996D01*
X114977577Y-97693600D01*
X114977579Y-97693599D01*
X115171073Y-97558113D01*
X115338113Y-97391073D01*
X115473600Y-97197577D01*
X115493454Y-97155000D01*
X113764000Y-97155000D01*
X113705809Y-97136093D01*
X113669845Y-97086593D01*
X113665000Y-97056000D01*
X113665000Y-96591889D01*
X113800000Y-96591889D01*
X113840507Y-96729844D01*
X113918239Y-96850798D01*
X114026900Y-96944952D01*
X114157685Y-97004680D01*
X114264237Y-97020000D01*
X114335763Y-97020000D01*
X114442315Y-97004680D01*
X114573100Y-96944952D01*
X114681761Y-96850798D01*
X114759493Y-96729844D01*
X114800000Y-96591889D01*
X114800000Y-96448111D01*
X114759493Y-96310156D01*
X114681761Y-96189202D01*
X114573100Y-96095048D01*
X114442315Y-96035320D01*
X114335763Y-96020000D01*
X114264237Y-96020000D01*
X114157685Y-96035320D01*
X114026900Y-96095048D01*
X113918239Y-96189202D01*
X113840507Y-96310156D01*
X113800000Y-96448111D01*
X113800000Y-96591889D01*
X113665000Y-96591889D01*
X113665000Y-95984000D01*
X113683907Y-95925809D01*
X113733407Y-95889845D01*
X113764000Y-95885000D01*
X115493455Y-95885000D01*
X115493454Y-95884999D01*
X115473601Y-95842425D01*
X115473594Y-95842413D01*
X115338113Y-95648926D01*
X115171073Y-95481886D01*
X114977577Y-95346399D01*
X114963856Y-95340001D01*
X114919108Y-95298273D01*
X114907433Y-95238212D01*
X114933291Y-95182759D01*
X114963857Y-95160551D01*
X114970053Y-95157661D01*
X114977830Y-95154035D01*
X115171401Y-95018495D01*
X115338495Y-94851401D01*
X115474035Y-94657830D01*
X115573903Y-94443663D01*
X115635063Y-94215408D01*
X115644335Y-94109432D01*
X115655659Y-93980004D01*
X115655659Y-93979995D01*
X115635064Y-93744599D01*
X115635063Y-93744596D01*
X115635063Y-93744592D01*
X115573903Y-93516337D01*
X115570000Y-93507967D01*
X115474040Y-93302181D01*
X115474036Y-93302173D01*
X115467411Y-93292712D01*
X115383523Y-93172906D01*
X115338498Y-93108603D01*
X115338497Y-93108602D01*
X115338495Y-93108599D01*
X115171401Y-92941505D01*
X115171397Y-92941502D01*
X115171396Y-92941501D01*
X115064007Y-92866307D01*
X114977830Y-92805965D01*
X114977821Y-92805961D01*
X114964448Y-92799725D01*
X114919700Y-92757997D01*
X114908025Y-92697936D01*
X114933883Y-92642483D01*
X114964448Y-92620275D01*
X114965040Y-92619999D01*
X114977830Y-92614035D01*
X115171401Y-92478495D01*
X115338495Y-92311401D01*
X115474035Y-92117830D01*
X115573903Y-91903663D01*
X115635063Y-91675408D01*
X115635064Y-91675400D01*
X115655659Y-91440004D01*
X115655659Y-91439995D01*
X115635064Y-91204599D01*
X115635063Y-91204596D01*
X115635063Y-91204592D01*
X115573903Y-90976337D01*
X115501419Y-90820895D01*
X115474040Y-90762181D01*
X115474036Y-90762173D01*
X115338498Y-90568603D01*
X115338497Y-90568602D01*
X115338495Y-90568599D01*
X115171401Y-90401505D01*
X115171397Y-90401502D01*
X115171396Y-90401501D01*
X115005226Y-90285148D01*
X114977830Y-90265965D01*
X114964447Y-90259724D01*
X114919700Y-90217997D01*
X114908025Y-90157936D01*
X114933883Y-90102483D01*
X114964448Y-90080275D01*
X114977830Y-90074035D01*
X115171401Y-89938495D01*
X115338495Y-89771401D01*
X115474035Y-89577830D01*
X115573903Y-89363663D01*
X115635063Y-89135408D01*
X115644335Y-89029432D01*
X115655659Y-88900004D01*
X115655659Y-88899995D01*
X115635064Y-88664599D01*
X115635063Y-88664596D01*
X115635063Y-88664592D01*
X115573903Y-88436337D01*
X115527682Y-88337216D01*
X115474037Y-88222174D01*
X115474036Y-88222173D01*
X115473638Y-88221605D01*
X115375252Y-88081093D01*
X115338498Y-88028603D01*
X115338497Y-88028602D01*
X115338495Y-88028599D01*
X115171401Y-87861505D01*
X115171397Y-87861502D01*
X115171396Y-87861501D01*
X115064007Y-87786307D01*
X114977830Y-87725965D01*
X114964447Y-87719724D01*
X114919700Y-87677997D01*
X114908025Y-87617936D01*
X114933883Y-87562483D01*
X114964448Y-87540275D01*
X114977830Y-87534035D01*
X115171401Y-87398495D01*
X115338495Y-87231401D01*
X115474035Y-87037830D01*
X115573903Y-86823663D01*
X115635063Y-86595408D01*
X115644335Y-86489432D01*
X115655659Y-86360004D01*
X115655659Y-86359995D01*
X115635064Y-86124599D01*
X115635063Y-86124596D01*
X115635063Y-86124592D01*
X115573903Y-85896337D01*
X115570000Y-85887967D01*
X115474037Y-85682174D01*
X115474036Y-85682173D01*
X115460070Y-85662228D01*
X115338495Y-85488599D01*
X115171401Y-85321505D01*
X115171397Y-85321502D01*
X115171396Y-85321501D01*
X114977827Y-85185963D01*
X114963853Y-85179447D01*
X114919106Y-85137718D01*
X114907432Y-85077656D01*
X114933291Y-85022204D01*
X114963860Y-84999996D01*
X114977577Y-84993600D01*
X114977579Y-84993599D01*
X115171073Y-84858113D01*
X115338113Y-84691073D01*
X115473600Y-84497577D01*
X115493454Y-84455000D01*
X113764000Y-84455000D01*
X113705809Y-84436093D01*
X113669845Y-84386593D01*
X113665000Y-84356000D01*
X113665000Y-83891889D01*
X113800000Y-83891889D01*
X113840507Y-84029844D01*
X113918239Y-84150798D01*
X114026900Y-84244952D01*
X114157685Y-84304680D01*
X114264237Y-84320000D01*
X114335763Y-84320000D01*
X114442315Y-84304680D01*
X114573100Y-84244952D01*
X114681761Y-84150798D01*
X114759493Y-84029844D01*
X114800000Y-83891889D01*
X114800000Y-83748111D01*
X114759493Y-83610156D01*
X114681761Y-83489202D01*
X114573100Y-83395048D01*
X114442315Y-83335320D01*
X114335763Y-83320000D01*
X114264237Y-83320000D01*
X114157685Y-83335320D01*
X114026900Y-83395048D01*
X113918239Y-83489202D01*
X113840507Y-83610156D01*
X113800000Y-83748111D01*
X113800000Y-83891889D01*
X113665000Y-83891889D01*
X113665000Y-83284000D01*
X113683907Y-83225809D01*
X113733407Y-83189845D01*
X113764000Y-83185000D01*
X115493455Y-83185000D01*
X115493454Y-83184999D01*
X115473601Y-83142425D01*
X115473594Y-83142413D01*
X115338113Y-82948926D01*
X115171073Y-82781886D01*
X114977577Y-82646399D01*
X114963856Y-82640001D01*
X114919108Y-82598273D01*
X114907433Y-82538212D01*
X114933291Y-82482759D01*
X114963857Y-82460551D01*
X114970053Y-82457661D01*
X114977830Y-82454035D01*
X115171401Y-82318495D01*
X115338495Y-82151401D01*
X115474035Y-81957830D01*
X115573903Y-81743663D01*
X115635063Y-81515408D01*
X115649157Y-81354322D01*
X115655659Y-81280004D01*
X115655659Y-81279995D01*
X115635064Y-81044599D01*
X115635063Y-81044596D01*
X115635063Y-81044592D01*
X115573903Y-80816337D01*
X115563559Y-80794154D01*
X115474040Y-80602181D01*
X115474036Y-80602173D01*
X115432055Y-80542218D01*
X115338495Y-80408599D01*
X115171401Y-80241505D01*
X115171397Y-80241502D01*
X115171396Y-80241501D01*
X115064007Y-80166307D01*
X114977830Y-80105965D01*
X114964447Y-80099724D01*
X114919700Y-80057997D01*
X114908025Y-79997936D01*
X114933883Y-79942483D01*
X114964448Y-79920275D01*
X114965036Y-79920001D01*
X114977830Y-79914035D01*
X115171401Y-79778495D01*
X115338495Y-79611401D01*
X115474035Y-79417830D01*
X115573903Y-79203663D01*
X115635063Y-78975408D01*
X115655659Y-78740000D01*
X115650551Y-78681620D01*
X115635064Y-78504599D01*
X115635063Y-78504596D01*
X115635063Y-78504592D01*
X115573903Y-78276337D01*
X115550967Y-78227151D01*
X115474040Y-78062181D01*
X115474036Y-78062173D01*
X115443693Y-78018839D01*
X115338495Y-77868599D01*
X115171401Y-77701505D01*
X115171397Y-77701502D01*
X115171396Y-77701501D01*
X114977827Y-77565963D01*
X114963853Y-77559447D01*
X114919106Y-77517718D01*
X114907432Y-77457656D01*
X114933291Y-77402204D01*
X114963860Y-77379996D01*
X114977577Y-77373600D01*
X114977579Y-77373599D01*
X115171073Y-77238113D01*
X115338113Y-77071073D01*
X115473600Y-76877577D01*
X115493454Y-76835000D01*
X113764000Y-76835000D01*
X113705809Y-76816093D01*
X113669845Y-76766593D01*
X113665000Y-76736000D01*
X113665000Y-76271889D01*
X113800000Y-76271889D01*
X113840507Y-76409844D01*
X113918239Y-76530798D01*
X114026900Y-76624952D01*
X114157685Y-76684680D01*
X114264237Y-76700000D01*
X114335763Y-76700000D01*
X114442315Y-76684680D01*
X114573100Y-76624952D01*
X114681761Y-76530798D01*
X114759493Y-76409844D01*
X114800000Y-76271889D01*
X114800000Y-76128111D01*
X114759493Y-75990156D01*
X114681761Y-75869202D01*
X114573100Y-75775048D01*
X114442315Y-75715320D01*
X114335763Y-75700000D01*
X114264237Y-75700000D01*
X114157685Y-75715320D01*
X114026900Y-75775048D01*
X113918239Y-75869202D01*
X113840507Y-75990156D01*
X113800000Y-76128111D01*
X113800000Y-76271889D01*
X113665000Y-76271889D01*
X113665000Y-75664000D01*
X113683907Y-75605809D01*
X113733407Y-75569845D01*
X113764000Y-75565000D01*
X115493455Y-75565000D01*
X115493454Y-75564999D01*
X115473602Y-75522427D01*
X115473593Y-75522413D01*
X115461401Y-75504999D01*
X115443513Y-75446487D01*
X115463435Y-75388635D01*
X115482230Y-75369675D01*
X115502250Y-75354314D01*
X115524443Y-75325389D01*
X115528712Y-75320522D01*
X116594490Y-74254744D01*
X116599357Y-74250475D01*
X116628282Y-74228282D01*
X116724536Y-74102841D01*
X116785044Y-73956762D01*
X116800500Y-73839361D01*
X116805682Y-73800000D01*
X116800924Y-73763858D01*
X116800500Y-73757390D01*
X116800500Y-65442608D01*
X116800924Y-65436140D01*
X116805682Y-65400000D01*
X116805682Y-65399999D01*
X116794997Y-65318839D01*
X116785044Y-65243238D01*
X116754129Y-65168603D01*
X116724537Y-65097161D01*
X116724537Y-65097160D01*
X116697444Y-65061852D01*
X116628286Y-64971723D01*
X116628285Y-64971722D01*
X116628282Y-64971718D01*
X116628277Y-64971714D01*
X116628276Y-64971713D01*
X116599365Y-64949529D01*
X116594491Y-64945255D01*
X115622559Y-63973324D01*
X115594782Y-63918807D01*
X115596935Y-63877700D01*
X115635063Y-63735408D01*
X115635064Y-63735399D01*
X115655659Y-63500004D01*
X115655659Y-63499995D01*
X115635064Y-63264599D01*
X115635063Y-63264596D01*
X115635063Y-63264592D01*
X115573903Y-63036337D01*
X115547758Y-62980269D01*
X115474040Y-62822181D01*
X115474036Y-62822173D01*
X115338498Y-62628603D01*
X115338497Y-62628602D01*
X115338495Y-62628599D01*
X115171401Y-62461505D01*
X115147150Y-62444524D01*
X115092715Y-62406408D01*
X115055893Y-62357543D01*
X115050500Y-62325312D01*
X115050500Y-62134686D01*
X115069407Y-62076495D01*
X115092714Y-62053591D01*
X115171401Y-61998495D01*
X115338495Y-61831401D01*
X115474035Y-61637830D01*
X115573903Y-61423663D01*
X115635063Y-61195408D01*
X115641100Y-61126405D01*
X115655659Y-60960004D01*
X115655659Y-60959995D01*
X115635064Y-60724599D01*
X115635063Y-60724596D01*
X115635063Y-60724592D01*
X115573903Y-60496337D01*
X115573901Y-60496332D01*
X115474040Y-60282181D01*
X115474036Y-60282173D01*
X115338498Y-60088603D01*
X115338497Y-60088602D01*
X115338495Y-60088599D01*
X115171401Y-59921505D01*
X115171397Y-59921502D01*
X115171396Y-59921501D01*
X114997874Y-59800000D01*
X114977830Y-59785965D01*
X114763663Y-59686097D01*
X114535408Y-59624937D01*
X114535407Y-59624936D01*
X114535400Y-59624935D01*
X114300004Y-59604341D01*
X114299996Y-59604341D01*
X114075373Y-59623992D01*
X114015756Y-59610228D01*
X113996741Y-59595373D01*
X113574437Y-59173069D01*
X113565031Y-59162183D01*
X113549614Y-59141474D01*
X113549609Y-59141469D01*
X113540733Y-59134021D01*
X113509176Y-59107542D01*
X113505999Y-59104630D01*
X113499774Y-59098406D01*
X113474041Y-59078059D01*
X113415215Y-59028698D01*
X113415206Y-59028692D01*
X113414365Y-59028270D01*
X113397417Y-59017473D01*
X113396682Y-59016892D01*
X113396670Y-59016885D01*
X113327057Y-58984424D01*
X113258434Y-58949960D01*
X113258426Y-58949958D01*
X113257523Y-58949744D01*
X113238525Y-58943140D01*
X113237677Y-58942744D01*
X113237670Y-58942742D01*
X113162435Y-58927207D01*
X113137529Y-58921304D01*
X113087721Y-58909500D01*
X113087719Y-58909500D01*
X113086791Y-58909500D01*
X113066771Y-58907455D01*
X113065854Y-58907265D01*
X112989083Y-58909500D01*
X104544290Y-58909500D01*
X104541412Y-58909416D01*
X104481585Y-58905932D01*
X104477065Y-58905669D01*
X104477064Y-58905669D01*
X104463867Y-58907996D01*
X104446677Y-58909500D01*
X95851796Y-58909500D01*
X95793605Y-58890593D01*
X95764906Y-58857945D01*
X95687230Y-58715690D01*
X95628784Y-58637615D01*
X95515739Y-58486605D01*
X95313395Y-58284261D01*
X95084315Y-58112774D01*
X95084310Y-58112771D01*
X94833164Y-57975634D01*
X94833162Y-57975633D01*
X94565050Y-57875632D01*
X94565046Y-57875631D01*
X94285428Y-57814804D01*
X94285425Y-57814803D01*
X94285422Y-57814803D01*
X94000000Y-57794390D01*
X93714577Y-57814803D01*
X93434949Y-57875632D01*
X93166837Y-57975633D01*
X93166835Y-57975634D01*
X92915689Y-58112771D01*
X92686609Y-58284257D01*
X92484257Y-58486609D01*
X92312771Y-58715689D01*
X92175634Y-58966835D01*
X92175633Y-58966837D01*
X92075632Y-59234949D01*
X92014803Y-59514577D01*
X91994390Y-59800000D01*
X91440500Y-59800000D01*
X91440500Y-57249500D01*
X91459407Y-57191309D01*
X91508907Y-57155345D01*
X91539500Y-57150500D01*
X118010500Y-57150500D01*
X118068691Y-57169407D01*
G37*
%TD.AperFunction*%
%TD*%
M02*
