%TF.GenerationSoftware,KiCad,Pcbnew,7.0.9*%
%TF.CreationDate,2025-01-30T11:34:31+00:00*%
%TF.ProjectId,Pi Hat,50692048-6174-42e6-9b69-6361645f7063,rev?*%
%TF.SameCoordinates,Original*%
%TF.FileFunction,Copper,L2,Bot*%
%TF.FilePolarity,Positive*%
%FSLAX46Y46*%
G04 Gerber Fmt 4.6, Leading zero omitted, Abs format (unit mm)*
G04 Created by KiCad (PCBNEW 7.0.9) date 2025-01-30 11:34:31*
%MOMM*%
%LPD*%
G01*
G04 APERTURE LIST*
G04 Aperture macros list*
%AMRoundRect*
0 Rectangle with rounded corners*
0 $1 Rounding radius*
0 $2 $3 $4 $5 $6 $7 $8 $9 X,Y pos of 4 corners*
0 Add a 4 corners polygon primitive as box body*
4,1,4,$2,$3,$4,$5,$6,$7,$8,$9,$2,$3,0*
0 Add four circle primitives for the rounded corners*
1,1,$1+$1,$2,$3*
1,1,$1+$1,$4,$5*
1,1,$1+$1,$6,$7*
1,1,$1+$1,$8,$9*
0 Add four rect primitives between the rounded corners*
20,1,$1+$1,$2,$3,$4,$5,0*
20,1,$1+$1,$4,$5,$6,$7,0*
20,1,$1+$1,$6,$7,$8,$9,0*
20,1,$1+$1,$8,$9,$2,$3,0*%
G04 Aperture macros list end*
%TA.AperFunction,ComponentPad*%
%ADD10R,1.600000X1.600000*%
%TD*%
%TA.AperFunction,ComponentPad*%
%ADD11O,1.600000X1.600000*%
%TD*%
%TA.AperFunction,ComponentPad*%
%ADD12RoundRect,0.250000X0.845000X-0.620000X0.845000X0.620000X-0.845000X0.620000X-0.845000X-0.620000X0*%
%TD*%
%TA.AperFunction,ComponentPad*%
%ADD13O,2.190000X1.740000*%
%TD*%
%TA.AperFunction,ComponentPad*%
%ADD14R,1.700000X1.700000*%
%TD*%
%TA.AperFunction,ComponentPad*%
%ADD15O,1.700000X1.700000*%
%TD*%
%TA.AperFunction,ViaPad*%
%ADD16C,0.800000*%
%TD*%
%TA.AperFunction,ViaPad*%
%ADD17C,0.400000*%
%TD*%
%TA.AperFunction,Conductor*%
%ADD18C,0.500000*%
%TD*%
%TA.AperFunction,Conductor*%
%ADD19C,0.200000*%
%TD*%
G04 APERTURE END LIST*
D10*
%TO.P,IC1,1,CH0*%
%TO.N,/ForceVoltage*%
X99060000Y-85080000D03*
D11*
%TO.P,IC1,2,CH1*%
%TO.N,unconnected-(IC1-CH1-Pad2)*%
X99060000Y-87620000D03*
%TO.P,IC1,3,CH2*%
%TO.N,unconnected-(IC1-CH2-Pad3)*%
X99060000Y-90160000D03*
%TO.P,IC1,4,CH3*%
%TO.N,unconnected-(IC1-CH3-Pad4)*%
X99060000Y-92700000D03*
%TO.P,IC1,5,CH4*%
%TO.N,unconnected-(IC1-CH4-Pad5)*%
X99060000Y-95240000D03*
%TO.P,IC1,6,CH5*%
%TO.N,unconnected-(IC1-CH5-Pad6)*%
X99060000Y-97780000D03*
%TO.P,IC1,7,CH6*%
%TO.N,unconnected-(IC1-CH6-Pad7)*%
X99060000Y-100320000D03*
%TO.P,IC1,8,CH7*%
%TO.N,unconnected-(IC1-CH7-Pad8)*%
X99060000Y-102860000D03*
%TO.P,IC1,9,DGND*%
%TO.N,GND*%
X106680000Y-102860000D03*
%TO.P,IC1,10,~{CS}/SHDN*%
%TO.N,/CS*%
X106680000Y-100320000D03*
%TO.P,IC1,11,DIN*%
%TO.N,/MOSI*%
X106680000Y-97780000D03*
%TO.P,IC1,12,DOUT*%
%TO.N,/MISO*%
X106680000Y-95240000D03*
%TO.P,IC1,13,CLK*%
%TO.N,/SCLK*%
X106680000Y-92700000D03*
%TO.P,IC1,14,AGND*%
%TO.N,GND*%
X106680000Y-90160000D03*
%TO.P,IC1,15,VREF*%
%TO.N,+3.3V*%
X106680000Y-87620000D03*
%TO.P,IC1,16,VDD*%
X106680000Y-85080000D03*
%TD*%
D12*
%TO.P,J1,1,Pin_1*%
%TO.N,+5V*%
X99060000Y-71120000D03*
D13*
%TO.P,J1,2,Pin_2*%
%TO.N,/Trigger_5VTTL*%
X99060000Y-68580000D03*
%TO.P,J1,3,Pin_3*%
%TO.N,/Echo_5VTTL*%
X99060000Y-66040000D03*
%TO.P,J1,4,Pin_4*%
%TO.N,GND*%
X99060000Y-63500000D03*
%TD*%
D12*
%TO.P,J3,1,Pin_1*%
%TO.N,+3.3V*%
X99060000Y-81280000D03*
D13*
%TO.P,J3,2,Pin_2*%
%TO.N,/Data_3.3VTTL*%
X99060000Y-78740000D03*
%TO.P,J3,3,Pin_3*%
%TO.N,GND*%
X99060000Y-76200000D03*
%TD*%
D12*
%TO.P,J4,1,Pin_1*%
%TO.N,+3.3V*%
X99060000Y-109220000D03*
D13*
%TO.P,J4,2,Pin_2*%
%TO.N,/ForceVoltage*%
X99060000Y-106680000D03*
%TD*%
D14*
%TO.P,J2,1,Pin_1*%
%TO.N,+5V*%
X111760000Y-60960000D03*
D15*
%TO.P,J2,2,Pin_2*%
%TO.N,+3.3V*%
X114300000Y-60960000D03*
%TO.P,J2,3,Pin_3*%
%TO.N,unconnected-(J2-Pin_3-Pad3)*%
X111760000Y-63500000D03*
%TO.P,J2,4,Pin_4*%
%TO.N,+3.3V*%
X114300000Y-63500000D03*
%TO.P,J2,5,Pin_5*%
%TO.N,unconnected-(J2-Pin_5-Pad5)*%
X111760000Y-66040000D03*
%TO.P,J2,6,Pin_6*%
%TO.N,GND*%
X114300000Y-66040000D03*
%TO.P,J2,7,Pin_7*%
%TO.N,unconnected-(J2-Pin_7-Pad7)*%
X111760000Y-68580000D03*
%TO.P,J2,8,Pin_8*%
%TO.N,/ConverterDir*%
X114300000Y-68580000D03*
%TO.P,J2,9,Pin_9*%
%TO.N,GND*%
X111760000Y-71120000D03*
%TO.P,J2,10,Pin_10*%
%TO.N,unconnected-(J2-Pin_10-Pad10)*%
X114300000Y-71120000D03*
%TO.P,J2,11,Pin_11*%
%TO.N,/Trigger_3.3VTTL*%
X111760000Y-73660000D03*
%TO.P,J2,12,Pin_12*%
%TO.N,unconnected-(J2-Pin_12-Pad12)*%
X114300000Y-73660000D03*
%TO.P,J2,13,Pin_13*%
%TO.N,/Echo_3.3VTTL*%
X111760000Y-76200000D03*
%TO.P,J2,14,Pin_14*%
%TO.N,GND*%
X114300000Y-76200000D03*
%TO.P,J2,15,Pin_15*%
%TO.N,/Data_3.3VTTL*%
X111760000Y-78740000D03*
%TO.P,J2,16,Pin_16*%
%TO.N,unconnected-(J2-Pin_16-Pad16)*%
X114300000Y-78740000D03*
%TO.P,J2,17,Pin_17*%
%TO.N,+5V*%
X111760000Y-81280000D03*
%TO.P,J2,18,Pin_18*%
%TO.N,unconnected-(J2-Pin_18-Pad18)*%
X114300000Y-81280000D03*
%TO.P,J2,19,Pin_19*%
%TO.N,/MOSI*%
X111760000Y-83820000D03*
%TO.P,J2,20,Pin_20*%
%TO.N,GND*%
X114300000Y-83820000D03*
%TO.P,J2,21,Pin_21*%
%TO.N,/MISO*%
X111760000Y-86360000D03*
%TO.P,J2,22,Pin_22*%
%TO.N,unconnected-(J2-Pin_22-Pad22)*%
X114300000Y-86360000D03*
%TO.P,J2,23,Pin_23*%
%TO.N,/SCLK*%
X111760000Y-88900000D03*
%TO.P,J2,24,Pin_24*%
%TO.N,unconnected-(J2-Pin_24-Pad24)*%
X114300000Y-88900000D03*
%TO.P,J2,25,Pin_25*%
%TO.N,GND*%
X111760000Y-91440000D03*
%TO.P,J2,26,Pin_26*%
%TO.N,unconnected-(J2-Pin_26-Pad26)*%
X114300000Y-91440000D03*
%TO.P,J2,27,Pin_27*%
%TO.N,unconnected-(J2-Pin_27-Pad27)*%
X111760000Y-93980000D03*
%TO.P,J2,28,Pin_28*%
%TO.N,unconnected-(J2-Pin_28-Pad28)*%
X114300000Y-93980000D03*
%TO.P,J2,29,Pin_29*%
%TO.N,/CS*%
X111760000Y-96520000D03*
%TO.P,J2,30,Pin_30*%
%TO.N,GND*%
X114300000Y-96520000D03*
%TO.P,J2,31,Pin_31*%
%TO.N,unconnected-(J2-Pin_31-Pad31)*%
X111760000Y-99060000D03*
%TO.P,J2,32,Pin_32*%
%TO.N,unconnected-(J2-Pin_32-Pad32)*%
X114300000Y-99060000D03*
%TO.P,J2,33,Pin_33*%
%TO.N,unconnected-(J2-Pin_33-Pad33)*%
X111760000Y-101600000D03*
%TO.P,J2,34,Pin_34*%
%TO.N,GND*%
X114300000Y-101600000D03*
%TO.P,J2,35,Pin_35*%
%TO.N,unconnected-(J2-Pin_35-Pad35)*%
X111760000Y-104140000D03*
%TO.P,J2,36,Pin_36*%
%TO.N,unconnected-(J2-Pin_36-Pad36)*%
X114300000Y-104140000D03*
%TO.P,J2,37,Pin_37*%
%TO.N,unconnected-(J2-Pin_37-Pad37)*%
X111760000Y-106680000D03*
%TO.P,J2,38,Pin_38*%
%TO.N,unconnected-(J2-Pin_38-Pad38)*%
X114300000Y-106680000D03*
%TO.P,J2,39,Pin_39*%
%TO.N,GND*%
X111760000Y-109220000D03*
%TO.P,J2,40,Pin_40*%
%TO.N,unconnected-(J2-Pin_40-Pad40)*%
X114300000Y-109220000D03*
%TD*%
D16*
%TO.N,+5V*%
X106680000Y-77470000D03*
X106680000Y-80010000D03*
%TO.N,GND*%
X103000000Y-65800000D03*
X102870000Y-96520000D03*
X107800000Y-111000000D03*
D17*
%TO.N,/ConverterDir*%
X105600000Y-67800000D03*
%TD*%
D18*
%TO.N,+5V*%
X106680000Y-80010000D02*
X106680000Y-77470000D01*
%TO.N,+3.3V*%
X104160000Y-81280000D02*
X106680000Y-83800000D01*
X106680000Y-85080000D02*
X106680000Y-87620000D01*
X106680000Y-83800000D02*
X106680000Y-85080000D01*
X99060000Y-81280000D02*
X104160000Y-81280000D01*
D19*
%TO.N,/ConverterDir*%
X114300000Y-68580000D02*
X113041892Y-67321892D01*
X113041892Y-67321892D02*
X106078108Y-67321892D01*
X106078108Y-67321892D02*
X105600000Y-67800000D01*
%TD*%
%TA.AperFunction,Conductor*%
%TO.N,GND*%
G36*
X118068691Y-57169407D02*
G01*
X118104655Y-57218907D01*
X118109500Y-57249500D01*
X118109500Y-112930500D01*
X118090593Y-112988691D01*
X118041093Y-113024655D01*
X118010500Y-113029500D01*
X91539500Y-113029500D01*
X91481309Y-113010593D01*
X91445345Y-112961093D01*
X91440500Y-112930500D01*
X91440500Y-106621624D01*
X97460784Y-106621624D01*
X97470686Y-106854709D01*
X97519835Y-107082764D01*
X97519836Y-107082765D01*
X97606821Y-107299235D01*
X97606821Y-107299236D01*
X97669579Y-107401161D01*
X97729138Y-107497891D01*
X97809085Y-107588729D01*
X97883272Y-107673021D01*
X97958404Y-107733685D01*
X97991801Y-107784952D01*
X97988686Y-107846058D01*
X97950248Y-107893663D01*
X97927354Y-107904685D01*
X97895663Y-107915186D01*
X97746347Y-108007285D01*
X97622285Y-108131347D01*
X97530187Y-108280663D01*
X97475000Y-108447205D01*
X97464500Y-108549983D01*
X97464500Y-109890016D01*
X97474999Y-109992788D01*
X97475002Y-109992800D01*
X97530187Y-110159336D01*
X97622285Y-110308652D01*
X97622286Y-110308653D01*
X97622288Y-110308656D01*
X97746344Y-110432712D01*
X97895666Y-110524814D01*
X98062203Y-110579999D01*
X98164991Y-110590500D01*
X99955008Y-110590499D01*
X99955016Y-110590499D01*
X100057788Y-110580000D01*
X100057788Y-110579999D01*
X100057797Y-110579999D01*
X100224334Y-110524814D01*
X100373656Y-110432712D01*
X100497712Y-110308656D01*
X100589814Y-110159334D01*
X100644999Y-109992797D01*
X100655500Y-109890009D01*
X100655500Y-109855000D01*
X110566545Y-109855000D01*
X110586399Y-109897577D01*
X110721886Y-110091073D01*
X110888926Y-110258113D01*
X111082420Y-110393599D01*
X111082424Y-110393601D01*
X111125000Y-110413453D01*
X111125000Y-109855001D01*
X111124999Y-109855000D01*
X110566545Y-109855000D01*
X100655500Y-109855000D01*
X100655500Y-109291889D01*
X111260000Y-109291889D01*
X111300507Y-109429844D01*
X111378239Y-109550798D01*
X111486900Y-109644952D01*
X111617685Y-109704680D01*
X111724237Y-109720000D01*
X111795763Y-109720000D01*
X111902315Y-109704680D01*
X112033100Y-109644952D01*
X112141761Y-109550798D01*
X112219493Y-109429844D01*
X112260000Y-109291889D01*
X112260000Y-109148111D01*
X112219493Y-109010156D01*
X112141761Y-108889202D01*
X112033100Y-108795048D01*
X111902315Y-108735320D01*
X111795763Y-108720000D01*
X111724237Y-108720000D01*
X111617685Y-108735320D01*
X111486900Y-108795048D01*
X111378239Y-108889202D01*
X111300507Y-109010156D01*
X111260000Y-109148111D01*
X111260000Y-109291889D01*
X100655500Y-109291889D01*
X100655499Y-108549992D01*
X100655499Y-108549991D01*
X100655499Y-108549983D01*
X100645000Y-108447211D01*
X100644999Y-108447209D01*
X100644999Y-108447203D01*
X100589814Y-108280666D01*
X100497712Y-108131344D01*
X100373656Y-108007288D01*
X100373653Y-108007286D01*
X100373652Y-108007285D01*
X100224335Y-107915186D01*
X100196503Y-107905963D01*
X100147214Y-107869711D01*
X100128647Y-107811411D01*
X100147894Y-107753331D01*
X100159137Y-107740521D01*
X100317516Y-107588728D01*
X100456240Y-107401161D01*
X100561270Y-107192847D01*
X100629583Y-106969780D01*
X100659216Y-106738376D01*
X100649314Y-106505293D01*
X100600164Y-106277235D01*
X100513179Y-106060765D01*
X100512893Y-106060301D01*
X100390864Y-105862113D01*
X100390862Y-105862109D01*
X100236731Y-105686982D01*
X100055220Y-105540422D01*
X99851552Y-105426646D01*
X99631584Y-105348927D01*
X99593261Y-105342355D01*
X99401652Y-105309500D01*
X99401647Y-105309500D01*
X98776784Y-105309500D01*
X98776779Y-105309500D01*
X98602554Y-105324328D01*
X98376780Y-105383115D01*
X98280687Y-105426551D01*
X98164198Y-105479208D01*
X98164197Y-105479209D01*
X98164195Y-105479209D01*
X97970910Y-105609848D01*
X97802485Y-105771270D01*
X97802484Y-105771272D01*
X97663762Y-105958836D01*
X97663760Y-105958839D01*
X97558731Y-106167151D01*
X97490416Y-106390222D01*
X97490416Y-106390223D01*
X97460784Y-106621620D01*
X97460784Y-106621624D01*
X91440500Y-106621624D01*
X91440500Y-102860003D01*
X97754532Y-102860003D01*
X97774363Y-103086684D01*
X97833262Y-103306500D01*
X97929426Y-103512723D01*
X97929434Y-103512737D01*
X98059946Y-103699130D01*
X98059947Y-103699132D01*
X98059950Y-103699135D01*
X98059953Y-103699139D01*
X98220861Y-103860047D01*
X98220864Y-103860049D01*
X98220867Y-103860052D01*
X98220869Y-103860053D01*
X98284478Y-103904592D01*
X98407266Y-103990568D01*
X98407272Y-103990571D01*
X98407276Y-103990573D01*
X98613500Y-104086737D01*
X98613504Y-104086739D01*
X98833308Y-104145635D01*
X98833312Y-104145635D01*
X98833315Y-104145636D01*
X99059997Y-104165468D01*
X99060000Y-104165468D01*
X99060003Y-104165468D01*
X99286684Y-104145636D01*
X99286685Y-104145635D01*
X99286692Y-104145635D01*
X99506496Y-104086739D01*
X99712734Y-103990568D01*
X99899139Y-103860047D01*
X100060047Y-103699139D01*
X100190568Y-103512734D01*
X100198838Y-103495000D01*
X105541714Y-103495000D01*
X105549868Y-103512487D01*
X105680334Y-103698811D01*
X105841188Y-103859665D01*
X106027512Y-103990131D01*
X106045000Y-103998285D01*
X107315000Y-103998285D01*
X107332487Y-103990131D01*
X107518811Y-103859665D01*
X107679665Y-103698811D01*
X107810131Y-103512487D01*
X107818286Y-103495000D01*
X107315001Y-103495000D01*
X107315000Y-103495001D01*
X107315000Y-103998285D01*
X106045000Y-103998285D01*
X106045000Y-103495001D01*
X106044999Y-103495000D01*
X105541714Y-103495000D01*
X100198838Y-103495000D01*
X100286739Y-103306496D01*
X100345635Y-103086692D01*
X100356198Y-102965965D01*
X100365468Y-102860003D01*
X100365468Y-102860000D01*
X106275014Y-102860000D01*
X106294835Y-102985148D01*
X106352359Y-103098045D01*
X106441955Y-103187641D01*
X106554852Y-103245165D01*
X106648519Y-103260000D01*
X106711481Y-103260000D01*
X106805148Y-103245165D01*
X106918045Y-103187641D01*
X107007641Y-103098045D01*
X107065165Y-102985148D01*
X107084986Y-102860000D01*
X107065165Y-102734852D01*
X107007641Y-102621955D01*
X106918045Y-102532359D01*
X106805148Y-102474835D01*
X106711481Y-102460000D01*
X106648519Y-102460000D01*
X106554852Y-102474835D01*
X106441955Y-102532359D01*
X106352359Y-102621955D01*
X106294835Y-102734852D01*
X106275014Y-102860000D01*
X100365468Y-102860000D01*
X100365468Y-102859996D01*
X100345636Y-102633315D01*
X100345635Y-102633312D01*
X100345635Y-102633308D01*
X100286739Y-102413504D01*
X100223472Y-102277828D01*
X100190573Y-102207276D01*
X100190571Y-102207272D01*
X100190568Y-102207266D01*
X100090017Y-102063663D01*
X100060053Y-102020869D01*
X100060052Y-102020867D01*
X100060049Y-102020864D01*
X100060047Y-102020861D01*
X99899139Y-101859953D01*
X99899135Y-101859950D01*
X99899132Y-101859947D01*
X99899130Y-101859946D01*
X99712737Y-101729434D01*
X99712736Y-101729433D01*
X99712734Y-101729432D01*
X99712731Y-101729430D01*
X99712723Y-101729426D01*
X99606137Y-101679724D01*
X99561389Y-101637996D01*
X99549714Y-101577935D01*
X99575572Y-101522482D01*
X99606137Y-101500276D01*
X99712723Y-101450573D01*
X99712721Y-101450573D01*
X99712734Y-101450568D01*
X99899139Y-101320047D01*
X100060047Y-101159139D01*
X100190568Y-100972734D01*
X100286739Y-100766496D01*
X100345635Y-100546692D01*
X100356160Y-100426399D01*
X100365468Y-100320003D01*
X105374532Y-100320003D01*
X105394363Y-100546684D01*
X105453262Y-100766500D01*
X105549426Y-100972723D01*
X105549434Y-100972737D01*
X105679946Y-101159130D01*
X105679947Y-101159132D01*
X105679950Y-101159135D01*
X105679953Y-101159139D01*
X105840861Y-101320047D01*
X105840864Y-101320049D01*
X105840867Y-101320052D01*
X105840869Y-101320053D01*
X105904478Y-101364592D01*
X106027266Y-101450568D01*
X106134455Y-101500551D01*
X106179202Y-101542278D01*
X106190877Y-101602340D01*
X106165019Y-101657793D01*
X106134455Y-101679999D01*
X106027522Y-101729862D01*
X106027519Y-101729864D01*
X105841188Y-101860334D01*
X105680334Y-102021188D01*
X105549868Y-102207512D01*
X105541714Y-102225000D01*
X107818286Y-102225000D01*
X107810131Y-102207512D01*
X107679665Y-102021188D01*
X107518811Y-101860334D01*
X107332480Y-101729864D01*
X107332472Y-101729860D01*
X107225545Y-101679999D01*
X107180797Y-101638271D01*
X107169122Y-101578210D01*
X107194980Y-101522757D01*
X107225539Y-101500553D01*
X107332734Y-101450568D01*
X107519139Y-101320047D01*
X107680047Y-101159139D01*
X107810568Y-100972734D01*
X107906739Y-100766496D01*
X107965635Y-100546692D01*
X107976160Y-100426399D01*
X107985468Y-100320003D01*
X107985468Y-100319996D01*
X107965636Y-100093315D01*
X107965635Y-100093312D01*
X107965635Y-100093308D01*
X107906739Y-99873504D01*
X107810568Y-99667266D01*
X107710017Y-99523663D01*
X107680053Y-99480869D01*
X107680052Y-99480867D01*
X107680049Y-99480864D01*
X107680047Y-99480861D01*
X107519139Y-99319953D01*
X107519135Y-99319950D01*
X107519132Y-99319947D01*
X107519130Y-99319946D01*
X107332737Y-99189434D01*
X107332736Y-99189433D01*
X107332734Y-99189432D01*
X107332731Y-99189430D01*
X107332723Y-99189426D01*
X107226137Y-99139724D01*
X107181389Y-99097996D01*
X107169714Y-99037935D01*
X107195572Y-98982482D01*
X107226137Y-98960276D01*
X107332723Y-98910573D01*
X107332721Y-98910573D01*
X107332734Y-98910568D01*
X107519139Y-98780047D01*
X107680047Y-98619139D01*
X107810568Y-98432734D01*
X107906739Y-98226496D01*
X107965635Y-98006692D01*
X107976198Y-97885965D01*
X107985468Y-97780003D01*
X107985468Y-97779996D01*
X107965636Y-97553315D01*
X107965635Y-97553312D01*
X107965635Y-97553308D01*
X107906739Y-97333504D01*
X107843472Y-97197828D01*
X107810573Y-97127276D01*
X107810571Y-97127272D01*
X107810568Y-97127266D01*
X107710017Y-96983663D01*
X107680053Y-96940869D01*
X107680052Y-96940867D01*
X107680049Y-96940864D01*
X107680047Y-96940861D01*
X107519139Y-96779953D01*
X107519135Y-96779950D01*
X107519132Y-96779947D01*
X107519130Y-96779946D01*
X107332737Y-96649434D01*
X107332736Y-96649433D01*
X107332734Y-96649432D01*
X107332731Y-96649430D01*
X107332723Y-96649426D01*
X107226137Y-96599724D01*
X107181389Y-96557996D01*
X107169714Y-96497935D01*
X107195572Y-96442482D01*
X107226137Y-96420276D01*
X107332723Y-96370573D01*
X107332721Y-96370573D01*
X107332734Y-96370568D01*
X107519139Y-96240047D01*
X107680047Y-96079139D01*
X107810568Y-95892734D01*
X107906739Y-95686496D01*
X107965635Y-95466692D01*
X107976160Y-95346399D01*
X107985468Y-95240003D01*
X107985468Y-95239996D01*
X107965636Y-95013315D01*
X107965635Y-95013312D01*
X107965635Y-95013308D01*
X107906739Y-94793504D01*
X107810568Y-94587266D01*
X107710017Y-94443663D01*
X107680053Y-94400869D01*
X107680052Y-94400867D01*
X107680049Y-94400864D01*
X107680047Y-94400861D01*
X107519139Y-94239953D01*
X107519135Y-94239950D01*
X107519132Y-94239947D01*
X107519130Y-94239946D01*
X107332737Y-94109434D01*
X107332736Y-94109433D01*
X107332734Y-94109432D01*
X107332731Y-94109430D01*
X107332723Y-94109426D01*
X107226137Y-94059724D01*
X107181389Y-94017996D01*
X107169714Y-93957935D01*
X107195572Y-93902482D01*
X107226137Y-93880276D01*
X107332723Y-93830573D01*
X107332721Y-93830573D01*
X107332734Y-93830568D01*
X107519139Y-93700047D01*
X107680047Y-93539139D01*
X107810568Y-93352734D01*
X107906739Y-93146496D01*
X107965635Y-92926692D01*
X107976198Y-92805965D01*
X107985468Y-92700003D01*
X107985468Y-92699996D01*
X107965636Y-92473315D01*
X107965635Y-92473312D01*
X107965635Y-92473308D01*
X107906739Y-92253504D01*
X107843472Y-92117828D01*
X107810573Y-92047276D01*
X107810571Y-92047272D01*
X107810568Y-92047266D01*
X107710017Y-91903663D01*
X107680053Y-91860869D01*
X107680052Y-91860867D01*
X107680049Y-91860864D01*
X107680047Y-91860861D01*
X107519139Y-91699953D01*
X107519135Y-91699950D01*
X107519132Y-91699947D01*
X107519130Y-91699946D01*
X107332737Y-91569434D01*
X107332724Y-91569426D01*
X107225545Y-91519448D01*
X107217439Y-91511889D01*
X111260000Y-91511889D01*
X111300507Y-91649844D01*
X111378239Y-91770798D01*
X111486900Y-91864952D01*
X111617685Y-91924680D01*
X111724237Y-91940000D01*
X111795763Y-91940000D01*
X111902315Y-91924680D01*
X112033100Y-91864952D01*
X112141761Y-91770798D01*
X112219493Y-91649844D01*
X112260000Y-91511889D01*
X112260000Y-91368111D01*
X112219493Y-91230156D01*
X112141761Y-91109202D01*
X112033100Y-91015048D01*
X111902315Y-90955320D01*
X111795763Y-90940000D01*
X111724237Y-90940000D01*
X111617685Y-90955320D01*
X111486900Y-91015048D01*
X111378239Y-91109202D01*
X111300507Y-91230156D01*
X111260000Y-91368111D01*
X111260000Y-91511889D01*
X107217439Y-91511889D01*
X107180797Y-91477720D01*
X107169122Y-91417659D01*
X107194980Y-91362206D01*
X107225545Y-91339999D01*
X107332481Y-91290134D01*
X107518811Y-91159665D01*
X107679665Y-90998811D01*
X107810131Y-90812487D01*
X107818286Y-90795000D01*
X105541714Y-90795000D01*
X105549868Y-90812487D01*
X105680334Y-90998811D01*
X105841188Y-91159665D01*
X106027518Y-91290134D01*
X106134454Y-91339999D01*
X106179202Y-91381728D01*
X106190877Y-91441789D01*
X106165019Y-91497242D01*
X106134454Y-91519448D01*
X106027276Y-91569426D01*
X106027262Y-91569434D01*
X105840869Y-91699946D01*
X105840867Y-91699947D01*
X105679947Y-91860867D01*
X105679946Y-91860869D01*
X105549434Y-92047262D01*
X105549426Y-92047276D01*
X105453262Y-92253499D01*
X105394363Y-92473315D01*
X105374532Y-92699996D01*
X105374532Y-92700003D01*
X105394363Y-92926684D01*
X105453262Y-93146500D01*
X105549426Y-93352723D01*
X105549434Y-93352737D01*
X105679946Y-93539130D01*
X105679947Y-93539132D01*
X105679950Y-93539135D01*
X105679953Y-93539139D01*
X105840861Y-93700047D01*
X105840864Y-93700049D01*
X105840867Y-93700052D01*
X105840869Y-93700053D01*
X105904478Y-93744592D01*
X106027266Y-93830568D01*
X106027267Y-93830568D01*
X106027271Y-93830571D01*
X106133863Y-93880276D01*
X106178611Y-93922004D01*
X106190285Y-93982065D01*
X106164427Y-94037518D01*
X106133863Y-94059724D01*
X106027271Y-94109428D01*
X106027262Y-94109434D01*
X105840869Y-94239946D01*
X105840867Y-94239947D01*
X105679947Y-94400867D01*
X105679946Y-94400869D01*
X105549434Y-94587262D01*
X105549426Y-94587276D01*
X105453262Y-94793499D01*
X105394363Y-95013315D01*
X105374532Y-95239996D01*
X105374532Y-95240003D01*
X105394363Y-95466684D01*
X105453262Y-95686500D01*
X105549426Y-95892723D01*
X105549434Y-95892737D01*
X105679946Y-96079130D01*
X105679947Y-96079132D01*
X105679950Y-96079135D01*
X105679953Y-96079139D01*
X105840861Y-96240047D01*
X105840864Y-96240049D01*
X105840867Y-96240052D01*
X105840869Y-96240053D01*
X105904478Y-96284592D01*
X106027266Y-96370568D01*
X106027267Y-96370568D01*
X106027271Y-96370571D01*
X106133863Y-96420276D01*
X106178611Y-96462004D01*
X106190285Y-96522065D01*
X106164427Y-96577518D01*
X106133863Y-96599724D01*
X106027271Y-96649428D01*
X106027262Y-96649434D01*
X105840869Y-96779946D01*
X105840867Y-96779947D01*
X105679947Y-96940867D01*
X105679946Y-96940869D01*
X105549434Y-97127262D01*
X105549426Y-97127276D01*
X105453262Y-97333499D01*
X105394363Y-97553315D01*
X105374532Y-97779996D01*
X105374532Y-97780003D01*
X105394363Y-98006684D01*
X105453262Y-98226500D01*
X105549426Y-98432723D01*
X105549434Y-98432737D01*
X105679946Y-98619130D01*
X105679947Y-98619132D01*
X105679950Y-98619135D01*
X105679953Y-98619139D01*
X105840861Y-98780047D01*
X105840864Y-98780049D01*
X105840867Y-98780052D01*
X105840869Y-98780053D01*
X105904478Y-98824592D01*
X106027266Y-98910568D01*
X106027267Y-98910568D01*
X106027271Y-98910571D01*
X106133863Y-98960276D01*
X106178611Y-99002004D01*
X106190285Y-99062065D01*
X106164427Y-99117518D01*
X106133863Y-99139724D01*
X106027271Y-99189428D01*
X106027262Y-99189434D01*
X105840869Y-99319946D01*
X105840867Y-99319947D01*
X105679947Y-99480867D01*
X105679946Y-99480869D01*
X105549434Y-99667262D01*
X105549426Y-99667276D01*
X105453262Y-99873499D01*
X105394363Y-100093315D01*
X105374532Y-100319996D01*
X105374532Y-100320003D01*
X100365468Y-100320003D01*
X100365468Y-100319996D01*
X100345636Y-100093315D01*
X100345635Y-100093312D01*
X100345635Y-100093308D01*
X100286739Y-99873504D01*
X100190568Y-99667266D01*
X100090017Y-99523663D01*
X100060053Y-99480869D01*
X100060052Y-99480867D01*
X100060049Y-99480864D01*
X100060047Y-99480861D01*
X99899139Y-99319953D01*
X99899135Y-99319950D01*
X99899132Y-99319947D01*
X99899130Y-99319946D01*
X99712737Y-99189434D01*
X99712736Y-99189433D01*
X99712734Y-99189432D01*
X99712731Y-99189430D01*
X99712723Y-99189426D01*
X99606137Y-99139724D01*
X99561389Y-99097996D01*
X99549714Y-99037935D01*
X99575572Y-98982482D01*
X99606137Y-98960276D01*
X99712723Y-98910573D01*
X99712721Y-98910573D01*
X99712734Y-98910568D01*
X99899139Y-98780047D01*
X100060047Y-98619139D01*
X100190568Y-98432734D01*
X100286739Y-98226496D01*
X100345635Y-98006692D01*
X100356198Y-97885965D01*
X100365468Y-97780003D01*
X100365468Y-97779996D01*
X100345636Y-97553315D01*
X100345635Y-97553312D01*
X100345635Y-97553308D01*
X100286739Y-97333504D01*
X100223472Y-97197828D01*
X100190573Y-97127276D01*
X100190571Y-97127272D01*
X100190568Y-97127266D01*
X100090017Y-96983663D01*
X100060053Y-96940869D01*
X100060052Y-96940867D01*
X100060049Y-96940864D01*
X100060047Y-96940861D01*
X99899139Y-96779953D01*
X99899135Y-96779950D01*
X99899132Y-96779947D01*
X99899130Y-96779946D01*
X99712737Y-96649434D01*
X99712736Y-96649433D01*
X99712734Y-96649432D01*
X99712731Y-96649430D01*
X99712723Y-96649426D01*
X99606137Y-96599724D01*
X99561389Y-96557996D01*
X99549714Y-96497935D01*
X99575572Y-96442482D01*
X99606137Y-96420276D01*
X99712723Y-96370573D01*
X99712721Y-96370573D01*
X99712734Y-96370568D01*
X99899139Y-96240047D01*
X100060047Y-96079139D01*
X100190568Y-95892734D01*
X100286739Y-95686496D01*
X100345635Y-95466692D01*
X100356160Y-95346399D01*
X100365468Y-95240003D01*
X100365468Y-95239996D01*
X100345636Y-95013315D01*
X100345635Y-95013312D01*
X100345635Y-95013308D01*
X100286739Y-94793504D01*
X100190568Y-94587266D01*
X100090017Y-94443663D01*
X100060053Y-94400869D01*
X100060052Y-94400867D01*
X100060049Y-94400864D01*
X100060047Y-94400861D01*
X99899139Y-94239953D01*
X99899135Y-94239950D01*
X99899132Y-94239947D01*
X99899130Y-94239946D01*
X99712737Y-94109434D01*
X99712736Y-94109433D01*
X99712734Y-94109432D01*
X99712731Y-94109430D01*
X99712723Y-94109426D01*
X99606137Y-94059724D01*
X99561389Y-94017996D01*
X99549714Y-93957935D01*
X99575572Y-93902482D01*
X99606137Y-93880276D01*
X99712723Y-93830573D01*
X99712721Y-93830573D01*
X99712734Y-93830568D01*
X99899139Y-93700047D01*
X100060047Y-93539139D01*
X100190568Y-93352734D01*
X100286739Y-93146496D01*
X100345635Y-92926692D01*
X100356198Y-92805965D01*
X100365468Y-92700003D01*
X100365468Y-92699996D01*
X100345636Y-92473315D01*
X100345635Y-92473312D01*
X100345635Y-92473308D01*
X100286739Y-92253504D01*
X100223472Y-92117828D01*
X100190573Y-92047276D01*
X100190571Y-92047272D01*
X100190568Y-92047266D01*
X100090017Y-91903663D01*
X100060053Y-91860869D01*
X100060052Y-91860867D01*
X100060049Y-91860864D01*
X100060047Y-91860861D01*
X99899139Y-91699953D01*
X99899135Y-91699950D01*
X99899132Y-91699947D01*
X99899130Y-91699946D01*
X99712737Y-91569434D01*
X99712736Y-91569433D01*
X99712734Y-91569432D01*
X99712731Y-91569430D01*
X99712723Y-91569426D01*
X99606137Y-91519724D01*
X99561389Y-91477996D01*
X99549714Y-91417935D01*
X99575572Y-91362482D01*
X99606137Y-91340276D01*
X99712723Y-91290573D01*
X99712721Y-91290573D01*
X99712734Y-91290568D01*
X99899139Y-91160047D01*
X100060047Y-90999139D01*
X100190568Y-90812734D01*
X100286739Y-90606496D01*
X100345635Y-90386692D01*
X100356160Y-90266399D01*
X100365468Y-90160003D01*
X100365468Y-90160000D01*
X106275014Y-90160000D01*
X106294835Y-90285148D01*
X106352359Y-90398045D01*
X106441955Y-90487641D01*
X106554852Y-90545165D01*
X106648519Y-90560000D01*
X106711481Y-90560000D01*
X106805148Y-90545165D01*
X106918045Y-90487641D01*
X107007641Y-90398045D01*
X107065165Y-90285148D01*
X107084986Y-90160000D01*
X107065165Y-90034852D01*
X107007641Y-89921955D01*
X106918045Y-89832359D01*
X106805148Y-89774835D01*
X106711481Y-89760000D01*
X106648519Y-89760000D01*
X106554852Y-89774835D01*
X106441955Y-89832359D01*
X106352359Y-89921955D01*
X106294835Y-90034852D01*
X106275014Y-90160000D01*
X100365468Y-90160000D01*
X100365468Y-90159996D01*
X100345636Y-89933315D01*
X100345635Y-89933312D01*
X100345635Y-89933308D01*
X100286739Y-89713504D01*
X100190568Y-89507266D01*
X100090017Y-89363663D01*
X100060053Y-89320869D01*
X100060052Y-89320867D01*
X100060049Y-89320864D01*
X100060047Y-89320861D01*
X99899139Y-89159953D01*
X99899135Y-89159950D01*
X99899132Y-89159947D01*
X99899130Y-89159946D01*
X99712737Y-89029434D01*
X99712736Y-89029433D01*
X99712734Y-89029432D01*
X99712731Y-89029430D01*
X99712723Y-89029426D01*
X99606137Y-88979724D01*
X99561389Y-88937996D01*
X99549714Y-88877935D01*
X99575572Y-88822482D01*
X99606137Y-88800276D01*
X99712723Y-88750573D01*
X99712721Y-88750573D01*
X99712734Y-88750568D01*
X99899139Y-88620047D01*
X100060047Y-88459139D01*
X100190568Y-88272734D01*
X100286739Y-88066496D01*
X100345635Y-87846692D01*
X100356198Y-87725965D01*
X100365468Y-87620003D01*
X100365468Y-87619996D01*
X100345636Y-87393315D01*
X100345635Y-87393312D01*
X100345635Y-87393308D01*
X100286739Y-87173504D01*
X100190568Y-86967266D01*
X100090017Y-86823663D01*
X100060053Y-86780869D01*
X100060052Y-86780867D01*
X100060049Y-86780864D01*
X100060047Y-86780861D01*
X99899139Y-86619953D01*
X99899133Y-86619949D01*
X99852712Y-86587445D01*
X99814366Y-86560595D01*
X99777544Y-86511731D01*
X99776476Y-86450555D01*
X99811570Y-86400435D01*
X99869421Y-86380514D01*
X99871150Y-86380499D01*
X99907867Y-86380499D01*
X99907872Y-86380499D01*
X99967483Y-86374091D01*
X100034907Y-86348943D01*
X100102329Y-86323797D01*
X100102329Y-86323796D01*
X100102331Y-86323796D01*
X100217546Y-86237546D01*
X100303796Y-86122331D01*
X100307444Y-86112552D01*
X100354089Y-85987488D01*
X100354090Y-85987485D01*
X100354091Y-85987483D01*
X100360500Y-85927873D01*
X100360499Y-84232128D01*
X100354091Y-84172517D01*
X100354089Y-84172511D01*
X100303797Y-84037670D01*
X100217549Y-83922458D01*
X100217548Y-83922457D01*
X100217546Y-83922454D01*
X100217541Y-83922450D01*
X100102329Y-83836202D01*
X99967488Y-83785910D01*
X99967483Y-83785909D01*
X99967481Y-83785908D01*
X99967477Y-83785908D01*
X99936249Y-83782550D01*
X99907873Y-83779500D01*
X99907870Y-83779500D01*
X98212133Y-83779500D01*
X98212129Y-83779500D01*
X98212128Y-83779501D01*
X98204949Y-83780272D01*
X98152519Y-83785908D01*
X98152514Y-83785909D01*
X98017670Y-83836202D01*
X97902458Y-83922450D01*
X97902450Y-83922458D01*
X97816202Y-84037670D01*
X97765910Y-84172511D01*
X97765908Y-84172522D01*
X97759500Y-84232129D01*
X97759500Y-85927866D01*
X97759501Y-85927870D01*
X97765908Y-85987480D01*
X97765909Y-85987485D01*
X97816202Y-86122329D01*
X97826030Y-86135457D01*
X97902454Y-86237546D01*
X97902457Y-86237548D01*
X97902458Y-86237549D01*
X98017670Y-86323797D01*
X98152511Y-86374089D01*
X98152512Y-86374089D01*
X98152517Y-86374091D01*
X98212127Y-86380500D01*
X98248847Y-86380499D01*
X98307037Y-86399405D01*
X98343002Y-86448904D01*
X98343003Y-86510089D01*
X98307041Y-86559590D01*
X98305632Y-86560595D01*
X98220865Y-86619949D01*
X98059947Y-86780867D01*
X98059946Y-86780869D01*
X97929434Y-86967262D01*
X97929426Y-86967276D01*
X97833262Y-87173499D01*
X97774363Y-87393315D01*
X97754532Y-87619996D01*
X97754532Y-87620003D01*
X97774363Y-87846684D01*
X97833262Y-88066500D01*
X97929426Y-88272723D01*
X97929434Y-88272737D01*
X98059946Y-88459130D01*
X98059947Y-88459132D01*
X98059950Y-88459135D01*
X98059953Y-88459139D01*
X98220861Y-88620047D01*
X98220864Y-88620049D01*
X98220867Y-88620052D01*
X98220869Y-88620053D01*
X98284478Y-88664592D01*
X98407266Y-88750568D01*
X98407267Y-88750568D01*
X98407271Y-88750571D01*
X98513863Y-88800276D01*
X98558611Y-88842004D01*
X98570285Y-88902065D01*
X98544427Y-88957518D01*
X98513863Y-88979724D01*
X98407271Y-89029428D01*
X98407262Y-89029434D01*
X98220869Y-89159946D01*
X98220867Y-89159947D01*
X98059947Y-89320867D01*
X98059946Y-89320869D01*
X97929434Y-89507262D01*
X97929426Y-89507276D01*
X97833262Y-89713499D01*
X97774363Y-89933315D01*
X97754532Y-90159996D01*
X97754532Y-90160003D01*
X97774363Y-90386684D01*
X97833262Y-90606500D01*
X97929426Y-90812723D01*
X97929434Y-90812737D01*
X98059946Y-90999130D01*
X98059947Y-90999132D01*
X98059950Y-90999135D01*
X98059953Y-90999139D01*
X98220861Y-91160047D01*
X98220864Y-91160049D01*
X98220867Y-91160052D01*
X98220869Y-91160053D01*
X98284478Y-91204592D01*
X98407266Y-91290568D01*
X98407267Y-91290568D01*
X98407271Y-91290571D01*
X98513863Y-91340276D01*
X98558611Y-91382004D01*
X98570285Y-91442065D01*
X98544427Y-91497518D01*
X98513863Y-91519724D01*
X98407271Y-91569428D01*
X98407262Y-91569434D01*
X98220869Y-91699946D01*
X98220867Y-91699947D01*
X98059947Y-91860867D01*
X98059946Y-91860869D01*
X97929434Y-92047262D01*
X97929426Y-92047276D01*
X97833262Y-92253499D01*
X97774363Y-92473315D01*
X97754532Y-92699996D01*
X97754532Y-92700003D01*
X97774363Y-92926684D01*
X97833262Y-93146500D01*
X97929426Y-93352723D01*
X97929434Y-93352737D01*
X98059946Y-93539130D01*
X98059947Y-93539132D01*
X98059950Y-93539135D01*
X98059953Y-93539139D01*
X98220861Y-93700047D01*
X98220864Y-93700049D01*
X98220867Y-93700052D01*
X98220869Y-93700053D01*
X98284478Y-93744592D01*
X98407266Y-93830568D01*
X98407267Y-93830568D01*
X98407271Y-93830571D01*
X98513863Y-93880276D01*
X98558611Y-93922004D01*
X98570285Y-93982065D01*
X98544427Y-94037518D01*
X98513863Y-94059724D01*
X98407271Y-94109428D01*
X98407262Y-94109434D01*
X98220869Y-94239946D01*
X98220867Y-94239947D01*
X98059947Y-94400867D01*
X98059946Y-94400869D01*
X97929434Y-94587262D01*
X97929426Y-94587276D01*
X97833262Y-94793499D01*
X97774363Y-95013315D01*
X97754532Y-95239996D01*
X97754532Y-95240003D01*
X97774363Y-95466684D01*
X97833262Y-95686500D01*
X97929426Y-95892723D01*
X97929434Y-95892737D01*
X98059946Y-96079130D01*
X98059947Y-96079132D01*
X98059950Y-96079135D01*
X98059953Y-96079139D01*
X98220861Y-96240047D01*
X98220864Y-96240049D01*
X98220867Y-96240052D01*
X98220869Y-96240053D01*
X98284478Y-96284592D01*
X98407266Y-96370568D01*
X98407267Y-96370568D01*
X98407271Y-96370571D01*
X98513863Y-96420276D01*
X98558611Y-96462004D01*
X98570285Y-96522065D01*
X98544427Y-96577518D01*
X98513863Y-96599724D01*
X98407271Y-96649428D01*
X98407262Y-96649434D01*
X98220869Y-96779946D01*
X98220867Y-96779947D01*
X98059947Y-96940867D01*
X98059946Y-96940869D01*
X97929434Y-97127262D01*
X97929426Y-97127276D01*
X97833262Y-97333499D01*
X97774363Y-97553315D01*
X97754532Y-97779996D01*
X97754532Y-97780003D01*
X97774363Y-98006684D01*
X97833262Y-98226500D01*
X97929426Y-98432723D01*
X97929434Y-98432737D01*
X98059946Y-98619130D01*
X98059947Y-98619132D01*
X98059950Y-98619135D01*
X98059953Y-98619139D01*
X98220861Y-98780047D01*
X98220864Y-98780049D01*
X98220867Y-98780052D01*
X98220869Y-98780053D01*
X98284478Y-98824592D01*
X98407266Y-98910568D01*
X98407267Y-98910568D01*
X98407271Y-98910571D01*
X98513863Y-98960276D01*
X98558611Y-99002004D01*
X98570285Y-99062065D01*
X98544427Y-99117518D01*
X98513863Y-99139724D01*
X98407271Y-99189428D01*
X98407262Y-99189434D01*
X98220869Y-99319946D01*
X98220867Y-99319947D01*
X98059947Y-99480867D01*
X98059946Y-99480869D01*
X97929434Y-99667262D01*
X97929426Y-99667276D01*
X97833262Y-99873499D01*
X97774363Y-100093315D01*
X97754532Y-100319996D01*
X97754532Y-100320003D01*
X97774363Y-100546684D01*
X97833262Y-100766500D01*
X97929426Y-100972723D01*
X97929434Y-100972737D01*
X98059946Y-101159130D01*
X98059947Y-101159132D01*
X98059950Y-101159135D01*
X98059953Y-101159139D01*
X98220861Y-101320047D01*
X98220864Y-101320049D01*
X98220867Y-101320052D01*
X98220869Y-101320053D01*
X98284478Y-101364592D01*
X98407266Y-101450568D01*
X98407267Y-101450568D01*
X98407271Y-101450571D01*
X98513863Y-101500276D01*
X98558611Y-101542004D01*
X98570285Y-101602065D01*
X98544427Y-101657518D01*
X98513863Y-101679724D01*
X98407271Y-101729428D01*
X98407262Y-101729434D01*
X98220869Y-101859946D01*
X98220867Y-101859947D01*
X98059947Y-102020867D01*
X98059946Y-102020869D01*
X97929434Y-102207262D01*
X97929426Y-102207276D01*
X97833262Y-102413499D01*
X97774363Y-102633315D01*
X97754532Y-102859996D01*
X97754532Y-102860003D01*
X91440500Y-102860003D01*
X91440500Y-78681624D01*
X97460784Y-78681624D01*
X97470686Y-78914709D01*
X97519835Y-79142764D01*
X97519836Y-79142765D01*
X97606821Y-79359235D01*
X97606821Y-79359236D01*
X97669579Y-79461161D01*
X97729138Y-79557891D01*
X97809085Y-79648729D01*
X97883272Y-79733021D01*
X97958404Y-79793685D01*
X97991801Y-79844952D01*
X97988686Y-79906058D01*
X97950248Y-79953663D01*
X97927354Y-79964685D01*
X97895663Y-79975186D01*
X97746347Y-80067285D01*
X97622285Y-80191347D01*
X97530187Y-80340663D01*
X97475000Y-80507205D01*
X97464500Y-80609983D01*
X97464500Y-81950016D01*
X97474999Y-82052788D01*
X97475002Y-82052800D01*
X97530187Y-82219336D01*
X97622285Y-82368652D01*
X97622286Y-82368653D01*
X97622288Y-82368656D01*
X97746344Y-82492712D01*
X97746346Y-82492713D01*
X97746347Y-82492714D01*
X97819664Y-82537936D01*
X97895666Y-82584814D01*
X98062203Y-82639999D01*
X98164991Y-82650500D01*
X99955008Y-82650499D01*
X99955016Y-82650499D01*
X100057788Y-82640000D01*
X100057788Y-82639999D01*
X100057797Y-82639999D01*
X100224334Y-82584814D01*
X100373656Y-82492712D01*
X100497712Y-82368656D01*
X100589814Y-82219334D01*
X100629901Y-82098358D01*
X100666153Y-82049070D01*
X100723876Y-82030500D01*
X103808124Y-82030500D01*
X103866315Y-82049407D01*
X103878128Y-82059496D01*
X105799719Y-83981086D01*
X105827496Y-84035603D01*
X105817925Y-84096035D01*
X105799719Y-84121093D01*
X105679953Y-84240860D01*
X105679946Y-84240869D01*
X105549434Y-84427262D01*
X105549426Y-84427276D01*
X105453262Y-84633499D01*
X105394363Y-84853315D01*
X105374532Y-85079996D01*
X105374532Y-85080003D01*
X105394363Y-85306684D01*
X105453262Y-85526500D01*
X105549426Y-85732723D01*
X105549434Y-85732737D01*
X105679946Y-85919130D01*
X105679947Y-85919132D01*
X105679950Y-85919135D01*
X105679953Y-85919139D01*
X105840861Y-86080047D01*
X105887284Y-86112552D01*
X105924106Y-86161416D01*
X105929500Y-86193648D01*
X105929500Y-86506350D01*
X105910593Y-86564541D01*
X105887285Y-86587445D01*
X105840866Y-86619948D01*
X105679947Y-86780867D01*
X105679946Y-86780869D01*
X105549434Y-86967262D01*
X105549426Y-86967276D01*
X105453262Y-87173499D01*
X105394363Y-87393315D01*
X105374532Y-87619996D01*
X105374532Y-87620003D01*
X105394363Y-87846684D01*
X105453262Y-88066500D01*
X105549426Y-88272723D01*
X105549434Y-88272737D01*
X105679946Y-88459130D01*
X105679947Y-88459132D01*
X105679950Y-88459135D01*
X105679953Y-88459139D01*
X105840861Y-88620047D01*
X105840864Y-88620049D01*
X105840867Y-88620052D01*
X105840869Y-88620053D01*
X105904478Y-88664592D01*
X106027266Y-88750568D01*
X106134455Y-88800551D01*
X106179202Y-88842278D01*
X106190877Y-88902340D01*
X106165019Y-88957793D01*
X106134455Y-88979999D01*
X106027522Y-89029862D01*
X106027519Y-89029864D01*
X105841188Y-89160334D01*
X105680334Y-89321188D01*
X105549868Y-89507512D01*
X105541714Y-89525000D01*
X107818286Y-89525000D01*
X107810131Y-89507512D01*
X107679665Y-89321188D01*
X107518811Y-89160334D01*
X107332480Y-89029864D01*
X107332472Y-89029860D01*
X107225545Y-88979999D01*
X107180797Y-88938271D01*
X107169122Y-88878210D01*
X107194980Y-88822757D01*
X107225539Y-88800553D01*
X107332734Y-88750568D01*
X107519139Y-88620047D01*
X107680047Y-88459139D01*
X107810568Y-88272734D01*
X107906739Y-88066496D01*
X107965635Y-87846692D01*
X107976198Y-87725965D01*
X107985468Y-87620003D01*
X107985468Y-87619996D01*
X107965636Y-87393315D01*
X107965635Y-87393312D01*
X107965635Y-87393308D01*
X107906739Y-87173504D01*
X107810568Y-86967266D01*
X107710017Y-86823663D01*
X107680053Y-86780869D01*
X107680052Y-86780867D01*
X107680049Y-86780864D01*
X107680047Y-86780861D01*
X107519139Y-86619953D01*
X107519135Y-86619950D01*
X107519133Y-86619948D01*
X107472715Y-86587445D01*
X107435893Y-86538580D01*
X107430500Y-86506350D01*
X107430500Y-86193648D01*
X107449407Y-86135457D01*
X107472714Y-86112553D01*
X107519139Y-86080047D01*
X107680047Y-85919139D01*
X107810568Y-85732734D01*
X107906739Y-85526496D01*
X107965635Y-85306692D01*
X107976198Y-85185965D01*
X107985468Y-85080003D01*
X107985468Y-85079996D01*
X107965636Y-84853315D01*
X107965635Y-84853312D01*
X107965635Y-84853308D01*
X107906739Y-84633504D01*
X107843472Y-84497828D01*
X107810573Y-84427276D01*
X107810571Y-84427272D01*
X107810568Y-84427266D01*
X107710017Y-84283663D01*
X107680053Y-84240869D01*
X107680052Y-84240867D01*
X107680049Y-84240864D01*
X107680047Y-84240861D01*
X107519139Y-84079953D01*
X107519135Y-84079950D01*
X107519133Y-84079948D01*
X107472715Y-84047445D01*
X107435893Y-83998580D01*
X107430500Y-83966350D01*
X107430500Y-83861884D01*
X107431545Y-83847537D01*
X107431584Y-83847266D01*
X107435289Y-83821977D01*
X107430687Y-83769379D01*
X107430500Y-83765079D01*
X107430500Y-83756298D01*
X107430500Y-83756291D01*
X107426691Y-83723705D01*
X107419998Y-83647203D01*
X107419705Y-83646321D01*
X107415349Y-83626666D01*
X107415242Y-83625750D01*
X107415241Y-83625748D01*
X107415241Y-83625745D01*
X107388969Y-83553563D01*
X107367642Y-83489202D01*
X107364815Y-83480669D01*
X107364813Y-83480664D01*
X107364324Y-83479871D01*
X107355557Y-83461763D01*
X107355237Y-83460883D01*
X107355235Y-83460881D01*
X107355235Y-83460879D01*
X107313034Y-83396716D01*
X107288128Y-83356337D01*
X107272712Y-83331344D01*
X107272043Y-83330675D01*
X107259337Y-83315076D01*
X107258830Y-83314304D01*
X107202982Y-83261614D01*
X104734437Y-80793069D01*
X104725031Y-80782183D01*
X104709614Y-80761474D01*
X104709609Y-80761469D01*
X104700733Y-80754021D01*
X104669176Y-80727542D01*
X104665999Y-80724630D01*
X104659774Y-80718406D01*
X104634041Y-80698059D01*
X104575215Y-80648698D01*
X104575206Y-80648692D01*
X104574365Y-80648270D01*
X104557417Y-80637473D01*
X104556682Y-80636892D01*
X104556670Y-80636885D01*
X104487057Y-80604424D01*
X104418434Y-80569960D01*
X104418426Y-80569958D01*
X104417523Y-80569744D01*
X104398525Y-80563140D01*
X104397677Y-80562744D01*
X104397670Y-80562742D01*
X104322435Y-80547207D01*
X104297529Y-80541304D01*
X104247721Y-80529500D01*
X104247719Y-80529500D01*
X104246791Y-80529500D01*
X104226771Y-80527455D01*
X104225854Y-80527265D01*
X104149083Y-80529500D01*
X100723876Y-80529500D01*
X100665685Y-80510593D01*
X100629901Y-80461641D01*
X100612326Y-80408603D01*
X100589814Y-80340666D01*
X100528651Y-80241505D01*
X100497714Y-80191347D01*
X100497713Y-80191346D01*
X100497712Y-80191344D01*
X100373656Y-80067288D01*
X100373653Y-80067286D01*
X100373652Y-80067285D01*
X100280778Y-80010000D01*
X105774540Y-80010000D01*
X105794327Y-80198261D01*
X105852819Y-80378279D01*
X105852825Y-80378293D01*
X105900947Y-80461641D01*
X105947467Y-80542216D01*
X105947469Y-80542218D01*
X106064302Y-80671975D01*
X106074129Y-80682888D01*
X106227270Y-80794151D01*
X106400197Y-80871144D01*
X106585354Y-80910500D01*
X106585357Y-80910500D01*
X106774643Y-80910500D01*
X106774646Y-80910500D01*
X106959803Y-80871144D01*
X107132730Y-80794151D01*
X107285871Y-80682888D01*
X107412533Y-80542216D01*
X107507179Y-80378284D01*
X107565674Y-80198256D01*
X107585460Y-80010000D01*
X107565674Y-79821744D01*
X107507179Y-79641716D01*
X107443763Y-79531875D01*
X107430500Y-79482375D01*
X107430500Y-77997623D01*
X107443764Y-77948123D01*
X107507174Y-77838293D01*
X107507174Y-77838291D01*
X107507179Y-77838284D01*
X107565674Y-77658256D01*
X107585460Y-77470000D01*
X107565674Y-77281744D01*
X107507179Y-77101716D01*
X107507176Y-77101711D01*
X107507174Y-77101706D01*
X107458551Y-77017490D01*
X107412533Y-76937784D01*
X107318446Y-76833290D01*
X107285875Y-76797116D01*
X107285870Y-76797111D01*
X107132731Y-76685850D01*
X107132732Y-76685850D01*
X107132730Y-76685849D01*
X107132725Y-76685847D01*
X107132722Y-76685845D01*
X106959805Y-76608857D01*
X106959803Y-76608856D01*
X106959800Y-76608855D01*
X106959799Y-76608855D01*
X106924580Y-76601369D01*
X106774646Y-76569500D01*
X106585354Y-76569500D01*
X106467289Y-76594595D01*
X106400200Y-76608855D01*
X106400194Y-76608857D01*
X106227277Y-76685845D01*
X106227268Y-76685850D01*
X106074129Y-76797111D01*
X106074124Y-76797116D01*
X105947469Y-76937781D01*
X105947465Y-76937787D01*
X105852825Y-77101706D01*
X105852819Y-77101720D01*
X105794327Y-77281738D01*
X105794326Y-77281742D01*
X105794326Y-77281744D01*
X105774540Y-77470000D01*
X105788247Y-77600421D01*
X105794327Y-77658261D01*
X105852819Y-77838279D01*
X105852825Y-77838293D01*
X105916236Y-77948123D01*
X105929500Y-77997623D01*
X105929500Y-79482375D01*
X105916237Y-79531875D01*
X105852822Y-79641713D01*
X105852819Y-79641720D01*
X105794327Y-79821738D01*
X105794326Y-79821742D01*
X105794326Y-79821744D01*
X105781636Y-79942483D01*
X105774540Y-80010000D01*
X100280778Y-80010000D01*
X100224335Y-79975186D01*
X100196503Y-79965963D01*
X100147214Y-79929711D01*
X100128647Y-79871411D01*
X100147894Y-79813331D01*
X100159137Y-79800521D01*
X100317516Y-79648728D01*
X100456240Y-79461161D01*
X100561270Y-79252847D01*
X100629583Y-79029780D01*
X100659216Y-78798376D01*
X100649314Y-78565293D01*
X100600164Y-78337235D01*
X100513179Y-78120765D01*
X100512893Y-78120301D01*
X100450419Y-78018836D01*
X100390862Y-77922109D01*
X100236731Y-77746982D01*
X100055220Y-77600422D01*
X99993539Y-77565965D01*
X99978961Y-77557821D01*
X99937381Y-77512935D01*
X99930126Y-77452181D01*
X99959966Y-77398766D01*
X99971807Y-77389370D01*
X100148772Y-77269763D01*
X100317137Y-77108398D01*
X100317139Y-77108396D01*
X100455810Y-76920900D01*
X100455812Y-76920897D01*
X100499121Y-76835000D01*
X97617115Y-76835000D01*
X97729535Y-77017582D01*
X97729544Y-77017594D01*
X97883618Y-77192657D01*
X98065060Y-77339160D01*
X98065067Y-77339165D01*
X98141013Y-77381591D01*
X98182593Y-77426476D01*
X98189849Y-77487230D01*
X98160009Y-77540646D01*
X98148169Y-77550041D01*
X97970910Y-77669848D01*
X97802485Y-77831270D01*
X97802484Y-77831272D01*
X97663762Y-78018836D01*
X97663760Y-78018839D01*
X97558731Y-78227151D01*
X97490416Y-78450222D01*
X97490416Y-78450223D01*
X97460784Y-78681620D01*
X97460784Y-78681624D01*
X91440500Y-78681624D01*
X91440500Y-76200000D01*
X98459866Y-76200000D01*
X98480315Y-76355326D01*
X98540269Y-76500067D01*
X98635641Y-76624359D01*
X98759933Y-76719731D01*
X98904674Y-76779685D01*
X99021003Y-76795000D01*
X99098997Y-76795000D01*
X99215326Y-76779685D01*
X99360067Y-76719731D01*
X99484359Y-76624359D01*
X99579731Y-76500067D01*
X99639685Y-76355326D01*
X99660134Y-76200000D01*
X99639685Y-76044674D01*
X99579731Y-75899933D01*
X99484359Y-75775641D01*
X99360067Y-75680269D01*
X99215326Y-75620315D01*
X99098997Y-75605000D01*
X99021003Y-75605000D01*
X98904674Y-75620315D01*
X98759933Y-75680269D01*
X98635641Y-75775641D01*
X98540269Y-75899933D01*
X98480315Y-76044674D01*
X98459866Y-76200000D01*
X91440500Y-76200000D01*
X91440500Y-75565000D01*
X97620879Y-75565000D01*
X98424999Y-75565000D01*
X98425000Y-75564999D01*
X98425000Y-74891863D01*
X99695000Y-74891863D01*
X99695000Y-75564999D01*
X99695001Y-75565000D01*
X100502885Y-75565000D01*
X100502885Y-75564999D01*
X100390464Y-75382417D01*
X100390455Y-75382405D01*
X100236381Y-75207342D01*
X100054939Y-75060839D01*
X100054932Y-75060834D01*
X99851348Y-74947106D01*
X99851338Y-74947101D01*
X99695000Y-74891863D01*
X98425000Y-74891863D01*
X98425000Y-74891075D01*
X98424999Y-74891075D01*
X98376950Y-74903586D01*
X98164446Y-74999645D01*
X98164442Y-74999647D01*
X97971227Y-75130236D01*
X97802862Y-75291601D01*
X97802860Y-75291603D01*
X97664189Y-75479099D01*
X97664187Y-75479102D01*
X97620879Y-75565000D01*
X91440500Y-75565000D01*
X91440500Y-68521624D01*
X97460784Y-68521624D01*
X97470686Y-68754709D01*
X97519835Y-68982764D01*
X97519836Y-68982765D01*
X97606821Y-69199235D01*
X97606821Y-69199236D01*
X97669579Y-69301161D01*
X97729138Y-69397891D01*
X97809085Y-69488729D01*
X97883272Y-69573021D01*
X97958404Y-69633685D01*
X97991801Y-69684952D01*
X97988686Y-69746058D01*
X97950248Y-69793663D01*
X97927354Y-69804685D01*
X97895663Y-69815186D01*
X97746347Y-69907285D01*
X97622285Y-70031347D01*
X97530187Y-70180663D01*
X97475000Y-70347205D01*
X97464500Y-70449983D01*
X97464500Y-71790016D01*
X97474999Y-71892788D01*
X97475002Y-71892800D01*
X97530187Y-72059336D01*
X97622285Y-72208652D01*
X97622286Y-72208653D01*
X97622288Y-72208656D01*
X97746344Y-72332712D01*
X97895666Y-72424814D01*
X98062203Y-72479999D01*
X98164991Y-72490500D01*
X99955008Y-72490499D01*
X99955016Y-72490499D01*
X100057788Y-72480000D01*
X100057788Y-72479999D01*
X100057797Y-72479999D01*
X100224334Y-72424814D01*
X100373656Y-72332712D01*
X100497712Y-72208656D01*
X100589814Y-72059334D01*
X100644999Y-71892797D01*
X100655500Y-71790009D01*
X100655500Y-71191889D01*
X111260000Y-71191889D01*
X111300507Y-71329844D01*
X111378239Y-71450798D01*
X111486900Y-71544952D01*
X111617685Y-71604680D01*
X111724237Y-71620000D01*
X111795763Y-71620000D01*
X111902315Y-71604680D01*
X112033100Y-71544952D01*
X112141761Y-71450798D01*
X112219493Y-71329844D01*
X112260000Y-71191889D01*
X112260000Y-71048111D01*
X112219493Y-70910156D01*
X112141761Y-70789202D01*
X112033100Y-70695048D01*
X111902315Y-70635320D01*
X111795763Y-70620000D01*
X111724237Y-70620000D01*
X111617685Y-70635320D01*
X111486900Y-70695048D01*
X111378239Y-70789202D01*
X111300507Y-70910156D01*
X111260000Y-71048111D01*
X111260000Y-71191889D01*
X100655500Y-71191889D01*
X100655499Y-70449992D01*
X100655499Y-70449991D01*
X100655499Y-70449983D01*
X100645000Y-70347211D01*
X100644999Y-70347209D01*
X100644999Y-70347203D01*
X100589814Y-70180666D01*
X100497712Y-70031344D01*
X100373656Y-69907288D01*
X100373653Y-69907286D01*
X100373652Y-69907285D01*
X100224335Y-69815186D01*
X100196503Y-69805963D01*
X100147214Y-69769711D01*
X100128647Y-69711411D01*
X100147894Y-69653331D01*
X100159137Y-69640521D01*
X100317516Y-69488728D01*
X100456240Y-69301161D01*
X100561270Y-69092847D01*
X100629583Y-68869780D01*
X100659216Y-68638376D01*
X100649314Y-68405293D01*
X100600164Y-68177235D01*
X100513179Y-67960765D01*
X100501193Y-67941299D01*
X100414192Y-67800000D01*
X104894355Y-67800000D01*
X104914860Y-67968872D01*
X104975182Y-68127930D01*
X105071817Y-68267929D01*
X105199148Y-68380734D01*
X105349775Y-68459790D01*
X105514944Y-68500500D01*
X105514947Y-68500500D01*
X105685053Y-68500500D01*
X105685056Y-68500500D01*
X105850225Y-68459790D01*
X106000852Y-68380734D01*
X106128183Y-68267929D01*
X106224818Y-68127930D01*
X106278536Y-67986286D01*
X106316850Y-67938581D01*
X106371103Y-67922392D01*
X110421137Y-67922392D01*
X110479328Y-67941299D01*
X110515292Y-67990799D01*
X110515292Y-68051985D01*
X110510861Y-68063232D01*
X110486097Y-68116335D01*
X110424935Y-68344599D01*
X110404341Y-68579995D01*
X110404341Y-68580004D01*
X110424935Y-68815400D01*
X110424936Y-68815407D01*
X110424937Y-68815408D01*
X110486097Y-69043663D01*
X110565472Y-69213883D01*
X110585964Y-69257828D01*
X110684037Y-69397892D01*
X110721505Y-69451401D01*
X110888599Y-69618495D01*
X110888602Y-69618497D01*
X110888603Y-69618498D01*
X110920047Y-69640515D01*
X111082170Y-69754035D01*
X111082171Y-69754035D01*
X111082172Y-69754036D01*
X111082174Y-69754037D01*
X111096143Y-69760551D01*
X111140892Y-69802279D01*
X111152567Y-69862340D01*
X111126710Y-69917793D01*
X111096146Y-69940000D01*
X111082424Y-69946398D01*
X110888926Y-70081886D01*
X110721886Y-70248926D01*
X110586405Y-70442413D01*
X110586398Y-70442425D01*
X110566545Y-70484999D01*
X110566545Y-70485000D01*
X112296000Y-70485000D01*
X112354191Y-70503907D01*
X112390155Y-70553407D01*
X112395000Y-70584000D01*
X112395000Y-71656000D01*
X112376093Y-71714191D01*
X112326593Y-71750155D01*
X112296000Y-71755000D01*
X110566545Y-71755000D01*
X110586399Y-71797577D01*
X110721886Y-71991073D01*
X110888926Y-72158113D01*
X111082422Y-72293600D01*
X111096144Y-72299999D01*
X111140892Y-72341727D01*
X111152567Y-72401788D01*
X111126709Y-72457241D01*
X111096145Y-72479448D01*
X111082177Y-72485961D01*
X111082173Y-72485963D01*
X110888603Y-72621501D01*
X110721501Y-72788603D01*
X110585963Y-72982173D01*
X110585959Y-72982181D01*
X110486098Y-73196332D01*
X110424935Y-73424599D01*
X110404341Y-73659995D01*
X110404341Y-73660004D01*
X110424935Y-73895400D01*
X110424936Y-73895407D01*
X110424937Y-73895408D01*
X110486097Y-74123663D01*
X110585965Y-74337830D01*
X110721505Y-74531401D01*
X110888599Y-74698495D01*
X111082170Y-74834035D01*
X111095552Y-74840275D01*
X111140300Y-74882003D01*
X111151975Y-74942064D01*
X111126117Y-74997517D01*
X111095554Y-75019724D01*
X111082173Y-75025963D01*
X110888603Y-75161501D01*
X110721501Y-75328603D01*
X110585963Y-75522173D01*
X110585959Y-75522181D01*
X110486098Y-75736332D01*
X110424935Y-75964599D01*
X110404341Y-76199995D01*
X110404341Y-76200004D01*
X110424935Y-76435400D01*
X110424936Y-76435407D01*
X110424937Y-76435408D01*
X110486097Y-76663663D01*
X110585965Y-76877830D01*
X110721505Y-77071401D01*
X110888599Y-77238495D01*
X111082170Y-77374035D01*
X111094960Y-77379999D01*
X111095552Y-77380275D01*
X111140300Y-77422003D01*
X111151975Y-77482064D01*
X111126117Y-77537517D01*
X111095554Y-77559724D01*
X111082173Y-77565963D01*
X110888603Y-77701501D01*
X110721501Y-77868603D01*
X110585963Y-78062173D01*
X110585959Y-78062181D01*
X110486098Y-78276332D01*
X110424935Y-78504599D01*
X110404341Y-78739995D01*
X110404341Y-78740004D01*
X110424935Y-78975400D01*
X110424936Y-78975407D01*
X110424937Y-78975408D01*
X110486097Y-79203663D01*
X110565472Y-79373883D01*
X110585964Y-79417828D01*
X110684037Y-79557892D01*
X110721505Y-79611401D01*
X110888599Y-79778495D01*
X110888602Y-79778497D01*
X110888603Y-79778498D01*
X110920047Y-79800515D01*
X111082170Y-79914035D01*
X111094964Y-79920001D01*
X111095552Y-79920275D01*
X111140300Y-79962003D01*
X111151975Y-80022064D01*
X111126117Y-80077517D01*
X111095554Y-80099724D01*
X111082173Y-80105963D01*
X110888603Y-80241501D01*
X110721501Y-80408603D01*
X110585963Y-80602173D01*
X110585959Y-80602181D01*
X110486098Y-80816332D01*
X110424935Y-81044599D01*
X110404341Y-81279995D01*
X110404341Y-81280004D01*
X110424935Y-81515400D01*
X110424936Y-81515407D01*
X110424937Y-81515408D01*
X110486097Y-81743663D01*
X110565472Y-81913883D01*
X110585964Y-81957828D01*
X110684364Y-82098359D01*
X110721505Y-82151401D01*
X110888599Y-82318495D01*
X111082170Y-82454035D01*
X111095552Y-82460275D01*
X111140300Y-82502003D01*
X111151975Y-82562064D01*
X111126117Y-82617517D01*
X111095554Y-82639724D01*
X111082173Y-82645963D01*
X110888603Y-82781501D01*
X110721501Y-82948603D01*
X110585963Y-83142173D01*
X110585959Y-83142181D01*
X110486098Y-83356332D01*
X110424935Y-83584599D01*
X110404341Y-83819995D01*
X110404341Y-83820004D01*
X110424935Y-84055400D01*
X110424936Y-84055407D01*
X110424937Y-84055408D01*
X110486097Y-84283663D01*
X110558582Y-84439108D01*
X110585964Y-84497828D01*
X110680961Y-84633499D01*
X110721505Y-84691401D01*
X110888599Y-84858495D01*
X111082170Y-84994035D01*
X111094960Y-84999999D01*
X111095552Y-85000275D01*
X111140300Y-85042003D01*
X111151975Y-85102064D01*
X111126117Y-85157517D01*
X111095554Y-85179724D01*
X111082173Y-85185963D01*
X110888603Y-85321501D01*
X110721501Y-85488603D01*
X110585963Y-85682173D01*
X110585959Y-85682181D01*
X110486098Y-85896332D01*
X110424935Y-86124599D01*
X110404341Y-86359995D01*
X110404341Y-86360004D01*
X110424935Y-86595400D01*
X110424936Y-86595407D01*
X110424937Y-86595408D01*
X110486097Y-86823663D01*
X110565472Y-86993883D01*
X110585964Y-87037828D01*
X110680961Y-87173499D01*
X110721505Y-87231401D01*
X110888599Y-87398495D01*
X111082170Y-87534035D01*
X111095552Y-87540275D01*
X111140300Y-87582003D01*
X111151975Y-87642064D01*
X111126117Y-87697517D01*
X111095554Y-87719724D01*
X111082173Y-87725963D01*
X110888603Y-87861501D01*
X110721501Y-88028603D01*
X110585963Y-88222173D01*
X110585959Y-88222181D01*
X110486098Y-88436332D01*
X110424935Y-88664599D01*
X110404341Y-88899995D01*
X110404341Y-88900004D01*
X110424935Y-89135400D01*
X110424936Y-89135407D01*
X110424937Y-89135408D01*
X110486097Y-89363663D01*
X110561330Y-89525000D01*
X110585964Y-89577828D01*
X110713521Y-89760000D01*
X110721505Y-89771401D01*
X110888599Y-89938495D01*
X111082170Y-90074035D01*
X111082171Y-90074035D01*
X111082172Y-90074036D01*
X111082174Y-90074037D01*
X111096143Y-90080551D01*
X111140892Y-90122279D01*
X111152567Y-90182340D01*
X111126710Y-90237793D01*
X111096146Y-90260000D01*
X111082424Y-90266398D01*
X110888926Y-90401886D01*
X110721886Y-90568926D01*
X110586405Y-90762413D01*
X110586398Y-90762425D01*
X110566545Y-90804999D01*
X110566545Y-90805000D01*
X112296000Y-90805000D01*
X112354191Y-90823907D01*
X112390155Y-90873407D01*
X112395000Y-90904000D01*
X112395000Y-91976000D01*
X112376093Y-92034191D01*
X112326593Y-92070155D01*
X112296000Y-92075000D01*
X110566545Y-92075000D01*
X110586399Y-92117577D01*
X110721886Y-92311073D01*
X110888926Y-92478113D01*
X111082422Y-92613600D01*
X111096144Y-92619999D01*
X111140892Y-92661727D01*
X111152567Y-92721788D01*
X111126709Y-92777241D01*
X111096145Y-92799448D01*
X111082177Y-92805961D01*
X111082173Y-92805963D01*
X110888603Y-92941501D01*
X110721501Y-93108603D01*
X110585963Y-93302173D01*
X110585959Y-93302181D01*
X110486098Y-93516332D01*
X110424935Y-93744599D01*
X110404341Y-93979995D01*
X110404341Y-93980004D01*
X110424935Y-94215400D01*
X110424936Y-94215407D01*
X110424937Y-94215408D01*
X110486097Y-94443663D01*
X110565472Y-94613883D01*
X110585964Y-94657828D01*
X110680961Y-94793499D01*
X110721505Y-94851401D01*
X110888599Y-95018495D01*
X111082170Y-95154035D01*
X111095552Y-95160275D01*
X111140300Y-95202003D01*
X111151975Y-95262064D01*
X111126117Y-95317517D01*
X111095554Y-95339724D01*
X111082173Y-95345963D01*
X110888603Y-95481501D01*
X110721501Y-95648603D01*
X110585963Y-95842173D01*
X110585959Y-95842181D01*
X110486098Y-96056332D01*
X110424935Y-96284599D01*
X110404341Y-96519995D01*
X110404341Y-96520004D01*
X110424935Y-96755400D01*
X110424936Y-96755407D01*
X110424937Y-96755408D01*
X110486097Y-96983663D01*
X110558582Y-97139108D01*
X110585964Y-97197828D01*
X110680961Y-97333499D01*
X110721505Y-97391401D01*
X110888599Y-97558495D01*
X111082170Y-97694035D01*
X111094960Y-97699999D01*
X111095552Y-97700275D01*
X111140300Y-97742003D01*
X111151975Y-97802064D01*
X111126117Y-97857517D01*
X111095554Y-97879724D01*
X111082173Y-97885963D01*
X110888603Y-98021501D01*
X110721501Y-98188603D01*
X110585963Y-98382173D01*
X110585959Y-98382181D01*
X110486098Y-98596332D01*
X110424935Y-98824599D01*
X110404341Y-99059995D01*
X110404341Y-99060004D01*
X110424935Y-99295400D01*
X110424936Y-99295407D01*
X110424937Y-99295408D01*
X110486097Y-99523663D01*
X110565472Y-99693883D01*
X110585964Y-99737828D01*
X110680961Y-99873499D01*
X110721505Y-99931401D01*
X110888599Y-100098495D01*
X111082170Y-100234035D01*
X111095552Y-100240275D01*
X111140300Y-100282003D01*
X111151975Y-100342064D01*
X111126117Y-100397517D01*
X111095554Y-100419724D01*
X111082173Y-100425963D01*
X110888603Y-100561501D01*
X110721501Y-100728603D01*
X110585963Y-100922173D01*
X110585959Y-100922181D01*
X110486098Y-101136332D01*
X110424935Y-101364599D01*
X110404341Y-101599995D01*
X110404341Y-101600004D01*
X110424935Y-101835400D01*
X110424936Y-101835407D01*
X110424937Y-101835408D01*
X110486097Y-102063663D01*
X110558582Y-102219108D01*
X110585964Y-102277828D01*
X110713521Y-102460000D01*
X110721505Y-102471401D01*
X110888599Y-102638495D01*
X111082170Y-102774035D01*
X111094960Y-102779999D01*
X111095552Y-102780275D01*
X111140300Y-102822003D01*
X111151975Y-102882064D01*
X111126117Y-102937517D01*
X111095554Y-102959724D01*
X111082173Y-102965963D01*
X110888603Y-103101501D01*
X110721501Y-103268603D01*
X110585963Y-103462173D01*
X110585959Y-103462181D01*
X110486098Y-103676332D01*
X110424935Y-103904599D01*
X110404341Y-104139995D01*
X110404341Y-104140004D01*
X110424935Y-104375400D01*
X110424936Y-104375407D01*
X110424937Y-104375408D01*
X110486097Y-104603663D01*
X110585965Y-104817830D01*
X110721505Y-105011401D01*
X110888599Y-105178495D01*
X111082170Y-105314035D01*
X111095552Y-105320275D01*
X111140300Y-105362003D01*
X111151975Y-105422064D01*
X111126117Y-105477517D01*
X111095554Y-105499724D01*
X111082173Y-105505963D01*
X110888603Y-105641501D01*
X110721501Y-105808603D01*
X110585963Y-106002173D01*
X110585959Y-106002181D01*
X110486098Y-106216332D01*
X110424935Y-106444599D01*
X110404341Y-106679995D01*
X110404341Y-106680004D01*
X110424935Y-106915400D01*
X110424936Y-106915407D01*
X110424937Y-106915408D01*
X110486097Y-107143663D01*
X110565472Y-107313883D01*
X110585964Y-107357828D01*
X110684037Y-107497892D01*
X110721505Y-107551401D01*
X110888599Y-107718495D01*
X110888602Y-107718497D01*
X110888603Y-107718498D01*
X110920047Y-107740515D01*
X111082170Y-107854035D01*
X111082171Y-107854035D01*
X111082172Y-107854036D01*
X111082174Y-107854037D01*
X111096143Y-107860551D01*
X111140892Y-107902279D01*
X111152567Y-107962340D01*
X111126710Y-108017793D01*
X111096146Y-108040000D01*
X111082424Y-108046398D01*
X110888926Y-108181886D01*
X110721886Y-108348926D01*
X110586405Y-108542413D01*
X110586398Y-108542425D01*
X110566545Y-108584999D01*
X110566545Y-108585000D01*
X112296000Y-108585000D01*
X112354191Y-108603907D01*
X112390155Y-108653407D01*
X112395000Y-108684000D01*
X112395000Y-110413453D01*
X112437575Y-110393601D01*
X112437579Y-110393599D01*
X112631073Y-110258113D01*
X112798113Y-110091073D01*
X112933599Y-109897579D01*
X112933600Y-109897577D01*
X112939996Y-109883860D01*
X112981722Y-109839109D01*
X113041783Y-109827431D01*
X113097237Y-109853286D01*
X113119447Y-109883853D01*
X113125963Y-109897827D01*
X113192461Y-109992797D01*
X113261505Y-110091401D01*
X113428599Y-110258495D01*
X113622170Y-110394035D01*
X113836337Y-110493903D01*
X114064592Y-110555063D01*
X114064596Y-110555063D01*
X114064599Y-110555064D01*
X114299996Y-110575659D01*
X114300000Y-110575659D01*
X114300004Y-110575659D01*
X114535400Y-110555064D01*
X114535401Y-110555063D01*
X114535408Y-110555063D01*
X114763663Y-110493903D01*
X114977830Y-110394035D01*
X115171401Y-110258495D01*
X115338495Y-110091401D01*
X115474035Y-109897830D01*
X115573903Y-109683663D01*
X115635063Y-109455408D01*
X115637300Y-109429844D01*
X115655659Y-109220004D01*
X115655659Y-109219995D01*
X115635064Y-108984599D01*
X115635063Y-108984596D01*
X115635063Y-108984592D01*
X115573903Y-108756337D01*
X115556959Y-108720000D01*
X115474040Y-108542181D01*
X115474036Y-108542173D01*
X115407543Y-108447211D01*
X115338495Y-108348599D01*
X115171401Y-108181505D01*
X115171397Y-108181502D01*
X115171396Y-108181501D01*
X115064007Y-108106307D01*
X114977830Y-108045965D01*
X114964447Y-108039724D01*
X114919700Y-107997997D01*
X114908025Y-107937936D01*
X114933883Y-107882483D01*
X114964448Y-107860275D01*
X114965036Y-107860001D01*
X114977830Y-107854035D01*
X115171401Y-107718495D01*
X115338495Y-107551401D01*
X115474035Y-107357830D01*
X115573903Y-107143663D01*
X115635063Y-106915408D01*
X115640374Y-106854707D01*
X115655659Y-106680004D01*
X115655659Y-106679995D01*
X115635064Y-106444599D01*
X115635063Y-106444596D01*
X115635063Y-106444592D01*
X115573903Y-106216337D01*
X115550967Y-106167151D01*
X115474040Y-106002181D01*
X115474036Y-106002173D01*
X115443693Y-105958839D01*
X115338495Y-105808599D01*
X115171401Y-105641505D01*
X115171397Y-105641502D01*
X115171396Y-105641501D01*
X115027041Y-105540423D01*
X114977830Y-105505965D01*
X114964447Y-105499724D01*
X114919700Y-105457997D01*
X114908025Y-105397936D01*
X114933883Y-105342483D01*
X114964448Y-105320275D01*
X114977830Y-105314035D01*
X115171401Y-105178495D01*
X115338495Y-105011401D01*
X115474035Y-104817830D01*
X115573903Y-104603663D01*
X115635063Y-104375408D01*
X115655659Y-104140000D01*
X115650999Y-104086739D01*
X115635064Y-103904599D01*
X115635063Y-103904596D01*
X115635063Y-103904592D01*
X115573903Y-103676337D01*
X115570000Y-103667967D01*
X115474040Y-103462181D01*
X115474036Y-103462173D01*
X115338498Y-103268603D01*
X115338497Y-103268602D01*
X115338495Y-103268599D01*
X115171401Y-103101505D01*
X115171397Y-103101502D01*
X115171396Y-103101501D01*
X114977827Y-102965963D01*
X114963853Y-102959447D01*
X114919106Y-102917718D01*
X114907432Y-102857656D01*
X114933291Y-102802204D01*
X114963860Y-102779996D01*
X114977577Y-102773600D01*
X114977579Y-102773599D01*
X115171073Y-102638113D01*
X115338113Y-102471073D01*
X115473600Y-102277577D01*
X115493454Y-102235000D01*
X113764000Y-102235000D01*
X113705809Y-102216093D01*
X113669845Y-102166593D01*
X113665000Y-102136000D01*
X113665000Y-101671889D01*
X113800000Y-101671889D01*
X113840507Y-101809844D01*
X113918239Y-101930798D01*
X114026900Y-102024952D01*
X114157685Y-102084680D01*
X114264237Y-102100000D01*
X114335763Y-102100000D01*
X114442315Y-102084680D01*
X114573100Y-102024952D01*
X114681761Y-101930798D01*
X114759493Y-101809844D01*
X114800000Y-101671889D01*
X114800000Y-101528111D01*
X114759493Y-101390156D01*
X114681761Y-101269202D01*
X114573100Y-101175048D01*
X114442315Y-101115320D01*
X114335763Y-101100000D01*
X114264237Y-101100000D01*
X114157685Y-101115320D01*
X114026900Y-101175048D01*
X113918239Y-101269202D01*
X113840507Y-101390156D01*
X113800000Y-101528111D01*
X113800000Y-101671889D01*
X113665000Y-101671889D01*
X113665000Y-101064000D01*
X113683907Y-101005809D01*
X113733407Y-100969845D01*
X113764000Y-100965000D01*
X115493455Y-100965000D01*
X115493454Y-100964999D01*
X115473601Y-100922425D01*
X115473594Y-100922413D01*
X115338113Y-100728926D01*
X115171073Y-100561886D01*
X114977577Y-100426399D01*
X114963856Y-100420001D01*
X114919108Y-100378273D01*
X114907433Y-100318212D01*
X114933291Y-100262759D01*
X114963857Y-100240551D01*
X114970053Y-100237661D01*
X114977830Y-100234035D01*
X115171401Y-100098495D01*
X115338495Y-99931401D01*
X115474035Y-99737830D01*
X115573903Y-99523663D01*
X115635063Y-99295408D01*
X115644335Y-99189432D01*
X115655659Y-99060004D01*
X115655659Y-99059995D01*
X115635064Y-98824599D01*
X115635063Y-98824596D01*
X115635063Y-98824592D01*
X115573903Y-98596337D01*
X115570000Y-98587967D01*
X115474040Y-98382181D01*
X115474036Y-98382173D01*
X115338498Y-98188603D01*
X115338497Y-98188602D01*
X115338495Y-98188599D01*
X115171401Y-98021505D01*
X115171397Y-98021502D01*
X115171396Y-98021501D01*
X114977827Y-97885963D01*
X114963853Y-97879447D01*
X114919106Y-97837718D01*
X114907432Y-97777656D01*
X114933291Y-97722204D01*
X114963860Y-97699996D01*
X114977577Y-97693600D01*
X114977579Y-97693599D01*
X115171073Y-97558113D01*
X115338113Y-97391073D01*
X115473600Y-97197577D01*
X115493454Y-97155000D01*
X113764000Y-97155000D01*
X113705809Y-97136093D01*
X113669845Y-97086593D01*
X113665000Y-97056000D01*
X113665000Y-96591889D01*
X113800000Y-96591889D01*
X113840507Y-96729844D01*
X113918239Y-96850798D01*
X114026900Y-96944952D01*
X114157685Y-97004680D01*
X114264237Y-97020000D01*
X114335763Y-97020000D01*
X114442315Y-97004680D01*
X114573100Y-96944952D01*
X114681761Y-96850798D01*
X114759493Y-96729844D01*
X114800000Y-96591889D01*
X114800000Y-96448111D01*
X114759493Y-96310156D01*
X114681761Y-96189202D01*
X114573100Y-96095048D01*
X114442315Y-96035320D01*
X114335763Y-96020000D01*
X114264237Y-96020000D01*
X114157685Y-96035320D01*
X114026900Y-96095048D01*
X113918239Y-96189202D01*
X113840507Y-96310156D01*
X113800000Y-96448111D01*
X113800000Y-96591889D01*
X113665000Y-96591889D01*
X113665000Y-95984000D01*
X113683907Y-95925809D01*
X113733407Y-95889845D01*
X113764000Y-95885000D01*
X115493455Y-95885000D01*
X115493454Y-95884999D01*
X115473601Y-95842425D01*
X115473594Y-95842413D01*
X115338113Y-95648926D01*
X115171073Y-95481886D01*
X114977577Y-95346399D01*
X114963856Y-95340001D01*
X114919108Y-95298273D01*
X114907433Y-95238212D01*
X114933291Y-95182759D01*
X114963857Y-95160551D01*
X114970053Y-95157661D01*
X114977830Y-95154035D01*
X115171401Y-95018495D01*
X115338495Y-94851401D01*
X115474035Y-94657830D01*
X115573903Y-94443663D01*
X115635063Y-94215408D01*
X115644335Y-94109432D01*
X115655659Y-93980004D01*
X115655659Y-93979995D01*
X115635064Y-93744599D01*
X115635063Y-93744596D01*
X115635063Y-93744592D01*
X115573903Y-93516337D01*
X115570000Y-93507967D01*
X115474040Y-93302181D01*
X115474036Y-93302173D01*
X115338498Y-93108603D01*
X115338497Y-93108602D01*
X115338495Y-93108599D01*
X115171401Y-92941505D01*
X115171397Y-92941502D01*
X115171396Y-92941501D01*
X115064007Y-92866307D01*
X114977830Y-92805965D01*
X114977821Y-92805961D01*
X114964448Y-92799725D01*
X114919700Y-92757997D01*
X114908025Y-92697936D01*
X114933883Y-92642483D01*
X114964448Y-92620275D01*
X114965040Y-92619999D01*
X114977830Y-92614035D01*
X115171401Y-92478495D01*
X115338495Y-92311401D01*
X115474035Y-92117830D01*
X115573903Y-91903663D01*
X115635063Y-91675408D01*
X115644335Y-91569432D01*
X115655659Y-91440004D01*
X115655659Y-91439995D01*
X115635064Y-91204599D01*
X115635063Y-91204596D01*
X115635063Y-91204592D01*
X115573903Y-90976337D01*
X115556959Y-90940000D01*
X115474040Y-90762181D01*
X115474036Y-90762173D01*
X115338498Y-90568603D01*
X115338497Y-90568602D01*
X115338495Y-90568599D01*
X115171401Y-90401505D01*
X115171397Y-90401502D01*
X115171396Y-90401501D01*
X115005226Y-90285148D01*
X114977830Y-90265965D01*
X114964447Y-90259724D01*
X114919700Y-90217997D01*
X114908025Y-90157936D01*
X114933883Y-90102483D01*
X114964448Y-90080275D01*
X114977830Y-90074035D01*
X115171401Y-89938495D01*
X115338495Y-89771401D01*
X115474035Y-89577830D01*
X115573903Y-89363663D01*
X115635063Y-89135408D01*
X115644297Y-89029864D01*
X115655659Y-88900004D01*
X115655659Y-88899995D01*
X115635064Y-88664599D01*
X115635063Y-88664596D01*
X115635063Y-88664592D01*
X115573903Y-88436337D01*
X115570000Y-88427967D01*
X115474040Y-88222181D01*
X115474036Y-88222173D01*
X115338498Y-88028603D01*
X115338497Y-88028602D01*
X115338495Y-88028599D01*
X115171401Y-87861505D01*
X115171397Y-87861502D01*
X115171396Y-87861501D01*
X115064007Y-87786307D01*
X114977830Y-87725965D01*
X114964447Y-87719724D01*
X114919700Y-87677997D01*
X114908025Y-87617936D01*
X114933883Y-87562483D01*
X114964448Y-87540275D01*
X114977830Y-87534035D01*
X115171401Y-87398495D01*
X115338495Y-87231401D01*
X115474035Y-87037830D01*
X115573903Y-86823663D01*
X115635063Y-86595408D01*
X115644335Y-86489432D01*
X115655659Y-86360004D01*
X115655659Y-86359995D01*
X115635064Y-86124599D01*
X115635063Y-86124596D01*
X115635063Y-86124592D01*
X115573903Y-85896337D01*
X115570000Y-85887967D01*
X115474040Y-85682181D01*
X115474036Y-85682173D01*
X115338498Y-85488603D01*
X115338497Y-85488602D01*
X115338495Y-85488599D01*
X115171401Y-85321505D01*
X115171397Y-85321502D01*
X115171396Y-85321501D01*
X114977827Y-85185963D01*
X114963853Y-85179447D01*
X114919106Y-85137718D01*
X114907432Y-85077656D01*
X114933291Y-85022204D01*
X114963860Y-84999996D01*
X114977577Y-84993600D01*
X114977579Y-84993599D01*
X115171073Y-84858113D01*
X115338113Y-84691073D01*
X115473600Y-84497577D01*
X115493454Y-84455000D01*
X113764000Y-84455000D01*
X113705809Y-84436093D01*
X113669845Y-84386593D01*
X113665000Y-84356000D01*
X113665000Y-83891889D01*
X113800000Y-83891889D01*
X113840507Y-84029844D01*
X113918239Y-84150798D01*
X114026900Y-84244952D01*
X114157685Y-84304680D01*
X114264237Y-84320000D01*
X114335763Y-84320000D01*
X114442315Y-84304680D01*
X114573100Y-84244952D01*
X114681761Y-84150798D01*
X114759493Y-84029844D01*
X114800000Y-83891889D01*
X114800000Y-83748111D01*
X114759493Y-83610156D01*
X114681761Y-83489202D01*
X114573100Y-83395048D01*
X114442315Y-83335320D01*
X114335763Y-83320000D01*
X114264237Y-83320000D01*
X114157685Y-83335320D01*
X114026900Y-83395048D01*
X113918239Y-83489202D01*
X113840507Y-83610156D01*
X113800000Y-83748111D01*
X113800000Y-83891889D01*
X113665000Y-83891889D01*
X113665000Y-83284000D01*
X113683907Y-83225809D01*
X113733407Y-83189845D01*
X113764000Y-83185000D01*
X115493455Y-83185000D01*
X115493454Y-83184999D01*
X115473601Y-83142425D01*
X115473594Y-83142413D01*
X115338113Y-82948926D01*
X115171073Y-82781886D01*
X114977577Y-82646399D01*
X114963856Y-82640001D01*
X114919108Y-82598273D01*
X114907433Y-82538212D01*
X114933291Y-82482759D01*
X114963857Y-82460551D01*
X114970053Y-82457661D01*
X114977830Y-82454035D01*
X115171401Y-82318495D01*
X115338495Y-82151401D01*
X115474035Y-81957830D01*
X115573903Y-81743663D01*
X115635063Y-81515408D01*
X115655659Y-81280000D01*
X115635063Y-81044592D01*
X115573903Y-80816337D01*
X115563559Y-80794154D01*
X115474040Y-80602181D01*
X115474036Y-80602173D01*
X115451480Y-80569960D01*
X115338495Y-80408599D01*
X115171401Y-80241505D01*
X115171397Y-80241502D01*
X115171396Y-80241501D01*
X115064007Y-80166307D01*
X114977830Y-80105965D01*
X114964447Y-80099724D01*
X114919700Y-80057997D01*
X114908025Y-79997936D01*
X114933883Y-79942483D01*
X114964448Y-79920275D01*
X114965036Y-79920001D01*
X114977830Y-79914035D01*
X115171401Y-79778495D01*
X115338495Y-79611401D01*
X115474035Y-79417830D01*
X115573903Y-79203663D01*
X115635063Y-78975408D01*
X115640374Y-78914707D01*
X115655659Y-78740004D01*
X115655659Y-78739995D01*
X115635064Y-78504599D01*
X115635063Y-78504596D01*
X115635063Y-78504592D01*
X115573903Y-78276337D01*
X115550967Y-78227151D01*
X115474040Y-78062181D01*
X115474036Y-78062173D01*
X115443693Y-78018839D01*
X115338495Y-77868599D01*
X115171401Y-77701505D01*
X115171397Y-77701502D01*
X115171396Y-77701501D01*
X114977827Y-77565963D01*
X114963853Y-77559447D01*
X114919106Y-77517718D01*
X114907432Y-77457656D01*
X114933291Y-77402204D01*
X114963860Y-77379996D01*
X114977577Y-77373600D01*
X114977579Y-77373599D01*
X115171073Y-77238113D01*
X115338113Y-77071073D01*
X115473600Y-76877577D01*
X115493454Y-76835000D01*
X113764000Y-76835000D01*
X113705809Y-76816093D01*
X113669845Y-76766593D01*
X113665000Y-76736000D01*
X113665000Y-76271889D01*
X113800000Y-76271889D01*
X113840507Y-76409844D01*
X113918239Y-76530798D01*
X114026900Y-76624952D01*
X114157685Y-76684680D01*
X114264237Y-76700000D01*
X114335763Y-76700000D01*
X114442315Y-76684680D01*
X114573100Y-76624952D01*
X114681761Y-76530798D01*
X114759493Y-76409844D01*
X114800000Y-76271889D01*
X114800000Y-76128111D01*
X114759493Y-75990156D01*
X114681761Y-75869202D01*
X114573100Y-75775048D01*
X114442315Y-75715320D01*
X114335763Y-75700000D01*
X114264237Y-75700000D01*
X114157685Y-75715320D01*
X114026900Y-75775048D01*
X113918239Y-75869202D01*
X113840507Y-75990156D01*
X113800000Y-76128111D01*
X113800000Y-76271889D01*
X113665000Y-76271889D01*
X113665000Y-75664000D01*
X113683907Y-75605809D01*
X113733407Y-75569845D01*
X113764000Y-75565000D01*
X115493455Y-75565000D01*
X115493454Y-75564999D01*
X115473601Y-75522425D01*
X115473594Y-75522413D01*
X115338113Y-75328926D01*
X115171073Y-75161886D01*
X114977577Y-75026399D01*
X114963856Y-75020001D01*
X114919108Y-74978273D01*
X114907433Y-74918212D01*
X114933291Y-74862759D01*
X114963857Y-74840551D01*
X114970053Y-74837661D01*
X114977830Y-74834035D01*
X115171401Y-74698495D01*
X115338495Y-74531401D01*
X115474035Y-74337830D01*
X115573903Y-74123663D01*
X115635063Y-73895408D01*
X115655659Y-73660000D01*
X115635063Y-73424592D01*
X115573903Y-73196337D01*
X115570000Y-73187967D01*
X115474040Y-72982181D01*
X115474036Y-72982173D01*
X115338498Y-72788603D01*
X115338497Y-72788602D01*
X115338495Y-72788599D01*
X115171401Y-72621505D01*
X115171397Y-72621502D01*
X115171396Y-72621501D01*
X115064007Y-72546307D01*
X114977830Y-72485965D01*
X114977821Y-72485961D01*
X114965036Y-72479999D01*
X114964447Y-72479724D01*
X114919700Y-72437997D01*
X114908025Y-72377936D01*
X114933883Y-72322483D01*
X114964448Y-72300275D01*
X114965040Y-72299999D01*
X114977830Y-72294035D01*
X115171401Y-72158495D01*
X115338495Y-71991401D01*
X115474035Y-71797830D01*
X115573903Y-71583663D01*
X115635063Y-71355408D01*
X115637300Y-71329844D01*
X115655659Y-71120004D01*
X115655659Y-71119995D01*
X115635064Y-70884599D01*
X115635063Y-70884596D01*
X115635063Y-70884592D01*
X115573903Y-70656337D01*
X115556959Y-70620000D01*
X115474040Y-70442181D01*
X115474036Y-70442173D01*
X115407543Y-70347211D01*
X115338495Y-70248599D01*
X115171401Y-70081505D01*
X115171397Y-70081502D01*
X115171396Y-70081501D01*
X115064007Y-70006307D01*
X114977830Y-69945965D01*
X114964447Y-69939724D01*
X114919700Y-69897997D01*
X114908025Y-69837936D01*
X114933883Y-69782483D01*
X114964448Y-69760275D01*
X114965036Y-69760001D01*
X114977830Y-69754035D01*
X115171401Y-69618495D01*
X115338495Y-69451401D01*
X115474035Y-69257830D01*
X115573903Y-69043663D01*
X115635063Y-68815408D01*
X115640374Y-68754707D01*
X115655659Y-68580004D01*
X115655659Y-68579995D01*
X115635064Y-68344599D01*
X115635063Y-68344596D01*
X115635063Y-68344592D01*
X115573903Y-68116337D01*
X115543895Y-68051985D01*
X115474040Y-67902181D01*
X115474036Y-67902173D01*
X115443693Y-67858839D01*
X115338495Y-67708599D01*
X115171401Y-67541505D01*
X115171397Y-67541502D01*
X115171396Y-67541501D01*
X114977827Y-67405963D01*
X114963853Y-67399447D01*
X114919106Y-67357718D01*
X114907432Y-67297656D01*
X114933291Y-67242204D01*
X114963860Y-67219996D01*
X114977577Y-67213600D01*
X114977579Y-67213599D01*
X115171073Y-67078113D01*
X115338113Y-66911073D01*
X115473600Y-66717577D01*
X115493454Y-66675000D01*
X113764000Y-66675000D01*
X113705809Y-66656093D01*
X113669845Y-66606593D01*
X113665000Y-66576000D01*
X113665000Y-66111889D01*
X113800000Y-66111889D01*
X113840507Y-66249844D01*
X113918239Y-66370798D01*
X114026900Y-66464952D01*
X114157685Y-66524680D01*
X114264237Y-66540000D01*
X114335763Y-66540000D01*
X114442315Y-66524680D01*
X114573100Y-66464952D01*
X114681761Y-66370798D01*
X114759493Y-66249844D01*
X114800000Y-66111889D01*
X114800000Y-65968111D01*
X114759493Y-65830156D01*
X114681761Y-65709202D01*
X114573100Y-65615048D01*
X114442315Y-65555320D01*
X114335763Y-65540000D01*
X114264237Y-65540000D01*
X114157685Y-65555320D01*
X114026900Y-65615048D01*
X113918239Y-65709202D01*
X113840507Y-65830156D01*
X113800000Y-65968111D01*
X113800000Y-66111889D01*
X113665000Y-66111889D01*
X113665000Y-65504000D01*
X113683907Y-65445809D01*
X113733407Y-65409845D01*
X113764000Y-65405000D01*
X115493455Y-65405000D01*
X115493454Y-65404999D01*
X115473601Y-65362425D01*
X115473594Y-65362413D01*
X115338113Y-65168926D01*
X115171073Y-65001886D01*
X114977577Y-64866399D01*
X114963856Y-64860001D01*
X114919108Y-64818273D01*
X114907433Y-64758212D01*
X114933291Y-64702759D01*
X114963857Y-64680551D01*
X114970053Y-64677661D01*
X114977830Y-64674035D01*
X115171401Y-64538495D01*
X115338495Y-64371401D01*
X115474035Y-64177830D01*
X115573903Y-63963663D01*
X115635063Y-63735408D01*
X115635064Y-63735400D01*
X115655659Y-63500004D01*
X115655659Y-63499995D01*
X115635064Y-63264599D01*
X115635063Y-63264596D01*
X115635063Y-63264592D01*
X115573903Y-63036337D01*
X115512659Y-62905000D01*
X115474040Y-62822181D01*
X115474036Y-62822173D01*
X115338498Y-62628603D01*
X115338497Y-62628602D01*
X115338495Y-62628599D01*
X115171401Y-62461505D01*
X115171397Y-62461502D01*
X115171396Y-62461501D01*
X115025146Y-62359096D01*
X114977830Y-62325965D01*
X114964447Y-62319724D01*
X114919700Y-62277997D01*
X114908025Y-62217936D01*
X114933883Y-62162483D01*
X114964448Y-62140275D01*
X114977830Y-62134035D01*
X115171401Y-61998495D01*
X115338495Y-61831401D01*
X115474035Y-61637830D01*
X115573903Y-61423663D01*
X115635063Y-61195408D01*
X115655659Y-60960000D01*
X115635063Y-60724592D01*
X115573903Y-60496337D01*
X115474035Y-60282171D01*
X115349164Y-60103836D01*
X115338498Y-60088603D01*
X115338497Y-60088602D01*
X115338495Y-60088599D01*
X115171401Y-59921505D01*
X115171397Y-59921502D01*
X115171396Y-59921501D01*
X115064007Y-59846307D01*
X114977830Y-59785965D01*
X114763663Y-59686097D01*
X114535408Y-59624937D01*
X114535407Y-59624936D01*
X114535400Y-59624935D01*
X114300004Y-59604341D01*
X114299996Y-59604341D01*
X114064599Y-59624935D01*
X113836332Y-59686098D01*
X113622181Y-59785959D01*
X113622173Y-59785963D01*
X113428602Y-59921502D01*
X113428598Y-59921505D01*
X113274044Y-60076059D01*
X113219528Y-60103836D01*
X113159096Y-60094265D01*
X113115831Y-60051000D01*
X113105608Y-60016633D01*
X113104091Y-60002522D01*
X113104091Y-60002517D01*
X113073876Y-59921505D01*
X113053797Y-59867670D01*
X112967549Y-59752458D01*
X112967548Y-59752457D01*
X112967546Y-59752454D01*
X112967541Y-59752450D01*
X112852329Y-59666202D01*
X112717488Y-59615910D01*
X112717483Y-59615909D01*
X112717481Y-59615908D01*
X112717477Y-59615908D01*
X112686249Y-59612550D01*
X112657873Y-59609500D01*
X112657870Y-59609500D01*
X110862133Y-59609500D01*
X110862129Y-59609500D01*
X110862128Y-59609501D01*
X110854949Y-59610272D01*
X110802519Y-59615908D01*
X110802514Y-59615909D01*
X110667670Y-59666202D01*
X110552458Y-59752450D01*
X110552450Y-59752458D01*
X110466202Y-59867670D01*
X110415910Y-60002511D01*
X110415908Y-60002522D01*
X110409500Y-60062129D01*
X110409500Y-61857866D01*
X110409501Y-61857870D01*
X110415908Y-61917480D01*
X110415909Y-61917485D01*
X110466202Y-62052329D01*
X110532039Y-62140275D01*
X110552454Y-62167546D01*
X110552457Y-62167548D01*
X110552458Y-62167549D01*
X110667670Y-62253797D01*
X110802511Y-62304089D01*
X110802512Y-62304089D01*
X110802517Y-62304091D01*
X110816637Y-62305609D01*
X110872473Y-62330629D01*
X110902939Y-62383689D01*
X110896399Y-62444524D01*
X110876058Y-62474045D01*
X110721505Y-62628598D01*
X110721502Y-62628602D01*
X110585963Y-62822173D01*
X110585959Y-62822181D01*
X110486098Y-63036332D01*
X110424935Y-63264599D01*
X110404341Y-63499995D01*
X110404341Y-63500004D01*
X110424935Y-63735400D01*
X110424936Y-63735407D01*
X110424937Y-63735408D01*
X110486097Y-63963663D01*
X110585965Y-64177830D01*
X110721505Y-64371401D01*
X110888599Y-64538495D01*
X111082170Y-64674035D01*
X111095552Y-64680275D01*
X111140300Y-64722003D01*
X111151975Y-64782064D01*
X111126117Y-64837517D01*
X111095554Y-64859724D01*
X111082173Y-64865963D01*
X110888603Y-65001501D01*
X110721501Y-65168603D01*
X110585963Y-65362173D01*
X110585959Y-65362181D01*
X110486098Y-65576332D01*
X110424935Y-65804599D01*
X110404341Y-66039995D01*
X110404341Y-66040004D01*
X110424935Y-66275400D01*
X110486098Y-66503667D01*
X110521951Y-66580553D01*
X110529408Y-66641282D01*
X110499745Y-66694796D01*
X110444292Y-66720654D01*
X110432227Y-66721392D01*
X106120717Y-66721392D01*
X106114249Y-66720968D01*
X106078109Y-66716210D01*
X106078107Y-66716210D01*
X105921349Y-66736847D01*
X105921341Y-66736849D01*
X105775269Y-66797354D01*
X105775268Y-66797354D01*
X105649831Y-66893605D01*
X105649825Y-66893611D01*
X105627633Y-66922530D01*
X105623361Y-66927402D01*
X105449948Y-67100815D01*
X105403637Y-67126934D01*
X105349776Y-67140209D01*
X105199146Y-67219267D01*
X105071818Y-67332069D01*
X105071817Y-67332071D01*
X104975182Y-67472070D01*
X104914860Y-67631128D01*
X104894355Y-67800000D01*
X100414192Y-67800000D01*
X100390864Y-67762113D01*
X100390862Y-67762109D01*
X100236731Y-67586982D01*
X100055220Y-67440422D01*
X100055213Y-67440418D01*
X99979450Y-67398094D01*
X99937870Y-67353208D01*
X99930614Y-67292455D01*
X99960454Y-67239039D01*
X99972281Y-67229654D01*
X100149088Y-67110153D01*
X100317516Y-66948728D01*
X100456240Y-66761161D01*
X100561270Y-66552847D01*
X100629583Y-66329780D01*
X100659216Y-66098376D01*
X100649314Y-65865293D01*
X100600164Y-65637235D01*
X100513179Y-65420765D01*
X100506455Y-65409845D01*
X100390864Y-65222113D01*
X100390862Y-65222109D01*
X100236731Y-65046982D01*
X100055220Y-64900422D01*
X99993539Y-64865965D01*
X99978961Y-64857821D01*
X99937381Y-64812935D01*
X99930126Y-64752181D01*
X99959966Y-64698766D01*
X99971807Y-64689370D01*
X100148772Y-64569763D01*
X100317137Y-64408398D01*
X100317139Y-64408396D01*
X100455810Y-64220900D01*
X100455812Y-64220897D01*
X100499121Y-64135000D01*
X97617115Y-64135000D01*
X97729535Y-64317582D01*
X97729544Y-64317594D01*
X97883618Y-64492657D01*
X98065060Y-64639160D01*
X98065067Y-64639165D01*
X98141013Y-64681591D01*
X98182593Y-64726476D01*
X98189849Y-64787230D01*
X98160009Y-64840646D01*
X98148169Y-64850041D01*
X97970910Y-64969848D01*
X97802485Y-65131270D01*
X97802484Y-65131272D01*
X97663762Y-65318836D01*
X97663760Y-65318839D01*
X97558731Y-65527151D01*
X97490416Y-65750222D01*
X97490416Y-65750223D01*
X97460784Y-65981620D01*
X97460784Y-65981624D01*
X97470686Y-66214709D01*
X97519835Y-66442764D01*
X97519836Y-66442765D01*
X97606821Y-66659235D01*
X97606821Y-66659236D01*
X97669579Y-66761161D01*
X97729138Y-66857891D01*
X97883269Y-67033018D01*
X98064780Y-67179578D01*
X98140549Y-67221905D01*
X98182129Y-67266790D01*
X98189385Y-67327544D01*
X98159545Y-67380960D01*
X98147705Y-67390355D01*
X97970910Y-67509848D01*
X97802485Y-67671270D01*
X97802484Y-67671272D01*
X97707279Y-67799998D01*
X97663760Y-67858839D01*
X97558730Y-68067153D01*
X97525018Y-68177234D01*
X97490416Y-68290222D01*
X97490416Y-68290223D01*
X97460784Y-68521620D01*
X97460784Y-68521624D01*
X91440500Y-68521624D01*
X91440500Y-63500000D01*
X98459866Y-63500000D01*
X98480315Y-63655326D01*
X98540269Y-63800067D01*
X98635641Y-63924359D01*
X98759933Y-64019731D01*
X98904674Y-64079685D01*
X99021003Y-64095000D01*
X99098997Y-64095000D01*
X99215326Y-64079685D01*
X99360067Y-64019731D01*
X99484359Y-63924359D01*
X99579731Y-63800067D01*
X99639685Y-63655326D01*
X99660134Y-63500000D01*
X99639685Y-63344674D01*
X99579731Y-63199933D01*
X99484359Y-63075641D01*
X99360067Y-62980269D01*
X99215326Y-62920315D01*
X99098997Y-62905000D01*
X99021003Y-62905000D01*
X98904674Y-62920315D01*
X98759933Y-62980269D01*
X98635641Y-63075641D01*
X98540269Y-63199933D01*
X98480315Y-63344674D01*
X98459866Y-63500000D01*
X91440500Y-63500000D01*
X91440500Y-62865000D01*
X97620879Y-62865000D01*
X98424999Y-62865000D01*
X98425000Y-62864999D01*
X98425000Y-62191863D01*
X99695000Y-62191863D01*
X99695000Y-62864999D01*
X99695001Y-62865000D01*
X100502885Y-62865000D01*
X100502885Y-62864999D01*
X100390464Y-62682417D01*
X100390455Y-62682405D01*
X100236381Y-62507342D01*
X100054939Y-62360839D01*
X100054932Y-62360834D01*
X99851348Y-62247106D01*
X99851338Y-62247101D01*
X99695000Y-62191863D01*
X98425000Y-62191863D01*
X98425000Y-62191075D01*
X98424999Y-62191075D01*
X98376950Y-62203586D01*
X98164446Y-62299645D01*
X98164442Y-62299647D01*
X97971227Y-62430236D01*
X97802862Y-62591601D01*
X97802860Y-62591603D01*
X97664189Y-62779099D01*
X97664187Y-62779102D01*
X97620879Y-62865000D01*
X91440500Y-62865000D01*
X91440500Y-57249500D01*
X91459407Y-57191309D01*
X91508907Y-57155345D01*
X91539500Y-57150500D01*
X118010500Y-57150500D01*
X118068691Y-57169407D01*
G37*
%TD.AperFunction*%
%TD*%
M02*
