%TF.GenerationSoftware,KiCad,Pcbnew,7.0.9*%
%TF.CreationDate,2025-02-27T14:06:20+00:00*%
%TF.ProjectId,Pi Hat,50692048-6174-42e6-9b69-6361645f7063,rev?*%
%TF.SameCoordinates,Original*%
%TF.FileFunction,Copper,L2,Bot*%
%TF.FilePolarity,Positive*%
%FSLAX46Y46*%
G04 Gerber Fmt 4.6, Leading zero omitted, Abs format (unit mm)*
G04 Created by KiCad (PCBNEW 7.0.9) date 2025-02-27 14:06:20*
%MOMM*%
%LPD*%
G01*
G04 APERTURE LIST*
G04 Aperture macros list*
%AMRoundRect*
0 Rectangle with rounded corners*
0 $1 Rounding radius*
0 $2 $3 $4 $5 $6 $7 $8 $9 X,Y pos of 4 corners*
0 Add a 4 corners polygon primitive as box body*
4,1,4,$2,$3,$4,$5,$6,$7,$8,$9,$2,$3,0*
0 Add four circle primitives for the rounded corners*
1,1,$1+$1,$2,$3*
1,1,$1+$1,$4,$5*
1,1,$1+$1,$6,$7*
1,1,$1+$1,$8,$9*
0 Add four rect primitives between the rounded corners*
20,1,$1+$1,$2,$3,$4,$5,0*
20,1,$1+$1,$4,$5,$6,$7,0*
20,1,$1+$1,$6,$7,$8,$9,0*
20,1,$1+$1,$8,$9,$2,$3,0*%
G04 Aperture macros list end*
%TA.AperFunction,ComponentPad*%
%ADD10RoundRect,0.250000X0.620000X0.845000X-0.620000X0.845000X-0.620000X-0.845000X0.620000X-0.845000X0*%
%TD*%
%TA.AperFunction,ComponentPad*%
%ADD11O,1.740000X2.190000*%
%TD*%
%TA.AperFunction,ComponentPad*%
%ADD12R,1.600000X1.600000*%
%TD*%
%TA.AperFunction,ComponentPad*%
%ADD13O,1.600000X1.600000*%
%TD*%
%TA.AperFunction,ComponentPad*%
%ADD14R,1.700000X1.700000*%
%TD*%
%TA.AperFunction,ComponentPad*%
%ADD15O,1.700000X1.700000*%
%TD*%
%TA.AperFunction,ViaPad*%
%ADD16C,1.250000*%
%TD*%
%TA.AperFunction,ViaPad*%
%ADD17C,0.600000*%
%TD*%
%TA.AperFunction,ViaPad*%
%ADD18C,1.000000*%
%TD*%
%TA.AperFunction,Conductor*%
%ADD19C,0.300000*%
%TD*%
%TA.AperFunction,Conductor*%
%ADD20C,1.000000*%
%TD*%
G04 APERTURE END LIST*
D10*
%TO.P,J5,1,Pin_1*%
%TO.N,+5V*%
X177800000Y-96520000D03*
D11*
%TO.P,J5,2,Pin_2*%
%TO.N,/PWM_0*%
X175260000Y-96520000D03*
%TO.P,J5,3,Pin_3*%
%TO.N,GND*%
X172720000Y-96520000D03*
%TD*%
D12*
%TO.P,IC1,1,CH0*%
%TO.N,/ForceVoltage*%
X198120000Y-81280000D03*
D13*
%TO.P,IC1,2,CH1*%
%TO.N,unconnected-(IC1-CH1-Pad2)*%
X198120000Y-78740000D03*
%TO.P,IC1,3,CH2*%
%TO.N,unconnected-(IC1-CH2-Pad3)*%
X198120000Y-76200000D03*
%TO.P,IC1,4,CH3*%
%TO.N,unconnected-(IC1-CH3-Pad4)*%
X198120000Y-73660000D03*
%TO.P,IC1,5,CH4*%
%TO.N,unconnected-(IC1-CH4-Pad5)*%
X198120000Y-71120000D03*
%TO.P,IC1,6,CH5*%
%TO.N,unconnected-(IC1-CH5-Pad6)*%
X198120000Y-68580000D03*
%TO.P,IC1,7,CH6*%
%TO.N,unconnected-(IC1-CH6-Pad7)*%
X198120000Y-66040000D03*
%TO.P,IC1,8,CH7*%
%TO.N,unconnected-(IC1-CH7-Pad8)*%
X198120000Y-63500000D03*
%TO.P,IC1,9,DGND*%
%TO.N,GND*%
X190500000Y-63500000D03*
%TO.P,IC1,10,~{CS}/SHDN*%
%TO.N,/CS*%
X190500000Y-66040000D03*
%TO.P,IC1,11,DIN*%
%TO.N,/MOSI*%
X190500000Y-68580000D03*
%TO.P,IC1,12,DOUT*%
%TO.N,/MISO*%
X190500000Y-71120000D03*
%TO.P,IC1,13,CLK*%
%TO.N,/SCLK*%
X190500000Y-73660000D03*
%TO.P,IC1,14,AGND*%
%TO.N,GND*%
X190500000Y-76200000D03*
%TO.P,IC1,15,VREF*%
%TO.N,+3.3V*%
X190500000Y-78740000D03*
%TO.P,IC1,16,VDD*%
X190500000Y-81280000D03*
%TD*%
D10*
%TO.P,J1,1,Pin_1*%
%TO.N,+5V*%
X167640000Y-96520000D03*
D11*
%TO.P,J1,2,Pin_2*%
%TO.N,/Trigger_5VTTL*%
X165100000Y-96520000D03*
%TO.P,J1,3,Pin_3*%
%TO.N,/Echo_5VTTL*%
X162560000Y-96520000D03*
%TO.P,J1,4,Pin_4*%
%TO.N,GND*%
X160020000Y-96520000D03*
%TD*%
D10*
%TO.P,J3,1,Pin_1*%
%TO.N,+3.3V*%
X187960000Y-96520000D03*
D11*
%TO.P,J3,2,Pin_2*%
%TO.N,/Data_3.3VTTL*%
X185420000Y-96520000D03*
%TO.P,J3,3,Pin_3*%
%TO.N,GND*%
X182880000Y-96520000D03*
%TD*%
D10*
%TO.P,J4,1,Pin_1*%
%TO.N,/ForceVoltage*%
X195580000Y-96520000D03*
D11*
%TO.P,J4,2,Pin_2*%
%TO.N,+3.3V*%
X193040000Y-96520000D03*
%TD*%
D14*
%TO.P,J2,1,Pin_1*%
%TO.N,+5V*%
X154900000Y-51290000D03*
D15*
%TO.P,J2,2,Pin_2*%
%TO.N,+3.3V*%
X154900000Y-48750000D03*
%TO.P,J2,3,Pin_3*%
%TO.N,unconnected-(J2-Pin_3-Pad3)*%
X157440000Y-51290000D03*
%TO.P,J2,4,Pin_4*%
%TO.N,+3.3V*%
X157440000Y-48750000D03*
%TO.P,J2,5,Pin_5*%
%TO.N,unconnected-(J2-Pin_5-Pad5)*%
X159980000Y-51290000D03*
%TO.P,J2,6,Pin_6*%
%TO.N,GND*%
X159980000Y-48750000D03*
%TO.P,J2,7,Pin_7*%
%TO.N,unconnected-(J2-Pin_7-Pad7)*%
X162520000Y-51290000D03*
%TO.P,J2,8,Pin_8*%
%TO.N,/ConverterDir*%
X162520000Y-48750000D03*
%TO.P,J2,9,Pin_9*%
%TO.N,GND*%
X165060000Y-51290000D03*
%TO.P,J2,10,Pin_10*%
%TO.N,unconnected-(J2-Pin_10-Pad10)*%
X165060000Y-48750000D03*
%TO.P,J2,11,Pin_11*%
%TO.N,/Trigger_3.3VTTL*%
X167600000Y-51290000D03*
%TO.P,J2,12,Pin_12*%
%TO.N,/PWM_0*%
X167600000Y-48750000D03*
%TO.P,J2,13,Pin_13*%
%TO.N,/Echo_3.3VTTL*%
X170140000Y-51290000D03*
%TO.P,J2,14,Pin_14*%
%TO.N,GND*%
X170140000Y-48750000D03*
%TO.P,J2,15,Pin_15*%
%TO.N,/Data_3.3VTTL*%
X172680000Y-51290000D03*
%TO.P,J2,16,Pin_16*%
%TO.N,unconnected-(J2-Pin_16-Pad16)*%
X172680000Y-48750000D03*
%TO.P,J2,17,Pin_17*%
%TO.N,+5V*%
X175220000Y-51290000D03*
%TO.P,J2,18,Pin_18*%
%TO.N,unconnected-(J2-Pin_18-Pad18)*%
X175220000Y-48750000D03*
%TO.P,J2,19,Pin_19*%
%TO.N,/MOSI*%
X177760000Y-51290000D03*
%TO.P,J2,20,Pin_20*%
%TO.N,GND*%
X177760000Y-48750000D03*
%TO.P,J2,21,Pin_21*%
%TO.N,/MISO*%
X180300000Y-51290000D03*
%TO.P,J2,22,Pin_22*%
%TO.N,unconnected-(J2-Pin_22-Pad22)*%
X180300000Y-48750000D03*
%TO.P,J2,23,Pin_23*%
%TO.N,/SCLK*%
X182840000Y-51290000D03*
%TO.P,J2,24,Pin_24*%
%TO.N,unconnected-(J2-Pin_24-Pad24)*%
X182840000Y-48750000D03*
%TO.P,J2,25,Pin_25*%
%TO.N,GND*%
X185380000Y-51290000D03*
%TO.P,J2,26,Pin_26*%
%TO.N,unconnected-(J2-Pin_26-Pad26)*%
X185380000Y-48750000D03*
%TO.P,J2,27,Pin_27*%
%TO.N,unconnected-(J2-Pin_27-Pad27)*%
X187920000Y-51290000D03*
%TO.P,J2,28,Pin_28*%
%TO.N,unconnected-(J2-Pin_28-Pad28)*%
X187920000Y-48750000D03*
%TO.P,J2,29,Pin_29*%
%TO.N,/CS*%
X190460000Y-51290000D03*
%TO.P,J2,30,Pin_30*%
%TO.N,GND*%
X190460000Y-48750000D03*
%TO.P,J2,31,Pin_31*%
%TO.N,unconnected-(J2-Pin_31-Pad31)*%
X193000000Y-51290000D03*
%TO.P,J2,32,Pin_32*%
%TO.N,unconnected-(J2-Pin_32-Pad32)*%
X193000000Y-48750000D03*
%TO.P,J2,33,Pin_33*%
%TO.N,unconnected-(J2-Pin_33-Pad33)*%
X195540000Y-51290000D03*
%TO.P,J2,34,Pin_34*%
%TO.N,GND*%
X195540000Y-48750000D03*
%TO.P,J2,35,Pin_35*%
%TO.N,unconnected-(J2-Pin_35-Pad35)*%
X198080000Y-51290000D03*
%TO.P,J2,36,Pin_36*%
%TO.N,unconnected-(J2-Pin_36-Pad36)*%
X198080000Y-48750000D03*
%TO.P,J2,37,Pin_37*%
%TO.N,unconnected-(J2-Pin_37-Pad37)*%
X200620000Y-51290000D03*
%TO.P,J2,38,Pin_38*%
%TO.N,unconnected-(J2-Pin_38-Pad38)*%
X200620000Y-48750000D03*
%TO.P,J2,39,Pin_39*%
%TO.N,GND*%
X203160000Y-51290000D03*
%TO.P,J2,40,Pin_40*%
%TO.N,unconnected-(J2-Pin_40-Pad40)*%
X203160000Y-48750000D03*
%TD*%
D16*
%TO.N,+5V*%
X161290000Y-55880000D03*
%TO.N,+3.3V*%
X168910000Y-81280000D03*
X177800000Y-81280000D03*
D17*
%TO.N,GND*%
X163933259Y-80666293D03*
%TO.N,/Echo_3.3VTTL*%
X164133791Y-78740000D03*
X167005000Y-78740000D03*
D18*
%TO.N,/MOSI*%
X185420000Y-68580000D03*
%TO.N,/SCLK*%
X182880000Y-58420000D03*
%TD*%
D19*
%TO.N,/Echo_3.3VTTL*%
X167005000Y-78740000D02*
X164133791Y-78740000D01*
D20*
%TO.N,+5V*%
X170630000Y-55880000D02*
X161290000Y-55880000D01*
X175220000Y-51290000D02*
X170630000Y-55880000D01*
%TO.N,+3.3V*%
X157440000Y-48750000D02*
X154900000Y-48750000D01*
X167640000Y-71120000D02*
X177800000Y-81280000D01*
X154900000Y-48750000D02*
X153697919Y-48750000D01*
X167640000Y-71120000D02*
X168910000Y-72390000D01*
X153697919Y-48750000D02*
X152400000Y-50047919D01*
X168910000Y-72390000D02*
X168910000Y-81280000D01*
X152400000Y-50047919D02*
X152400000Y-55880000D01*
X152400000Y-55880000D02*
X167640000Y-71120000D01*
%TO.N,/MOSI*%
X185420000Y-68580000D02*
X190500000Y-68580000D01*
%TO.N,/SCLK*%
X182880000Y-58420000D02*
X182880000Y-71120000D01*
X182880000Y-71120000D02*
X185420000Y-73660000D01*
X185420000Y-73660000D02*
X190500000Y-73660000D01*
%TD*%
%TA.AperFunction,Conductor*%
%TO.N,GND*%
G36*
X208217318Y-45009488D02*
G01*
X208416440Y-45018182D01*
X208420367Y-45018512D01*
X208636792Y-45045489D01*
X208835256Y-45071618D01*
X208837736Y-45071945D01*
X208841433Y-45072574D01*
X209054183Y-45117183D01*
X209252994Y-45161259D01*
X209256335Y-45162125D01*
X209464544Y-45224112D01*
X209545573Y-45249661D01*
X209659043Y-45285439D01*
X209662152Y-45286534D01*
X209736518Y-45315551D01*
X209864457Y-45365472D01*
X210053142Y-45443629D01*
X210055892Y-45444869D01*
X210176345Y-45503755D01*
X210250992Y-45540248D01*
X210307879Y-45569861D01*
X210432345Y-45634654D01*
X210434793Y-45636019D01*
X210613012Y-45742215D01*
X210621382Y-45747202D01*
X210793940Y-45857134D01*
X210796085Y-45858581D01*
X210891732Y-45926871D01*
X210972918Y-45984837D01*
X211135352Y-46109477D01*
X211137176Y-46110947D01*
X211303052Y-46251437D01*
X211454861Y-46390543D01*
X211454895Y-46390574D01*
X211609425Y-46545104D01*
X211748551Y-46696933D01*
X211889044Y-46862813D01*
X211890521Y-46864646D01*
X212015162Y-47027081D01*
X212141402Y-47203890D01*
X212142864Y-47206058D01*
X212252797Y-47378617D01*
X212363970Y-47565189D01*
X212365354Y-47567671D01*
X212459751Y-47749007D01*
X212555118Y-47944082D01*
X212556377Y-47946874D01*
X212566204Y-47970598D01*
X212634536Y-48135566D01*
X212713464Y-48337846D01*
X212714559Y-48340955D01*
X212775899Y-48535496D01*
X212837863Y-48743627D01*
X212838748Y-48747039D01*
X212882818Y-48945826D01*
X212927423Y-49158564D01*
X212928053Y-49162262D01*
X212954524Y-49363319D01*
X212981484Y-49579612D01*
X212981817Y-49583577D01*
X212990511Y-49782680D01*
X212999455Y-49998918D01*
X212999500Y-50012609D01*
X212999500Y-98958491D01*
X212999498Y-98958497D01*
X212999498Y-99000000D01*
X212990493Y-99217705D01*
X212981818Y-99416397D01*
X212981485Y-99420362D01*
X212954486Y-99636965D01*
X212928057Y-99837711D01*
X212927427Y-99841409D01*
X212882779Y-100054348D01*
X212838754Y-100252931D01*
X212837869Y-100256342D01*
X212775860Y-100464627D01*
X212714568Y-100659016D01*
X212713473Y-100662125D01*
X212634499Y-100864523D01*
X212556390Y-101053092D01*
X212555128Y-101055889D01*
X212459711Y-101251072D01*
X212365372Y-101432294D01*
X212363988Y-101434776D01*
X212252757Y-101621446D01*
X212142886Y-101793907D01*
X212141424Y-101796073D01*
X212015123Y-101972970D01*
X211890557Y-102135307D01*
X211889059Y-102137166D01*
X211748523Y-102303097D01*
X211609451Y-102454867D01*
X211454861Y-102609456D01*
X211303099Y-102748520D01*
X211137164Y-102889060D01*
X211135305Y-102890558D01*
X210972968Y-103015124D01*
X210796071Y-103141425D01*
X210793905Y-103142887D01*
X210621444Y-103252758D01*
X210434774Y-103363989D01*
X210432292Y-103365373D01*
X210251070Y-103459712D01*
X210055887Y-103555129D01*
X210053090Y-103556391D01*
X209864521Y-103634500D01*
X209662123Y-103713474D01*
X209659014Y-103714569D01*
X209464648Y-103775854D01*
X209256328Y-103837873D01*
X209252917Y-103838758D01*
X209054346Y-103882780D01*
X208841418Y-103927425D01*
X208837720Y-103928055D01*
X208636962Y-103954487D01*
X208420350Y-103981486D01*
X208416385Y-103981819D01*
X208218356Y-103990466D01*
X207999949Y-103999500D01*
X150041509Y-103999500D01*
X150041503Y-103999498D01*
X150000500Y-103999498D01*
X150000000Y-103999498D01*
X149782294Y-103990493D01*
X149583601Y-103981818D01*
X149579636Y-103981485D01*
X149363034Y-103954486D01*
X149162287Y-103928057D01*
X149158589Y-103927427D01*
X148945651Y-103882779D01*
X148747067Y-103838754D01*
X148743656Y-103837869D01*
X148535372Y-103775860D01*
X148340982Y-103714568D01*
X148337873Y-103713473D01*
X148135476Y-103634499D01*
X147946906Y-103556390D01*
X147944109Y-103555128D01*
X147793245Y-103481376D01*
X147748923Y-103459709D01*
X147567703Y-103365371D01*
X147565222Y-103363988D01*
X147378553Y-103252757D01*
X147206092Y-103142886D01*
X147203924Y-103141424D01*
X147027029Y-103015123D01*
X146864691Y-102890557D01*
X146862856Y-102889078D01*
X146696893Y-102748515D01*
X146545129Y-102609448D01*
X146390543Y-102454861D01*
X146365352Y-102427370D01*
X146251470Y-102303089D01*
X146110912Y-102137132D01*
X146109442Y-102135307D01*
X145984874Y-101972966D01*
X145858574Y-101796073D01*
X145858562Y-101796056D01*
X145857111Y-101793904D01*
X145747241Y-101621444D01*
X145711741Y-101561867D01*
X145635995Y-101434749D01*
X145634639Y-101432318D01*
X145540289Y-101251072D01*
X145444868Y-101055885D01*
X145443607Y-101053090D01*
X145365500Y-100864523D01*
X145286524Y-100662123D01*
X145285429Y-100659014D01*
X145279656Y-100640705D01*
X145224139Y-100464627D01*
X145162117Y-100256299D01*
X145161244Y-100252931D01*
X145117232Y-100054407D01*
X145072571Y-99841409D01*
X145071943Y-99837720D01*
X145066429Y-99795836D01*
X145045513Y-99636965D01*
X145018511Y-99420338D01*
X145018179Y-99416385D01*
X145016353Y-99374570D01*
X145009542Y-99218567D01*
X145000502Y-98999998D01*
X145000502Y-98999997D01*
X148644342Y-98999997D01*
X148652381Y-99091890D01*
X148652569Y-99096189D01*
X148652569Y-99117890D01*
X148656335Y-99139246D01*
X148656899Y-99143529D01*
X148664936Y-99235400D01*
X148688808Y-99324494D01*
X148689742Y-99328708D01*
X148693510Y-99350069D01*
X148693511Y-99350072D01*
X148700924Y-99370443D01*
X148702223Y-99374561D01*
X148726094Y-99463651D01*
X148726098Y-99463661D01*
X148743683Y-99501371D01*
X148765083Y-99547263D01*
X148766732Y-99551244D01*
X148766734Y-99551250D01*
X148766736Y-99551253D01*
X148774149Y-99571621D01*
X148784983Y-99590386D01*
X148786978Y-99594219D01*
X148825961Y-99677818D01*
X148825966Y-99677828D01*
X148878874Y-99753387D01*
X148881194Y-99757029D01*
X148892034Y-99775804D01*
X148905964Y-99792405D01*
X148908595Y-99795833D01*
X148961503Y-99871394D01*
X148961506Y-99871398D01*
X149026739Y-99936632D01*
X149029658Y-99939818D01*
X149043584Y-99956414D01*
X149043588Y-99956417D01*
X149043592Y-99956421D01*
X149060186Y-99970345D01*
X149063370Y-99973263D01*
X149128599Y-100038491D01*
X149128607Y-100038498D01*
X149171608Y-100068607D01*
X149204175Y-100091410D01*
X149207574Y-100094018D01*
X149224194Y-100107964D01*
X149242976Y-100118808D01*
X149246602Y-100121118D01*
X149322171Y-100174032D01*
X149405791Y-100213025D01*
X149409593Y-100215004D01*
X149428377Y-100225849D01*
X149448760Y-100233268D01*
X149452712Y-100234904D01*
X149536338Y-100273900D01*
X149591545Y-100288692D01*
X149625437Y-100297774D01*
X149629528Y-100299062D01*
X149649928Y-100306488D01*
X149671307Y-100310257D01*
X149675495Y-100311186D01*
X149764593Y-100335060D01*
X149764597Y-100335060D01*
X149764600Y-100335061D01*
X149785806Y-100336916D01*
X149856498Y-100343100D01*
X149860718Y-100343656D01*
X149882116Y-100347429D01*
X149882119Y-100347429D01*
X149903808Y-100347429D01*
X149908108Y-100347616D01*
X149975166Y-100353483D01*
X149999998Y-100355656D01*
X150000001Y-100355656D01*
X150000004Y-100355656D01*
X150024835Y-100353483D01*
X150091893Y-100347616D01*
X150096194Y-100347429D01*
X150117884Y-100347429D01*
X150117886Y-100347429D01*
X150139286Y-100343655D01*
X150143481Y-100343102D01*
X150235409Y-100335060D01*
X150324518Y-100311183D01*
X150328691Y-100310258D01*
X150350074Y-100306488D01*
X150370477Y-100299061D01*
X150374546Y-100297778D01*
X150463664Y-100273900D01*
X150547295Y-100234901D01*
X150551223Y-100233274D01*
X150571625Y-100225849D01*
X150590434Y-100214989D01*
X150594193Y-100213032D01*
X150677831Y-100174032D01*
X150753424Y-100121100D01*
X150757003Y-100118820D01*
X150775808Y-100107964D01*
X150792432Y-100094014D01*
X150795813Y-100091419D01*
X150871402Y-100038492D01*
X150936650Y-99973243D01*
X150939794Y-99970362D01*
X150956418Y-99956414D01*
X150970366Y-99939790D01*
X150973247Y-99936646D01*
X151038496Y-99871398D01*
X151091423Y-99795809D01*
X151094018Y-99792428D01*
X151107968Y-99775804D01*
X151118824Y-99756999D01*
X151121104Y-99753420D01*
X151174036Y-99677827D01*
X151213036Y-99594189D01*
X151214993Y-99590430D01*
X151225853Y-99571621D01*
X151233278Y-99551219D01*
X151234905Y-99547291D01*
X151273904Y-99463660D01*
X151297782Y-99374542D01*
X151299065Y-99370473D01*
X151306492Y-99350070D01*
X151310262Y-99328687D01*
X151311187Y-99324514D01*
X151335064Y-99235405D01*
X151335158Y-99234338D01*
X151337565Y-99206820D01*
X151343104Y-99143499D01*
X151343660Y-99139276D01*
X151347433Y-99117882D01*
X151348090Y-99087714D01*
X151348261Y-99084560D01*
X151355660Y-99000000D01*
X206644341Y-99000000D01*
X206652380Y-99091893D01*
X206652568Y-99096192D01*
X206652568Y-99117893D01*
X206656334Y-99139249D01*
X206656898Y-99143532D01*
X206664935Y-99235403D01*
X206688807Y-99324497D01*
X206689741Y-99328711D01*
X206693060Y-99347527D01*
X206693508Y-99350070D01*
X206693509Y-99350072D01*
X206693510Y-99350075D01*
X206700923Y-99370446D01*
X206702222Y-99374564D01*
X206726093Y-99463654D01*
X206726096Y-99463661D01*
X206726097Y-99463663D01*
X206765085Y-99547273D01*
X206766731Y-99551247D01*
X206766733Y-99551253D01*
X206766735Y-99551256D01*
X206774148Y-99571624D01*
X206784982Y-99590389D01*
X206786977Y-99594222D01*
X206825960Y-99677821D01*
X206825965Y-99677831D01*
X206864189Y-99732419D01*
X206878866Y-99753381D01*
X206878873Y-99753390D01*
X206881193Y-99757032D01*
X206892033Y-99775807D01*
X206905963Y-99792408D01*
X206908594Y-99795836D01*
X206961502Y-99871397D01*
X206961505Y-99871401D01*
X207026738Y-99936635D01*
X207029657Y-99939821D01*
X207043583Y-99956417D01*
X207043588Y-99956421D01*
X207043591Y-99956424D01*
X207060185Y-99970348D01*
X207063369Y-99973266D01*
X207128598Y-100038494D01*
X207128606Y-100038501D01*
X207151239Y-100054348D01*
X207204174Y-100091413D01*
X207207573Y-100094021D01*
X207224193Y-100107967D01*
X207242975Y-100118811D01*
X207246601Y-100121121D01*
X207322170Y-100174035D01*
X207405790Y-100213028D01*
X207409592Y-100215007D01*
X207428376Y-100225852D01*
X207448759Y-100233271D01*
X207452711Y-100234907D01*
X207536337Y-100273903D01*
X207591544Y-100288695D01*
X207625436Y-100297777D01*
X207629527Y-100299065D01*
X207649927Y-100306491D01*
X207671306Y-100310260D01*
X207675494Y-100311189D01*
X207764592Y-100335063D01*
X207764596Y-100335063D01*
X207764599Y-100335064D01*
X207785805Y-100336919D01*
X207856497Y-100343103D01*
X207860717Y-100343659D01*
X207882115Y-100347432D01*
X207882118Y-100347432D01*
X207903807Y-100347432D01*
X207908107Y-100347619D01*
X207975165Y-100353486D01*
X207999997Y-100355659D01*
X208000000Y-100355659D01*
X208000003Y-100355659D01*
X208024834Y-100353486D01*
X208091892Y-100347619D01*
X208096193Y-100347432D01*
X208117883Y-100347432D01*
X208117885Y-100347432D01*
X208139285Y-100343658D01*
X208143480Y-100343105D01*
X208235408Y-100335063D01*
X208324517Y-100311186D01*
X208328690Y-100310261D01*
X208350073Y-100306491D01*
X208370476Y-100299064D01*
X208374545Y-100297781D01*
X208463663Y-100273903D01*
X208547294Y-100234904D01*
X208551222Y-100233277D01*
X208571624Y-100225852D01*
X208590433Y-100214992D01*
X208594192Y-100213035D01*
X208677830Y-100174035D01*
X208753423Y-100121103D01*
X208757002Y-100118823D01*
X208775807Y-100107967D01*
X208792431Y-100094017D01*
X208795812Y-100091422D01*
X208871401Y-100038495D01*
X208936649Y-99973246D01*
X208939793Y-99970365D01*
X208956417Y-99956417D01*
X208970365Y-99939793D01*
X208973246Y-99936649D01*
X209038495Y-99871401D01*
X209091422Y-99795812D01*
X209094017Y-99792431D01*
X209107967Y-99775807D01*
X209118823Y-99757002D01*
X209121103Y-99753423D01*
X209174035Y-99677830D01*
X209213035Y-99594192D01*
X209214992Y-99590433D01*
X209225852Y-99571624D01*
X209233277Y-99551222D01*
X209234904Y-99547294D01*
X209273903Y-99463663D01*
X209297781Y-99374545D01*
X209299064Y-99370476D01*
X209306491Y-99350073D01*
X209310261Y-99328690D01*
X209311186Y-99324517D01*
X209335063Y-99235408D01*
X209343103Y-99143502D01*
X209343659Y-99139279D01*
X209347432Y-99117885D01*
X209348089Y-99087717D01*
X209348260Y-99084563D01*
X209355659Y-99000000D01*
X209348260Y-98915440D01*
X209348089Y-98912280D01*
X209347432Y-98882115D01*
X209343663Y-98860740D01*
X209343103Y-98856497D01*
X209335157Y-98765662D01*
X209335064Y-98764599D01*
X209335063Y-98764596D01*
X209335063Y-98764592D01*
X209311189Y-98675493D01*
X209310260Y-98671306D01*
X209306491Y-98649927D01*
X209299065Y-98629527D01*
X209297777Y-98625436D01*
X209288695Y-98591544D01*
X209273903Y-98536337D01*
X209234914Y-98452725D01*
X209233277Y-98448775D01*
X209225852Y-98428376D01*
X209215004Y-98409587D01*
X209213017Y-98405768D01*
X209174037Y-98322174D01*
X209174035Y-98322171D01*
X209121115Y-98246593D01*
X209118807Y-98242969D01*
X209118805Y-98242966D01*
X209107967Y-98224193D01*
X209094009Y-98207559D01*
X209091420Y-98204185D01*
X209038495Y-98128599D01*
X209014893Y-98104997D01*
X208973266Y-98063369D01*
X208970348Y-98060185D01*
X208956424Y-98043591D01*
X208956420Y-98043587D01*
X208956417Y-98043583D01*
X208939821Y-98029657D01*
X208936635Y-98026738D01*
X208871401Y-97961505D01*
X208871397Y-97961502D01*
X208806756Y-97916240D01*
X208795832Y-97908591D01*
X208792408Y-97905963D01*
X208792404Y-97905960D01*
X208775807Y-97892033D01*
X208775800Y-97892029D01*
X208757034Y-97881194D01*
X208753390Y-97878873D01*
X208753387Y-97878871D01*
X208732419Y-97864189D01*
X208677831Y-97825965D01*
X208677821Y-97825960D01*
X208594222Y-97786977D01*
X208590389Y-97784982D01*
X208571624Y-97774148D01*
X208571613Y-97774144D01*
X208551247Y-97766731D01*
X208547273Y-97765085D01*
X208501374Y-97743682D01*
X208463664Y-97726097D01*
X208463654Y-97726093D01*
X208374564Y-97702222D01*
X208370446Y-97700923D01*
X208353691Y-97694826D01*
X208350073Y-97693509D01*
X208347527Y-97693060D01*
X208328711Y-97689741D01*
X208324497Y-97688807D01*
X208235403Y-97664935D01*
X208143532Y-97656898D01*
X208139249Y-97656334D01*
X208117893Y-97652568D01*
X208117885Y-97652568D01*
X208096193Y-97652568D01*
X208091892Y-97652380D01*
X208024834Y-97646513D01*
X208000003Y-97644341D01*
X207999997Y-97644341D01*
X207975165Y-97646513D01*
X207908107Y-97652380D01*
X207903807Y-97652568D01*
X207882112Y-97652568D01*
X207860748Y-97656334D01*
X207856466Y-97656898D01*
X207764599Y-97664935D01*
X207675505Y-97688807D01*
X207671290Y-97689741D01*
X207649925Y-97693509D01*
X207649922Y-97693510D01*
X207629538Y-97700928D01*
X207625420Y-97702227D01*
X207536336Y-97726097D01*
X207452728Y-97765082D01*
X207448741Y-97766734D01*
X207428377Y-97774147D01*
X207409600Y-97784987D01*
X207405772Y-97786980D01*
X207350310Y-97812843D01*
X207322171Y-97825965D01*
X207322169Y-97825965D01*
X207322167Y-97825967D01*
X207246611Y-97878871D01*
X207242969Y-97881191D01*
X207224192Y-97892032D01*
X207224191Y-97892033D01*
X207207585Y-97905968D01*
X207204159Y-97908596D01*
X207128603Y-97961501D01*
X207063373Y-98026730D01*
X207060190Y-98029646D01*
X207043590Y-98043576D01*
X207043576Y-98043590D01*
X207029646Y-98060190D01*
X207026730Y-98063373D01*
X206961501Y-98128603D01*
X206908596Y-98204159D01*
X206905968Y-98207585D01*
X206892033Y-98224191D01*
X206892032Y-98224192D01*
X206881191Y-98242969D01*
X206878871Y-98246611D01*
X206825967Y-98322167D01*
X206825967Y-98322168D01*
X206825965Y-98322171D01*
X206812843Y-98350310D01*
X206786980Y-98405772D01*
X206784987Y-98409600D01*
X206774147Y-98428377D01*
X206766734Y-98448741D01*
X206765082Y-98452728D01*
X206726097Y-98536336D01*
X206702227Y-98625420D01*
X206700928Y-98629538D01*
X206693510Y-98649922D01*
X206693509Y-98649925D01*
X206689741Y-98671290D01*
X206688807Y-98675505D01*
X206664935Y-98764599D01*
X206656898Y-98856466D01*
X206656334Y-98860748D01*
X206652568Y-98882112D01*
X206652568Y-98903806D01*
X206652380Y-98908108D01*
X206644341Y-99000000D01*
X151355660Y-99000000D01*
X151355660Y-98999997D01*
X151348261Y-98915437D01*
X151348090Y-98912277D01*
X151347433Y-98882112D01*
X151343664Y-98860737D01*
X151343104Y-98856494D01*
X151335064Y-98764589D01*
X151311190Y-98675491D01*
X151310259Y-98671290D01*
X151306492Y-98649924D01*
X151299066Y-98629524D01*
X151297778Y-98625433D01*
X151274469Y-98538444D01*
X151273904Y-98536334D01*
X151234915Y-98452723D01*
X151233278Y-98448772D01*
X151225853Y-98428373D01*
X151215005Y-98409584D01*
X151213018Y-98405765D01*
X151174038Y-98322171D01*
X151174033Y-98322164D01*
X151121116Y-98246590D01*
X151118808Y-98242966D01*
X151107969Y-98224192D01*
X151107968Y-98224190D01*
X151094010Y-98207556D01*
X151091421Y-98204182D01*
X151038496Y-98128596D01*
X151014897Y-98104997D01*
X150973267Y-98063366D01*
X150970349Y-98060182D01*
X150956425Y-98043588D01*
X150956423Y-98043586D01*
X150956418Y-98043580D01*
X150945685Y-98034574D01*
X150939822Y-98029654D01*
X150936636Y-98026735D01*
X150872783Y-97962883D01*
X160655000Y-97962883D01*
X160837591Y-97850458D01*
X161012657Y-97696381D01*
X161159160Y-97514939D01*
X161159162Y-97514936D01*
X161201590Y-97438987D01*
X161246476Y-97397406D01*
X161307229Y-97390150D01*
X161360645Y-97419989D01*
X161370041Y-97431830D01*
X161489633Y-97608772D01*
X161489848Y-97609089D01*
X161640932Y-97766728D01*
X161651272Y-97777516D01*
X161838839Y-97916240D01*
X162047153Y-98021270D01*
X162270220Y-98089583D01*
X162501624Y-98119216D01*
X162734707Y-98109314D01*
X162962765Y-98060164D01*
X163179235Y-97973179D01*
X163377891Y-97850862D01*
X163553018Y-97696731D01*
X163699578Y-97515220D01*
X163741906Y-97439448D01*
X163786790Y-97397870D01*
X163847543Y-97390614D01*
X163900959Y-97420453D01*
X163910352Y-97432291D01*
X164029633Y-97608772D01*
X164029848Y-97609089D01*
X164180932Y-97766728D01*
X164191272Y-97777516D01*
X164378839Y-97916240D01*
X164587153Y-98021270D01*
X164810220Y-98089583D01*
X165041624Y-98119216D01*
X165274707Y-98109314D01*
X165502765Y-98060164D01*
X165719235Y-97973179D01*
X165917891Y-97850862D01*
X166093018Y-97696731D01*
X166153686Y-97621594D01*
X166204954Y-97588199D01*
X166266060Y-97591314D01*
X166313664Y-97629752D01*
X166324685Y-97652646D01*
X166335186Y-97684334D01*
X166335187Y-97684336D01*
X166427285Y-97833652D01*
X166427286Y-97833653D01*
X166427288Y-97833656D01*
X166551344Y-97957712D01*
X166551346Y-97957713D01*
X166551347Y-97957714D01*
X166576420Y-97973179D01*
X166700666Y-98049814D01*
X166867203Y-98104999D01*
X166969991Y-98115500D01*
X168310008Y-98115499D01*
X168310016Y-98115499D01*
X168412788Y-98105000D01*
X168412788Y-98104999D01*
X168412797Y-98104999D01*
X168579334Y-98049814D01*
X168720272Y-97962883D01*
X173355000Y-97962883D01*
X173537591Y-97850458D01*
X173712657Y-97696381D01*
X173859160Y-97514939D01*
X173859162Y-97514936D01*
X173901590Y-97438987D01*
X173946476Y-97397406D01*
X174007229Y-97390150D01*
X174060645Y-97419989D01*
X174070041Y-97431830D01*
X174189633Y-97608772D01*
X174189848Y-97609089D01*
X174340932Y-97766728D01*
X174351272Y-97777516D01*
X174538839Y-97916240D01*
X174747153Y-98021270D01*
X174970220Y-98089583D01*
X175201624Y-98119216D01*
X175434707Y-98109314D01*
X175662765Y-98060164D01*
X175879235Y-97973179D01*
X176077891Y-97850862D01*
X176253018Y-97696731D01*
X176313686Y-97621594D01*
X176364954Y-97588199D01*
X176426060Y-97591314D01*
X176473664Y-97629752D01*
X176484685Y-97652646D01*
X176495186Y-97684334D01*
X176495187Y-97684336D01*
X176587285Y-97833652D01*
X176587286Y-97833653D01*
X176587288Y-97833656D01*
X176711344Y-97957712D01*
X176711346Y-97957713D01*
X176711347Y-97957714D01*
X176736420Y-97973179D01*
X176860666Y-98049814D01*
X177027203Y-98104999D01*
X177129991Y-98115500D01*
X178470008Y-98115499D01*
X178470016Y-98115499D01*
X178572788Y-98105000D01*
X178572788Y-98104999D01*
X178572797Y-98104999D01*
X178739334Y-98049814D01*
X178880272Y-97962883D01*
X183515000Y-97962883D01*
X183697591Y-97850458D01*
X183872657Y-97696381D01*
X184019160Y-97514939D01*
X184019162Y-97514936D01*
X184061590Y-97438987D01*
X184106476Y-97397406D01*
X184167229Y-97390150D01*
X184220645Y-97419989D01*
X184230041Y-97431830D01*
X184349633Y-97608772D01*
X184349848Y-97609089D01*
X184500932Y-97766728D01*
X184511272Y-97777516D01*
X184698839Y-97916240D01*
X184907153Y-98021270D01*
X185130220Y-98089583D01*
X185361624Y-98119216D01*
X185594707Y-98109314D01*
X185822765Y-98060164D01*
X186039235Y-97973179D01*
X186237891Y-97850862D01*
X186413018Y-97696731D01*
X186473686Y-97621594D01*
X186524954Y-97588199D01*
X186586060Y-97591314D01*
X186633664Y-97629752D01*
X186644685Y-97652646D01*
X186655186Y-97684334D01*
X186655187Y-97684336D01*
X186747285Y-97833652D01*
X186747286Y-97833653D01*
X186747288Y-97833656D01*
X186871344Y-97957712D01*
X186871346Y-97957713D01*
X186871347Y-97957714D01*
X186896420Y-97973179D01*
X187020666Y-98049814D01*
X187187203Y-98104999D01*
X187289991Y-98115500D01*
X188630008Y-98115499D01*
X188630016Y-98115499D01*
X188732788Y-98105000D01*
X188732788Y-98104999D01*
X188732797Y-98104999D01*
X188899334Y-98049814D01*
X189048656Y-97957712D01*
X189172712Y-97833656D01*
X189264814Y-97684334D01*
X189319999Y-97517797D01*
X189330500Y-97415009D01*
X189330500Y-96803221D01*
X191669500Y-96803221D01*
X191684328Y-96977445D01*
X191684329Y-96977452D01*
X191684330Y-96977453D01*
X191743115Y-97203219D01*
X191839208Y-97415802D01*
X191839209Y-97415803D01*
X191839209Y-97415804D01*
X191906211Y-97514936D01*
X191969633Y-97608772D01*
X191969848Y-97609089D01*
X192120932Y-97766728D01*
X192131272Y-97777516D01*
X192318839Y-97916240D01*
X192527153Y-98021270D01*
X192750220Y-98089583D01*
X192981624Y-98119216D01*
X193214707Y-98109314D01*
X193442765Y-98060164D01*
X193659235Y-97973179D01*
X193857891Y-97850862D01*
X194033018Y-97696731D01*
X194093686Y-97621594D01*
X194144954Y-97588199D01*
X194206060Y-97591314D01*
X194253664Y-97629752D01*
X194264685Y-97652646D01*
X194275186Y-97684334D01*
X194275187Y-97684336D01*
X194367285Y-97833652D01*
X194367286Y-97833653D01*
X194367288Y-97833656D01*
X194491344Y-97957712D01*
X194491346Y-97957713D01*
X194491347Y-97957714D01*
X194516420Y-97973179D01*
X194640666Y-98049814D01*
X194807203Y-98104999D01*
X194909991Y-98115500D01*
X196250008Y-98115499D01*
X196250016Y-98115499D01*
X196352788Y-98105000D01*
X196352788Y-98104999D01*
X196352797Y-98104999D01*
X196519334Y-98049814D01*
X196668656Y-97957712D01*
X196792712Y-97833656D01*
X196884814Y-97684334D01*
X196939999Y-97517797D01*
X196950500Y-97415009D01*
X196950499Y-95624992D01*
X196950499Y-95624983D01*
X196940000Y-95522211D01*
X196939999Y-95522209D01*
X196939999Y-95522203D01*
X196884814Y-95355666D01*
X196792712Y-95206344D01*
X196668656Y-95082288D01*
X196668653Y-95082286D01*
X196668652Y-95082285D01*
X196519336Y-94990187D01*
X196519335Y-94990186D01*
X196519334Y-94990186D01*
X196352797Y-94935001D01*
X196352794Y-94935000D01*
X196250016Y-94924500D01*
X194909983Y-94924500D01*
X194807211Y-94934999D01*
X194807199Y-94935002D01*
X194640663Y-94990187D01*
X194491347Y-95082285D01*
X194367285Y-95206347D01*
X194275186Y-95355663D01*
X194265963Y-95383497D01*
X194229710Y-95432786D01*
X194171410Y-95451352D01*
X194113331Y-95432105D01*
X194100515Y-95420856D01*
X193948729Y-95262485D01*
X193948728Y-95262484D01*
X193761161Y-95123760D01*
X193552847Y-95018730D01*
X193329780Y-94950417D01*
X193329777Y-94950416D01*
X193098377Y-94920784D01*
X193098376Y-94920784D01*
X193040105Y-94923259D01*
X192865290Y-94930686D01*
X192637235Y-94979835D01*
X192637234Y-94979836D01*
X192420764Y-95066821D01*
X192420763Y-95066821D01*
X192222113Y-95189135D01*
X192222107Y-95189139D01*
X192046980Y-95343270D01*
X191974702Y-95432786D01*
X191900422Y-95524780D01*
X191900420Y-95524781D01*
X191900418Y-95524786D01*
X191786648Y-95728444D01*
X191786644Y-95728453D01*
X191708927Y-95948416D01*
X191669500Y-96178347D01*
X191669500Y-96803221D01*
X189330500Y-96803221D01*
X189330499Y-95624992D01*
X189330499Y-95624983D01*
X189320000Y-95522211D01*
X189319999Y-95522209D01*
X189319999Y-95522203D01*
X189264814Y-95355666D01*
X189172712Y-95206344D01*
X189048656Y-95082288D01*
X189048653Y-95082286D01*
X189048652Y-95082285D01*
X188899336Y-94990187D01*
X188899335Y-94990186D01*
X188899334Y-94990186D01*
X188732797Y-94935001D01*
X188732794Y-94935000D01*
X188630016Y-94924500D01*
X187289983Y-94924500D01*
X187187211Y-94934999D01*
X187187199Y-94935002D01*
X187020663Y-94990187D01*
X186871347Y-95082285D01*
X186747285Y-95206347D01*
X186655186Y-95355663D01*
X186645963Y-95383497D01*
X186609710Y-95432786D01*
X186551410Y-95451352D01*
X186493331Y-95432105D01*
X186480515Y-95420856D01*
X186328729Y-95262485D01*
X186328728Y-95262484D01*
X186141161Y-95123760D01*
X185932847Y-95018730D01*
X185709780Y-94950417D01*
X185709777Y-94950416D01*
X185478377Y-94920784D01*
X185478376Y-94920784D01*
X185420105Y-94923259D01*
X185245290Y-94930686D01*
X185017235Y-94979835D01*
X185017234Y-94979836D01*
X184800764Y-95066821D01*
X184800763Y-95066821D01*
X184602113Y-95189135D01*
X184602107Y-95189139D01*
X184426980Y-95343270D01*
X184280423Y-95524779D01*
X184280421Y-95524781D01*
X184237821Y-95601039D01*
X184192935Y-95642619D01*
X184132181Y-95649874D01*
X184078766Y-95620034D01*
X184069370Y-95608193D01*
X183949763Y-95431227D01*
X183788398Y-95262862D01*
X183788396Y-95262860D01*
X183600900Y-95124189D01*
X183600897Y-95124187D01*
X183515000Y-95080878D01*
X183515000Y-97962883D01*
X178880272Y-97962883D01*
X178888656Y-97957712D01*
X179012712Y-97833656D01*
X179104814Y-97684334D01*
X179159999Y-97517797D01*
X179170500Y-97415009D01*
X179170500Y-97155000D01*
X181571075Y-97155000D01*
X181583586Y-97203049D01*
X181679645Y-97415553D01*
X181679647Y-97415557D01*
X181810236Y-97608772D01*
X181971601Y-97777137D01*
X181971603Y-97777138D01*
X182159110Y-97915817D01*
X182244999Y-97959121D01*
X182245000Y-97959121D01*
X182245000Y-97155001D01*
X182244999Y-97155000D01*
X181571075Y-97155000D01*
X179170500Y-97155000D01*
X179170499Y-96520000D01*
X182279866Y-96520000D01*
X182300315Y-96675326D01*
X182360269Y-96820067D01*
X182455641Y-96944359D01*
X182579933Y-97039731D01*
X182724674Y-97099685D01*
X182841003Y-97115000D01*
X182918997Y-97115000D01*
X183035326Y-97099685D01*
X183180067Y-97039731D01*
X183304359Y-96944359D01*
X183399731Y-96820067D01*
X183459685Y-96675326D01*
X183480134Y-96520000D01*
X183459685Y-96364674D01*
X183399731Y-96219933D01*
X183304359Y-96095641D01*
X183180067Y-96000269D01*
X183035326Y-95940315D01*
X182918997Y-95925000D01*
X182841003Y-95925000D01*
X182724674Y-95940315D01*
X182579933Y-96000269D01*
X182455641Y-96095641D01*
X182360269Y-96219933D01*
X182300315Y-96364674D01*
X182279866Y-96520000D01*
X179170499Y-96520000D01*
X179170499Y-95885000D01*
X181571864Y-95885000D01*
X182244999Y-95885000D01*
X182245000Y-95884999D01*
X182245000Y-95077114D01*
X182244999Y-95077114D01*
X182062417Y-95189535D01*
X182062405Y-95189544D01*
X181887342Y-95343618D01*
X181740839Y-95525060D01*
X181740834Y-95525067D01*
X181627106Y-95728651D01*
X181627101Y-95728660D01*
X181571864Y-95885000D01*
X179170499Y-95885000D01*
X179170499Y-95624992D01*
X179170499Y-95624983D01*
X179160000Y-95522211D01*
X179159999Y-95522209D01*
X179159999Y-95522203D01*
X179104814Y-95355666D01*
X179012712Y-95206344D01*
X178888656Y-95082288D01*
X178888653Y-95082286D01*
X178888652Y-95082285D01*
X178739336Y-94990187D01*
X178739335Y-94990186D01*
X178739334Y-94990186D01*
X178572797Y-94935001D01*
X178572794Y-94935000D01*
X178470016Y-94924500D01*
X177129983Y-94924500D01*
X177027211Y-94934999D01*
X177027199Y-94935002D01*
X176860663Y-94990187D01*
X176711347Y-95082285D01*
X176587285Y-95206347D01*
X176495186Y-95355663D01*
X176485963Y-95383497D01*
X176449710Y-95432786D01*
X176391410Y-95451352D01*
X176333331Y-95432105D01*
X176320515Y-95420856D01*
X176168729Y-95262485D01*
X176168728Y-95262484D01*
X175981161Y-95123760D01*
X175772847Y-95018730D01*
X175549780Y-94950417D01*
X175549777Y-94950416D01*
X175318377Y-94920784D01*
X175318376Y-94920784D01*
X175260105Y-94923259D01*
X175085290Y-94930686D01*
X174857235Y-94979835D01*
X174857234Y-94979836D01*
X174640764Y-95066821D01*
X174640763Y-95066821D01*
X174442113Y-95189135D01*
X174442107Y-95189139D01*
X174266980Y-95343270D01*
X174120423Y-95524779D01*
X174120421Y-95524781D01*
X174077821Y-95601039D01*
X174032935Y-95642619D01*
X173972181Y-95649874D01*
X173918766Y-95620034D01*
X173909370Y-95608193D01*
X173789763Y-95431227D01*
X173628398Y-95262862D01*
X173628396Y-95262860D01*
X173440900Y-95124189D01*
X173440897Y-95124187D01*
X173355000Y-95080878D01*
X173355000Y-97962883D01*
X168720272Y-97962883D01*
X168728656Y-97957712D01*
X168852712Y-97833656D01*
X168944814Y-97684334D01*
X168999999Y-97517797D01*
X169010500Y-97415009D01*
X169010500Y-97155000D01*
X171411075Y-97155000D01*
X171423586Y-97203049D01*
X171519645Y-97415553D01*
X171519647Y-97415557D01*
X171650236Y-97608772D01*
X171811601Y-97777137D01*
X171811603Y-97777138D01*
X171999110Y-97915817D01*
X172084999Y-97959121D01*
X172085000Y-97959121D01*
X172085000Y-97155001D01*
X172084999Y-97155000D01*
X171411075Y-97155000D01*
X169010500Y-97155000D01*
X169010499Y-96520000D01*
X172119866Y-96520000D01*
X172140315Y-96675326D01*
X172200269Y-96820067D01*
X172295641Y-96944359D01*
X172419933Y-97039731D01*
X172564674Y-97099685D01*
X172681003Y-97115000D01*
X172758997Y-97115000D01*
X172875326Y-97099685D01*
X173020067Y-97039731D01*
X173144359Y-96944359D01*
X173239731Y-96820067D01*
X173299685Y-96675326D01*
X173320134Y-96520000D01*
X173299685Y-96364674D01*
X173239731Y-96219933D01*
X173144359Y-96095641D01*
X173020067Y-96000269D01*
X172875326Y-95940315D01*
X172758997Y-95925000D01*
X172681003Y-95925000D01*
X172564674Y-95940315D01*
X172419933Y-96000269D01*
X172295641Y-96095641D01*
X172200269Y-96219933D01*
X172140315Y-96364674D01*
X172119866Y-96520000D01*
X169010499Y-96520000D01*
X169010499Y-95885000D01*
X171411864Y-95885000D01*
X172084999Y-95885000D01*
X172085000Y-95884999D01*
X172085000Y-95077114D01*
X172084999Y-95077114D01*
X171902417Y-95189535D01*
X171902405Y-95189544D01*
X171727342Y-95343618D01*
X171580839Y-95525060D01*
X171580834Y-95525067D01*
X171467106Y-95728651D01*
X171467101Y-95728660D01*
X171411864Y-95885000D01*
X169010499Y-95885000D01*
X169010499Y-95624992D01*
X169010499Y-95624983D01*
X169000000Y-95522211D01*
X168999999Y-95522209D01*
X168999999Y-95522203D01*
X168944814Y-95355666D01*
X168852712Y-95206344D01*
X168728656Y-95082288D01*
X168728653Y-95082286D01*
X168728652Y-95082285D01*
X168579336Y-94990187D01*
X168579335Y-94990186D01*
X168579334Y-94990186D01*
X168412797Y-94935001D01*
X168412794Y-94935000D01*
X168310016Y-94924500D01*
X166969983Y-94924500D01*
X166867211Y-94934999D01*
X166867199Y-94935002D01*
X166700663Y-94990187D01*
X166551347Y-95082285D01*
X166427285Y-95206347D01*
X166335186Y-95355663D01*
X166325963Y-95383497D01*
X166289710Y-95432786D01*
X166231410Y-95451352D01*
X166173331Y-95432105D01*
X166160515Y-95420856D01*
X166008729Y-95262485D01*
X166008728Y-95262484D01*
X165821161Y-95123760D01*
X165612847Y-95018730D01*
X165389780Y-94950417D01*
X165389777Y-94950416D01*
X165158377Y-94920784D01*
X165158376Y-94920784D01*
X165100105Y-94923259D01*
X164925290Y-94930686D01*
X164697235Y-94979835D01*
X164697234Y-94979836D01*
X164480764Y-95066821D01*
X164480763Y-95066821D01*
X164282113Y-95189135D01*
X164282107Y-95189139D01*
X164106980Y-95343270D01*
X163960423Y-95524779D01*
X163960421Y-95524781D01*
X163918094Y-95600550D01*
X163873208Y-95642130D01*
X163812454Y-95649385D01*
X163759039Y-95619545D01*
X163749648Y-95607710D01*
X163630153Y-95430912D01*
X163468728Y-95262484D01*
X163281161Y-95123760D01*
X163072847Y-95018730D01*
X162849780Y-94950417D01*
X162849777Y-94950416D01*
X162618377Y-94920784D01*
X162618376Y-94920784D01*
X162560105Y-94923259D01*
X162385290Y-94930686D01*
X162157235Y-94979835D01*
X162157234Y-94979836D01*
X161940764Y-95066821D01*
X161940763Y-95066821D01*
X161742113Y-95189135D01*
X161742107Y-95189139D01*
X161566980Y-95343270D01*
X161420423Y-95524779D01*
X161420421Y-95524781D01*
X161377821Y-95601039D01*
X161332935Y-95642619D01*
X161272181Y-95649874D01*
X161218766Y-95620034D01*
X161209370Y-95608193D01*
X161089763Y-95431227D01*
X160928398Y-95262862D01*
X160928396Y-95262860D01*
X160740900Y-95124189D01*
X160740897Y-95124187D01*
X160655000Y-95080878D01*
X160655000Y-97962883D01*
X150872783Y-97962883D01*
X150871402Y-97961502D01*
X150871398Y-97961499D01*
X150795844Y-97908596D01*
X150795833Y-97908588D01*
X150792409Y-97905960D01*
X150775808Y-97892030D01*
X150757035Y-97881191D01*
X150753391Y-97878870D01*
X150753388Y-97878868D01*
X150712815Y-97850458D01*
X150677832Y-97825962D01*
X150677822Y-97825957D01*
X150594223Y-97786974D01*
X150590390Y-97784979D01*
X150571625Y-97774145D01*
X150571622Y-97774144D01*
X150551248Y-97766728D01*
X150547274Y-97765082D01*
X150476083Y-97731885D01*
X150463665Y-97726094D01*
X150463655Y-97726090D01*
X150374565Y-97702219D01*
X150370447Y-97700920D01*
X150353692Y-97694823D01*
X150350074Y-97693506D01*
X150347528Y-97693057D01*
X150328712Y-97689738D01*
X150324498Y-97688804D01*
X150235404Y-97664932D01*
X150143533Y-97656895D01*
X150139250Y-97656331D01*
X150117894Y-97652565D01*
X150117886Y-97652565D01*
X150096194Y-97652565D01*
X150091893Y-97652377D01*
X150024835Y-97646510D01*
X150000004Y-97644338D01*
X149999998Y-97644338D01*
X149975166Y-97646510D01*
X149908108Y-97652377D01*
X149903808Y-97652565D01*
X149882113Y-97652565D01*
X149860749Y-97656331D01*
X149856467Y-97656895D01*
X149764600Y-97664932D01*
X149675506Y-97688804D01*
X149671291Y-97689738D01*
X149649926Y-97693506D01*
X149649923Y-97693507D01*
X149629539Y-97700925D01*
X149625421Y-97702224D01*
X149536337Y-97726094D01*
X149452729Y-97765079D01*
X149448742Y-97766731D01*
X149428378Y-97774144D01*
X149409601Y-97784984D01*
X149405773Y-97786977D01*
X149350311Y-97812840D01*
X149322172Y-97825962D01*
X149322170Y-97825962D01*
X149322168Y-97825964D01*
X149246612Y-97878868D01*
X149242970Y-97881188D01*
X149224193Y-97892029D01*
X149224192Y-97892030D01*
X149207586Y-97905965D01*
X149204160Y-97908593D01*
X149128604Y-97961498D01*
X149063374Y-98026727D01*
X149060191Y-98029643D01*
X149043591Y-98043573D01*
X149043577Y-98043587D01*
X149029647Y-98060187D01*
X149026731Y-98063370D01*
X148961502Y-98128600D01*
X148908597Y-98204156D01*
X148905969Y-98207582D01*
X148892034Y-98224188D01*
X148892033Y-98224189D01*
X148881192Y-98242966D01*
X148878872Y-98246608D01*
X148825968Y-98322164D01*
X148825966Y-98322166D01*
X148825966Y-98322168D01*
X148824529Y-98325250D01*
X148786981Y-98405769D01*
X148784988Y-98409597D01*
X148774148Y-98428374D01*
X148766735Y-98448738D01*
X148765083Y-98452725D01*
X148726098Y-98536333D01*
X148702228Y-98625417D01*
X148700929Y-98629535D01*
X148693511Y-98649919D01*
X148693510Y-98649922D01*
X148689742Y-98671287D01*
X148688808Y-98675502D01*
X148664936Y-98764596D01*
X148656899Y-98856463D01*
X148656335Y-98860745D01*
X148652569Y-98882109D01*
X148652569Y-98903803D01*
X148652381Y-98908105D01*
X148647973Y-98958497D01*
X148644386Y-98999498D01*
X148644342Y-98999997D01*
X145000502Y-98999997D01*
X145000500Y-98999951D01*
X145000500Y-97155000D01*
X158711075Y-97155000D01*
X158723586Y-97203049D01*
X158819645Y-97415553D01*
X158819647Y-97415557D01*
X158950236Y-97608772D01*
X159111601Y-97777137D01*
X159111603Y-97777138D01*
X159299110Y-97915817D01*
X159384999Y-97959121D01*
X159385000Y-97959121D01*
X159385000Y-97155001D01*
X159384999Y-97155000D01*
X158711075Y-97155000D01*
X145000500Y-97155000D01*
X145000500Y-96520000D01*
X159419866Y-96520000D01*
X159440315Y-96675326D01*
X159500269Y-96820067D01*
X159595641Y-96944359D01*
X159719933Y-97039731D01*
X159864674Y-97099685D01*
X159981003Y-97115000D01*
X160058997Y-97115000D01*
X160175326Y-97099685D01*
X160320067Y-97039731D01*
X160444359Y-96944359D01*
X160539731Y-96820067D01*
X160599685Y-96675326D01*
X160620134Y-96520000D01*
X160599685Y-96364674D01*
X160539731Y-96219933D01*
X160444359Y-96095641D01*
X160320067Y-96000269D01*
X160175326Y-95940315D01*
X160058997Y-95925000D01*
X159981003Y-95925000D01*
X159864674Y-95940315D01*
X159719933Y-96000269D01*
X159595641Y-96095641D01*
X159500269Y-96219933D01*
X159440315Y-96364674D01*
X159419866Y-96520000D01*
X145000500Y-96520000D01*
X145000500Y-95885000D01*
X158711864Y-95885000D01*
X159384999Y-95885000D01*
X159385000Y-95884999D01*
X159385000Y-95077114D01*
X159384999Y-95077114D01*
X159202417Y-95189535D01*
X159202405Y-95189544D01*
X159027342Y-95343618D01*
X158880839Y-95525060D01*
X158880834Y-95525067D01*
X158767106Y-95728651D01*
X158767101Y-95728660D01*
X158711864Y-95885000D01*
X145000500Y-95885000D01*
X145000500Y-50041509D01*
X145000502Y-50041502D01*
X145000502Y-50000000D01*
X148644341Y-50000000D01*
X148652380Y-50091893D01*
X148652568Y-50096192D01*
X148652568Y-50117893D01*
X148656334Y-50139249D01*
X148656898Y-50143532D01*
X148664935Y-50235403D01*
X148688807Y-50324497D01*
X148689741Y-50328711D01*
X148693509Y-50350072D01*
X148693510Y-50350075D01*
X148700923Y-50370446D01*
X148702222Y-50374564D01*
X148726093Y-50463654D01*
X148726097Y-50463663D01*
X148765085Y-50547273D01*
X148766731Y-50551247D01*
X148773000Y-50568471D01*
X148774148Y-50571624D01*
X148784982Y-50590389D01*
X148786977Y-50594222D01*
X148825960Y-50677821D01*
X148825965Y-50677831D01*
X148878873Y-50753390D01*
X148881193Y-50757032D01*
X148892033Y-50775807D01*
X148905963Y-50792408D01*
X148908594Y-50795836D01*
X148961502Y-50871397D01*
X148961505Y-50871401D01*
X149026738Y-50936635D01*
X149029651Y-50939814D01*
X149043583Y-50956417D01*
X149043589Y-50956422D01*
X149043591Y-50956424D01*
X149060185Y-50970348D01*
X149063369Y-50973266D01*
X149128598Y-51038494D01*
X149128606Y-51038501D01*
X149171607Y-51068610D01*
X149204174Y-51091413D01*
X149207573Y-51094021D01*
X149224193Y-51107967D01*
X149242975Y-51118811D01*
X149246601Y-51121121D01*
X149322170Y-51174035D01*
X149405790Y-51213028D01*
X149409592Y-51215007D01*
X149428376Y-51225852D01*
X149448759Y-51233271D01*
X149452711Y-51234907D01*
X149536337Y-51273903D01*
X149591544Y-51288695D01*
X149625436Y-51297777D01*
X149629527Y-51299065D01*
X149649927Y-51306491D01*
X149671306Y-51310260D01*
X149675494Y-51311189D01*
X149764592Y-51335063D01*
X149764596Y-51335063D01*
X149764599Y-51335064D01*
X149785805Y-51336919D01*
X149856497Y-51343103D01*
X149860717Y-51343659D01*
X149882115Y-51347432D01*
X149882118Y-51347432D01*
X149903807Y-51347432D01*
X149908107Y-51347619D01*
X149975165Y-51353486D01*
X149999997Y-51355659D01*
X150000000Y-51355659D01*
X150000003Y-51355659D01*
X150024834Y-51353486D01*
X150091892Y-51347619D01*
X150096193Y-51347432D01*
X150117883Y-51347432D01*
X150117885Y-51347432D01*
X150139285Y-51343658D01*
X150143480Y-51343105D01*
X150235408Y-51335063D01*
X150324517Y-51311186D01*
X150328690Y-51310261D01*
X150350073Y-51306491D01*
X150370476Y-51299064D01*
X150374545Y-51297781D01*
X150463663Y-51273903D01*
X150547294Y-51234904D01*
X150551222Y-51233277D01*
X150571624Y-51225852D01*
X150590433Y-51214992D01*
X150594192Y-51213035D01*
X150677830Y-51174035D01*
X150753423Y-51121103D01*
X150757002Y-51118823D01*
X150775807Y-51107967D01*
X150792431Y-51094017D01*
X150795812Y-51091422D01*
X150871401Y-51038495D01*
X150936649Y-50973246D01*
X150939793Y-50970365D01*
X150956417Y-50956417D01*
X150970365Y-50939793D01*
X150973246Y-50936649D01*
X151038495Y-50871401D01*
X151091422Y-50795812D01*
X151094017Y-50792431D01*
X151107967Y-50775807D01*
X151118823Y-50757002D01*
X151121103Y-50753423D01*
X151174035Y-50677830D01*
X151210777Y-50599034D01*
X151252503Y-50554289D01*
X151312564Y-50542614D01*
X151368017Y-50568471D01*
X151397681Y-50621985D01*
X151399500Y-50640876D01*
X151399500Y-55867284D01*
X151397243Y-55956357D01*
X151397244Y-55956372D01*
X151408148Y-56017209D01*
X151408671Y-56020934D01*
X151414926Y-56082437D01*
X151414927Y-56082444D01*
X151425445Y-56115967D01*
X151426939Y-56122055D01*
X151433140Y-56156646D01*
X151433142Y-56156654D01*
X151456069Y-56214051D01*
X151457330Y-56217594D01*
X151475838Y-56276582D01*
X151475840Y-56276586D01*
X151475841Y-56276588D01*
X151492900Y-56307322D01*
X151495584Y-56312976D01*
X151508623Y-56345617D01*
X151531745Y-56380702D01*
X151542638Y-56397230D01*
X151544587Y-56400446D01*
X151574592Y-56454503D01*
X151597483Y-56481168D01*
X151601260Y-56486177D01*
X151620598Y-56515519D01*
X151620600Y-56515521D01*
X151664315Y-56559237D01*
X151666872Y-56561996D01*
X151707134Y-56608895D01*
X151734922Y-56630404D01*
X151739625Y-56634546D01*
X166860598Y-71755519D01*
X167880504Y-72775424D01*
X167908281Y-72829941D01*
X167909500Y-72845428D01*
X167909500Y-78331257D01*
X167890593Y-78389448D01*
X167841093Y-78425412D01*
X167779907Y-78425412D01*
X167730407Y-78389448D01*
X167726674Y-78383928D01*
X167634818Y-78237741D01*
X167634817Y-78237740D01*
X167634816Y-78237738D01*
X167507262Y-78110184D01*
X167507259Y-78110182D01*
X167507258Y-78110181D01*
X167354523Y-78014211D01*
X167184261Y-77954633D01*
X167184257Y-77954632D01*
X167005000Y-77934435D01*
X166825742Y-77954632D01*
X166825738Y-77954633D01*
X166655477Y-78014211D01*
X166655476Y-78014211D01*
X166559805Y-78074326D01*
X166507134Y-78089500D01*
X164631657Y-78089500D01*
X164578986Y-78074326D01*
X164483314Y-78014211D01*
X164313052Y-77954633D01*
X164313048Y-77954632D01*
X164133791Y-77934435D01*
X163954533Y-77954632D01*
X163954529Y-77954633D01*
X163784268Y-78014211D01*
X163784267Y-78014211D01*
X163631532Y-78110181D01*
X163503972Y-78237741D01*
X163408002Y-78390476D01*
X163408002Y-78390477D01*
X163348424Y-78560738D01*
X163348423Y-78560742D01*
X163328226Y-78740000D01*
X163348423Y-78919257D01*
X163348424Y-78919261D01*
X163408002Y-79089522D01*
X163408002Y-79089523D01*
X163468937Y-79186500D01*
X163503975Y-79242262D01*
X163631529Y-79369816D01*
X163631531Y-79369817D01*
X163631532Y-79369818D01*
X163688596Y-79405674D01*
X163784269Y-79465789D01*
X163852448Y-79489646D01*
X163954529Y-79525366D01*
X163954533Y-79525367D01*
X163954536Y-79525368D01*
X164133791Y-79545565D01*
X164313046Y-79525368D01*
X164483313Y-79465789D01*
X164578986Y-79405674D01*
X164631657Y-79390500D01*
X166507134Y-79390500D01*
X166559805Y-79405674D01*
X166655478Y-79465789D01*
X166723657Y-79489646D01*
X166825738Y-79525366D01*
X166825742Y-79525367D01*
X166825745Y-79525368D01*
X167005000Y-79545565D01*
X167184255Y-79525368D01*
X167354522Y-79465789D01*
X167507262Y-79369816D01*
X167634816Y-79242262D01*
X167726674Y-79096071D01*
X167773643Y-79056859D01*
X167834690Y-79052743D01*
X167886497Y-79085295D01*
X167909276Y-79142082D01*
X167909500Y-79148742D01*
X167909500Y-80740965D01*
X167899121Y-80785092D01*
X167856007Y-80871677D01*
X167798924Y-81072302D01*
X167779678Y-81280000D01*
X167798924Y-81487697D01*
X167804329Y-81506692D01*
X167856006Y-81688319D01*
X167948981Y-81875038D01*
X168074682Y-82041493D01*
X168228829Y-82182016D01*
X168237662Y-82187485D01*
X168406163Y-82291818D01*
X168406167Y-82291820D01*
X168406172Y-82291823D01*
X168600673Y-82367173D01*
X168805707Y-82405500D01*
X169014293Y-82405500D01*
X169219327Y-82367173D01*
X169413828Y-82291823D01*
X169591171Y-82182016D01*
X169745318Y-82041493D01*
X169871019Y-81875038D01*
X169963994Y-81688319D01*
X170021076Y-81487696D01*
X170040322Y-81280000D01*
X170021076Y-81072304D01*
X169963994Y-80871681D01*
X169963629Y-80870948D01*
X169920879Y-80785092D01*
X169910500Y-80740965D01*
X169910500Y-75044428D01*
X169929407Y-74986237D01*
X169978907Y-74950273D01*
X170040093Y-74950273D01*
X170079504Y-74974424D01*
X176708978Y-81603898D01*
X176734194Y-81646808D01*
X176746005Y-81688317D01*
X176746006Y-81688319D01*
X176838981Y-81875038D01*
X176964682Y-82041493D01*
X177118829Y-82182016D01*
X177127662Y-82187485D01*
X177296163Y-82291818D01*
X177296167Y-82291820D01*
X177296172Y-82291823D01*
X177490673Y-82367173D01*
X177695707Y-82405500D01*
X177904293Y-82405500D01*
X178109327Y-82367173D01*
X178303828Y-82291823D01*
X178481171Y-82182016D01*
X178635318Y-82041493D01*
X178761019Y-81875038D01*
X178853994Y-81688319D01*
X178911076Y-81487696D01*
X178930322Y-81280003D01*
X189194532Y-81280003D01*
X189214363Y-81506684D01*
X189273262Y-81726500D01*
X189369426Y-81932723D01*
X189369434Y-81932737D01*
X189499946Y-82119130D01*
X189499947Y-82119132D01*
X189499950Y-82119135D01*
X189499953Y-82119139D01*
X189660861Y-82280047D01*
X189660864Y-82280049D01*
X189660867Y-82280052D01*
X189660869Y-82280053D01*
X189721249Y-82322331D01*
X189847266Y-82410568D01*
X189847272Y-82410571D01*
X189847276Y-82410573D01*
X190053500Y-82506737D01*
X190053504Y-82506739D01*
X190273308Y-82565635D01*
X190273312Y-82565635D01*
X190273315Y-82565636D01*
X190499997Y-82585468D01*
X190500000Y-82585468D01*
X190500003Y-82585468D01*
X190726684Y-82565636D01*
X190726685Y-82565635D01*
X190726692Y-82565635D01*
X190946496Y-82506739D01*
X191152734Y-82410568D01*
X191339139Y-82280047D01*
X191500047Y-82119139D01*
X191630568Y-81932734D01*
X191726739Y-81726496D01*
X191785635Y-81506692D01*
X191805468Y-81280000D01*
X191785635Y-81053308D01*
X191726739Y-80833504D01*
X191657476Y-80684969D01*
X191630573Y-80627276D01*
X191630571Y-80627272D01*
X191630568Y-80627266D01*
X191500053Y-80440869D01*
X191500052Y-80440867D01*
X191500049Y-80440864D01*
X191500047Y-80440861D01*
X191339139Y-80279953D01*
X191339135Y-80279950D01*
X191339132Y-80279947D01*
X191339130Y-80279946D01*
X191152737Y-80149434D01*
X191152736Y-80149433D01*
X191152734Y-80149432D01*
X191152731Y-80149430D01*
X191152723Y-80149426D01*
X191046137Y-80099724D01*
X191001389Y-80057996D01*
X190989714Y-79997935D01*
X191015572Y-79942482D01*
X191046137Y-79920276D01*
X191152723Y-79870573D01*
X191152721Y-79870573D01*
X191152734Y-79870568D01*
X191339139Y-79740047D01*
X191500047Y-79579139D01*
X191630568Y-79392734D01*
X191726739Y-79186496D01*
X191785635Y-78966692D01*
X191805468Y-78740003D01*
X196814532Y-78740003D01*
X196834363Y-78966684D01*
X196893262Y-79186500D01*
X196989426Y-79392723D01*
X196989434Y-79392737D01*
X197119946Y-79579130D01*
X197119947Y-79579132D01*
X197119950Y-79579135D01*
X197119953Y-79579139D01*
X197280861Y-79740047D01*
X197365633Y-79799404D01*
X197402455Y-79848268D01*
X197403523Y-79909444D01*
X197368430Y-79959564D01*
X197310578Y-79979485D01*
X197308852Y-79979500D01*
X197272134Y-79979500D01*
X197272129Y-79979500D01*
X197272128Y-79979501D01*
X197264949Y-79980272D01*
X197212519Y-79985908D01*
X197212514Y-79985909D01*
X197077670Y-80036202D01*
X196962458Y-80122450D01*
X196962450Y-80122458D01*
X196876202Y-80237670D01*
X196825910Y-80372511D01*
X196825908Y-80372522D01*
X196819500Y-80432129D01*
X196819500Y-82127866D01*
X196819501Y-82127870D01*
X196825908Y-82187480D01*
X196825909Y-82187485D01*
X196876202Y-82322329D01*
X196938464Y-82405500D01*
X196962454Y-82437546D01*
X196962457Y-82437548D01*
X196962458Y-82437549D01*
X197077670Y-82523797D01*
X197212511Y-82574089D01*
X197212512Y-82574089D01*
X197212517Y-82574091D01*
X197272127Y-82580500D01*
X198967872Y-82580499D01*
X199027483Y-82574091D01*
X199094907Y-82548943D01*
X199162329Y-82523797D01*
X199162329Y-82523796D01*
X199162331Y-82523796D01*
X199277546Y-82437546D01*
X199363796Y-82322331D01*
X199375176Y-82291821D01*
X199414089Y-82187488D01*
X199414090Y-82187485D01*
X199414091Y-82187483D01*
X199420500Y-82127873D01*
X199420499Y-80432128D01*
X199414091Y-80372517D01*
X199379565Y-80279947D01*
X199363797Y-80237670D01*
X199277549Y-80122458D01*
X199277548Y-80122457D01*
X199277546Y-80122454D01*
X199247183Y-80099724D01*
X199162329Y-80036202D01*
X199027488Y-79985910D01*
X199027483Y-79985909D01*
X199027481Y-79985908D01*
X199027477Y-79985908D01*
X198996249Y-79982550D01*
X198967873Y-79979500D01*
X198967870Y-79979500D01*
X198931152Y-79979500D01*
X198872961Y-79960593D01*
X198836997Y-79911093D01*
X198836997Y-79849907D01*
X198872961Y-79800407D01*
X198874368Y-79799404D01*
X198959130Y-79740053D01*
X198959139Y-79740047D01*
X199120047Y-79579139D01*
X199250568Y-79392734D01*
X199346739Y-79186496D01*
X199405635Y-78966692D01*
X199425468Y-78740000D01*
X199425468Y-78739996D01*
X199405636Y-78513315D01*
X199405635Y-78513312D01*
X199405635Y-78513308D01*
X199346739Y-78293504D01*
X199250568Y-78087266D01*
X199120053Y-77900869D01*
X199120052Y-77900867D01*
X199120049Y-77900864D01*
X199120047Y-77900861D01*
X198959139Y-77739953D01*
X198959135Y-77739950D01*
X198959132Y-77739947D01*
X198959130Y-77739946D01*
X198772737Y-77609434D01*
X198772736Y-77609433D01*
X198772734Y-77609432D01*
X198772731Y-77609430D01*
X198772723Y-77609426D01*
X198666137Y-77559724D01*
X198621389Y-77517996D01*
X198609714Y-77457935D01*
X198635572Y-77402482D01*
X198666137Y-77380276D01*
X198772723Y-77330573D01*
X198772721Y-77330573D01*
X198772734Y-77330568D01*
X198959139Y-77200047D01*
X199120047Y-77039139D01*
X199250568Y-76852734D01*
X199346739Y-76646496D01*
X199405635Y-76426692D01*
X199425468Y-76200000D01*
X199405635Y-75973308D01*
X199346739Y-75753504D01*
X199250568Y-75547266D01*
X199120053Y-75360869D01*
X199120052Y-75360867D01*
X199120049Y-75360864D01*
X199120047Y-75360861D01*
X198959139Y-75199953D01*
X198959135Y-75199950D01*
X198959132Y-75199947D01*
X198959130Y-75199946D01*
X198772737Y-75069434D01*
X198772736Y-75069433D01*
X198772734Y-75069432D01*
X198772731Y-75069430D01*
X198772723Y-75069426D01*
X198666137Y-75019724D01*
X198621389Y-74977996D01*
X198609714Y-74917935D01*
X198635572Y-74862482D01*
X198666137Y-74840276D01*
X198772723Y-74790573D01*
X198772721Y-74790573D01*
X198772734Y-74790568D01*
X198959139Y-74660047D01*
X199120047Y-74499139D01*
X199250568Y-74312734D01*
X199346739Y-74106496D01*
X199405635Y-73886692D01*
X199425468Y-73660000D01*
X199405635Y-73433308D01*
X199346739Y-73213504D01*
X199250568Y-73007266D01*
X199120053Y-72820869D01*
X199120052Y-72820867D01*
X199120049Y-72820864D01*
X199120047Y-72820861D01*
X198959139Y-72659953D01*
X198959135Y-72659950D01*
X198959132Y-72659947D01*
X198959130Y-72659946D01*
X198772737Y-72529434D01*
X198772736Y-72529433D01*
X198772734Y-72529432D01*
X198772731Y-72529430D01*
X198772723Y-72529426D01*
X198666137Y-72479724D01*
X198621389Y-72437996D01*
X198609714Y-72377935D01*
X198635572Y-72322482D01*
X198666137Y-72300276D01*
X198772723Y-72250573D01*
X198772721Y-72250573D01*
X198772734Y-72250568D01*
X198959139Y-72120047D01*
X199120047Y-71959139D01*
X199250568Y-71772734D01*
X199346739Y-71566496D01*
X199405635Y-71346692D01*
X199407757Y-71322444D01*
X199425468Y-71120003D01*
X199425468Y-71119996D01*
X199405636Y-70893315D01*
X199405635Y-70893312D01*
X199405635Y-70893308D01*
X199346739Y-70673504D01*
X199346737Y-70673499D01*
X199250573Y-70467276D01*
X199250571Y-70467272D01*
X199250568Y-70467266D01*
X199120053Y-70280869D01*
X199120052Y-70280867D01*
X199120049Y-70280864D01*
X199120047Y-70280861D01*
X198959139Y-70119953D01*
X198959135Y-70119950D01*
X198959132Y-70119947D01*
X198959130Y-70119946D01*
X198772737Y-69989434D01*
X198772736Y-69989433D01*
X198772734Y-69989432D01*
X198772731Y-69989430D01*
X198772723Y-69989426D01*
X198666137Y-69939724D01*
X198621389Y-69897996D01*
X198609714Y-69837935D01*
X198635572Y-69782482D01*
X198666137Y-69760276D01*
X198772723Y-69710573D01*
X198772721Y-69710573D01*
X198772734Y-69710568D01*
X198959139Y-69580047D01*
X199120047Y-69419139D01*
X199250568Y-69232734D01*
X199346739Y-69026496D01*
X199405635Y-68806692D01*
X199406038Y-68802094D01*
X199425468Y-68580003D01*
X199425468Y-68579996D01*
X199405636Y-68353315D01*
X199405635Y-68353312D01*
X199405635Y-68353308D01*
X199346739Y-68133504D01*
X199306887Y-68048041D01*
X199250573Y-67927276D01*
X199250571Y-67927272D01*
X199250568Y-67927266D01*
X199129657Y-67754585D01*
X199120053Y-67740869D01*
X199120052Y-67740867D01*
X199120049Y-67740864D01*
X199120047Y-67740861D01*
X198959139Y-67579953D01*
X198959135Y-67579950D01*
X198959132Y-67579947D01*
X198959130Y-67579946D01*
X198772737Y-67449434D01*
X198772736Y-67449433D01*
X198772734Y-67449432D01*
X198772731Y-67449430D01*
X198772723Y-67449426D01*
X198666137Y-67399724D01*
X198621389Y-67357996D01*
X198609714Y-67297935D01*
X198635572Y-67242482D01*
X198666137Y-67220276D01*
X198772723Y-67170573D01*
X198772721Y-67170573D01*
X198772734Y-67170568D01*
X198959139Y-67040047D01*
X199120047Y-66879139D01*
X199250568Y-66692734D01*
X199346739Y-66486496D01*
X199405635Y-66266692D01*
X199425468Y-66040000D01*
X199405635Y-65813308D01*
X199346739Y-65593504D01*
X199250568Y-65387266D01*
X199120053Y-65200869D01*
X199120052Y-65200867D01*
X199120049Y-65200864D01*
X199120047Y-65200861D01*
X198959139Y-65039953D01*
X198959135Y-65039950D01*
X198959132Y-65039947D01*
X198959130Y-65039946D01*
X198772737Y-64909434D01*
X198772736Y-64909433D01*
X198772734Y-64909432D01*
X198772731Y-64909430D01*
X198772723Y-64909426D01*
X198666137Y-64859724D01*
X198621389Y-64817996D01*
X198609714Y-64757935D01*
X198635572Y-64702482D01*
X198666137Y-64680276D01*
X198772723Y-64630573D01*
X198772721Y-64630573D01*
X198772734Y-64630568D01*
X198959139Y-64500047D01*
X199120047Y-64339139D01*
X199250568Y-64152734D01*
X199346739Y-63946496D01*
X199405635Y-63726692D01*
X199425468Y-63500000D01*
X199405635Y-63273308D01*
X199346739Y-63053504D01*
X199250568Y-62847266D01*
X199120053Y-62660869D01*
X199120052Y-62660867D01*
X199120049Y-62660864D01*
X199120047Y-62660861D01*
X198959139Y-62499953D01*
X198959135Y-62499950D01*
X198959132Y-62499947D01*
X198959130Y-62499946D01*
X198772737Y-62369434D01*
X198772736Y-62369433D01*
X198772734Y-62369432D01*
X198772731Y-62369430D01*
X198772723Y-62369426D01*
X198566499Y-62273262D01*
X198566500Y-62273262D01*
X198493228Y-62253629D01*
X198346692Y-62214365D01*
X198346691Y-62214364D01*
X198346684Y-62214363D01*
X198120003Y-62194532D01*
X198119997Y-62194532D01*
X197893315Y-62214363D01*
X197673499Y-62273262D01*
X197467276Y-62369426D01*
X197467262Y-62369434D01*
X197280869Y-62499946D01*
X197280867Y-62499947D01*
X197119947Y-62660867D01*
X197119946Y-62660869D01*
X196989434Y-62847262D01*
X196989426Y-62847276D01*
X196893262Y-63053499D01*
X196834363Y-63273315D01*
X196814532Y-63499996D01*
X196814532Y-63500003D01*
X196834363Y-63726684D01*
X196893262Y-63946500D01*
X196989426Y-64152723D01*
X196989434Y-64152737D01*
X197119946Y-64339130D01*
X197119947Y-64339132D01*
X197119950Y-64339135D01*
X197119953Y-64339139D01*
X197280861Y-64500047D01*
X197280864Y-64500049D01*
X197280867Y-64500052D01*
X197280869Y-64500053D01*
X197405131Y-64587061D01*
X197467266Y-64630568D01*
X197467267Y-64630568D01*
X197467271Y-64630571D01*
X197573863Y-64680276D01*
X197618611Y-64722004D01*
X197630285Y-64782065D01*
X197604427Y-64837518D01*
X197573863Y-64859724D01*
X197467271Y-64909428D01*
X197467262Y-64909434D01*
X197280869Y-65039946D01*
X197280867Y-65039947D01*
X197119947Y-65200867D01*
X197119946Y-65200869D01*
X196989434Y-65387262D01*
X196989426Y-65387276D01*
X196893262Y-65593499D01*
X196834363Y-65813315D01*
X196814532Y-66039996D01*
X196814532Y-66040003D01*
X196834363Y-66266684D01*
X196893262Y-66486500D01*
X196989426Y-66692723D01*
X196989434Y-66692737D01*
X197119946Y-66879130D01*
X197119947Y-66879132D01*
X197119950Y-66879135D01*
X197119953Y-66879139D01*
X197280861Y-67040047D01*
X197280864Y-67040049D01*
X197280867Y-67040052D01*
X197280869Y-67040053D01*
X197405131Y-67127061D01*
X197467266Y-67170568D01*
X197467267Y-67170568D01*
X197467271Y-67170571D01*
X197573863Y-67220276D01*
X197618611Y-67262004D01*
X197630285Y-67322065D01*
X197604427Y-67377518D01*
X197573863Y-67399724D01*
X197467271Y-67449428D01*
X197467262Y-67449434D01*
X197280869Y-67579946D01*
X197280867Y-67579947D01*
X197119947Y-67740867D01*
X197119946Y-67740869D01*
X196989434Y-67927262D01*
X196989426Y-67927276D01*
X196893262Y-68133499D01*
X196834363Y-68353315D01*
X196814532Y-68579996D01*
X196814532Y-68580003D01*
X196834363Y-68806684D01*
X196893262Y-69026500D01*
X196989426Y-69232723D01*
X196989434Y-69232737D01*
X197119946Y-69419130D01*
X197119947Y-69419132D01*
X197119950Y-69419135D01*
X197119953Y-69419139D01*
X197280861Y-69580047D01*
X197280864Y-69580049D01*
X197280867Y-69580052D01*
X197280869Y-69580053D01*
X197405131Y-69667061D01*
X197467266Y-69710568D01*
X197467267Y-69710568D01*
X197467271Y-69710571D01*
X197573863Y-69760276D01*
X197618611Y-69802004D01*
X197630285Y-69862065D01*
X197604427Y-69917518D01*
X197573863Y-69939724D01*
X197467271Y-69989428D01*
X197467262Y-69989434D01*
X197280869Y-70119946D01*
X197280867Y-70119947D01*
X197119947Y-70280867D01*
X197119946Y-70280869D01*
X196989434Y-70467262D01*
X196989426Y-70467276D01*
X196893262Y-70673499D01*
X196834363Y-70893315D01*
X196814532Y-71119996D01*
X196814532Y-71120003D01*
X196834363Y-71346684D01*
X196834364Y-71346691D01*
X196834365Y-71346692D01*
X196847750Y-71396646D01*
X196893262Y-71566500D01*
X196989426Y-71772723D01*
X196989434Y-71772737D01*
X197119946Y-71959130D01*
X197119947Y-71959132D01*
X197119950Y-71959135D01*
X197119953Y-71959139D01*
X197280861Y-72120047D01*
X197280864Y-72120049D01*
X197280867Y-72120052D01*
X197280869Y-72120053D01*
X197405131Y-72207061D01*
X197467266Y-72250568D01*
X197467267Y-72250568D01*
X197467271Y-72250571D01*
X197573863Y-72300276D01*
X197618611Y-72342004D01*
X197630285Y-72402065D01*
X197604427Y-72457518D01*
X197573863Y-72479724D01*
X197467271Y-72529428D01*
X197467262Y-72529434D01*
X197280869Y-72659946D01*
X197280867Y-72659947D01*
X197119947Y-72820867D01*
X197119946Y-72820869D01*
X196989434Y-73007262D01*
X196989426Y-73007276D01*
X196893262Y-73213499D01*
X196834363Y-73433315D01*
X196814532Y-73659996D01*
X196814532Y-73660003D01*
X196834363Y-73886684D01*
X196893262Y-74106500D01*
X196989426Y-74312723D01*
X196989434Y-74312737D01*
X197119946Y-74499130D01*
X197119947Y-74499132D01*
X197119950Y-74499135D01*
X197119953Y-74499139D01*
X197280861Y-74660047D01*
X197280864Y-74660049D01*
X197280867Y-74660052D01*
X197280869Y-74660053D01*
X197405131Y-74747061D01*
X197467266Y-74790568D01*
X197467267Y-74790568D01*
X197467271Y-74790571D01*
X197573863Y-74840276D01*
X197618611Y-74882004D01*
X197630285Y-74942065D01*
X197604427Y-74997518D01*
X197573863Y-75019724D01*
X197467271Y-75069428D01*
X197467262Y-75069434D01*
X197280869Y-75199946D01*
X197280867Y-75199947D01*
X197119947Y-75360867D01*
X197119946Y-75360869D01*
X196989434Y-75547262D01*
X196989426Y-75547276D01*
X196893262Y-75753499D01*
X196834363Y-75973315D01*
X196814532Y-76199996D01*
X196814532Y-76200003D01*
X196834363Y-76426684D01*
X196893262Y-76646500D01*
X196989426Y-76852723D01*
X196989434Y-76852737D01*
X197119946Y-77039130D01*
X197119947Y-77039132D01*
X197119950Y-77039135D01*
X197119953Y-77039139D01*
X197280861Y-77200047D01*
X197280864Y-77200049D01*
X197280867Y-77200052D01*
X197280869Y-77200053D01*
X197405131Y-77287061D01*
X197467266Y-77330568D01*
X197467267Y-77330568D01*
X197467271Y-77330571D01*
X197573863Y-77380276D01*
X197618611Y-77422004D01*
X197630285Y-77482065D01*
X197604427Y-77537518D01*
X197573863Y-77559724D01*
X197467271Y-77609428D01*
X197467262Y-77609434D01*
X197280869Y-77739946D01*
X197280867Y-77739947D01*
X197119947Y-77900867D01*
X197119946Y-77900869D01*
X196989434Y-78087262D01*
X196989426Y-78087276D01*
X196893262Y-78293499D01*
X196834363Y-78513315D01*
X196814532Y-78739996D01*
X196814532Y-78740003D01*
X191805468Y-78740003D01*
X191805468Y-78740000D01*
X191805468Y-78739996D01*
X191785636Y-78513315D01*
X191785635Y-78513312D01*
X191785635Y-78513308D01*
X191726739Y-78293504D01*
X191630568Y-78087266D01*
X191500053Y-77900869D01*
X191500052Y-77900867D01*
X191500049Y-77900864D01*
X191500047Y-77900861D01*
X191339139Y-77739953D01*
X191339135Y-77739950D01*
X191339132Y-77739947D01*
X191339130Y-77739946D01*
X191152737Y-77609434D01*
X191152724Y-77609426D01*
X191045545Y-77559448D01*
X191000797Y-77517720D01*
X190989122Y-77457659D01*
X191014980Y-77402206D01*
X191045545Y-77379999D01*
X191152481Y-77330134D01*
X191338811Y-77199665D01*
X191499665Y-77038811D01*
X191630131Y-76852487D01*
X191638286Y-76835000D01*
X189361714Y-76835000D01*
X189369868Y-76852487D01*
X189500334Y-77038811D01*
X189661188Y-77199665D01*
X189847518Y-77330134D01*
X189954454Y-77379999D01*
X189999202Y-77421728D01*
X190010877Y-77481789D01*
X189985019Y-77537242D01*
X189954454Y-77559448D01*
X189847276Y-77609426D01*
X189847262Y-77609434D01*
X189660869Y-77739946D01*
X189660867Y-77739947D01*
X189499947Y-77900867D01*
X189499946Y-77900869D01*
X189369434Y-78087262D01*
X189369426Y-78087276D01*
X189273262Y-78293499D01*
X189214363Y-78513315D01*
X189194532Y-78739996D01*
X189194532Y-78740003D01*
X189214363Y-78966684D01*
X189273262Y-79186500D01*
X189369426Y-79392723D01*
X189369434Y-79392737D01*
X189499946Y-79579130D01*
X189499947Y-79579132D01*
X189499950Y-79579135D01*
X189499953Y-79579139D01*
X189660861Y-79740047D01*
X189660864Y-79740049D01*
X189660867Y-79740052D01*
X189660869Y-79740053D01*
X189745631Y-79799403D01*
X189847266Y-79870568D01*
X189847267Y-79870568D01*
X189847271Y-79870571D01*
X189953863Y-79920276D01*
X189998611Y-79962004D01*
X190010285Y-80022065D01*
X189984427Y-80077518D01*
X189953863Y-80099724D01*
X189847271Y-80149428D01*
X189847262Y-80149434D01*
X189660869Y-80279946D01*
X189660867Y-80279947D01*
X189499947Y-80440867D01*
X189499946Y-80440869D01*
X189369434Y-80627262D01*
X189369426Y-80627276D01*
X189273262Y-80833499D01*
X189214363Y-81053315D01*
X189194532Y-81279996D01*
X189194532Y-81280003D01*
X178930322Y-81280003D01*
X178930322Y-81280000D01*
X178911076Y-81072304D01*
X178853994Y-80871681D01*
X178761019Y-80684962D01*
X178635318Y-80518507D01*
X178481171Y-80377984D01*
X178464960Y-80367946D01*
X178303836Y-80268181D01*
X178303833Y-80268180D01*
X178303832Y-80268179D01*
X178303828Y-80268177D01*
X178158867Y-80212018D01*
X178124628Y-80189708D01*
X174134920Y-76200000D01*
X190095014Y-76200000D01*
X190114835Y-76325148D01*
X190172359Y-76438045D01*
X190261955Y-76527641D01*
X190374852Y-76585165D01*
X190468519Y-76600000D01*
X190531481Y-76600000D01*
X190625148Y-76585165D01*
X190738045Y-76527641D01*
X190827641Y-76438045D01*
X190885165Y-76325148D01*
X190904986Y-76200000D01*
X190885165Y-76074852D01*
X190827641Y-75961955D01*
X190738045Y-75872359D01*
X190625148Y-75814835D01*
X190531481Y-75800000D01*
X190468519Y-75800000D01*
X190374852Y-75814835D01*
X190261955Y-75872359D01*
X190172359Y-75961955D01*
X190114835Y-76074852D01*
X190095014Y-76200000D01*
X174134920Y-76200000D01*
X169689403Y-71754482D01*
X169645683Y-71710761D01*
X169643125Y-71708001D01*
X169631536Y-71694502D01*
X169602866Y-71661105D01*
X169575075Y-71639593D01*
X169570374Y-71635452D01*
X168311580Y-70376660D01*
X156354923Y-58420003D01*
X181874659Y-58420003D01*
X181879261Y-58466728D01*
X181879500Y-58471583D01*
X181879500Y-71107284D01*
X181877243Y-71196357D01*
X181877244Y-71196372D01*
X181888148Y-71257209D01*
X181888671Y-71260934D01*
X181894926Y-71322437D01*
X181894927Y-71322444D01*
X181905445Y-71355967D01*
X181906939Y-71362055D01*
X181913140Y-71396646D01*
X181913142Y-71396654D01*
X181936069Y-71454051D01*
X181937330Y-71457594D01*
X181955838Y-71516582D01*
X181955840Y-71516586D01*
X181955841Y-71516588D01*
X181972900Y-71547322D01*
X181975584Y-71552976D01*
X181988623Y-71585617D01*
X182011745Y-71620702D01*
X182022638Y-71637230D01*
X182024587Y-71640446D01*
X182054592Y-71694503D01*
X182077483Y-71721168D01*
X182081260Y-71726177D01*
X182100598Y-71755519D01*
X182100600Y-71755521D01*
X182144315Y-71799237D01*
X182146872Y-71801996D01*
X182187134Y-71848895D01*
X182214922Y-71870404D01*
X182219625Y-71874546D01*
X184703566Y-74358487D01*
X184764941Y-74423053D01*
X184799556Y-74447145D01*
X184815683Y-74458371D01*
X184818686Y-74460636D01*
X184866591Y-74499697D01*
X184880661Y-74507046D01*
X184897741Y-74515967D01*
X184903100Y-74519214D01*
X184931948Y-74539293D01*
X184931951Y-74539295D01*
X184988783Y-74563683D01*
X184992146Y-74565281D01*
X185046951Y-74593909D01*
X185080732Y-74603574D01*
X185086642Y-74605678D01*
X185118942Y-74619540D01*
X185179500Y-74631984D01*
X185183150Y-74632879D01*
X185242582Y-74649886D01*
X185277631Y-74652555D01*
X185283819Y-74653422D01*
X185318259Y-74660500D01*
X185380079Y-74660500D01*
X185383834Y-74660642D01*
X185445476Y-74665337D01*
X185475605Y-74661499D01*
X185480340Y-74660897D01*
X185486600Y-74660500D01*
X189630294Y-74660500D01*
X189687077Y-74678403D01*
X189847266Y-74790568D01*
X189954455Y-74840551D01*
X189999202Y-74882278D01*
X190010877Y-74942340D01*
X189985019Y-74997793D01*
X189954455Y-75019999D01*
X189847522Y-75069862D01*
X189847519Y-75069864D01*
X189661188Y-75200334D01*
X189500334Y-75361188D01*
X189369868Y-75547512D01*
X189361714Y-75565000D01*
X191638286Y-75565000D01*
X191630131Y-75547512D01*
X191499665Y-75361188D01*
X191338811Y-75200334D01*
X191152480Y-75069864D01*
X191152472Y-75069860D01*
X191045545Y-75019999D01*
X191000797Y-74978271D01*
X190989122Y-74918210D01*
X191014980Y-74862757D01*
X191045539Y-74840553D01*
X191152734Y-74790568D01*
X191339139Y-74660047D01*
X191500047Y-74499139D01*
X191630568Y-74312734D01*
X191726739Y-74106496D01*
X191785635Y-73886692D01*
X191805468Y-73660000D01*
X191785635Y-73433308D01*
X191726739Y-73213504D01*
X191630568Y-73007266D01*
X191500053Y-72820869D01*
X191500052Y-72820867D01*
X191500049Y-72820864D01*
X191500047Y-72820861D01*
X191339139Y-72659953D01*
X191339135Y-72659950D01*
X191339132Y-72659947D01*
X191339130Y-72659946D01*
X191152737Y-72529434D01*
X191152736Y-72529433D01*
X191152734Y-72529432D01*
X191152731Y-72529430D01*
X191152723Y-72529426D01*
X191046137Y-72479724D01*
X191001389Y-72437996D01*
X190989714Y-72377935D01*
X191015572Y-72322482D01*
X191046137Y-72300276D01*
X191152723Y-72250573D01*
X191152721Y-72250573D01*
X191152734Y-72250568D01*
X191339139Y-72120047D01*
X191500047Y-71959139D01*
X191630568Y-71772734D01*
X191726739Y-71566496D01*
X191785635Y-71346692D01*
X191787757Y-71322444D01*
X191805468Y-71120003D01*
X191805468Y-71119996D01*
X191785636Y-70893315D01*
X191785635Y-70893312D01*
X191785635Y-70893308D01*
X191726739Y-70673504D01*
X191726737Y-70673499D01*
X191630573Y-70467276D01*
X191630571Y-70467272D01*
X191630568Y-70467266D01*
X191500053Y-70280869D01*
X191500052Y-70280867D01*
X191500049Y-70280864D01*
X191500047Y-70280861D01*
X191339139Y-70119953D01*
X191339135Y-70119950D01*
X191339132Y-70119947D01*
X191339130Y-70119946D01*
X191152737Y-69989434D01*
X191152736Y-69989433D01*
X191152734Y-69989432D01*
X191152731Y-69989430D01*
X191152723Y-69989426D01*
X191046137Y-69939724D01*
X191001389Y-69897996D01*
X190989714Y-69837935D01*
X191015572Y-69782482D01*
X191046137Y-69760276D01*
X191152723Y-69710573D01*
X191152721Y-69710573D01*
X191152734Y-69710568D01*
X191339139Y-69580047D01*
X191500047Y-69419139D01*
X191630568Y-69232734D01*
X191726739Y-69026496D01*
X191785635Y-68806692D01*
X191786038Y-68802094D01*
X191805468Y-68580003D01*
X191805468Y-68579996D01*
X191785636Y-68353315D01*
X191785635Y-68353312D01*
X191785635Y-68353308D01*
X191726739Y-68133504D01*
X191686887Y-68048041D01*
X191630573Y-67927276D01*
X191630571Y-67927272D01*
X191630568Y-67927266D01*
X191509657Y-67754585D01*
X191500053Y-67740869D01*
X191500052Y-67740867D01*
X191500049Y-67740864D01*
X191500047Y-67740861D01*
X191339139Y-67579953D01*
X191339135Y-67579950D01*
X191339132Y-67579947D01*
X191339130Y-67579946D01*
X191152737Y-67449434D01*
X191152736Y-67449433D01*
X191152734Y-67449432D01*
X191152731Y-67449430D01*
X191152723Y-67449426D01*
X191046137Y-67399724D01*
X191001389Y-67357996D01*
X190989714Y-67297935D01*
X191015572Y-67242482D01*
X191046137Y-67220276D01*
X191152723Y-67170573D01*
X191152721Y-67170573D01*
X191152734Y-67170568D01*
X191339139Y-67040047D01*
X191500047Y-66879139D01*
X191630568Y-66692734D01*
X191726739Y-66486496D01*
X191785635Y-66266692D01*
X191805468Y-66040000D01*
X191785635Y-65813308D01*
X191726739Y-65593504D01*
X191630568Y-65387266D01*
X191500053Y-65200869D01*
X191500052Y-65200867D01*
X191500049Y-65200864D01*
X191500047Y-65200861D01*
X191339139Y-65039953D01*
X191339135Y-65039950D01*
X191339132Y-65039947D01*
X191339130Y-65039946D01*
X191152737Y-64909434D01*
X191152724Y-64909426D01*
X191045545Y-64859448D01*
X191000797Y-64817720D01*
X190989122Y-64757659D01*
X191014980Y-64702206D01*
X191045545Y-64679999D01*
X191152481Y-64630134D01*
X191338811Y-64499665D01*
X191499665Y-64338811D01*
X191630131Y-64152487D01*
X191638286Y-64135000D01*
X189361714Y-64135000D01*
X189369868Y-64152487D01*
X189500334Y-64338811D01*
X189661188Y-64499665D01*
X189847518Y-64630134D01*
X189954454Y-64679999D01*
X189999202Y-64721728D01*
X190010877Y-64781789D01*
X189985019Y-64837242D01*
X189954454Y-64859448D01*
X189847276Y-64909426D01*
X189847262Y-64909434D01*
X189660869Y-65039946D01*
X189660867Y-65039947D01*
X189499947Y-65200867D01*
X189499946Y-65200869D01*
X189369434Y-65387262D01*
X189369426Y-65387276D01*
X189273262Y-65593499D01*
X189214363Y-65813315D01*
X189194532Y-66039996D01*
X189194532Y-66040003D01*
X189214363Y-66266684D01*
X189273262Y-66486500D01*
X189369426Y-66692723D01*
X189369434Y-66692737D01*
X189499946Y-66879130D01*
X189499947Y-66879132D01*
X189499950Y-66879135D01*
X189499953Y-66879139D01*
X189660861Y-67040047D01*
X189660864Y-67040049D01*
X189660867Y-67040052D01*
X189660869Y-67040053D01*
X189785131Y-67127061D01*
X189847266Y-67170568D01*
X189847267Y-67170568D01*
X189847271Y-67170571D01*
X189953863Y-67220276D01*
X189998611Y-67262004D01*
X190010285Y-67322065D01*
X189984427Y-67377518D01*
X189953863Y-67399724D01*
X189847271Y-67449428D01*
X189847268Y-67449430D01*
X189687078Y-67561596D01*
X189630294Y-67579500D01*
X185471583Y-67579500D01*
X185466728Y-67579261D01*
X185420003Y-67574659D01*
X185419996Y-67574659D01*
X185373715Y-67579217D01*
X185371380Y-67579391D01*
X185369268Y-67579498D01*
X185320336Y-67584474D01*
X185223860Y-67593976D01*
X185222984Y-67594150D01*
X185218363Y-67594843D01*
X185217575Y-67594923D01*
X185217560Y-67594926D01*
X185125007Y-67623965D01*
X185035277Y-67651184D01*
X185030786Y-67653045D01*
X185030640Y-67652693D01*
X185027992Y-67653801D01*
X185028019Y-67653864D01*
X185023408Y-67655842D01*
X184941350Y-67701387D01*
X184861468Y-67744086D01*
X184857420Y-67746791D01*
X184857392Y-67746750D01*
X184847464Y-67753498D01*
X184845505Y-67754585D01*
X184845500Y-67754588D01*
X184804277Y-67789977D01*
X184776695Y-67813656D01*
X184747454Y-67837653D01*
X184709123Y-67869111D01*
X184709109Y-67869125D01*
X184707495Y-67871092D01*
X184695471Y-67883385D01*
X184691105Y-67887133D01*
X184691103Y-67887135D01*
X184660043Y-67927262D01*
X184637545Y-67956326D01*
X184616689Y-67981739D01*
X184584092Y-68021458D01*
X184584088Y-68021465D01*
X184581233Y-68026805D01*
X184572222Y-68040714D01*
X184566558Y-68048032D01*
X184566552Y-68048041D01*
X184529412Y-68123757D01*
X184491186Y-68195271D01*
X184491185Y-68195274D01*
X184488411Y-68204419D01*
X184482560Y-68219270D01*
X184476940Y-68230727D01*
X184456599Y-68309287D01*
X184433976Y-68383863D01*
X184432695Y-68396871D01*
X184430013Y-68411972D01*
X184425936Y-68427719D01*
X184422045Y-68504425D01*
X184421871Y-68506769D01*
X184414659Y-68579995D01*
X184414659Y-68579999D01*
X184416282Y-68596489D01*
X184416631Y-68611196D01*
X184415630Y-68630938D01*
X184415630Y-68630941D01*
X184426754Y-68703550D01*
X184427087Y-68706194D01*
X184433974Y-68776123D01*
X184433976Y-68776134D01*
X184439801Y-68795337D01*
X184442921Y-68809079D01*
X184446443Y-68832067D01*
X184446444Y-68832074D01*
X184470801Y-68897837D01*
X184471746Y-68900643D01*
X184491186Y-68964727D01*
X184491187Y-68964729D01*
X184503881Y-68988478D01*
X184506645Y-68994621D01*
X184511723Y-69008333D01*
X184517113Y-69022886D01*
X184552458Y-69079593D01*
X184554105Y-69082442D01*
X184584089Y-69138536D01*
X184584092Y-69138542D01*
X184596223Y-69153322D01*
X184603292Y-69161936D01*
X184607028Y-69167143D01*
X184616876Y-69182942D01*
X184624744Y-69195566D01*
X184624746Y-69195568D01*
X184624748Y-69195571D01*
X184668495Y-69241592D01*
X184670882Y-69244294D01*
X184709117Y-69290883D01*
X184735098Y-69312205D01*
X184739571Y-69316365D01*
X184764941Y-69343053D01*
X184814330Y-69377429D01*
X184817439Y-69379782D01*
X184861462Y-69415910D01*
X184894048Y-69433327D01*
X184898996Y-69436358D01*
X184931943Y-69459290D01*
X184931946Y-69459292D01*
X184931951Y-69459295D01*
X184984175Y-69481706D01*
X184987978Y-69483534D01*
X185035273Y-69508814D01*
X185073825Y-69520508D01*
X185078960Y-69522381D01*
X185118942Y-69539540D01*
X185151840Y-69546300D01*
X185171344Y-69550309D01*
X185175747Y-69551426D01*
X185223868Y-69566024D01*
X185267292Y-69570300D01*
X185272385Y-69571072D01*
X185318259Y-69580500D01*
X185368417Y-69580500D01*
X185373272Y-69580739D01*
X185419997Y-69585341D01*
X185420000Y-69585341D01*
X185420003Y-69585341D01*
X185466728Y-69580739D01*
X185471583Y-69580500D01*
X189630294Y-69580500D01*
X189687077Y-69598403D01*
X189847266Y-69710568D01*
X189847267Y-69710568D01*
X189847268Y-69710569D01*
X189847271Y-69710571D01*
X189953863Y-69760276D01*
X189998611Y-69802004D01*
X190010285Y-69862065D01*
X189984427Y-69917518D01*
X189953863Y-69939724D01*
X189847271Y-69989428D01*
X189847262Y-69989434D01*
X189660869Y-70119946D01*
X189660867Y-70119947D01*
X189499947Y-70280867D01*
X189499946Y-70280869D01*
X189369434Y-70467262D01*
X189369426Y-70467276D01*
X189273262Y-70673499D01*
X189214363Y-70893315D01*
X189194532Y-71119996D01*
X189194532Y-71120003D01*
X189214363Y-71346684D01*
X189214364Y-71346691D01*
X189214365Y-71346692D01*
X189227750Y-71396646D01*
X189273262Y-71566500D01*
X189369426Y-71772723D01*
X189369434Y-71772737D01*
X189499946Y-71959130D01*
X189499947Y-71959132D01*
X189499950Y-71959135D01*
X189499953Y-71959139D01*
X189660861Y-72120047D01*
X189660864Y-72120049D01*
X189660867Y-72120052D01*
X189660869Y-72120053D01*
X189785131Y-72207061D01*
X189847266Y-72250568D01*
X189847267Y-72250568D01*
X189847271Y-72250571D01*
X189953863Y-72300276D01*
X189998611Y-72342004D01*
X190010285Y-72402065D01*
X189984427Y-72457518D01*
X189953863Y-72479724D01*
X189847271Y-72529428D01*
X189847268Y-72529430D01*
X189687078Y-72641596D01*
X189630294Y-72659500D01*
X185875429Y-72659500D01*
X185817238Y-72640593D01*
X185805425Y-72630504D01*
X183909496Y-70734575D01*
X183881719Y-70680058D01*
X183880500Y-70664571D01*
X183880500Y-63500000D01*
X190095014Y-63500000D01*
X190114835Y-63625148D01*
X190172359Y-63738045D01*
X190261955Y-63827641D01*
X190374852Y-63885165D01*
X190468519Y-63900000D01*
X190531481Y-63900000D01*
X190625148Y-63885165D01*
X190738045Y-63827641D01*
X190827641Y-63738045D01*
X190885165Y-63625148D01*
X190904986Y-63500000D01*
X190885165Y-63374852D01*
X190827641Y-63261955D01*
X190738045Y-63172359D01*
X190625148Y-63114835D01*
X190531481Y-63100000D01*
X190468519Y-63100000D01*
X190374852Y-63114835D01*
X190261955Y-63172359D01*
X190172359Y-63261955D01*
X190114835Y-63374852D01*
X190095014Y-63500000D01*
X183880500Y-63500000D01*
X183880500Y-62865000D01*
X189361714Y-62865000D01*
X189864999Y-62865000D01*
X189865000Y-62864999D01*
X189865000Y-62361712D01*
X191135000Y-62361712D01*
X191135000Y-62864999D01*
X191135001Y-62865000D01*
X191638286Y-62865000D01*
X191630131Y-62847512D01*
X191499665Y-62661188D01*
X191338811Y-62500334D01*
X191152488Y-62369869D01*
X191152477Y-62369863D01*
X191135000Y-62361712D01*
X189865000Y-62361712D01*
X189864999Y-62361712D01*
X189847522Y-62369863D01*
X189847511Y-62369869D01*
X189661188Y-62500334D01*
X189500334Y-62661188D01*
X189369868Y-62847512D01*
X189361714Y-62865000D01*
X183880500Y-62865000D01*
X183880500Y-58471583D01*
X183880739Y-58466728D01*
X183885341Y-58420003D01*
X183885341Y-58419999D01*
X183884879Y-58415309D01*
X183880778Y-58373672D01*
X183880606Y-58371357D01*
X183880499Y-58369247D01*
X183875525Y-58320336D01*
X183870299Y-58267277D01*
X183866024Y-58223868D01*
X183866020Y-58223856D01*
X183865852Y-58223007D01*
X183865153Y-58218344D01*
X183865074Y-58217562D01*
X183836034Y-58125007D01*
X183808814Y-58035273D01*
X183808812Y-58035270D01*
X183806951Y-58030776D01*
X183807322Y-58030622D01*
X183806219Y-58027997D01*
X183806142Y-58028031D01*
X183804163Y-58023419D01*
X183758612Y-57941351D01*
X183715910Y-57861462D01*
X183715908Y-57861459D01*
X183713207Y-57857417D01*
X183713248Y-57857389D01*
X183706493Y-57847452D01*
X183705409Y-57845498D01*
X183705408Y-57845496D01*
X183705407Y-57845495D01*
X183678648Y-57814325D01*
X183646343Y-57776695D01*
X183590883Y-57709117D01*
X183590877Y-57709112D01*
X183590875Y-57709110D01*
X183588918Y-57707504D01*
X183576608Y-57695464D01*
X183572866Y-57691105D01*
X183572865Y-57691104D01*
X183503673Y-57637545D01*
X183488080Y-57624748D01*
X183438538Y-57584090D01*
X183438535Y-57584088D01*
X183438527Y-57584083D01*
X183433209Y-57581241D01*
X183419270Y-57572212D01*
X183411959Y-57566552D01*
X183411955Y-57566550D01*
X183336242Y-57529412D01*
X183264735Y-57491189D01*
X183264719Y-57491183D01*
X183255577Y-57488409D01*
X183240726Y-57482558D01*
X183229272Y-57476940D01*
X183150712Y-57456599D01*
X183076136Y-57433976D01*
X183063129Y-57432695D01*
X183048026Y-57430012D01*
X183032281Y-57425936D01*
X183032285Y-57425936D01*
X182955575Y-57422045D01*
X182953239Y-57421871D01*
X182931597Y-57419740D01*
X182880005Y-57414659D01*
X182880000Y-57414659D01*
X182863509Y-57416282D01*
X182848802Y-57416631D01*
X182829063Y-57415630D01*
X182756448Y-57426754D01*
X182753804Y-57427087D01*
X182683873Y-57433974D01*
X182664658Y-57439802D01*
X182650924Y-57442920D01*
X182627930Y-57446443D01*
X182562150Y-57470805D01*
X182559334Y-57471752D01*
X182495273Y-57491186D01*
X182495269Y-57491187D01*
X182495269Y-57491188D01*
X182471518Y-57503882D01*
X182465371Y-57506648D01*
X182437113Y-57517113D01*
X182380406Y-57552457D01*
X182377559Y-57554103D01*
X182321460Y-57584090D01*
X182298062Y-57603291D01*
X182292842Y-57607036D01*
X182264428Y-57624748D01*
X182218403Y-57668497D01*
X182215703Y-57670883D01*
X182169119Y-57709115D01*
X182169111Y-57709123D01*
X182147791Y-57735098D01*
X182143632Y-57739572D01*
X182116949Y-57764938D01*
X182116946Y-57764941D01*
X182082572Y-57814325D01*
X182080209Y-57817449D01*
X182044089Y-57861463D01*
X182026669Y-57894053D01*
X182023640Y-57898998D01*
X182000706Y-57931949D01*
X181978295Y-57984171D01*
X181976462Y-57987983D01*
X181951186Y-58035270D01*
X181939492Y-58073820D01*
X181937611Y-58078974D01*
X181920459Y-58118944D01*
X181909692Y-58171336D01*
X181908574Y-58175741D01*
X181893976Y-58223865D01*
X181893974Y-58223876D01*
X181889700Y-58267277D01*
X181888925Y-58272391D01*
X181879500Y-58318256D01*
X181879500Y-58368416D01*
X181879261Y-58373271D01*
X181874659Y-58419997D01*
X181874659Y-58420003D01*
X156354923Y-58420003D01*
X153429496Y-55494576D01*
X153401719Y-55440059D01*
X153400500Y-55424572D01*
X153400500Y-52379537D01*
X153419407Y-52321346D01*
X153468907Y-52285382D01*
X153530093Y-52285382D01*
X153579593Y-52321346D01*
X153592258Y-52344941D01*
X153606202Y-52382329D01*
X153681904Y-52483453D01*
X153692454Y-52497546D01*
X153692457Y-52497548D01*
X153692458Y-52497549D01*
X153807670Y-52583797D01*
X153942511Y-52634089D01*
X153942512Y-52634089D01*
X153942517Y-52634091D01*
X154002127Y-52640500D01*
X155797872Y-52640499D01*
X155857483Y-52634091D01*
X155924907Y-52608943D01*
X155992329Y-52583797D01*
X155992329Y-52583796D01*
X155992331Y-52583796D01*
X156107546Y-52497546D01*
X156193796Y-52382331D01*
X156244091Y-52247483D01*
X156245609Y-52233362D01*
X156270628Y-52177527D01*
X156323689Y-52147060D01*
X156384524Y-52153600D01*
X156414042Y-52173938D01*
X156568599Y-52328495D01*
X156762170Y-52464035D01*
X156976337Y-52563903D01*
X157204592Y-52625063D01*
X157204596Y-52625063D01*
X157204599Y-52625064D01*
X157439996Y-52645659D01*
X157440000Y-52645659D01*
X157440004Y-52645659D01*
X157675400Y-52625064D01*
X157675401Y-52625063D01*
X157675408Y-52625063D01*
X157903663Y-52563903D01*
X158117830Y-52464035D01*
X158311401Y-52328495D01*
X158478495Y-52161401D01*
X158614035Y-51967830D01*
X158620275Y-51954447D01*
X158662003Y-51909700D01*
X158722064Y-51898025D01*
X158777517Y-51923883D01*
X158799725Y-51954448D01*
X158805964Y-51967828D01*
X158936042Y-52153600D01*
X158941505Y-52161401D01*
X159108599Y-52328495D01*
X159302170Y-52464035D01*
X159516337Y-52563903D01*
X159744592Y-52625063D01*
X159744596Y-52625063D01*
X159744599Y-52625064D01*
X159979996Y-52645659D01*
X159980000Y-52645659D01*
X159980004Y-52645659D01*
X160215400Y-52625064D01*
X160215401Y-52625063D01*
X160215408Y-52625063D01*
X160443663Y-52563903D01*
X160657830Y-52464035D01*
X160851401Y-52328495D01*
X161018495Y-52161401D01*
X161154035Y-51967830D01*
X161160275Y-51954447D01*
X161202003Y-51909700D01*
X161262064Y-51898025D01*
X161317517Y-51923883D01*
X161339725Y-51954448D01*
X161345964Y-51967828D01*
X161476042Y-52153600D01*
X161481505Y-52161401D01*
X161648599Y-52328495D01*
X161842170Y-52464035D01*
X162056337Y-52563903D01*
X162284592Y-52625063D01*
X162284596Y-52625063D01*
X162284599Y-52625064D01*
X162519996Y-52645659D01*
X162520000Y-52645659D01*
X162520004Y-52645659D01*
X162755400Y-52625064D01*
X162755401Y-52625063D01*
X162755408Y-52625063D01*
X162983663Y-52563903D01*
X163197830Y-52464035D01*
X163391401Y-52328495D01*
X163558495Y-52161401D01*
X163694035Y-51967830D01*
X163700275Y-51954448D01*
X163700551Y-51953857D01*
X163742279Y-51909108D01*
X163802340Y-51897433D01*
X163857793Y-51923290D01*
X163880001Y-51953856D01*
X163886399Y-51967577D01*
X164021886Y-52161073D01*
X164188926Y-52328113D01*
X164382420Y-52463599D01*
X164382424Y-52463601D01*
X164425000Y-52483453D01*
X164425000Y-51361889D01*
X164560000Y-51361889D01*
X164600507Y-51499844D01*
X164678239Y-51620798D01*
X164786900Y-51714952D01*
X164917685Y-51774680D01*
X165024237Y-51790000D01*
X165095763Y-51790000D01*
X165202315Y-51774680D01*
X165333100Y-51714952D01*
X165441761Y-51620798D01*
X165519493Y-51499844D01*
X165560000Y-51361889D01*
X165560000Y-51218111D01*
X165519493Y-51080156D01*
X165441761Y-50959202D01*
X165333100Y-50865048D01*
X165202315Y-50805320D01*
X165095763Y-50790000D01*
X165024237Y-50790000D01*
X164917685Y-50805320D01*
X164786900Y-50865048D01*
X164678239Y-50959202D01*
X164600507Y-51080156D01*
X164560000Y-51218111D01*
X164560000Y-51361889D01*
X164425000Y-51361889D01*
X164425000Y-50754000D01*
X164443907Y-50695809D01*
X164493407Y-50659845D01*
X164524000Y-50655000D01*
X165596000Y-50655000D01*
X165654191Y-50673907D01*
X165690155Y-50723407D01*
X165695000Y-50754000D01*
X165695000Y-52483453D01*
X165737575Y-52463601D01*
X165737579Y-52463599D01*
X165931073Y-52328113D01*
X166098113Y-52161073D01*
X166233599Y-51967579D01*
X166233600Y-51967577D01*
X166239996Y-51953860D01*
X166281722Y-51909109D01*
X166341783Y-51897431D01*
X166397237Y-51923286D01*
X166419447Y-51953853D01*
X166425963Y-51967827D01*
X166556042Y-52153600D01*
X166561505Y-52161401D01*
X166728599Y-52328495D01*
X166922170Y-52464035D01*
X167136337Y-52563903D01*
X167364592Y-52625063D01*
X167364596Y-52625063D01*
X167364599Y-52625064D01*
X167599996Y-52645659D01*
X167600000Y-52645659D01*
X167600004Y-52645659D01*
X167835400Y-52625064D01*
X167835401Y-52625063D01*
X167835408Y-52625063D01*
X168063663Y-52563903D01*
X168277830Y-52464035D01*
X168471401Y-52328495D01*
X168638495Y-52161401D01*
X168774035Y-51967830D01*
X168780275Y-51954447D01*
X168822003Y-51909700D01*
X168882064Y-51898025D01*
X168937517Y-51923883D01*
X168959725Y-51954448D01*
X168965964Y-51967828D01*
X169096042Y-52153600D01*
X169101505Y-52161401D01*
X169268599Y-52328495D01*
X169462170Y-52464035D01*
X169676337Y-52563903D01*
X169904592Y-52625063D01*
X169904596Y-52625063D01*
X169904599Y-52625064D01*
X170139996Y-52645659D01*
X170140000Y-52645659D01*
X170140004Y-52645659D01*
X170375400Y-52625064D01*
X170375401Y-52625063D01*
X170375408Y-52625063D01*
X170603663Y-52563903D01*
X170817830Y-52464035D01*
X171011401Y-52328495D01*
X171178495Y-52161401D01*
X171314035Y-51967830D01*
X171320275Y-51954447D01*
X171362003Y-51909700D01*
X171422064Y-51898025D01*
X171477517Y-51923883D01*
X171499725Y-51954448D01*
X171505964Y-51967828D01*
X171636042Y-52153600D01*
X171641505Y-52161401D01*
X171808599Y-52328495D01*
X172002170Y-52464035D01*
X172216337Y-52563903D01*
X172299011Y-52586055D01*
X172350325Y-52619379D01*
X172372252Y-52676501D01*
X172356416Y-52735601D01*
X172343392Y-52751686D01*
X170244576Y-54850504D01*
X170190059Y-54878281D01*
X170174572Y-54879500D01*
X161839853Y-54879500D01*
X161798149Y-54869693D01*
X161798096Y-54869831D01*
X161797108Y-54869448D01*
X161795733Y-54869125D01*
X161793836Y-54868180D01*
X161599324Y-54792826D01*
X161394293Y-54754500D01*
X161185707Y-54754500D01*
X160980675Y-54792826D01*
X160786169Y-54868178D01*
X160786163Y-54868181D01*
X160608833Y-54977981D01*
X160608831Y-54977982D01*
X160608829Y-54977984D01*
X160473223Y-55101604D01*
X160454683Y-55118506D01*
X160328982Y-55284960D01*
X160328977Y-55284969D01*
X160236006Y-55471680D01*
X160178924Y-55672302D01*
X160159678Y-55880000D01*
X160172737Y-56020934D01*
X160178924Y-56087696D01*
X160236006Y-56288319D01*
X160328981Y-56475038D01*
X160454682Y-56641493D01*
X160608829Y-56782016D01*
X160674479Y-56822665D01*
X160786163Y-56891818D01*
X160786167Y-56891820D01*
X160786172Y-56891823D01*
X160980673Y-56967173D01*
X161185707Y-57005500D01*
X161394293Y-57005500D01*
X161599327Y-56967173D01*
X161793828Y-56891823D01*
X161793831Y-56891820D01*
X161793836Y-56891819D01*
X161795733Y-56890875D01*
X161797108Y-56890551D01*
X161798096Y-56890169D01*
X161798149Y-56890306D01*
X161839853Y-56880500D01*
X170617284Y-56880500D01*
X170706363Y-56882757D01*
X170767217Y-56871849D01*
X170770929Y-56871328D01*
X170832438Y-56865074D01*
X170865977Y-56854550D01*
X170872059Y-56853058D01*
X170906653Y-56846858D01*
X170964073Y-56823921D01*
X170967581Y-56822671D01*
X171026588Y-56804159D01*
X171057335Y-56787091D01*
X171062968Y-56784417D01*
X171095617Y-56771377D01*
X171147251Y-56737346D01*
X171150424Y-56735423D01*
X171204502Y-56705409D01*
X171231182Y-56682503D01*
X171236160Y-56678749D01*
X171265519Y-56659402D01*
X171309255Y-56615664D01*
X171311975Y-56613144D01*
X171358895Y-56572866D01*
X171380410Y-56545070D01*
X171384542Y-56540377D01*
X175259466Y-52665453D01*
X175313981Y-52637678D01*
X175320829Y-52636837D01*
X175394947Y-52630352D01*
X175455400Y-52625064D01*
X175455401Y-52625063D01*
X175455408Y-52625063D01*
X175683663Y-52563903D01*
X175897830Y-52464035D01*
X176091401Y-52328495D01*
X176258495Y-52161401D01*
X176394035Y-51967830D01*
X176400275Y-51954447D01*
X176442003Y-51909700D01*
X176502064Y-51898025D01*
X176557517Y-51923883D01*
X176579725Y-51954448D01*
X176585964Y-51967828D01*
X176716042Y-52153600D01*
X176721505Y-52161401D01*
X176888599Y-52328495D01*
X177082170Y-52464035D01*
X177296337Y-52563903D01*
X177524592Y-52625063D01*
X177524596Y-52625063D01*
X177524599Y-52625064D01*
X177759996Y-52645659D01*
X177760000Y-52645659D01*
X177760004Y-52645659D01*
X177995400Y-52625064D01*
X177995401Y-52625063D01*
X177995408Y-52625063D01*
X178223663Y-52563903D01*
X178437830Y-52464035D01*
X178631401Y-52328495D01*
X178798495Y-52161401D01*
X178934035Y-51967830D01*
X178940275Y-51954447D01*
X178982003Y-51909700D01*
X179042064Y-51898025D01*
X179097517Y-51923883D01*
X179119725Y-51954448D01*
X179125964Y-51967828D01*
X179256042Y-52153600D01*
X179261505Y-52161401D01*
X179428599Y-52328495D01*
X179622170Y-52464035D01*
X179836337Y-52563903D01*
X180064592Y-52625063D01*
X180064596Y-52625063D01*
X180064599Y-52625064D01*
X180299996Y-52645659D01*
X180300000Y-52645659D01*
X180300004Y-52645659D01*
X180535400Y-52625064D01*
X180535401Y-52625063D01*
X180535408Y-52625063D01*
X180763663Y-52563903D01*
X180977830Y-52464035D01*
X181171401Y-52328495D01*
X181338495Y-52161401D01*
X181474035Y-51967830D01*
X181480275Y-51954447D01*
X181522003Y-51909700D01*
X181582064Y-51898025D01*
X181637517Y-51923883D01*
X181659725Y-51954448D01*
X181665964Y-51967828D01*
X181796042Y-52153600D01*
X181801505Y-52161401D01*
X181968599Y-52328495D01*
X182162170Y-52464035D01*
X182376337Y-52563903D01*
X182604592Y-52625063D01*
X182604596Y-52625063D01*
X182604599Y-52625064D01*
X182839996Y-52645659D01*
X182840000Y-52645659D01*
X182840004Y-52645659D01*
X183075400Y-52625064D01*
X183075401Y-52625063D01*
X183075408Y-52625063D01*
X183303663Y-52563903D01*
X183517830Y-52464035D01*
X183711401Y-52328495D01*
X183878495Y-52161401D01*
X184014035Y-51967830D01*
X184020275Y-51954448D01*
X184020551Y-51953857D01*
X184062279Y-51909108D01*
X184122340Y-51897433D01*
X184177793Y-51923290D01*
X184200001Y-51953856D01*
X184206399Y-51967577D01*
X184341886Y-52161073D01*
X184508926Y-52328113D01*
X184702420Y-52463599D01*
X184702424Y-52463601D01*
X184745000Y-52483453D01*
X184745000Y-51361889D01*
X184880000Y-51361889D01*
X184920507Y-51499844D01*
X184998239Y-51620798D01*
X185106900Y-51714952D01*
X185237685Y-51774680D01*
X185344237Y-51790000D01*
X185415763Y-51790000D01*
X185522315Y-51774680D01*
X185653100Y-51714952D01*
X185761761Y-51620798D01*
X185839493Y-51499844D01*
X185880000Y-51361889D01*
X185880000Y-51218111D01*
X185839493Y-51080156D01*
X185761761Y-50959202D01*
X185653100Y-50865048D01*
X185522315Y-50805320D01*
X185415763Y-50790000D01*
X185344237Y-50790000D01*
X185237685Y-50805320D01*
X185106900Y-50865048D01*
X184998239Y-50959202D01*
X184920507Y-51080156D01*
X184880000Y-51218111D01*
X184880000Y-51361889D01*
X184745000Y-51361889D01*
X184745000Y-50754000D01*
X184763907Y-50695809D01*
X184813407Y-50659845D01*
X184844000Y-50655000D01*
X185916000Y-50655000D01*
X185974191Y-50673907D01*
X186010155Y-50723407D01*
X186015000Y-50754000D01*
X186015000Y-52483453D01*
X186057575Y-52463601D01*
X186057579Y-52463599D01*
X186251073Y-52328113D01*
X186418113Y-52161073D01*
X186553599Y-51967579D01*
X186553600Y-51967577D01*
X186559996Y-51953860D01*
X186601722Y-51909109D01*
X186661783Y-51897431D01*
X186717237Y-51923286D01*
X186739447Y-51953853D01*
X186745963Y-51967827D01*
X186876042Y-52153600D01*
X186881505Y-52161401D01*
X187048599Y-52328495D01*
X187242170Y-52464035D01*
X187456337Y-52563903D01*
X187684592Y-52625063D01*
X187684596Y-52625063D01*
X187684599Y-52625064D01*
X187919996Y-52645659D01*
X187920000Y-52645659D01*
X187920004Y-52645659D01*
X188155400Y-52625064D01*
X188155401Y-52625063D01*
X188155408Y-52625063D01*
X188383663Y-52563903D01*
X188597830Y-52464035D01*
X188791401Y-52328495D01*
X188958495Y-52161401D01*
X189094035Y-51967830D01*
X189100275Y-51954447D01*
X189142003Y-51909700D01*
X189202064Y-51898025D01*
X189257517Y-51923883D01*
X189279725Y-51954448D01*
X189285964Y-51967828D01*
X189416042Y-52153600D01*
X189421505Y-52161401D01*
X189588599Y-52328495D01*
X189782170Y-52464035D01*
X189996337Y-52563903D01*
X190224592Y-52625063D01*
X190224596Y-52625063D01*
X190224599Y-52625064D01*
X190459996Y-52645659D01*
X190460000Y-52645659D01*
X190460004Y-52645659D01*
X190695400Y-52625064D01*
X190695401Y-52625063D01*
X190695408Y-52625063D01*
X190923663Y-52563903D01*
X191137830Y-52464035D01*
X191331401Y-52328495D01*
X191498495Y-52161401D01*
X191634035Y-51967830D01*
X191640275Y-51954447D01*
X191682003Y-51909700D01*
X191742064Y-51898025D01*
X191797517Y-51923883D01*
X191819725Y-51954448D01*
X191825964Y-51967828D01*
X191956042Y-52153600D01*
X191961505Y-52161401D01*
X192128599Y-52328495D01*
X192322170Y-52464035D01*
X192536337Y-52563903D01*
X192764592Y-52625063D01*
X192764596Y-52625063D01*
X192764599Y-52625064D01*
X192999996Y-52645659D01*
X193000000Y-52645659D01*
X193000004Y-52645659D01*
X193235400Y-52625064D01*
X193235401Y-52625063D01*
X193235408Y-52625063D01*
X193463663Y-52563903D01*
X193677830Y-52464035D01*
X193871401Y-52328495D01*
X194038495Y-52161401D01*
X194174035Y-51967830D01*
X194180275Y-51954447D01*
X194222003Y-51909700D01*
X194282064Y-51898025D01*
X194337517Y-51923883D01*
X194359725Y-51954448D01*
X194365964Y-51967828D01*
X194496042Y-52153600D01*
X194501505Y-52161401D01*
X194668599Y-52328495D01*
X194862170Y-52464035D01*
X195076337Y-52563903D01*
X195304592Y-52625063D01*
X195304596Y-52625063D01*
X195304599Y-52625064D01*
X195539996Y-52645659D01*
X195540000Y-52645659D01*
X195540004Y-52645659D01*
X195775400Y-52625064D01*
X195775401Y-52625063D01*
X195775408Y-52625063D01*
X196003663Y-52563903D01*
X196217830Y-52464035D01*
X196411401Y-52328495D01*
X196578495Y-52161401D01*
X196714035Y-51967830D01*
X196720275Y-51954447D01*
X196762003Y-51909700D01*
X196822064Y-51898025D01*
X196877517Y-51923883D01*
X196899725Y-51954448D01*
X196905964Y-51967828D01*
X197036042Y-52153600D01*
X197041505Y-52161401D01*
X197208599Y-52328495D01*
X197402170Y-52464035D01*
X197616337Y-52563903D01*
X197844592Y-52625063D01*
X197844596Y-52625063D01*
X197844599Y-52625064D01*
X198079996Y-52645659D01*
X198080000Y-52645659D01*
X198080004Y-52645659D01*
X198315400Y-52625064D01*
X198315401Y-52625063D01*
X198315408Y-52625063D01*
X198543663Y-52563903D01*
X198757830Y-52464035D01*
X198951401Y-52328495D01*
X199118495Y-52161401D01*
X199254035Y-51967830D01*
X199260275Y-51954447D01*
X199302003Y-51909700D01*
X199362064Y-51898025D01*
X199417517Y-51923883D01*
X199439725Y-51954448D01*
X199445964Y-51967828D01*
X199576042Y-52153600D01*
X199581505Y-52161401D01*
X199748599Y-52328495D01*
X199942170Y-52464035D01*
X200156337Y-52563903D01*
X200384592Y-52625063D01*
X200384596Y-52625063D01*
X200384599Y-52625064D01*
X200619996Y-52645659D01*
X200620000Y-52645659D01*
X200620004Y-52645659D01*
X200855400Y-52625064D01*
X200855401Y-52625063D01*
X200855408Y-52625063D01*
X201083663Y-52563903D01*
X201297830Y-52464035D01*
X201491401Y-52328495D01*
X201658495Y-52161401D01*
X201794035Y-51967830D01*
X201800275Y-51954448D01*
X201800551Y-51953857D01*
X201842279Y-51909108D01*
X201902340Y-51897433D01*
X201957793Y-51923290D01*
X201980001Y-51953856D01*
X201986399Y-51967577D01*
X202121886Y-52161073D01*
X202288926Y-52328113D01*
X202482420Y-52463599D01*
X202482424Y-52463601D01*
X202525000Y-52483453D01*
X203795000Y-52483453D01*
X203837575Y-52463601D01*
X203837579Y-52463599D01*
X204031073Y-52328113D01*
X204198113Y-52161073D01*
X204333600Y-51967577D01*
X204353454Y-51925000D01*
X203795001Y-51925000D01*
X203795000Y-51925001D01*
X203795000Y-52483453D01*
X202525000Y-52483453D01*
X202525000Y-51361889D01*
X202660000Y-51361889D01*
X202700507Y-51499844D01*
X202778239Y-51620798D01*
X202886900Y-51714952D01*
X203017685Y-51774680D01*
X203124237Y-51790000D01*
X203195763Y-51790000D01*
X203302315Y-51774680D01*
X203433100Y-51714952D01*
X203541761Y-51620798D01*
X203619493Y-51499844D01*
X203660000Y-51361889D01*
X203660000Y-51218111D01*
X203619493Y-51080156D01*
X203541761Y-50959202D01*
X203433100Y-50865048D01*
X203302315Y-50805320D01*
X203195763Y-50790000D01*
X203124237Y-50790000D01*
X203017685Y-50805320D01*
X202886900Y-50865048D01*
X202778239Y-50959202D01*
X202700507Y-51080156D01*
X202660000Y-51218111D01*
X202660000Y-51361889D01*
X202525000Y-51361889D01*
X202525000Y-50754000D01*
X202543907Y-50695809D01*
X202593407Y-50659845D01*
X202624000Y-50655000D01*
X204353455Y-50655000D01*
X204353454Y-50654999D01*
X204333601Y-50612425D01*
X204333594Y-50612413D01*
X204198113Y-50418926D01*
X204031073Y-50251886D01*
X203837577Y-50116399D01*
X203823856Y-50110001D01*
X203779108Y-50068273D01*
X203767433Y-50008212D01*
X203771262Y-50000000D01*
X206644341Y-50000000D01*
X206652380Y-50091893D01*
X206652568Y-50096192D01*
X206652568Y-50117893D01*
X206656334Y-50139249D01*
X206656898Y-50143532D01*
X206664935Y-50235403D01*
X206688807Y-50324497D01*
X206689741Y-50328711D01*
X206693509Y-50350072D01*
X206693510Y-50350075D01*
X206700923Y-50370446D01*
X206702222Y-50374564D01*
X206726093Y-50463654D01*
X206726097Y-50463663D01*
X206765085Y-50547273D01*
X206766731Y-50551247D01*
X206773000Y-50568471D01*
X206774148Y-50571624D01*
X206784982Y-50590389D01*
X206786977Y-50594222D01*
X206825960Y-50677821D01*
X206825965Y-50677831D01*
X206878873Y-50753390D01*
X206881193Y-50757032D01*
X206892033Y-50775807D01*
X206905963Y-50792408D01*
X206908594Y-50795836D01*
X206961502Y-50871397D01*
X206961505Y-50871401D01*
X207026738Y-50936635D01*
X207029651Y-50939814D01*
X207043583Y-50956417D01*
X207043589Y-50956422D01*
X207043591Y-50956424D01*
X207060185Y-50970348D01*
X207063369Y-50973266D01*
X207128598Y-51038494D01*
X207128606Y-51038501D01*
X207171607Y-51068610D01*
X207204174Y-51091413D01*
X207207573Y-51094021D01*
X207224193Y-51107967D01*
X207242975Y-51118811D01*
X207246601Y-51121121D01*
X207322170Y-51174035D01*
X207405790Y-51213028D01*
X207409592Y-51215007D01*
X207428376Y-51225852D01*
X207448759Y-51233271D01*
X207452711Y-51234907D01*
X207536337Y-51273903D01*
X207591544Y-51288695D01*
X207625436Y-51297777D01*
X207629527Y-51299065D01*
X207649927Y-51306491D01*
X207671306Y-51310260D01*
X207675494Y-51311189D01*
X207764592Y-51335063D01*
X207764596Y-51335063D01*
X207764599Y-51335064D01*
X207785805Y-51336919D01*
X207856497Y-51343103D01*
X207860717Y-51343659D01*
X207882115Y-51347432D01*
X207882118Y-51347432D01*
X207903807Y-51347432D01*
X207908107Y-51347619D01*
X207975165Y-51353486D01*
X207999997Y-51355659D01*
X208000000Y-51355659D01*
X208000003Y-51355659D01*
X208024834Y-51353486D01*
X208091892Y-51347619D01*
X208096193Y-51347432D01*
X208117883Y-51347432D01*
X208117885Y-51347432D01*
X208139285Y-51343658D01*
X208143480Y-51343105D01*
X208235408Y-51335063D01*
X208324517Y-51311186D01*
X208328690Y-51310261D01*
X208350073Y-51306491D01*
X208370476Y-51299064D01*
X208374545Y-51297781D01*
X208463663Y-51273903D01*
X208547294Y-51234904D01*
X208551222Y-51233277D01*
X208571624Y-51225852D01*
X208590433Y-51214992D01*
X208594192Y-51213035D01*
X208677830Y-51174035D01*
X208753423Y-51121103D01*
X208757002Y-51118823D01*
X208775807Y-51107967D01*
X208792431Y-51094017D01*
X208795812Y-51091422D01*
X208871401Y-51038495D01*
X208936649Y-50973246D01*
X208939793Y-50970365D01*
X208956417Y-50956417D01*
X208970365Y-50939793D01*
X208973246Y-50936649D01*
X209038495Y-50871401D01*
X209091422Y-50795812D01*
X209094017Y-50792431D01*
X209107967Y-50775807D01*
X209118823Y-50757002D01*
X209121103Y-50753423D01*
X209174035Y-50677830D01*
X209213035Y-50594192D01*
X209214992Y-50590433D01*
X209225852Y-50571624D01*
X209233277Y-50551222D01*
X209234904Y-50547294D01*
X209273903Y-50463663D01*
X209297781Y-50374545D01*
X209299064Y-50370476D01*
X209306491Y-50350073D01*
X209310261Y-50328690D01*
X209311186Y-50324517D01*
X209335063Y-50235408D01*
X209343103Y-50143502D01*
X209343659Y-50139279D01*
X209347432Y-50117885D01*
X209348089Y-50087717D01*
X209348260Y-50084563D01*
X209355659Y-50000000D01*
X209348260Y-49915440D01*
X209348089Y-49912280D01*
X209347432Y-49882115D01*
X209343663Y-49860740D01*
X209343103Y-49856497D01*
X209336367Y-49779496D01*
X209335064Y-49764599D01*
X209335063Y-49764596D01*
X209335063Y-49764592D01*
X209311189Y-49675494D01*
X209310260Y-49671306D01*
X209306491Y-49649927D01*
X209299065Y-49629527D01*
X209297777Y-49625436D01*
X209280209Y-49559873D01*
X209273903Y-49536337D01*
X209234914Y-49452726D01*
X209233277Y-49448775D01*
X209225852Y-49428376D01*
X209215004Y-49409587D01*
X209213017Y-49405768D01*
X209174037Y-49322174D01*
X209170129Y-49316593D01*
X209121115Y-49246593D01*
X209118807Y-49242969D01*
X209107968Y-49224195D01*
X209107967Y-49224193D01*
X209094009Y-49207559D01*
X209091420Y-49204185D01*
X209038495Y-49128599D01*
X209038492Y-49128596D01*
X208973266Y-49063369D01*
X208970348Y-49060185D01*
X208956424Y-49043591D01*
X208956422Y-49043589D01*
X208956417Y-49043583D01*
X208939821Y-49029657D01*
X208936635Y-49026738D01*
X208871401Y-48961505D01*
X208871397Y-48961502D01*
X208795836Y-48908594D01*
X208792408Y-48905963D01*
X208775807Y-48892033D01*
X208757034Y-48881194D01*
X208753390Y-48878873D01*
X208753387Y-48878871D01*
X208732419Y-48864189D01*
X208677831Y-48825965D01*
X208677821Y-48825960D01*
X208594222Y-48786977D01*
X208590389Y-48784982D01*
X208571624Y-48774148D01*
X208571621Y-48774147D01*
X208551247Y-48766731D01*
X208547273Y-48765085D01*
X208501256Y-48743627D01*
X208463664Y-48726097D01*
X208463654Y-48726093D01*
X208374564Y-48702222D01*
X208370446Y-48700923D01*
X208353691Y-48694826D01*
X208350073Y-48693509D01*
X208347527Y-48693060D01*
X208328711Y-48689741D01*
X208324497Y-48688807D01*
X208235403Y-48664935D01*
X208143532Y-48656898D01*
X208139249Y-48656334D01*
X208117893Y-48652568D01*
X208117885Y-48652568D01*
X208096193Y-48652568D01*
X208091892Y-48652380D01*
X208024834Y-48646513D01*
X208000003Y-48644341D01*
X207999997Y-48644341D01*
X207975165Y-48646513D01*
X207908107Y-48652380D01*
X207903807Y-48652568D01*
X207882112Y-48652568D01*
X207860748Y-48656334D01*
X207856466Y-48656898D01*
X207764599Y-48664935D01*
X207675505Y-48688807D01*
X207671290Y-48689741D01*
X207649925Y-48693509D01*
X207649922Y-48693510D01*
X207629538Y-48700928D01*
X207625420Y-48702227D01*
X207536336Y-48726097D01*
X207452728Y-48765082D01*
X207448741Y-48766734D01*
X207428377Y-48774147D01*
X207409600Y-48784987D01*
X207405772Y-48786980D01*
X207350310Y-48812843D01*
X207322171Y-48825965D01*
X207322169Y-48825965D01*
X207322167Y-48825967D01*
X207246611Y-48878871D01*
X207242969Y-48881191D01*
X207224192Y-48892032D01*
X207224191Y-48892033D01*
X207207585Y-48905968D01*
X207204159Y-48908596D01*
X207128603Y-48961501D01*
X207063373Y-49026730D01*
X207060190Y-49029646D01*
X207043590Y-49043576D01*
X207043576Y-49043590D01*
X207029646Y-49060190D01*
X207026730Y-49063373D01*
X206961501Y-49128603D01*
X206908596Y-49204159D01*
X206905968Y-49207585D01*
X206892033Y-49224191D01*
X206892032Y-49224192D01*
X206881191Y-49242969D01*
X206878871Y-49246611D01*
X206825967Y-49322167D01*
X206825965Y-49322169D01*
X206825965Y-49322171D01*
X206821631Y-49331466D01*
X206786980Y-49405772D01*
X206784987Y-49409600D01*
X206774147Y-49428377D01*
X206766734Y-49448741D01*
X206765082Y-49452728D01*
X206726097Y-49536336D01*
X206702227Y-49625420D01*
X206700928Y-49629538D01*
X206693510Y-49649922D01*
X206693509Y-49649925D01*
X206689741Y-49671290D01*
X206688807Y-49675505D01*
X206664935Y-49764599D01*
X206656898Y-49856466D01*
X206656334Y-49860748D01*
X206652568Y-49882112D01*
X206652568Y-49903806D01*
X206652380Y-49908108D01*
X206646766Y-49972279D01*
X206644350Y-49999901D01*
X206644341Y-50000000D01*
X203771262Y-50000000D01*
X203793291Y-49952759D01*
X203823857Y-49930551D01*
X203830053Y-49927661D01*
X203837830Y-49924035D01*
X204031401Y-49788495D01*
X204198495Y-49621401D01*
X204334035Y-49427830D01*
X204433903Y-49213663D01*
X204495063Y-48985408D01*
X204495064Y-48985400D01*
X204515659Y-48750004D01*
X204515659Y-48749995D01*
X204495064Y-48514599D01*
X204495063Y-48514596D01*
X204495063Y-48514592D01*
X204433903Y-48286337D01*
X204384655Y-48180725D01*
X204334040Y-48072181D01*
X204334036Y-48072173D01*
X204295306Y-48016861D01*
X204209692Y-47894590D01*
X204198498Y-47878603D01*
X204198497Y-47878602D01*
X204198495Y-47878599D01*
X204031401Y-47711505D01*
X204031397Y-47711502D01*
X204031396Y-47711501D01*
X203838458Y-47576405D01*
X203837830Y-47575965D01*
X203820028Y-47567664D01*
X203796184Y-47556545D01*
X203623663Y-47476097D01*
X203395408Y-47414937D01*
X203395407Y-47414936D01*
X203395400Y-47414935D01*
X203160004Y-47394341D01*
X203159996Y-47394341D01*
X202924599Y-47414935D01*
X202696332Y-47476098D01*
X202482181Y-47575959D01*
X202482173Y-47575963D01*
X202288603Y-47711501D01*
X202121501Y-47878603D01*
X201985963Y-48072173D01*
X201979724Y-48085554D01*
X201937995Y-48130301D01*
X201877933Y-48141975D01*
X201822481Y-48116116D01*
X201800276Y-48085554D01*
X201794036Y-48072173D01*
X201755306Y-48016861D01*
X201669692Y-47894590D01*
X201658498Y-47878603D01*
X201658497Y-47878602D01*
X201658495Y-47878599D01*
X201491401Y-47711505D01*
X201491397Y-47711502D01*
X201491396Y-47711501D01*
X201298458Y-47576405D01*
X201297830Y-47575965D01*
X201280028Y-47567664D01*
X201256184Y-47556545D01*
X201083663Y-47476097D01*
X200855408Y-47414937D01*
X200855407Y-47414936D01*
X200855400Y-47414935D01*
X200620004Y-47394341D01*
X200619996Y-47394341D01*
X200384599Y-47414935D01*
X200156332Y-47476098D01*
X199942181Y-47575959D01*
X199942173Y-47575963D01*
X199748603Y-47711501D01*
X199581501Y-47878603D01*
X199445963Y-48072173D01*
X199439724Y-48085554D01*
X199397995Y-48130301D01*
X199337933Y-48141975D01*
X199282481Y-48116116D01*
X199260276Y-48085554D01*
X199254036Y-48072173D01*
X199215306Y-48016861D01*
X199129692Y-47894590D01*
X199118498Y-47878603D01*
X199118497Y-47878602D01*
X199118495Y-47878599D01*
X198951401Y-47711505D01*
X198951397Y-47711502D01*
X198951396Y-47711501D01*
X198758458Y-47576405D01*
X198757830Y-47575965D01*
X198740028Y-47567664D01*
X198716184Y-47556545D01*
X198543663Y-47476097D01*
X198315408Y-47414937D01*
X198315407Y-47414936D01*
X198315400Y-47414935D01*
X198080004Y-47394341D01*
X198079996Y-47394341D01*
X197844599Y-47414935D01*
X197616332Y-47476098D01*
X197402181Y-47575959D01*
X197402173Y-47575963D01*
X197208603Y-47711501D01*
X197041501Y-47878603D01*
X196905963Y-48072173D01*
X196905962Y-48072176D01*
X196899445Y-48086150D01*
X196857714Y-48130895D01*
X196797652Y-48142566D01*
X196742201Y-48116705D01*
X196719997Y-48086141D01*
X196713601Y-48072425D01*
X196713601Y-48072424D01*
X196578113Y-47878926D01*
X196411073Y-47711886D01*
X196217577Y-47576399D01*
X196175000Y-47556545D01*
X196175000Y-49286000D01*
X196156093Y-49344191D01*
X196106593Y-49380155D01*
X196076000Y-49385000D01*
X195004000Y-49385000D01*
X194945809Y-49366093D01*
X194909845Y-49316593D01*
X194905000Y-49286000D01*
X194905000Y-48821889D01*
X195040000Y-48821889D01*
X195080507Y-48959844D01*
X195158239Y-49080798D01*
X195266900Y-49174952D01*
X195397685Y-49234680D01*
X195504237Y-49250000D01*
X195575763Y-49250000D01*
X195682315Y-49234680D01*
X195813100Y-49174952D01*
X195921761Y-49080798D01*
X195999493Y-48959844D01*
X196040000Y-48821889D01*
X196040000Y-48678111D01*
X195999493Y-48540156D01*
X195921761Y-48419202D01*
X195813100Y-48325048D01*
X195682315Y-48265320D01*
X195575763Y-48250000D01*
X195504237Y-48250000D01*
X195397685Y-48265320D01*
X195266900Y-48325048D01*
X195158239Y-48419202D01*
X195080507Y-48540156D01*
X195040000Y-48678111D01*
X195040000Y-48821889D01*
X194905000Y-48821889D01*
X194905000Y-47556545D01*
X194904999Y-47556545D01*
X194862425Y-47576398D01*
X194862413Y-47576405D01*
X194668926Y-47711886D01*
X194501886Y-47878926D01*
X194366398Y-48072424D01*
X194360000Y-48086146D01*
X194318271Y-48130893D01*
X194258209Y-48142567D01*
X194202757Y-48116708D01*
X194180552Y-48086145D01*
X194174038Y-48072177D01*
X194174036Y-48072173D01*
X194135306Y-48016861D01*
X194049692Y-47894590D01*
X194038498Y-47878603D01*
X194038497Y-47878602D01*
X194038495Y-47878599D01*
X193871401Y-47711505D01*
X193871397Y-47711502D01*
X193871396Y-47711501D01*
X193678458Y-47576405D01*
X193677830Y-47575965D01*
X193660028Y-47567664D01*
X193636184Y-47556545D01*
X193463663Y-47476097D01*
X193235408Y-47414937D01*
X193235407Y-47414936D01*
X193235400Y-47414935D01*
X193000004Y-47394341D01*
X192999996Y-47394341D01*
X192764599Y-47414935D01*
X192536332Y-47476098D01*
X192322181Y-47575959D01*
X192322173Y-47575963D01*
X192128603Y-47711501D01*
X191961501Y-47878603D01*
X191825963Y-48072173D01*
X191825962Y-48072176D01*
X191819445Y-48086150D01*
X191777714Y-48130895D01*
X191717652Y-48142566D01*
X191662201Y-48116705D01*
X191639997Y-48086141D01*
X191633601Y-48072425D01*
X191633601Y-48072424D01*
X191498113Y-47878926D01*
X191331073Y-47711886D01*
X191137577Y-47576399D01*
X191095000Y-47556545D01*
X191095000Y-49286000D01*
X191076093Y-49344191D01*
X191026593Y-49380155D01*
X190996000Y-49385000D01*
X189924000Y-49385000D01*
X189865809Y-49366093D01*
X189829845Y-49316593D01*
X189825000Y-49286000D01*
X189825000Y-48821889D01*
X189960000Y-48821889D01*
X190000507Y-48959844D01*
X190078239Y-49080798D01*
X190186900Y-49174952D01*
X190317685Y-49234680D01*
X190424237Y-49250000D01*
X190495763Y-49250000D01*
X190602315Y-49234680D01*
X190733100Y-49174952D01*
X190841761Y-49080798D01*
X190919493Y-48959844D01*
X190960000Y-48821889D01*
X190960000Y-48678111D01*
X190919493Y-48540156D01*
X190841761Y-48419202D01*
X190733100Y-48325048D01*
X190602315Y-48265320D01*
X190495763Y-48250000D01*
X190424237Y-48250000D01*
X190317685Y-48265320D01*
X190186900Y-48325048D01*
X190078239Y-48419202D01*
X190000507Y-48540156D01*
X189960000Y-48678111D01*
X189960000Y-48821889D01*
X189825000Y-48821889D01*
X189825000Y-47556545D01*
X189824999Y-47556545D01*
X189782425Y-47576398D01*
X189782413Y-47576405D01*
X189588926Y-47711886D01*
X189421886Y-47878926D01*
X189286398Y-48072424D01*
X189280000Y-48086146D01*
X189238271Y-48130893D01*
X189178209Y-48142567D01*
X189122757Y-48116708D01*
X189100552Y-48086145D01*
X189094038Y-48072177D01*
X189094036Y-48072173D01*
X189055306Y-48016861D01*
X188969692Y-47894590D01*
X188958498Y-47878603D01*
X188958497Y-47878602D01*
X188958495Y-47878599D01*
X188791401Y-47711505D01*
X188791397Y-47711502D01*
X188791396Y-47711501D01*
X188598458Y-47576405D01*
X188597830Y-47575965D01*
X188580028Y-47567664D01*
X188556184Y-47556545D01*
X188383663Y-47476097D01*
X188155408Y-47414937D01*
X188155407Y-47414936D01*
X188155400Y-47414935D01*
X187920004Y-47394341D01*
X187919996Y-47394341D01*
X187684599Y-47414935D01*
X187456332Y-47476098D01*
X187242181Y-47575959D01*
X187242173Y-47575963D01*
X187048603Y-47711501D01*
X186881501Y-47878603D01*
X186745963Y-48072173D01*
X186739724Y-48085554D01*
X186697995Y-48130301D01*
X186637933Y-48141975D01*
X186582481Y-48116116D01*
X186560276Y-48085554D01*
X186554036Y-48072173D01*
X186515306Y-48016861D01*
X186429692Y-47894590D01*
X186418498Y-47878603D01*
X186418497Y-47878602D01*
X186418495Y-47878599D01*
X186251401Y-47711505D01*
X186251397Y-47711502D01*
X186251396Y-47711501D01*
X186058458Y-47576405D01*
X186057830Y-47575965D01*
X186040028Y-47567664D01*
X186016184Y-47556545D01*
X185843663Y-47476097D01*
X185615408Y-47414937D01*
X185615407Y-47414936D01*
X185615400Y-47414935D01*
X185380004Y-47394341D01*
X185379996Y-47394341D01*
X185144599Y-47414935D01*
X184916332Y-47476098D01*
X184702181Y-47575959D01*
X184702173Y-47575963D01*
X184508603Y-47711501D01*
X184341501Y-47878603D01*
X184205963Y-48072173D01*
X184199724Y-48085554D01*
X184157995Y-48130301D01*
X184097933Y-48141975D01*
X184042481Y-48116116D01*
X184020276Y-48085554D01*
X184014036Y-48072173D01*
X183975306Y-48016861D01*
X183889692Y-47894590D01*
X183878498Y-47878603D01*
X183878497Y-47878602D01*
X183878495Y-47878599D01*
X183711401Y-47711505D01*
X183711397Y-47711502D01*
X183711396Y-47711501D01*
X183518458Y-47576405D01*
X183517830Y-47575965D01*
X183500028Y-47567664D01*
X183476184Y-47556545D01*
X183303663Y-47476097D01*
X183075408Y-47414937D01*
X183075407Y-47414936D01*
X183075400Y-47414935D01*
X182840004Y-47394341D01*
X182839996Y-47394341D01*
X182604599Y-47414935D01*
X182376332Y-47476098D01*
X182162181Y-47575959D01*
X182162173Y-47575963D01*
X181968603Y-47711501D01*
X181801501Y-47878603D01*
X181665963Y-48072173D01*
X181659724Y-48085554D01*
X181617995Y-48130301D01*
X181557933Y-48141975D01*
X181502481Y-48116116D01*
X181480276Y-48085554D01*
X181474036Y-48072173D01*
X181435306Y-48016861D01*
X181349692Y-47894590D01*
X181338498Y-47878603D01*
X181338497Y-47878602D01*
X181338495Y-47878599D01*
X181171401Y-47711505D01*
X181171397Y-47711502D01*
X181171396Y-47711501D01*
X180978458Y-47576405D01*
X180977830Y-47575965D01*
X180960028Y-47567664D01*
X180936184Y-47556545D01*
X180763663Y-47476097D01*
X180535408Y-47414937D01*
X180535407Y-47414936D01*
X180535400Y-47414935D01*
X180300004Y-47394341D01*
X180299996Y-47394341D01*
X180064599Y-47414935D01*
X179836332Y-47476098D01*
X179622181Y-47575959D01*
X179622173Y-47575963D01*
X179428603Y-47711501D01*
X179261501Y-47878603D01*
X179125963Y-48072173D01*
X179125962Y-48072176D01*
X179119445Y-48086150D01*
X179077714Y-48130895D01*
X179017652Y-48142566D01*
X178962201Y-48116705D01*
X178939997Y-48086141D01*
X178933601Y-48072425D01*
X178933601Y-48072424D01*
X178798113Y-47878926D01*
X178631073Y-47711886D01*
X178437577Y-47576399D01*
X178395000Y-47556545D01*
X178395000Y-49286000D01*
X178376093Y-49344191D01*
X178326593Y-49380155D01*
X178296000Y-49385000D01*
X177224000Y-49385000D01*
X177165809Y-49366093D01*
X177129845Y-49316593D01*
X177125000Y-49286000D01*
X177125000Y-48821889D01*
X177260000Y-48821889D01*
X177300507Y-48959844D01*
X177378239Y-49080798D01*
X177486900Y-49174952D01*
X177617685Y-49234680D01*
X177724237Y-49250000D01*
X177795763Y-49250000D01*
X177902315Y-49234680D01*
X178033100Y-49174952D01*
X178141761Y-49080798D01*
X178219493Y-48959844D01*
X178260000Y-48821889D01*
X178260000Y-48678111D01*
X178219493Y-48540156D01*
X178141761Y-48419202D01*
X178033100Y-48325048D01*
X177902315Y-48265320D01*
X177795763Y-48250000D01*
X177724237Y-48250000D01*
X177617685Y-48265320D01*
X177486900Y-48325048D01*
X177378239Y-48419202D01*
X177300507Y-48540156D01*
X177260000Y-48678111D01*
X177260000Y-48821889D01*
X177125000Y-48821889D01*
X177125000Y-47556545D01*
X177124999Y-47556545D01*
X177082425Y-47576398D01*
X177082413Y-47576405D01*
X176888926Y-47711886D01*
X176721886Y-47878926D01*
X176586398Y-48072424D01*
X176580000Y-48086146D01*
X176538271Y-48130893D01*
X176478209Y-48142567D01*
X176422757Y-48116708D01*
X176400552Y-48086145D01*
X176394038Y-48072177D01*
X176394036Y-48072173D01*
X176355306Y-48016861D01*
X176269692Y-47894590D01*
X176258498Y-47878603D01*
X176258497Y-47878602D01*
X176258495Y-47878599D01*
X176091401Y-47711505D01*
X176091397Y-47711502D01*
X176091396Y-47711501D01*
X175898458Y-47576405D01*
X175897830Y-47575965D01*
X175880028Y-47567664D01*
X175856184Y-47556545D01*
X175683663Y-47476097D01*
X175455408Y-47414937D01*
X175455407Y-47414936D01*
X175455400Y-47414935D01*
X175220004Y-47394341D01*
X175219996Y-47394341D01*
X174984599Y-47414935D01*
X174756332Y-47476098D01*
X174542181Y-47575959D01*
X174542173Y-47575963D01*
X174348603Y-47711501D01*
X174181501Y-47878603D01*
X174045963Y-48072173D01*
X174039724Y-48085554D01*
X173997995Y-48130301D01*
X173937933Y-48141975D01*
X173882481Y-48116116D01*
X173860276Y-48085554D01*
X173854036Y-48072173D01*
X173815306Y-48016861D01*
X173729692Y-47894590D01*
X173718498Y-47878603D01*
X173718497Y-47878602D01*
X173718495Y-47878599D01*
X173551401Y-47711505D01*
X173551397Y-47711502D01*
X173551396Y-47711501D01*
X173358458Y-47576405D01*
X173357830Y-47575965D01*
X173340028Y-47567664D01*
X173316184Y-47556545D01*
X173143663Y-47476097D01*
X172915408Y-47414937D01*
X172915407Y-47414936D01*
X172915400Y-47414935D01*
X172680004Y-47394341D01*
X172679996Y-47394341D01*
X172444599Y-47414935D01*
X172216332Y-47476098D01*
X172002181Y-47575959D01*
X172002173Y-47575963D01*
X171808603Y-47711501D01*
X171641501Y-47878603D01*
X171505963Y-48072173D01*
X171505962Y-48072176D01*
X171499445Y-48086150D01*
X171457714Y-48130895D01*
X171397652Y-48142566D01*
X171342201Y-48116705D01*
X171319997Y-48086141D01*
X171313601Y-48072425D01*
X171313601Y-48072424D01*
X171178113Y-47878926D01*
X171011073Y-47711886D01*
X170817577Y-47576399D01*
X170775000Y-47556545D01*
X170775000Y-49286000D01*
X170756093Y-49344191D01*
X170706593Y-49380155D01*
X170676000Y-49385000D01*
X169604000Y-49385000D01*
X169545809Y-49366093D01*
X169509845Y-49316593D01*
X169505000Y-49286000D01*
X169505000Y-48821889D01*
X169640000Y-48821889D01*
X169680507Y-48959844D01*
X169758239Y-49080798D01*
X169866900Y-49174952D01*
X169997685Y-49234680D01*
X170104237Y-49250000D01*
X170175763Y-49250000D01*
X170282315Y-49234680D01*
X170413100Y-49174952D01*
X170521761Y-49080798D01*
X170599493Y-48959844D01*
X170640000Y-48821889D01*
X170640000Y-48678111D01*
X170599493Y-48540156D01*
X170521761Y-48419202D01*
X170413100Y-48325048D01*
X170282315Y-48265320D01*
X170175763Y-48250000D01*
X170104237Y-48250000D01*
X169997685Y-48265320D01*
X169866900Y-48325048D01*
X169758239Y-48419202D01*
X169680507Y-48540156D01*
X169640000Y-48678111D01*
X169640000Y-48821889D01*
X169505000Y-48821889D01*
X169505000Y-47556545D01*
X169504999Y-47556545D01*
X169462425Y-47576398D01*
X169462413Y-47576405D01*
X169268926Y-47711886D01*
X169101886Y-47878926D01*
X168966398Y-48072424D01*
X168960000Y-48086146D01*
X168918271Y-48130893D01*
X168858209Y-48142567D01*
X168802757Y-48116708D01*
X168780552Y-48086145D01*
X168774038Y-48072177D01*
X168774036Y-48072173D01*
X168735306Y-48016861D01*
X168649692Y-47894590D01*
X168638498Y-47878603D01*
X168638497Y-47878602D01*
X168638495Y-47878599D01*
X168471401Y-47711505D01*
X168471397Y-47711502D01*
X168471396Y-47711501D01*
X168278458Y-47576405D01*
X168277830Y-47575965D01*
X168260028Y-47567664D01*
X168236184Y-47556545D01*
X168063663Y-47476097D01*
X167835408Y-47414937D01*
X167835407Y-47414936D01*
X167835400Y-47414935D01*
X167600004Y-47394341D01*
X167599996Y-47394341D01*
X167364599Y-47414935D01*
X167136332Y-47476098D01*
X166922181Y-47575959D01*
X166922173Y-47575963D01*
X166728603Y-47711501D01*
X166561501Y-47878603D01*
X166425963Y-48072173D01*
X166419724Y-48085554D01*
X166377995Y-48130301D01*
X166317933Y-48141975D01*
X166262481Y-48116116D01*
X166240276Y-48085554D01*
X166234036Y-48072173D01*
X166195306Y-48016861D01*
X166109692Y-47894590D01*
X166098498Y-47878603D01*
X166098497Y-47878602D01*
X166098495Y-47878599D01*
X165931401Y-47711505D01*
X165931397Y-47711502D01*
X165931396Y-47711501D01*
X165738458Y-47576405D01*
X165737830Y-47575965D01*
X165720028Y-47567664D01*
X165696184Y-47556545D01*
X165523663Y-47476097D01*
X165295408Y-47414937D01*
X165295407Y-47414936D01*
X165295400Y-47414935D01*
X165060004Y-47394341D01*
X165059996Y-47394341D01*
X164824599Y-47414935D01*
X164596332Y-47476098D01*
X164382181Y-47575959D01*
X164382173Y-47575963D01*
X164188603Y-47711501D01*
X164021501Y-47878603D01*
X163885963Y-48072173D01*
X163879724Y-48085554D01*
X163837995Y-48130301D01*
X163777933Y-48141975D01*
X163722481Y-48116116D01*
X163700276Y-48085554D01*
X163694036Y-48072173D01*
X163655306Y-48016861D01*
X163569692Y-47894590D01*
X163558498Y-47878603D01*
X163558497Y-47878602D01*
X163558495Y-47878599D01*
X163391401Y-47711505D01*
X163391397Y-47711502D01*
X163391396Y-47711501D01*
X163198458Y-47576405D01*
X163197830Y-47575965D01*
X163180028Y-47567664D01*
X163156184Y-47556545D01*
X162983663Y-47476097D01*
X162755408Y-47414937D01*
X162755407Y-47414936D01*
X162755400Y-47414935D01*
X162520004Y-47394341D01*
X162519996Y-47394341D01*
X162284599Y-47414935D01*
X162056332Y-47476098D01*
X161842181Y-47575959D01*
X161842173Y-47575963D01*
X161648603Y-47711501D01*
X161481501Y-47878603D01*
X161345963Y-48072173D01*
X161345962Y-48072176D01*
X161339445Y-48086150D01*
X161297714Y-48130895D01*
X161237652Y-48142566D01*
X161182201Y-48116705D01*
X161159997Y-48086141D01*
X161153601Y-48072425D01*
X161153601Y-48072424D01*
X161018113Y-47878926D01*
X160851073Y-47711886D01*
X160657577Y-47576399D01*
X160615000Y-47556545D01*
X160615000Y-49286000D01*
X160596093Y-49344191D01*
X160546593Y-49380155D01*
X160516000Y-49385000D01*
X159444000Y-49385000D01*
X159385809Y-49366093D01*
X159349845Y-49316593D01*
X159345000Y-49286000D01*
X159345000Y-48821889D01*
X159480000Y-48821889D01*
X159520507Y-48959844D01*
X159598239Y-49080798D01*
X159706900Y-49174952D01*
X159837685Y-49234680D01*
X159944237Y-49250000D01*
X160015763Y-49250000D01*
X160122315Y-49234680D01*
X160253100Y-49174952D01*
X160361761Y-49080798D01*
X160439493Y-48959844D01*
X160480000Y-48821889D01*
X160480000Y-48678111D01*
X160439493Y-48540156D01*
X160361761Y-48419202D01*
X160253100Y-48325048D01*
X160122315Y-48265320D01*
X160015763Y-48250000D01*
X159944237Y-48250000D01*
X159837685Y-48265320D01*
X159706900Y-48325048D01*
X159598239Y-48419202D01*
X159520507Y-48540156D01*
X159480000Y-48678111D01*
X159480000Y-48821889D01*
X159345000Y-48821889D01*
X159345000Y-47556545D01*
X159344999Y-47556545D01*
X159302425Y-47576398D01*
X159302413Y-47576405D01*
X159108926Y-47711886D01*
X158941886Y-47878926D01*
X158806398Y-48072424D01*
X158800000Y-48086146D01*
X158758271Y-48130893D01*
X158698209Y-48142567D01*
X158642757Y-48116708D01*
X158620552Y-48086145D01*
X158614038Y-48072177D01*
X158614036Y-48072173D01*
X158575306Y-48016861D01*
X158489692Y-47894590D01*
X158478498Y-47878603D01*
X158478497Y-47878602D01*
X158478495Y-47878599D01*
X158311401Y-47711505D01*
X158311397Y-47711502D01*
X158311396Y-47711501D01*
X158118458Y-47576405D01*
X158117830Y-47575965D01*
X158100028Y-47567664D01*
X158076184Y-47556545D01*
X157903663Y-47476097D01*
X157675408Y-47414937D01*
X157675407Y-47414936D01*
X157675400Y-47414935D01*
X157440004Y-47394341D01*
X157439996Y-47394341D01*
X157204599Y-47414935D01*
X156976332Y-47476098D01*
X156762181Y-47575959D01*
X156762173Y-47575963D01*
X156568603Y-47711501D01*
X156568599Y-47711504D01*
X156568599Y-47711505D01*
X156559598Y-47720505D01*
X156505084Y-47748281D01*
X156489597Y-47749500D01*
X155850403Y-47749500D01*
X155792212Y-47730593D01*
X155780405Y-47720509D01*
X155771401Y-47711505D01*
X155771397Y-47711502D01*
X155771396Y-47711501D01*
X155578458Y-47576405D01*
X155577830Y-47575965D01*
X155560028Y-47567664D01*
X155536184Y-47556545D01*
X155363663Y-47476097D01*
X155135408Y-47414937D01*
X155135407Y-47414936D01*
X155135400Y-47414935D01*
X154900004Y-47394341D01*
X154899996Y-47394341D01*
X154664599Y-47414935D01*
X154436332Y-47476098D01*
X154222181Y-47575959D01*
X154222173Y-47575963D01*
X154028603Y-47711501D01*
X154028599Y-47711504D01*
X154028599Y-47711505D01*
X154019598Y-47720505D01*
X153965084Y-47748281D01*
X153949597Y-47749500D01*
X153710635Y-47749500D01*
X153621561Y-47747243D01*
X153621559Y-47747243D01*
X153621556Y-47747243D01*
X153621553Y-47747243D01*
X153621546Y-47747244D01*
X153560708Y-47758148D01*
X153556984Y-47758671D01*
X153495481Y-47764926D01*
X153495474Y-47764927D01*
X153461946Y-47775447D01*
X153455857Y-47776941D01*
X153421261Y-47783143D01*
X153363849Y-47806074D01*
X153360308Y-47807335D01*
X153301330Y-47825841D01*
X153270607Y-47842893D01*
X153264943Y-47845583D01*
X153232308Y-47858619D01*
X153232298Y-47858624D01*
X153180682Y-47892641D01*
X153177466Y-47894590D01*
X153123426Y-47924584D01*
X153123420Y-47924588D01*
X153096743Y-47947488D01*
X153091738Y-47951261D01*
X153062400Y-47970598D01*
X153018693Y-48014305D01*
X153015934Y-48016861D01*
X152969023Y-48057133D01*
X152947514Y-48084921D01*
X152943369Y-48089627D01*
X151701532Y-49331466D01*
X151636948Y-49392858D01*
X151601633Y-49443596D01*
X151599368Y-49446599D01*
X151560306Y-49494506D01*
X151560300Y-49494515D01*
X151544030Y-49525661D01*
X151540782Y-49531022D01*
X151520704Y-49559870D01*
X151520702Y-49559873D01*
X151496328Y-49616674D01*
X151494714Y-49620071D01*
X151481354Y-49645648D01*
X151437654Y-49688473D01*
X151377129Y-49697432D01*
X151322896Y-49669105D01*
X151300581Y-49633691D01*
X151299067Y-49629530D01*
X151297780Y-49625449D01*
X151273903Y-49536337D01*
X151234914Y-49452726D01*
X151233277Y-49448775D01*
X151225852Y-49428376D01*
X151215004Y-49409587D01*
X151213017Y-49405768D01*
X151174037Y-49322174D01*
X151170129Y-49316593D01*
X151121115Y-49246593D01*
X151118807Y-49242969D01*
X151107968Y-49224195D01*
X151107967Y-49224193D01*
X151094009Y-49207559D01*
X151091420Y-49204185D01*
X151038495Y-49128599D01*
X151038492Y-49128596D01*
X150973266Y-49063369D01*
X150970348Y-49060185D01*
X150956424Y-49043591D01*
X150956422Y-49043589D01*
X150956417Y-49043583D01*
X150939821Y-49029657D01*
X150936635Y-49026738D01*
X150871401Y-48961505D01*
X150871397Y-48961502D01*
X150795836Y-48908594D01*
X150792408Y-48905963D01*
X150775807Y-48892033D01*
X150757034Y-48881194D01*
X150753390Y-48878873D01*
X150753387Y-48878871D01*
X150732419Y-48864189D01*
X150677831Y-48825965D01*
X150677821Y-48825960D01*
X150594222Y-48786977D01*
X150590389Y-48784982D01*
X150571624Y-48774148D01*
X150571621Y-48774147D01*
X150551247Y-48766731D01*
X150547273Y-48765085D01*
X150501256Y-48743627D01*
X150463664Y-48726097D01*
X150463654Y-48726093D01*
X150374564Y-48702222D01*
X150370446Y-48700923D01*
X150353691Y-48694826D01*
X150350073Y-48693509D01*
X150347527Y-48693060D01*
X150328711Y-48689741D01*
X150324497Y-48688807D01*
X150235403Y-48664935D01*
X150143532Y-48656898D01*
X150139249Y-48656334D01*
X150117893Y-48652568D01*
X150117885Y-48652568D01*
X150096193Y-48652568D01*
X150091892Y-48652380D01*
X150024834Y-48646513D01*
X150000003Y-48644341D01*
X149999997Y-48644341D01*
X149975165Y-48646513D01*
X149908107Y-48652380D01*
X149903807Y-48652568D01*
X149882112Y-48652568D01*
X149860748Y-48656334D01*
X149856466Y-48656898D01*
X149764599Y-48664935D01*
X149675505Y-48688807D01*
X149671290Y-48689741D01*
X149649925Y-48693509D01*
X149649922Y-48693510D01*
X149629538Y-48700928D01*
X149625420Y-48702227D01*
X149536336Y-48726097D01*
X149452728Y-48765082D01*
X149448741Y-48766734D01*
X149428377Y-48774147D01*
X149409600Y-48784987D01*
X149405772Y-48786980D01*
X149350310Y-48812843D01*
X149322171Y-48825965D01*
X149322169Y-48825965D01*
X149322167Y-48825967D01*
X149246611Y-48878871D01*
X149242969Y-48881191D01*
X149224192Y-48892032D01*
X149224191Y-48892033D01*
X149207585Y-48905968D01*
X149204159Y-48908596D01*
X149128603Y-48961501D01*
X149063373Y-49026730D01*
X149060190Y-49029646D01*
X149043590Y-49043576D01*
X149043576Y-49043590D01*
X149029646Y-49060190D01*
X149026730Y-49063373D01*
X148961501Y-49128603D01*
X148908596Y-49204159D01*
X148905968Y-49207585D01*
X148892033Y-49224191D01*
X148892032Y-49224192D01*
X148881191Y-49242969D01*
X148878871Y-49246611D01*
X148825967Y-49322167D01*
X148825965Y-49322169D01*
X148825965Y-49322171D01*
X148821631Y-49331466D01*
X148786980Y-49405772D01*
X148784987Y-49409600D01*
X148774147Y-49428377D01*
X148766734Y-49448741D01*
X148765082Y-49452728D01*
X148726097Y-49536336D01*
X148702227Y-49625420D01*
X148700928Y-49629538D01*
X148693510Y-49649922D01*
X148693509Y-49649925D01*
X148689741Y-49671290D01*
X148688807Y-49675505D01*
X148664935Y-49764599D01*
X148656898Y-49856466D01*
X148656334Y-49860748D01*
X148652568Y-49882112D01*
X148652568Y-49903806D01*
X148652380Y-49908108D01*
X148646766Y-49972279D01*
X148644350Y-49999901D01*
X148644341Y-50000000D01*
X145000502Y-50000000D01*
X145000659Y-49996202D01*
X145009515Y-49782082D01*
X145018182Y-49583577D01*
X145018510Y-49579660D01*
X145045521Y-49362970D01*
X145071945Y-49162262D01*
X145072565Y-49158619D01*
X145117224Y-48945631D01*
X145125435Y-48908596D01*
X145161253Y-48747030D01*
X145162117Y-48743697D01*
X145224142Y-48535362D01*
X145285435Y-48340966D01*
X145286515Y-48337899D01*
X145365507Y-48135459D01*
X145443621Y-47946877D01*
X145444857Y-47944136D01*
X145540296Y-47748912D01*
X145634648Y-47567664D01*
X145635978Y-47565277D01*
X145747255Y-47378531D01*
X145857124Y-47206074D01*
X145858539Y-47203975D01*
X145984893Y-47027005D01*
X146109504Y-46864611D01*
X146110879Y-46862906D01*
X146251487Y-46696889D01*
X146390537Y-46545143D01*
X146545149Y-46390532D01*
X146696892Y-46251485D01*
X146862908Y-46110878D01*
X146864613Y-46109503D01*
X147027007Y-45984892D01*
X147203977Y-45858538D01*
X147206076Y-45857123D01*
X147378533Y-45747254D01*
X147565279Y-45635978D01*
X147567673Y-45634644D01*
X147748914Y-45540295D01*
X147944137Y-45444856D01*
X147946884Y-45443618D01*
X148135461Y-45365506D01*
X148337901Y-45286514D01*
X148340968Y-45285434D01*
X148535293Y-45224162D01*
X148743721Y-45162111D01*
X148747033Y-45161252D01*
X148945573Y-45117236D01*
X149158594Y-45072570D01*
X149162269Y-45071944D01*
X149363014Y-45045515D01*
X149579666Y-45018510D01*
X149583602Y-45018179D01*
X149781320Y-45009546D01*
X150000002Y-45000502D01*
X150000002Y-45000501D01*
X150000048Y-45000500D01*
X150000502Y-45000500D01*
X207999500Y-45000500D01*
X208000000Y-45000500D01*
X208217318Y-45009488D01*
G37*
%TD.AperFunction*%
%TD*%
M02*
